<svg width="189" height="30" viewBox="0 0 189 30" fill="none" xmlns="http://www.w3.org/2000/svg">
<path fill-rule="evenodd" clip-rule="evenodd" d="M26.8094 29.0406C26.1368 29.0406 25.5525 28.5656 25.4091 27.9028V27.8918H23.0276V27.9028C22.8843 28.5656 22.2999 29.0406 21.6273 29.0406H19.0032C18.0329 29.0406 17.5919 28.3005 17.5919 27.6046C17.5919 27.229 17.7132 26.8755 17.9447 26.6214C18.1983 26.3232 18.5622 26.1685 19.0032 26.1685H21.6273C22.2999 26.1685 22.8843 26.6435 23.0276 27.3063V27.3174H25.4091V27.3063C25.5525 26.6435 26.1368 26.1685 26.8094 26.1685H42.5762C40.0623 28.0464 37.0744 29.0406 33.9541 29.0406H26.8094ZM14.3724 29.0406C13.4021 29.0406 12.9611 28.3005 12.9611 27.6046C12.9611 27.229 13.0824 26.8755 13.3139 26.6214C13.5675 26.3232 13.9424 26.1685 14.3724 26.1685C15.3427 26.1685 15.7837 26.9086 15.7837 27.6046C15.7837 28.3005 15.3427 29.0406 14.3724 29.0406ZM19.5765 24.6773C18.904 24.6773 18.3196 24.2023 18.1763 23.5395V23.5285H15.2765V23.5395C15.1332 24.2023 14.5488 24.6773 13.8763 24.6773H7.64673C6.67647 24.6773 6.23544 23.9372 6.23544 23.2413C6.23544 22.5454 6.67647 21.8053 7.64673 21.8053H13.8763C14.5488 21.8053 15.1332 22.2803 15.2765 22.943V22.9541H18.1763V22.943C18.3196 22.2803 18.904 21.8053 19.5765 21.8053H46.4793C45.8729 22.8436 45.1342 23.8157 44.2852 24.6773H19.5765ZM16.346 20.314C15.3757 20.314 14.9347 19.5739 14.9347 18.878C14.9347 18.5025 15.056 18.149 15.2875 17.8949C15.5411 17.5967 15.905 17.442 16.346 17.442H48.1552C47.9567 18.4251 47.648 19.3862 47.2401 20.314H16.346ZM23.9317 15.9508C23.2591 15.9508 22.6748 15.4758 22.5315 14.813V14.802H20.1389V14.813C19.9955 15.4758 19.4112 15.9508 18.7386 15.9508H11.9026C10.9324 15.9508 10.4914 15.2107 10.4914 14.5148C10.4914 13.8188 10.9324 13.0787 11.9026 13.0787H18.7386C19.4112 13.0787 19.9955 13.5537 20.1389 14.2165V14.2276H22.5315V14.2165C22.6748 13.5537 23.2591 13.0787 23.9317 13.0787H48.3757C48.4749 14.0287 48.4749 15.0008 48.3757 15.9508H23.9317ZM7.18364 15.9508C6.21338 15.9508 5.77235 15.2107 5.77235 14.5148C5.77235 13.8188 6.21338 13.0787 7.18364 13.0787C8.1539 13.0787 8.59493 13.8188 8.59493 14.5148C8.59493 15.2107 8.1539 15.9508 7.18364 15.9508ZM19.786 11.5986C19.1135 11.5986 18.5291 11.1236 18.3858 10.4608V10.4497H14.9127V10.4608C14.7693 11.1236 14.185 11.5986 13.5124 11.5986H1.47233C0.502062 11.5986 0.0610352 10.8585 0.0610352 10.1625C0.0610352 9.46663 0.502062 8.72653 1.47233 8.72653H13.5124C14.185 8.72653 14.7693 9.20152 14.9127 9.86429V9.87534H18.3858V9.86429C18.5291 9.20152 19.1135 8.72653 19.786 8.72653H47.2291C47.637 9.64337 47.9457 10.6154 48.1442 11.5986H19.786ZM30.4148 7.23529C29.7423 7.23529 29.1579 6.7603 29.0145 6.09753V6.08648H26.4897V6.09753C26.3463 6.7603 25.762 7.23529 25.0894 7.23529H17.4596C16.4894 7.23529 16.0483 6.49519 16.0483 5.79928C16.0483 5.10336 16.4894 4.36327 17.4596 4.36327H25.0894C25.762 4.36327 26.3463 4.83825 26.4897 5.50103V5.51207H29.0145V5.50103C29.1579 4.83825 29.7423 4.36327 30.4148 4.36327H44.2852C45.1231 5.22487 45.8619 6.1859 46.4683 7.23529H30.4148ZM24.0971 2.87202C23.4245 2.87202 22.8402 2.39703 22.6968 1.73426V1.72321H18.6614V1.73426C18.5181 2.39703 17.9337 2.87202 17.2612 2.87202H14.637C13.6668 2.87202 13.2257 2.13192 13.2257 1.43601C13.2257 0.740098 13.6668 0 14.637 0H17.2612C17.9337 0 18.5181 0.474988 18.6614 1.13776V1.14881H22.6968V1.13776C22.8402 0.474988 23.4245 0 24.0971 0H33.9541C34.0092 0.0110462 40.1505 1.09358 42.5762 2.87202H24.0971ZM9.8298 2.87202C8.85954 2.87202 8.41851 2.13192 8.41851 1.43601C8.41851 0.740098 8.85954 0 9.8298 0C10.8001 0 11.2411 0.740098 11.2411 1.43601C11.2411 2.13192 10.8001 2.87202 9.8298 2.87202Z" fill="white"/>
<path d="M58.7406 7.07129H64.044C65.4222 7.07129 66.635 7.34745 67.6824 7.89976C68.7409 8.45207 69.5568 9.22531 70.1412 10.2084C70.7256 11.1915 71.0122 12.3183 71.0122 13.5886C71.0122 14.8589 70.7256 15.9856 70.1412 16.9687C69.5568 17.9518 68.7409 18.7251 67.6824 19.2774C66.624 19.8297 65.4112 20.1059 64.044 20.1059H58.7406V7.07129ZM63.9668 18.9129C65.1024 18.9129 66.1058 18.6809 66.9547 18.228C67.8037 17.7751 68.4763 17.1455 68.9394 16.3501C69.4135 15.5438 69.645 14.6269 69.645 13.5886C69.645 12.5502 69.4135 11.6223 68.9394 10.827C68.4653 10.0206 67.8037 9.40205 66.9547 8.94915C66.0947 8.49625 65.1024 8.26428 63.9668 8.26428H60.1188V18.9129H63.9668Z" fill="white"/>
<path d="M73.8014 7.88784C73.614 7.70005 73.5258 7.47913 73.5258 7.21402C73.5258 6.971 73.614 6.75008 73.8014 6.56229C73.9888 6.3745 74.2204 6.28613 74.485 6.28613C74.7606 6.28613 74.9922 6.3745 75.1686 6.55124C75.356 6.72798 75.4442 6.94891 75.4442 7.19192C75.4442 7.46808 75.356 7.70005 75.1686 7.87679C74.9811 8.06458 74.7496 8.15295 74.485 8.15295C74.2204 8.16399 73.9888 8.07562 73.8014 7.88784ZM73.8234 10.307H75.1465V20.105H73.8234V10.307Z" fill="white"/>
<path d="M87.8717 10.3075V18.9125C87.8717 20.5805 87.4637 21.8066 86.6588 22.613C85.8429 23.4194 84.6191 23.817 82.9873 23.817C82.0832 23.817 81.2232 23.6845 80.4183 23.4194C79.6134 23.1543 78.9519 22.7787 78.4337 22.3148L79.1062 21.3095C79.5803 21.7293 80.1537 22.0607 80.8263 22.2927C81.4988 22.5246 82.2155 22.6461 82.9542 22.6461C84.1891 22.6461 85.1042 22.3589 85.6886 21.7845C86.273 21.2101 86.5596 20.3154 86.5596 19.0893V17.841C86.1517 18.4596 85.6114 18.9346 84.9499 19.2549C84.2883 19.5753 83.5496 19.741 82.7447 19.741C81.8296 19.741 80.9916 19.5421 80.2419 19.1334C79.4921 18.7247 78.9078 18.1614 78.4778 17.4434C78.0478 16.7254 77.8383 15.8969 77.8383 14.98C77.8383 14.0632 78.0478 13.2458 78.4778 12.5167C78.9078 11.7877 79.4921 11.2354 80.2309 10.8377C80.9696 10.44 81.8075 10.2412 82.7447 10.2412C83.5716 10.2412 84.3214 10.4069 84.994 10.7493C85.6665 11.0807 86.2068 11.5668 86.6148 12.2074V10.3296H87.8717V10.3075ZM84.7955 18.1061C85.3689 17.7968 85.8099 17.3771 86.1296 16.8358C86.4494 16.2946 86.6037 15.6649 86.6037 14.969C86.6037 14.2731 86.4494 13.6545 86.1296 13.1132C85.8099 12.572 85.3688 12.1522 84.8065 11.8429C84.2442 11.5336 83.6047 11.39 82.877 11.39C82.1714 11.39 81.5319 11.5336 80.9696 11.8319C80.4073 12.1301 79.9662 12.5499 79.6465 13.1022C79.3267 13.6435 79.1724 14.2731 79.1724 14.969C79.1724 15.6649 79.3267 16.2835 79.6465 16.8358C79.9662 17.3771 80.4073 17.8079 80.9696 18.1061C81.5319 18.4044 82.1714 18.559 82.877 18.559C83.5827 18.559 84.2222 18.4044 84.7955 18.1061Z" fill="white"/>
<path d="M91.5553 7.88784C91.3679 7.70005 91.2797 7.47913 91.2797 7.21402C91.2797 6.971 91.3679 6.75008 91.5553 6.56229C91.7427 6.3745 91.9743 6.28613 92.2389 6.28613C92.5146 6.28613 92.7461 6.3745 92.9225 6.55124C93.11 6.72798 93.1982 6.94891 93.1982 7.19192C93.1982 7.46808 93.11 7.70005 92.9225 7.87679C92.7351 8.06458 92.5035 8.15295 92.2389 8.15295C91.9743 8.16399 91.7427 8.07562 91.5553 7.88784ZM91.5774 10.307H92.9004V20.105H91.5774V10.307Z" fill="white"/>
<path d="M101.728 19.5086C101.486 19.7295 101.177 19.9062 100.813 20.0167C100.449 20.1382 100.063 20.1934 99.6665 20.1934C98.7513 20.1934 98.0457 19.9394 97.5495 19.4533C97.0534 18.9562 96.8108 18.2603 96.8108 17.3435V11.4227H95.0687V10.307H96.8108V8.16406H98.1339V10.307H101.111V11.4227H98.1339V17.2662C98.1339 17.8516 98.2772 18.2935 98.5749 18.6028C98.8616 18.9121 99.2806 19.0557 99.8318 19.0557C100.107 19.0557 100.372 19.0115 100.626 18.9231C100.879 18.8347 101.1 18.7132 101.287 18.5475L101.728 19.5086Z" fill="white"/>
<path d="M110.485 11.191C111.168 11.8317 111.51 12.7816 111.51 14.0299V20.1053H110.242V18.5809C109.944 19.089 109.503 19.4867 108.93 19.7739C108.357 20.0611 107.673 20.2047 106.879 20.2047C105.788 20.2047 104.917 19.9396 104.277 19.4204C103.638 18.9013 103.307 18.2053 103.307 17.3548C103.307 16.5263 103.605 15.8525 104.211 15.3444C104.807 14.8362 105.766 14.5822 107.078 14.5822H110.187V13.9857C110.187 13.1462 109.956 12.4944 109.481 12.0636C109.007 11.6218 108.324 11.4009 107.42 11.4009C106.802 11.4009 106.207 11.5003 105.633 11.7102C105.06 11.92 104.575 12.1962 104.167 12.5607L103.572 11.5776C104.068 11.1578 104.663 10.8265 105.358 10.5945C106.052 10.3625 106.78 10.252 107.552 10.252C108.82 10.23 109.801 10.5503 110.485 11.191ZM108.996 18.6472C109.526 18.3048 109.922 17.8077 110.187 17.167V15.5653H107.122C105.446 15.5653 104.608 16.1507 104.608 17.3106C104.608 17.885 104.829 18.3268 105.259 18.6582C105.689 18.9896 106.295 19.1553 107.078 19.1553C107.828 19.1553 108.456 18.9786 108.996 18.6472Z" fill="white"/>
<path d="M115.092 6.28613H116.415V20.105H115.092V6.28613Z" fill="white"/>
<path d="M134.412 13.5873H135.735V18.5581C135.128 19.0884 134.412 19.4971 133.574 19.7843C132.747 20.0715 131.865 20.2151 130.949 20.2151C129.648 20.2151 128.48 19.9279 127.432 19.3535C126.385 18.7791 125.569 17.9948 124.974 16.9785C124.378 15.9623 124.08 14.8356 124.08 13.5763C124.08 12.317 124.378 11.1903 124.974 10.174C125.569 9.15779 126.385 8.37351 127.432 7.79911C128.48 7.2247 129.648 6.9375 130.961 6.9375C131.953 6.9375 132.857 7.09215 133.695 7.41249C134.522 7.73283 135.227 8.19677 135.801 8.81536L134.941 9.68801C133.915 8.67176 132.603 8.16363 131.016 8.16363C129.957 8.16363 129.009 8.3956 128.16 8.85955C127.311 9.32349 126.649 9.97522 126.164 10.7926C125.679 11.6101 125.437 12.5379 125.437 13.5542C125.437 14.5705 125.679 15.4873 126.164 16.3158C126.649 17.1442 127.311 17.7849 128.149 18.2489C128.987 18.7238 129.935 18.9558 130.994 18.9558C132.328 18.9558 133.463 18.6244 134.401 17.9506V13.5873H134.412Z" fill="white"/>
<path d="M141.984 10.7376C142.602 10.4062 143.363 10.2295 144.267 10.2295V11.5109L143.947 11.4888C142.922 11.4888 142.117 11.8091 141.532 12.4387C140.948 13.0684 140.661 13.9631 140.661 15.1009V20.0938H139.338V10.3068H140.606V12.2289C140.904 11.5661 141.367 11.069 141.984 10.7376Z" fill="white"/>
<path d="M152.977 11.191C153.661 11.8317 154.002 12.7816 154.002 14.0299V20.1053H152.734V18.5809C152.437 19.089 151.996 19.4867 151.422 19.7739C150.849 20.0611 150.165 20.2047 149.372 20.2047C148.28 20.2047 147.409 19.9396 146.769 19.4204C146.13 18.9013 145.799 18.2053 145.799 17.3548C145.799 16.5263 146.097 15.8525 146.703 15.3444C147.299 14.8362 148.258 14.5822 149.581 14.5822H152.69V13.9857C152.69 13.1462 152.459 12.4944 151.985 12.0636C151.511 11.6218 150.827 11.4009 149.923 11.4009C149.305 11.4009 148.71 11.5003 148.137 11.7102C147.563 11.92 147.078 12.1962 146.67 12.5607L146.075 11.5776C146.571 11.1578 147.166 10.8265 147.861 10.5945C148.556 10.3625 149.283 10.252 150.055 10.252C151.312 10.23 152.293 10.5503 152.977 11.191ZM151.488 18.6472C152.018 18.3048 152.415 17.8077 152.679 17.167V15.5653H149.614C147.938 15.5653 147.1 16.1507 147.1 17.3106C147.1 17.885 147.321 18.3268 147.751 18.6582C148.181 18.9896 148.787 19.1553 149.57 19.1553C150.32 19.1553 150.959 18.9786 151.488 18.6472Z" fill="white"/>
<path d="M165.613 10.3076L161.258 20.1056H159.902L155.569 10.3076H156.947L160.607 18.6475L164.312 10.3076H165.613Z" fill="white"/>
<path d="M167.454 7.88784C167.266 7.70005 167.178 7.47913 167.178 7.21402C167.178 6.971 167.266 6.75008 167.454 6.56229C167.641 6.3745 167.873 6.28613 168.137 6.28613C168.402 6.28613 168.644 6.3745 168.821 6.55124C169.008 6.72798 169.096 6.94891 169.096 7.19192C169.096 7.46808 169.008 7.70005 168.821 7.87679C168.633 8.05353 168.402 8.15295 168.137 8.15295C167.873 8.15295 167.641 8.07562 167.454 7.88784ZM167.476 10.307H168.799V20.105H167.476V10.307Z" fill="white"/>
<path d="M177.631 19.5086C177.388 19.7295 177.079 19.9062 176.715 20.0167C176.352 20.1382 175.966 20.1934 175.569 20.1934C174.654 20.1934 173.948 19.9394 173.452 19.4533C172.956 18.9562 172.713 18.2603 172.713 17.3435V11.4227H170.971V10.307H172.713V8.16406H174.036V10.307H177.013V11.4227H174.036V17.2662C174.036 17.8516 174.18 18.2935 174.477 18.6028C174.764 18.9121 175.183 19.0557 175.734 19.0557C176.01 19.0557 176.274 19.0115 176.528 18.9231C176.782 18.8347 177.002 18.7132 177.19 18.5475L177.631 19.5086Z" fill="white"/>
<path d="M188.06 10.3069L183.176 21.2759C182.779 22.1927 182.316 22.8444 181.797 23.2311C181.279 23.6177 180.651 23.8055 179.923 23.8055C179.449 23.8055 179.008 23.7281 178.6 23.5845C178.192 23.4409 177.839 23.209 177.541 22.9107L178.159 21.9276C178.655 22.4247 179.25 22.6677 179.945 22.6677C180.386 22.6677 180.772 22.5462 181.092 22.2921C181.411 22.0381 181.698 21.6183 181.974 21.0218L182.404 20.0718L178.038 10.2959H179.416L183.098 18.6248L186.781 10.2959H188.06V10.3069Z" fill="white"/>
<path d="M119.622 20.3692C120.493 20.3692 121.199 19.662 121.199 18.7896C121.199 17.9172 120.493 17.21 119.622 17.21C118.751 17.21 118.045 17.9172 118.045 18.7896C118.045 19.662 118.751 20.3692 119.622 20.3692Z" fill="white"/>
</svg>
