<?xml version="1.0" encoding="UTF-8"?>
<svg id="Layer_1" data-name="Layer 1" xmlns="http://www.w3.org/2000/svg" viewBox="0 0 50 50">
  <defs>
    <style>
      .cls-1 {
        stroke-width: .2px;
      }

      .cls-1, .cls-2 {
        fill: none;
        stroke: #606060;
        stroke-miterlimit: 10;
      }

      .cls-2 {
        stroke-width: .15px;
      }
    </style>
  </defs>
  <g>
    <path class="cls-1" d="M48.97,25.47c-.05.19-.1.39-.15.58-.18.74-.48,1.42-.9,2.05-.33.51-.7,1-1.05,1.49-.21.29-.42.59-.64.87-.65.82-.91,1.76-.9,2.79,0,.52.02,1.03.03,1.55.01.91-.02,1.81-.23,2.7-.32,1.35-1.09,2.36-2.28,3.06-.8.47-1.67.75-2.55,1.03-.58.18-1.16.37-1.73.57-.63.22-1.16.61-1.56,1.14-.31.41-.6.84-.91,1.25-.47.62-.91,1.27-1.42,1.86-.74.86-1.65,1.49-2.78,1.7-.97.19-1.93.06-2.86-.22-.74-.23-1.48-.49-2.22-.72-.39-.12-.78-.23-1.17-.32-.63-.14-1.24-.05-1.85.13-.86.27-1.71.57-2.58.84-.87.27-1.75.44-2.67.35-.93-.08-1.74-.45-2.47-1.02-.62-.49-1.12-1.09-1.57-1.72-.41-.57-.82-1.14-1.21-1.72-.59-.88-1.4-1.44-2.41-1.75-.78-.23-1.55-.47-2.31-.75-.54-.2-1.07-.44-1.56-.73-1.26-.74-1.98-1.87-2.23-3.3-.16-.89-.18-1.8-.16-2.71.02-.7,0-1.4-.04-2.1-.03-.49-.21-.95-.48-1.35-.36-.53-.74-1.04-1.11-1.57-.4-.58-.81-1.15-1.18-1.75-.42-.69-.67-1.44-.76-2.24-.08-.74.05-1.46.3-2.16.27-.74.67-1.4,1.13-2.04.48-.67.98-1.33,1.46-2.01.34-.48.59-1,.63-1.59.04-.72.06-1.43.04-2.15-.02-1,0-2,.23-2.98.31-1.35,1.09-2.36,2.28-3.06.79-.46,1.64-.74,2.51-1.02.56-.18,1.13-.37,1.69-.55.72-.24,1.3-.68,1.74-1.28.36-.49.69-1,1.06-1.48.47-.62.93-1.25,1.47-1.82.82-.86,1.83-1.38,3.04-1.47.77-.06,1.53.06,2.26.27.85.25,1.7.53,2.53.83,1.06.38,2.1.36,3.16,0,.94-.33,1.89-.64,2.85-.91.83-.23,1.69-.28,2.55-.1,1.03.22,1.88.77,2.56,1.55.54.62,1.02,1.3,1.52,1.96.3.4.58.81.88,1.21.43.58.98,1,1.67,1.23.77.26,1.55.48,2.31.76.66.24,1.31.5,1.92.84,1.33.73,2.12,1.88,2.35,3.37.12.8.13,1.61.16,2.42.03.75.02,1.5.04,2.24.01.51.17.99.44,1.41.34.52.71,1.02,1.07,1.54.38.55.79,1.09,1.14,1.66.43.68.73,1.41.84,2.21,0,.07.06.14.09.21v.94ZM6.17,34.53s-.06,0-.09,0c.05.78.07,1.56.17,2.33.14,1.03.68,1.83,1.59,2.35.35.2.72.38,1.1.52.81.29,1.62.56,2.44.8,1.34.4,2.39,1.18,3.17,2.34.16.23.32.46.48.69.29.41.55.83.87,1.22.36.43.74.85,1.16,1.22.56.49,1.23.7,1.99.69.75-.01,1.45-.21,2.14-.44.77-.25,1.54-.52,2.31-.75.91-.28,1.84-.32,2.77-.05.57.16,1.13.35,1.7.52.75.22,1.48.48,2.24.64,1.08.23,2.08,0,2.91-.77.18-.17.37-.34.53-.53.34-.43.67-.86.99-1.3.36-.49.7-.99,1.06-1.49.64-.87,1.47-1.48,2.48-1.83.5-.17,1.01-.31,1.51-.49.76-.28,1.53-.53,2.26-.87.96-.45,1.54-1.25,1.75-2.29.07-.35.12-.71.13-1.07.02-.92,0-1.84,0-2.76,0-1.28.31-2.47,1.1-3.5.31-.41.62-.82.92-1.24.35-.5.72-.99,1.01-1.52.23-.43.41-.91.52-1.39.19-.79-.01-1.56-.4-2.25-.35-.62-.77-1.21-1.18-1.8-.41-.61-.86-1.19-1.26-1.8-.37-.57-.59-1.21-.63-1.89-.04-.84-.04-1.68-.08-2.52-.03-.7-.02-1.41-.11-2.1-.14-1.07-.69-1.9-1.65-2.41-.48-.26-.98-.47-1.5-.65-.79-.28-1.6-.51-2.4-.78-1.04-.35-1.87-.98-2.52-1.87-.18-.25-.37-.5-.55-.76-.35-.5-.68-1.01-1.06-1.48-.34-.42-.72-.83-1.12-1.18-.57-.5-1.26-.72-2.03-.7-.74.02-1.44.22-2.14.44-.76.24-1.51.5-2.27.74-1.01.31-2.03.31-3.04,0-.49-.15-.98-.32-1.47-.47-.73-.22-1.45-.47-2.2-.63-1.1-.24-2.11,0-2.95.78-.21.19-.41.38-.59.6-.38.49-.75,1-1.12,1.5-.31.43-.61.86-.93,1.29-.6.79-1.36,1.37-2.3,1.7-.63.22-1.27.43-1.91.63-.73.23-1.45.47-2.12.86-.81.47-1.35,1.15-1.56,2.07-.08.38-.16.77-.17,1.15-.02.94-.01,1.87,0,2.81,0,1.32-.34,2.53-1.15,3.59-.32.42-.65.84-.95,1.28-.36.53-.73,1.05-1.04,1.61-.64,1.17-.64,2.36.02,3.52.34.59.74,1.15,1.13,1.72.39.57.81,1.11,1.19,1.68.42.63.67,1.34.71,2.1.04.75.07,1.49.11,2.24Z"/>
    <path class="cls-1" d="M24.97,12.09c7.08,0,12.92,5.67,12.92,12.91,0,7.19-5.77,12.89-12.88,12.9-7.16.01-12.92-5.74-12.92-12.91,0-7.18,5.78-12.88,12.88-12.91ZM36.4,25.02c-.05-6.37-5.11-11.41-11.4-11.42-6.3,0-11.41,5.05-11.42,11.39-.01,6.28,5.01,11.41,11.39,11.42,6.32.01,11.36-5.05,11.43-11.39Z"/>
    <path class="cls-1" d="M36.97,16.68c.44-.17.89-.34,1.36-.53.13-.47.27-.96.43-1.51.47.35.68.83,1.05,1.17.49.1,1-.11,1.55-.02-.17.53-.55.87-.78,1.36.16.44.34.91.54,1.45-.58-.03-1.04-.25-1.56-.34-.37.29-.77.61-1.21.96-.23-.54-.07-1.07-.18-1.58-.4-.27-.81-.54-1.22-.81,0-.05.01-.1.02-.16Z"/>
    <path class="cls-1" d="M17.45,40.02c.04.51.33.97.31,1.51-.3,0-.51-.14-.74-.22-.23-.08-.46-.18-.71-.27-.42.27-.83.54-1.31.85-.09-.58.03-1.07-.02-1.61-.36-.3-.75-.62-1.17-.98.49-.3,1.01-.29,1.51-.5.18-.44.36-.9.57-1.42.45.39.6.91.95,1.28.49.11,1-.04,1.54.15-.26.48-.65.81-.93,1.22Z"/>
    <path class="cls-1" d="M16.11,13.09c-.21-.56-.39-1.01-.56-1.46-.49-.14-.96-.27-1.51-.43.36-.47.83-.68,1.18-1.06.07-.48-.16-.99,0-1.53.5.17.84.56,1.3.76.49-.09.92-.4,1.47-.49-.01.56-.27,1.01-.33,1.51.23.43.66.73.89,1.22-.5.22-1.01.1-1.5.18-.34.36-.49.88-.95,1.3Z"/>
    <path class="cls-1" d="M31.94,10.53c-.13-.47-.25-.95-.39-1.47.59.01,1.01.37,1.51.46.45-.2.81-.6,1.38-.8-.03.58-.06,1.07-.09,1.56.39.32.77.63,1.21.99-.51.33-1.05.29-1.52.52-.18.45-.36.91-.56,1.43-.44-.4-.6-.91-.96-1.31-.47-.02-.96-.05-1.54-.07.27-.55.69-.87.96-1.3Z"/>
    <path class="cls-1" d="M11.33,17.44c-.1.48.04.99-.16,1.52-.49-.24-.8-.65-1.22-.9-.52.03-.97.34-1.56.3.19-.51.37-.97.55-1.45-.27-.42-.54-.83-.84-1.29.55-.14,1.04-.02,1.54,0,.41-.31.6-.85,1.11-1.19.14.52.27.98.41,1.48.44.18.91.37,1.45.58-.39.45-.91.6-1.28.94Z"/>
    <path class="cls-1" d="M6.83,25.9c-.43-.23-.87-.45-1.37-.71.46-.39.98-.49,1.39-.8.16-.47.08-.99.33-1.51.43.3.71.7,1.12,1.05.45-.07.93-.14,1.43-.22.17.31-.1.5-.19.72-.1.24-.24.47-.36.72.12.23.23.45.34.67.11.22.21.44.34.7-.58.13-1.06-.17-1.66-.12-.28.3-.61.66-.98,1.06-.3-.51-.18-1.05-.38-1.57Z"/>
    <path class="cls-1" d="M24.82,9.8c-.46.14-.84.49-1.39.62-.07-.55.16-1.02.17-1.51-.3-.41-.76-.68-1.07-1.19.55-.09,1.03-.18,1.51-.26.32-.39.39-.94.81-1.36.14.26.26.47.37.68.12.22.22.44.34.67.49.09.98.17,1.53.26-.28.52-.76.77-1.06,1.21.07.45.14.93.22,1.47-.58-.05-.96-.45-1.45-.59Z"/>
    <path class="cls-1" d="M31.69,40.15c-.27-.42-.67-.74-.93-1.25.57-.05,1.06-.09,1.58-.13.26-.4.53-.81.85-1.29.35.48.4,1.02.66,1.47.47.13.94.26,1.5.42-.36.45-.82.68-1.17,1.03v1.59c-.53-.2-.89-.59-1.35-.8-.48.13-.91.41-1.44.5-.03-.56.27-1,.3-1.53Z"/>
    <path class="cls-1" d="M7.99,34.83c.22-.58.59-.93.81-1.39-.11-.49-.43-.91-.48-1.51.53.14.98.26,1.49.39.37-.29.77-.61,1.18-.93.23.25.12.53.15.78.04.25.04.49.06.77.41.27.82.54,1.29.86-.46.35-.99.4-1.44.65-.23.44-.19.98-.5,1.48-.39-.37-.64-.8-1.01-1.18-.48.03-.97.06-1.56.09Z"/>
    <path class="cls-1" d="M23.33,41.67c-.07-.46-.14-.95-.22-1.51.59.08.97.49,1.46.61.47-.14.85-.55,1.43-.6-.08.54-.15,1.01-.23,1.5.34.35.68.7,1.07,1.1-.52.28-1.04.18-1.55.36-.22.42-.45.86-.71,1.37-.4-.45-.5-.98-.81-1.38-.49-.09-.97-.17-1.52-.26.31-.5.75-.76,1.07-1.18Z"/>
    <path class="cls-1" d="M38.05,33.16c.03-.49.06-.98.1-1.54.53.21.82.64,1.29.91.43-.11.91-.23,1.39-.35.15.32-.05.52-.13.74-.08.24-.18.46-.27.71.2.46.59.82.78,1.35-.54.09-1.04-.01-1.55,0-.3.38-.61.76-.96,1.19-.32-.5-.3-1.05-.52-1.51-.44-.24-.96-.3-1.46-.64.47-.31.88-.58,1.32-.86Z"/>
    <path class="cls-1" d="M42.27,23.2c.08.49.16.97.24,1.44.41.31.93.42,1.35.77-.41.37-.92.47-1.35.78-.07.46-.15.94-.24,1.5-.51-.26-.75-.72-1.17-1.02-.49-.06-.99.21-1.56.16.15-.54.46-.93.65-1.43-.21-.42-.43-.86-.69-1.36.58-.14,1.08.19,1.61.12.33-.31.66-.63,1-.95.02-.02.06,0,.16-.01Z"/>
  </g>
  <g>
    <path class="cls-2" d="M15.07,22h1.56c.49,0,.86.04,1.12.11s.46.23.61.46.23.61.23,1.13c0,.35-.06.6-.16.73-.11.14-.33.24-.65.32.36.08.61.22.73.41.13.19.19.48.19.87v.56c0,.41-.05.71-.14.9-.09.2-.24.33-.44.4-.2.07-.62.11-1.25.11h-1.8v-6ZM16.63,23.03v1.33c.07,0,.12,0,.15,0,.15,0,.25-.04.29-.11.04-.08.06-.29.06-.65,0-.19-.02-.32-.05-.39-.03-.08-.08-.12-.14-.14-.06-.02-.16-.03-.32-.03ZM16.63,25.29v1.68c.22,0,.36-.04.42-.1s.09-.21.09-.46v-.56c0-.26-.03-.41-.08-.47s-.2-.09-.43-.09Z"/>
    <path class="cls-2" d="M19.26,22h1.1c.74,0,1.24.03,1.5.09s.47.2.64.44c.16.23.25.61.25,1.12,0,.47-.06.78-.17.94-.12.16-.34.26-.69.29.31.08.52.18.62.31.11.13.17.25.2.35.03.11.04.4.04.89v1.58h-1.45v-1.99c0-.32-.03-.52-.08-.6-.05-.08-.18-.11-.4-.11v2.71h-1.56v-6ZM20.82,23.03v1.33c.18,0,.3-.02.37-.07.07-.05.11-.2.11-.47v-.33c0-.19-.03-.31-.1-.37-.07-.06-.19-.09-.37-.09Z"/>
    <path class="cls-2" d="M26.05,22l.89,6h-1.59l-.08-1.08h-.56l-.09,1.08h-1.61l.8-6h2.26ZM25.22,25.86c-.08-.68-.16-1.52-.24-2.52-.16,1.15-.26,1.99-.3,2.52h.54Z"/>
    <path class="cls-2" d="M30.69,22v6h-1.37l-.81-2.73v2.73h-1.3v-6h1.3l.87,2.7v-2.7h1.3Z"/>
    <path class="cls-2" d="M31.32,22h1.17c.75,0,1.26.03,1.53.1.27.07.47.18.61.34.14.16.22.33.26.53s.05.58.05,1.14v2.1c0,.54-.03.9-.08,1.08-.05.18-.14.32-.26.43-.13.1-.28.17-.47.22-.19.04-.46.06-.84.06h-1.97v-6ZM32.88,23.03v3.95c.22,0,.36-.05.41-.14s.08-.34.08-.74v-2.33c0-.27,0-.45-.03-.52s-.06-.13-.12-.17-.18-.05-.35-.05Z"/>
  </g>
</svg>