<?xml version="1.0" encoding="UTF-8"?>
<svg id="Layer_1" data-name="Layer 1" xmlns="http://www.w3.org/2000/svg" viewBox="0 0 50 50">
  <defs>
    <style>
      .cls-1 {
        fill: none;
        stroke: #606060;
        stroke-miterlimit: 10;
        stroke-width: .2px;
      }
    </style>
  </defs>
  <path class="cls-1" d="M39.4,31c1.5-1.5,2.5-3.7,2.5-6,0-4.7-3.8-8.6-8.6-8.6s-8.6,3.8-8.6,8.6c0,2.3.9,4.5,2.5,6-5.5,1.5-8.9,5-9.1,9.4v6.6c0,.6.5,1.2,1.2,1.2h28c.6,0,1.2-.5,1.2-1.2v-6.6c-.2-4.4-3.6-7.9-9.1-9.4ZM27.1,25c0-3.4,2.8-6.2,6.2-6.2s6.2,2.8,6.2,6.2-2.8,6.2-6.2,6.2-6.2-2.8-6.2-6.2ZM46.1,45.9h-25.6v-5.4c.2-4.6,4.9-6.9,9.3-7.7,1.1.5,2.2.7,3.5.7s2.4-.3,3.5-.7c4.5.7,9.2,3.1,9.3,7.7v5.4Z"/>
  <g>
    <path class="cls-1" d="M12.8,8.9l7.7,4.6c.3.2.8.1,1-.2l2.7-4.5c.2-.3.1-.8-.2-1l-7.7-4.6C11.6.4,5.6,2,2.9,6.5c-2.7,4.6-1.2,10.5,3.4,13.3l7.7,4.6c.3.2.8.1,1-.3l2.7-4.5c.2-.3.1-.8-.2-1l-7.7-4.6c-1.4-.8-1.9-2.8-1.1-4.2.7-1.3,2.6-1.8,4.1-.9ZM20.6,7.5l1.9,1.1-1.9,3.2-1.9-1.1,1.9-3.2ZM14.1,18.4l1.9,1.1-1.9,3.3-1.9-1.1,1.9-3.3ZM8.9,15.3l4,2.4-1.9,3.2-4-2.4c-3.9-2.3-5.2-7.4-2.9-11.3,2.3-3.9,7.4-5.2,11.3-2.9l4,2.4-1.9,3.3-4-2.4c-2.1-1.3-4.9-.6-6.1,1.6-1.3,2.1-.6,4.9,1.5,6.1Z"/>
    <path class="cls-1" d="M23.9,12.9c.2-.3.6-.5,1-.2l.8.5.1-1.1c0-.2.2-.5.4-.6s.5-.1.7,0l1.8,1.1c.3.2.5.6.2,1-.2.3-.6.5-1,.2l-.8-.5-.1,1.1c0,.2-.2.5-.4.6-.2.1-.5.1-.7,0l-1.8-1.1c-.3-.2-.4-.7-.2-1h0Z"/>
    <path class="cls-1" d="M18.5,22c.2-.3.6-.5,1-.2l1.8,1.1c.2.1.3.4.3.6s-.1.5-.3.6l-1,.6.8.5c.3.2.5.6.2,1-.2.3-.6.5-1,.2l-1.8-1.1c-.2-.1-.3-.4-.3-.6s.1-.5.3-.6l1-.6-.7-.5c-.4-.2-.5-.7-.3-1h0Z"/>
  </g>
</svg>