<?xml version="1.0" encoding="UTF-8"?>
<svg id="Layer_1" data-name="Layer 1" xmlns="http://www.w3.org/2000/svg" viewBox="0 0 50 50">
  <defs>
    <style>
      .cls-1 {
        fill: none;
        stroke: #606060;
        stroke-miterlimit: 10;
        stroke-width: .2px;
      }
    </style>
  </defs>
  <path class="cls-1" d="M34.94,39c-.01-.21-.03-.35-.03-.5,0-1.12.01-2.24.01-3.35,0-1.18-.27-2.28-.92-3.28-.98-1.52-2.37-2.43-4.17-2.69-.45-.06-.91-.09-1.37-.09-2.54,0-5.09-.05-7.63.02-2.99.08-5.22,2.35-5.63,4.89-.06.35-.1.71-.1,1.06-.01,1.78,0,3.56,0,5.34,0,.1.02.2.03.34h6.64c-.32.34-5.28,3.74-6,4.14-5.82-3.37-9.95-11.51-7.25-19.9,2.79-8.66,11.71-13.83,20.79-11.5,8.82,2.26,13.63,10.62,12.92,17.91-1.56.15-3.12.31-4.73.47.19.47.52.8.78,1.18.27.41.57.8.85,1.2.27.39.54.77.81,1.15-.24.3-4.27,3.21-5,3.61ZM30.31,22.66c.06-2.85-2.31-5.31-5.25-5.36-2.97-.05-5.37,2.35-5.37,5.32,0,2.88,2.37,5.32,5.28,5.34,2.96.02,5.33-2.34,5.34-5.3Z"/>
  <path class="cls-1" d="M28.5,41.07c-4.11,2.79-8.2,5.56-12.32,8.36-.54-.8-1.06-1.57-1.57-2.33.3-.31,14.06-9.69,14.51-9.89,1.23,1.54,2.47,3.08,3.74,4.67,2.87-2.05,5.73-4.09,8.63-6.16-.69-.98-1.36-1.93-2.04-2.88.5-.17,9.44-1.03,9.98-.95-1.38,3.03-2.75,6.04-4.15,9.13-.72-.99-1.4-1.94-2.11-2.93-3.63,2.59-7.23,5.16-10.86,7.75-1.28-1.59-2.54-3.16-3.82-4.75Z"/>
  <path class="cls-1" d="M8.77,19.02c-.88-.63-1.75-1.26-2.65-1.9-.49.3-.92.64-1.37.96-.44.31-.88.62-1.3.92-.32-.13-.35-.17-.26-.44.2-.64.41-1.27.62-1.91.07-.23.15-.46.22-.69.07-.22.01-.38-.19-.52-.68-.48-1.35-.97-2.03-1.46-.14-.1-.3-.19-.34-.38.05-.23.23-.24.41-.24.44,0,.89,0,1.33,0,.4,0,.81,0,1.21,0,.13,0,.27-.01.42-.02.06-.14.12-.27.17-.41.27-.8.53-1.6.79-2.41.05-.15.09-.32.28-.36.19.02.25.16.31.32.26.8.53,1.61.79,2.41.02.05.03.1.05.15.06.21.19.3.41.3.78,0,1.56,0,2.34,0,.21,0,.43.02.62.03.14.29.15.32-.03.47-.26.21-.54.4-.81.6-.46.33-.91.66-1.37.99-.28.21-.31.27-.2.61.27.83.54,1.66.81,2.49.1.3.09.3-.22.5Z"/>
  <path class="cls-1" d="M23.41,4.57c.09-.2.19-.39.26-.59.32-.98.64-1.96.96-2.94.07-.22.11-.48.45-.47.24.09.26.33.33.53.3.91.6,1.83.9,2.75.07.22.16.44.26.68.22.02.42.04.62.04.98,0,1.97,0,2.95,0,.18,0,.37,0,.53,0,.18.41.18.45-.13.67-.53.39-1.07.78-1.6,1.17-.37.27-.74.54-1.11.81-.11.08-.2.18-.32.3.42,1.31.84,2.61,1.26,3.91-.11.1-.19.17-.31.28-.19-.11-.38-.21-.56-.34-.77-.56-1.53-1.12-2.3-1.68-.18-.13-.36-.24-.57-.37-.19.12-.36.21-.53.33-.84.61-1.67,1.22-2.51,1.83-.19.14-.38.32-.68.03.02-.13.03-.32.08-.48.31-1,.64-2,.96-2.99.17-.52.15-.58-.29-.89-.84-.61-1.68-1.21-2.52-1.81-.18-.13-.42-.23-.35-.5.08-.31.36-.25.59-.25,1.02,0,2.03,0,3.05,0,.17,0,.34,0,.56,0Z"/>
  <path class="cls-1" d="M46.87,18.85c-.11.07-.18.11-.25.16-.07-.04-.15-.07-.21-.11-.49-.35-.98-.71-1.46-1.07-.22-.16-.43-.32-.65-.47-.37-.26-.38-.26-.74,0-.68.5-1.37,1-2.05,1.49-.08.05-.16.1-.26.17-.09-.06-.19-.12-.27-.16,0-.08,0-.12,0-.16.26-.8.52-1.61.78-2.41.03-.1.07-.2.1-.31.08-.28.07-.33-.17-.51-.44-.33-.89-.65-1.33-.98-.28-.21-.56-.42-.85-.62-.14-.1-.24-.21-.16-.41.13-.15.32-.11.49-.11.78,0,1.56,0,2.34,0,.16,0,.32-.02.5-.03.07-.17.14-.33.2-.49.25-.75.49-1.5.74-2.25.05-.16.08-.35.29-.41.2.02.24.18.29.34.26.79.52,1.58.78,2.37.05.14.1.27.16.43.2.02.38.04.57.04.79,0,1.59,0,2.38,0,.19,0,.39-.01.44.23-.04.2-.2.29-.34.39-.64.47-1.28.93-1.92,1.4-.11.08-.21.17-.34.27.03.14.04.29.09.42.25.78.5,1.56.75,2.33.04.14.07.28.11.45Z"/>
  <path class="cls-1" d="M28.29,42.52c1.03,1.29,2.05,2.54,3.07,3.86-3.26,1.29-6.53,1.54-10.02.85,2.37-1.61,4.65-3.15,6.94-4.71Z"/>
</svg>