<?xml version="1.0" encoding="UTF-8"?>
<svg id="Layer_1" data-name="Layer 1" xmlns="http://www.w3.org/2000/svg" viewBox="0 0 50 50">
  <defs>
    <style>
      .cls-1 {
        fill: none;
        stroke: #606060;
        stroke-miterlimit: 10;
        stroke-width: .2px;
      }
    </style>
  </defs>
  <path class="cls-1" d="M24.65,48.8c-.23-.06-.46-.1-.68-.18-1.15-.39-1.96-1.49-2.03-2.71-.08-1.51.97-2.87,2.46-3.16.03,0,.06-.01.09-.02v-4.68c-3.18-.15-5.96-1.31-8.32-3.43-1.11,1.11-2.21,2.22-3.32,3.33,1.05,1.57.42,3.45-.81,4.27-1.28.85-2.99.65-4-.49-1.02-1.14-1.04-2.86-.06-4.02.98-1.16,2.76-1.48,4.14-.5,1.1-1.1,2.21-2.21,3.32-3.32-2.12-2.32-3.28-5.08-3.46-8.26-.05,0-.09,0-.14,0-1.49,0-2.97,0-4.46,0-.11,0-.14.03-.17.14-.32,1.26-1.39,2.17-2.68,2.3-1.61.15-3.07-1-3.31-2.61,0-.03-.02-.06-.02-.09,0-.23,0-.46,0-.69.06-.22.1-.45.17-.67.39-1.16,1.5-1.97,2.72-2.04,1.49-.08,2.82.94,3.14,2.38,0,.01,0,.02,0,.04q.06.27.33.27h4.24s.1,0,.16,0c.13-3.22,1.28-6.02,3.42-8.4-1.12-1.12-2.23-2.23-3.36-3.35-.77.5-1.63.65-2.54.4-.72-.2-1.29-.62-1.71-1.24-.85-1.25-.64-2.93.48-3.97,1.07-.99,2.76-1.05,3.92-.16,1.18.9,1.67,2.78.59,4.26,1.11,1.11,2.21,2.21,3.33,3.33,2.34-2.14,5.1-3.31,8.28-3.49v-4.74c-1.74-.36-2.68-2.04-2.41-3.54.25-1.42,1.53-2.63,3.22-2.52,1.48.09,2.68,1.26,2.83,2.74.15,1.47-.84,3.08-2.64,3.35v4.71c1.56.05,3.07.37,4.51.96,1.44.59,2.74,1.42,3.88,2.46,1.12-1.12,2.24-2.24,3.35-3.35-1.03-1.55-.45-3.41.77-4.25,1.28-.87,2.98-.69,4.02.46,1.02,1.11,1.05,2.84.07,4.02-.96,1.15-2.75,1.5-4.15.51-1.11,1.11-2.22,2.22-3.34,3.34,1.05,1.13,1.89,2.42,2.5,3.87.6,1.44.93,2.95.99,4.51h4.69c.08-.24.13-.49.23-.71.52-1.14,1.4-1.78,2.65-1.86,1.46-.09,2.74.85,3.12,2.26.49,1.83-.82,3.69-2.69,3.83-1.55.12-2.92-.9-3.25-2.42-.02-.08-.04-.11-.12-.11-1.51,0-3.02,0-4.52,0-.02,0-.05,0-.09,0-.15,3.18-1.3,5.95-3.43,8.31,1.11,1.11,2.21,2.21,3.33,3.32.82-.54,1.72-.69,2.67-.4.71.22,1.27.66,1.67,1.29.79,1.23.56,2.9-.54,3.9-1.09.99-2.79,1.04-3.94.13-1.15-.9-1.62-2.72-.6-4.19-1.1-1.1-2.21-2.21-3.32-3.31-2.36,2.15-5.14,3.32-8.36,3.48v4.67c.2.06.41.11.61.19,1.14.48,1.8,1.34,1.93,2.56.17,1.61-1,3.07-2.6,3.31-.03,0-.06.02-.09.02h-.69ZM13.48,25.02c0,6.33,5.11,11.45,11.37,11.52,6.43.07,11.55-5.07,11.66-11.3.12-6.53-5.21-11.85-11.74-11.73-6.21.12-11.27,5.19-11.29,11.51ZM10.32,12.4c1.14.01,2.1-.94,2.08-2.12-.02-1.09-.95-2.02-2.07-2.02-1.14,0-2.08.94-2.09,2.08s.94,2.07,2.07,2.07ZM39.67,12.4c1.14,0,2.08-.93,2.08-2.07,0-1.14-.94-2.08-2.07-2.08-1.15,0-2.07.93-2.07,2.1,0,1.12.94,2.05,2.07,2.05ZM45.73,27.08c1.15,0,2.09-.93,2.09-2.08,0-1.14-.94-2.07-2.09-2.07-1.11,0-2.05.94-2.06,2.04-.01,1.11.88,2.1,2.06,2.11ZM24.99,6.33c1.13,0,2.08-.93,2.08-2.04,0-1.16-.92-2.1-2.07-2.11-1.14,0-2.08.94-2.08,2.08,0,1.13.94,2.06,2.07,2.06ZM6.32,25.01c0-1.14-.92-2.08-2.05-2.08-1.16,0-2.1.93-2.1,2.08,0,1.14.94,2.07,2.09,2.07,1.12,0,2.06-.94,2.06-2.06ZM39.67,37.6c-1.14,0-2.1.95-2.07,2.15.02,1.07.98,2.01,2.08,2,1.15,0,2.08-.95,2.07-2.09,0-1.13-.95-2.06-2.08-2.06ZM12.4,39.67c0-1.12-.94-2.09-2.13-2.07-1.08.02-2.02.96-2.02,2.07,0,1.14.93,2.08,2.07,2.08,1.15,0,2.08-.93,2.08-2.08ZM27.07,45.74c0-1.02-.82-2.12-2.2-2.06-1.05.05-1.93.92-1.94,2.04-.01,1.16.93,2.11,2.07,2.11,1.14,0,2.08-.94,2.08-2.08Z"/>
  <path class="cls-1" d="M15.76,25c0-5.08,4.08-9.14,9.07-9.23,5.22-.09,9.48,4.16,9.4,9.38-.08,5-4.19,9.17-9.4,9.08-4.99-.08-9.06-4.16-9.06-9.23ZM19.52,24.5c0-.08.01-.15.02-.22,0-.07,0-.15,0-.22.07-.91.21-1.8.48-2.67.02-.08,0-.11-.06-.16-.37-.28-.74-.56-1.11-.85-.14-.11-.27-.25-.41-.38-1.01,1.34-1.57,2.83-1.68,4.5h2.76ZM16.76,25.5c.12,1.67.68,3.16,1.68,4.5.03-.02.04-.03.06-.05.45-.45.95-.85,1.48-1.19.07-.05.05-.1.04-.16-.22-.76-.37-1.54-.44-2.33-.02-.26-.04-.51-.06-.77h-2.76ZM31.56,20.01s-.03.02-.04.03c-.46.45-.96.86-1.5,1.21-.06.04-.07.08-.05.14.23.77.38,1.55.45,2.35.02.25.04.51.06.76h2.76c-.11-1.67-.67-3.16-1.67-4.49ZM31.55,30c1-1.33,1.56-2.83,1.68-4.49h-2.75c0,.06-.02.11-.02.16-.04,1-.2,1.98-.49,2.95-.02.07,0,.11.05.15.31.22.62.45.92.69.21.17.4.36.61.55ZM25.49,33.04c1.55-.92,2.57-2.25,3.24-3.88-1.03-.52-2.1-.81-3.24-.87v4.76ZM28.74,20.85c-.67-1.64-1.7-2.96-3.24-3.88v4.75c1.14-.07,2.22-.36,3.24-.87ZM24.49,33.04v-4.75c-1.15.07-2.22.36-3.24.88.68,1.64,1.7,2.96,3.24,3.87ZM21.27,20.84c1.02.51,2.09.81,3.23.87v-4.74c-1.37.76-2.59,2.2-3.23,3.86ZM24.5,25.51h-3.98c-.04.52.24,2.28.43,2.71,1.12-.54,2.31-.85,3.55-.92v-1.79ZM20.94,21.79c-.21.51-.49,2.41-.42,2.72h3.96v-1.8c-1.25-.07-2.42-.38-3.55-.92ZM29.05,21.79c-1.13.54-2.31.85-3.55.91v1.79h3.98c.04-.5-.23-2.2-.42-2.7ZM25.5,25.5v1.8c1.25.06,2.43.37,3.56.91.26-.89.39-1.79.42-2.71h-3.99ZM29.59,29.67c-.52,1.22-1.23,2.3-2.2,3.2,1.35-.41,2.51-1.11,3.49-2.11-.19-.26-.99-.94-1.29-1.09ZM30.89,19.25c-.77-.87-2.8-2.1-3.51-2.12.98.9,1.7,1.98,2.22,3.21.48-.32.9-.68,1.29-1.09ZM22.6,32.88c-.96-.91-1.68-1.98-2.2-3.21-.48.32-.9.67-1.3,1.08.99,1.01,2.15,1.72,3.5,2.12ZM19.1,19.25c.4.41.83.76,1.3,1.08.26-.61.57-1.19.94-1.72.37-.54.79-1.03,1.26-1.48-1.35.4-2.5,1.11-3.5,2.12Z"/>
</svg>