<?xml version="1.0" encoding="UTF-8"?>
<svg id="Layer_1" data-name="Layer 1" xmlns="http://www.w3.org/2000/svg" viewBox="0 0 50 50">
  <defs>
    <style>
      .cls-1 {
        fill: none;
        stroke: #606060;
        stroke-miterlimit: 10;
        stroke-width: .2px;
      }
    </style>
  </defs>
  <path class="cls-1" d="M31.11,13.97c1.33-1.39,3.03-2.03,4.81-2.51C31.8,4.07,22.07.14,13.2,4.26,4,8.52.34,19.5,4.99,28.42c2.45,4.69,6.32,7.73,11.48,8.99,5.16,1.25,9.94.25,14.36-2.71.45.55.91,1.11,1.38,1.7-.69.56-1.37,1.11-2.08,1.68.24.29.47.56.7.84,1.98,2.36,3.96,4.72,5.94,7.09.77.92,1.76,1.4,2.96,1.41,2.26,0,3.83-1.83,3.8-3.83-.02-.93-.33-1.75-.93-2.46-2.15-2.56-4.3-5.11-6.45-7.67-.04-.05-.09-.1-.15-.16-.62.5-1.24,1-1.86,1.5-.47-.57-.93-1.12-1.4-1.69,1.86-1.77,3.27-3.82,4.25-6.22-1.96.09-3.65-.53-5.09-1.81-2.39,4.77-6.17,7.4-11.56,7.37-3.46-.02-6.39-1.41-8.74-3.95-4.75-5.17-4.13-13.29,1.35-17.73,5.62-4.57,14.2-3.29,18.15,3.22Z"/>
  <path class="cls-1" d="M28.62,22.27c-.19-.45-.39-.88-.56-1.33-.17-.46-.3-.94-.44-1.42-.05-.16-.03-.3.09-.43,1.23-1.33,1.3-3.14.2-4.59-.77-1.02-1.77-1.75-2.88-2.34-1.19-.63-2.44-1.06-3.75-1.37-.05-.01-.1-.02-.17-.03-.02.19-.05.38-.07.56-.14,1.41-.22,2.81-.06,4.22.13,1.14.39,2.25,1.01,3.24.44.7.99,1.29,1.78,1.58.94.34,1.84.16,2.67-.37.07-.05.13-.11.18-.16.65.99.79,2.09.7,3.23-.02.27-.14.54-.24.8-.29.74.15,1.55.93,1.66.5.07.96-.17,1.23-.62.72-1.2,1.73-2.14,2.76-3.08.21.26.42.51.62.75.42.5.85,1,1.42,1.36,1.17.74,2.43.88,3.76.57,1.3-.31,2.43-.96,3.48-1.76,1.88-1.45,3.33-3.27,4.51-5.31.48-.82.87-1.68,1.19-2.57.06-.15.04-.21-.12-.27-1.84-.65-3.72-1.12-5.67-1.29-2.34-.2-4.63.03-6.78,1.03-2,.92-3.06,2.51-3.14,4.72-.02.44.09.88.14,1.32.01.08.04.15-.07.2-.98.42-1.87.99-2.68,1.68,0,0-.02,0-.07.03Z"/>
</svg>