<?xml version="1.0" encoding="UTF-8"?>
<svg id="Layer_1" data-name="Layer 1" xmlns="http://www.w3.org/2000/svg" viewBox="0 0 50 50">
  <defs>
    <style>
      .cls-1 {
        fill: none;
        stroke: #606060;
        stroke-miterlimit: 10;
        stroke-width: .2px;
      }
    </style>
  </defs>
  <g>
    <path class="cls-1" d="M16.72,2.84c-5.42.02-10.98,4.23-11.01,10.99-.02,6.53,5.06,11.09,11.01,11.11,6.78.02,11.22-5.7,11.04-11.05.14-6.06-5.04-11.07-11.04-11.05ZM17.88,18.83v1.53h-1.94v-1.46c-1.38-.08-2.72-.45-3.54-.96l1.04-2.37c.91.54,2.12.88,3.18.88.93,0,1.26-.19,1.26-.52,0-1.21-5.33-.24-5.33-3.83,0-1.55,1.13-2.86,3.39-3.18v-1.5h1.94v1.47c1.01.1,2.01.36,2.79.8l-.98,2.36c-.95-.49-1.84-.72-2.68-.72-.95,0-1.25.27-1.25.61,0,1.15,5.32.19,5.32,3.74,0,1.49-1.07,2.78-3.2,3.15Z"/>
    <path class="cls-1" d="M2.87,47.16c.04-.42.06-.62.08-.87.32-.03.6-.08.88-.08,14.69,0,29.37,0,44.06,0,.42,0,.94-.18,1.19.39,0,.36-.21.53-.54.54-.33.02-.66.01-1,.01-14.4,0-28.79,0-43.19,0h-1.49Z"/>
    <path class="cls-1" d="M21.37,31.72c-.21-.26-.38-.47-.61-.76,4.44-3.75,8.85-7.46,13.24-11.18,4.39-3.71,8.8-7.39,13.36-11.31-1.36-.15-2.44-.27-3.64-.4.09-.38.15-.62.22-.92,1.72.16,3.36.32,5,.48,0,.98-.3,4.22-.41,5.22-.29-.04-.52-.05-.79-.09.09-1.11.17-2.16.28-3.53-9.01,7.6-17.8,15.02-26.64,22.48Z"/>
    <path class="cls-1" d="M3.52,32.56c1.37.03,2.53,1.22,2.52,2.57-.01,1.42-1.25,2.6-2.67,2.54-1.38-.06-2.49-1.24-2.45-2.62.04-1.34,1.28-2.53,2.6-2.49Z"/>
    <path class="cls-1" d="M9.3,27.59c0-1.45,1.04-2.53,2.47-2.54,1.43-.02,2.51,1.04,2.54,2.47.03,1.45-1.11,2.68-2.54,2.62-1.56-.06-2.51-1.17-2.46-2.55Z"/>
    <path class="cls-1" d="M20.53,33.66c-.02,1.38-1.17,2.51-2.54,2.51-1.41,0-2.45-1.1-2.47-2.55-.03-1.68,1.34-2.58,2.6-2.56,1.44.03,2.44,1.14,2.42,2.6Z"/>
    <path class="cls-1" d="M8.64,29.71c.25.27.42.44.68.72-.91.83-1.81,1.64-2.77,2.51-.2-.26-.34-.44-.51-.66.27-.59.81-.91,1.24-1.33.41-.4.84-.77,1.36-1.25Z"/>
    <path class="cls-1" d="M14.69,29.97c.31.31.54.53.84.82-.23.25-.4.45-.64.72-.28-.25-.54-.47-.87-.76.22-.25.4-.45.68-.77Z"/>
  </g>
  <rect class="cls-1" x="13.67" y="38.53" width="6.05" height="6.33"/>
  <rect class="cls-1" x="22.38" y="32.05" width="6.05" height="12.81"/>
  <rect class="cls-1" x="31.1" y="26.32" width="6.05" height="18.55"/>
  <rect class="cls-1" x="39.8" y="19.56" width="6.05" height="25.3"/>
</svg>