<?xml version="1.0" encoding="utf-8"?>
<!-- Generator: Adobe Illustrator 24.3.0, SVG Export Plug-In . SVG Version: 6.00 Build 0)  -->
<svg version="1.1" id="Layer_1" xmlns="http://www.w3.org/2000/svg" xmlns:xlink="http://www.w3.org/1999/xlink" x="0px" y="0px"
	 viewBox="0 0 600 600" style="enable-background:new 0 0 600 600;" xml:space="preserve">
<style type="text/css">
	.st0{fill:none;stroke:#606060;stroke-width:0.5;stroke-miterlimit:10;}
</style>
<g>
	<path class="st0" d="M300.46,148.38c83.74,0.02,151.5,67.99,151.43,151.91c-0.06,83.94-67.76,151.38-151.86,151.27
		c-83.72-0.1-151.52-67.72-151.54-151.12C148.48,216.3,216.37,148.36,300.46,148.38z M397.46,370.92
		c33.86-44.24,33.73-115.72-16.5-160.61c-51.06-45.63-127.92-40.49-172.14,10.76c-42.76,49.56-33.51,116.24-5.93,148.87
		c0-7.1-0.12-13.53,0.02-19.95c0.38-16.76,10.21-29.58,26.28-34.51c6.76-2.08,13.51-4.21,20.26-6.35c6.83-2.17,13.64-4.39,20.3-6.54
		c-0.09-0.93-0.04-1.18-0.14-1.31c-0.61-0.77-1.2-1.55-1.89-2.25c-10.01-10.09-14.99-22.36-16.06-36.41
		c-2.22-29.17,18.29-54.19,45.67-55.62c31.58-1.66,55.78,26.46,51.21,59.21c-1.95,13.98-8.02,25.71-18.69,35.96
		c3.18,1.14,5.66,2.12,8.2,2.92c11.06,3.49,22.12,6.93,33.19,10.37c16.46,5.12,26.03,17.89,26.21,35.08
		C397.52,356.76,397.46,362.99,397.46,370.92z"/>
	<path class="st0" d="M549.47,377.76c-4.05,10.37-7.11,19.52-11.12,28.23c-30.28,65.89-79.42,111.87-146.88,138.32
		c-2.92,1.15-5.95,2.04-8.97,2.95c-6.43,1.94-13.01-1.44-15.11-7.71c-2.04-6.06,1.46-12.26,7.96-15.04
		c13.17-5.64,26.79-10.55,39.25-17.5c52.1-29.02,88.26-71.88,108.79-127.93c1.25-3.43,2.86-7.09,5.36-9.61
		c3.44-3.46,8.62-4.12,12.57-1.38C544.68,370.43,546.83,374.51,549.47,377.76z"/>
	<path class="st0" d="M233.64,535.19c0.05,9.2-7.91,14.6-16.59,11.76c-26.22-8.58-50.34-21.28-72.34-37.84
		c-43-32.36-73.49-73.95-91.11-124.89c-1.85-5.34-1.6-10.09,2.56-14.13c3.58-3.49,8.24-4.77,12.45-2.31
		c3.11,1.82,6.29,5.09,7.46,8.41c22.05,62.21,62.7,107.84,121.71,137.11c8.6,4.27,17.72,7.52,26.71,10.96
		C230.04,526.37,233.35,529.87,233.64,535.19z"/>
	<path class="st0" d="M220.12,52.38c7.1-0.09,11.93,3.58,13.18,8.88c1.4,5.93-1.34,11.35-7.18,13.91
		c-12.59,5.51-25.72,10.02-37.73,16.58c-53.67,29.28-90.96,72.85-111.57,130.52c-3.07,8.59-7.94,12.27-15.01,10.75
		c-7.48-1.61-11.11-8.59-8.41-16.51c12.03-35.32,30.72-66.7,56.18-93.96c29.12-31.17,63.8-53.97,104.03-68.24
		C216.19,53.38,218.86,52.75,220.12,52.38z"/>
	<path class="st0" d="M381.14,52.35c4.58,1.64,11.17,3.61,17.45,6.31c71.97,30.9,121.55,83.03,148.2,156.79
		c2.92,8.07,0.36,14.77-6.4,17.13c-7.16,2.5-13.38-0.97-16.33-9.25c-22.59-63.4-64.46-109.39-125.13-138.28
		c-7.96-3.79-16.42-6.53-24.58-9.93c-5.54-2.31-8.49-7.97-7.31-13.34C368.3,56.12,373.19,52.27,381.14,52.35z"/>
	<path class="st0" d="M81.65,252.38c15.64,15.7,31.44,31.57,47.03,47.22c-15.96,15.83-32.06,31.81-48.28,47.9
		c-4.65-4.79-9.93-10.23-15.68-16.16c10.24-9.88,20.76-20.04,31.89-30.77c-11.49-11.11-22.01-21.28-32.69-31.6
		C70.26,263.04,75.8,257.85,81.65,252.38z"/>
	<path class="st0" d="M252.25,519.2c16.11-16,31.96-31.75,47.53-47.23c15.78,15.9,31.75,31.97,47.93,48.27
		c-4.76,4.56-10.27,9.81-16.4,15.68c-9.82-10.26-19.95-20.83-30.74-32.11c-10.87,11.54-20.91,22.2-30.84,32.74
		C263.21,530.08,257.83,524.74,252.25,519.2z"/>
	<path class="st0" d="M330.52,63.56c6.96,6.72,12.43,12,17.63,17.02c-16.1,16.11-32.02,32.06-47.83,47.88
		c-15.67-15.82-31.51-31.82-47.37-47.84c4.92-4.6,10.46-9.77,16.49-15.42c9.11,9.68,19.12,20.34,29.46,31.34
		C310.38,84.58,320.51,74,330.52,63.56z"/>
	<path class="st0" d="M472.52,299.66c15.27-15.38,31.16-31.39,47.09-47.44c5.18,5.3,10.48,10.73,16.44,16.84
		c-10.36,9.98-20.9,20.12-31.83,30.65c11.19,10.9,21.57,21.01,32.07,31.25c-6.25,5.75-11.82,10.87-17.11,15.73
		C504.25,331.65,488.27,315.54,472.52,299.66z"/>
	<path class="st0" d="M318.19,590.27c-5.97-6.39-11.84-12.68-18.53-19.84c-6.07,6.78-11.91,13.3-17.61,19.66
		c-6.33-6.43-11.65-11.84-16.94-17.21c11.65-11.47,23.48-23.11,35.16-34.61c11.29,11.41,23.07,23.31,34.98,35.35
		C330.34,578.41,324.92,583.7,318.19,590.27z"/>
	<path class="st0" d="M27.27,334.99c-5.02-5.02-10.38-10.38-16.35-16.36c6.24-5.58,12.64-11.31,19.47-17.41
		c-7.53-7.04-13.91-13-20.39-19.06c6.85-6.37,12.55-11.65,18.25-16.95c10.9,10.9,22.8,22.8,34.58,34.59
		C50.89,311.62,38.94,323.44,27.27,334.99z"/>
	<path class="st0" d="M335.31,27.35c-11.68,11.66-23.34,23.3-34.92,34.86c-11.42-11.65-23.05-23.51-35.05-35.74
		c4.94-4.33,10.63-9.31,17.2-15.06c4.62,5.44,10.3,12.11,16.7,19.63c7.41-8.09,13.32-14.54,19.51-21.3
		C324.92,16.31,330.13,21.84,335.31,27.35z"/>
	<path class="st0" d="M570.04,299.97c7.31,6.6,13.69,12.37,19.93,18.01c-6.39,6.28-11.9,11.68-17.28,16.96
		c-11.25-11.3-23-23.1-34.59-34.73c11.64-11.52,23.56-23.32,35.49-35.13c4.83,4.76,10.39,10.22,16.4,16.14
		C583.62,287.22,577.33,293.12,570.04,299.97z"/>
</g>
</svg>
