<svg id="Layer_1" data-name="Layer 1" xmlns="http://www.w3.org/2000/svg" viewBox="0 0 45 36"><g id="Planning-Plan-Project-Time_Management-Clock" data-name="Planning-Plan-Project-Time Management-Clock"><path d="M36.94.56a3.62,3.62,0,0,0-3.56,3H11.62a3.61,3.61,0,0,0-7.17.6V24a3.82,3.82,0,0,0,.13.95,9,9,0,0,0,17.79,2.91,2.17,2.17,0,0,0,0-.25H36.94A3.61,3.61,0,0,0,40.55,24V4.17A3.61,3.61,0,0,0,36.94.56ZM5.65,4.17a2.41,2.41,0,0,1,4.82,0V17.94a9,9,0,0,0-4.05,2.87,3.64,3.64,0,0,0-.77.53Zm7.83,30.08a7.82,7.82,0,1,1,7.82-7.82A7.83,7.83,0,0,1,13.48,34.25ZM21.3,22V21h2.4v2.4H22A8.85,8.85,0,0,0,21.3,22Zm15.64,4.48H22.5a9,9,0,0,0-.18-1.8h2a.61.61,0,0,0,.61-.61v-1.2h1.8V24a.6.6,0,0,0,.6.61h3.61a.6.6,0,0,0,.6-.61V20.41a.6.6,0,0,0-.6-.6H27.31a.6.6,0,0,0-.6.6v1.21h-1.8V20.41a.6.6,0,0,0-.61-.6H23.1V18h1.2a.6.6,0,0,0,.61-.6V16.2h1.8v1.21a.6.6,0,0,0,.6.6h3.61a.6.6,0,0,0,.6-.6V13.8a.6.6,0,0,0-.6-.61h-1.2v-1.8h1.2a.6.6,0,0,0,.6-.6V7.18a.6.6,0,0,0-.6-.6H27.31a.6.6,0,0,0-.6.6v1.2h-1.8V7.18a.6.6,0,0,0-.61-.6H20.7a.6.6,0,0,0-.61.6v1.2h-1.8V7.18a.6.6,0,0,0-.6-.6H14.08a.6.6,0,0,0-.6.6v3.61a.6.6,0,0,0,.6.6h3.61a.6.6,0,0,0,.6-.6V9.58h1.8v1.21a.6.6,0,0,0,.61.6h3.6a.6.6,0,0,0,.61-.6V9.58h1.8v1.21a.6.6,0,0,0,.6.6h1.21v1.8H27.31a.6.6,0,0,0-.6.61V15h-1.8V13.8a.61.61,0,0,0-.61-.61H20.7a.61.61,0,0,0-.61.61v3.61a.6.6,0,0,0,.61.6h1.2v1.8H20.7a.6.6,0,0,0-.59.53,9,9,0,0,0-8.44-2.75V4.77H33.33V24a.6.6,0,1,0,1.2,0,2.41,2.41,0,1,1,2.41,2.41Zm-9-3V21h2.41v2.4ZM21.3,16.8V14.4h2.4v2.4Zm6.61,0V14.4h2.41v2.4Zm0-6.61V7.78h2.41v2.41ZM23.7,7.78v2.41H21.3V7.78Zm-6.61,0v2.41H14.68V7.78ZM39.35,21.34a3.61,3.61,0,0,0-4.82,0V4.17a2.41,2.41,0,0,1,4.82,0Z"/><path d="M13.48,19.81a6.62,6.62,0,1,0,6.61,6.62A6.62,6.62,0,0,0,13.48,19.81ZM18.85,27a5.37,5.37,0,0,1-1.15,2.78L16.88,29l-.85.85.82.83a5.37,5.37,0,0,1-2.77,1.15V30.64H12.87v1.17a5.37,5.37,0,0,1-2.77-1.15l.82-.83L10.07,29l-.82.83A5.37,5.37,0,0,1,8.1,27H9.26v-1.2H8.1a5.37,5.37,0,0,1,1.15-2.78l.82.83.85-.85-.82-.83a5.37,5.37,0,0,1,2.77-1.15v1.17h1.21V21.05a5.37,5.37,0,0,1,2.77,1.15L16,23l.85.85.82-.83a5.37,5.37,0,0,1,1.15,2.78H17.69V27Z"/><path d="M12.87,26.18l-1,1,.85.85,1.2-1.2a.64.64,0,0,0,.18-.43v-3H12.87Z"/></g></svg>