<svg id="Layer_1" data-name="Layer 1" xmlns="http://www.w3.org/2000/svg" viewBox="0 0 45 36"><defs><style>.cls-1{fill-rule:evenodd;}</style></defs><g id="Layer_1-2" data-name="Layer_1"><path class="cls-1" d="M39.85,30H5.15A3.17,3.17,0,0,1,2,26.86V3.72A3.16,3.16,0,0,1,5.15.56h34.7A3.16,3.16,0,0,1,43,3.72V26.86A3.17,3.17,0,0,1,39.85,30ZM5.15,1.52A2.2,2.2,0,0,0,3,3.72V26.86a2.21,2.21,0,0,0,2.2,2.2h34.7a2.21,2.21,0,0,0,2.2-2.2V3.72a2.2,2.2,0,0,0-2.2-2.2Z"/><path class="cls-1" d="M42.54,25.41H2.46A.48.48,0,0,1,2,24.93a.49.49,0,0,1,.48-.48H42.54a.49.49,0,0,1,.48.48A.48.48,0,0,1,42.54,25.41Z"/><path class="cls-1" d="M34.12,27.71h-1.2a.48.48,0,1,1,0-.95h1.2a.48.48,0,1,1,0,.95Z"/><path class="cls-1" d="M37,27.71h-1.2a.48.48,0,1,1,0-.95H37a.48.48,0,1,1,0,.95Z"/><path class="cls-1" d="M40,27.71h-1.2a.48.48,0,1,1,0-.95H40a.48.48,0,1,1,0,.95Z"/><path class="cls-1" d="M30,35.44H15.05a.47.47,0,0,1-.48-.48.48.48,0,0,1,.48-.48H30a.48.48,0,0,1,.48.48A.47.47,0,0,1,30,35.44Z"/><path class="cls-1" d="M16.54,35.44a.48.48,0,1,1,0-1,3.48,3.48,0,0,0,3.13-2.61,2.83,2.83,0,0,0-.16-2.1.48.48,0,0,1,.84-.46,3.75,3.75,0,0,1,.24,2.83A4.43,4.43,0,0,1,16.54,35.44Z"/><path class="cls-1" d="M28.46,35.44a4.43,4.43,0,0,1-4-3.3,3.75,3.75,0,0,1,.24-2.83.48.48,0,0,1,.65-.19.49.49,0,0,1,.2.65,2.8,2.8,0,0,0-.17,2.11,3.49,3.49,0,0,0,3.13,2.6A.48.48,0,1,1,28.46,35.44Z"/><path class="cls-1" d="M21.85,9.07H6.42a.82.82,0,0,1-.82-.82V3.52a.82.82,0,0,1,.82-.82H21.85a.82.82,0,0,1,.82.82V8.25A.82.82,0,0,1,21.85,9.07Zm-15.29-1H21.71V3.66H6.56Z"/><path class="cls-1" d="M38.07,17.18H25.63a1.33,1.33,0,0,1-1.33-1.34V4A1.33,1.33,0,0,1,25.63,2.7H38.07A1.34,1.34,0,0,1,39.4,4V15.84A1.34,1.34,0,0,1,38.07,17.18ZM25.63,3.66a.37.37,0,0,0-.37.37V15.84a.36.36,0,0,0,.37.37H38.07a.37.37,0,0,0,.37-.37V4a.38.38,0,0,0-.37-.37Z"/><path class="cls-1" d="M12.15,17.18H6.42a.83.83,0,0,1-.82-.83V11.62a.82.82,0,0,1,.82-.82h5.73a.82.82,0,0,1,.82.82v4.73A.81.81,0,0,1,12.15,17.18Zm-5.59-1H12V11.76H6.56Z"/><path class="cls-1" d="M21.85,17.18H16.12a.83.83,0,0,1-.82-.83V11.62a.82.82,0,0,1,.82-.82h5.73a.82.82,0,0,1,.82.82v4.73A.83.83,0,0,1,21.85,17.18Zm-5.59-1h5.45V11.76H16.26Z"/><path class="cls-1" d="M38.92,20.22H6.08a.48.48,0,0,1-.48-.48.49.49,0,0,1,.48-.48H38.92a.49.49,0,0,1,.48.48A.48.48,0,0,1,38.92,20.22Z"/><path class="cls-1" d="M38.92,23.27H6.08a.48.48,0,0,1-.48-.48.49.49,0,0,1,.48-.48H38.92a.49.49,0,0,1,.48.48A.48.48,0,0,1,38.92,23.27Z"/><path class="cls-1" d="M32.05,17.18H25.62a1.33,1.33,0,0,1-1.32-1.34v-1a.48.48,0,0,1,.14-.34l2.1-2.1a1.32,1.32,0,0,1,1.87,0l4,4A.49.49,0,0,1,32.05,17.18ZM25.26,15v.82a.36.36,0,0,0,.37.37h5.26l-3.16-3.15a.35.35,0,0,0-.51,0Z"/><path class="cls-1" d="M38.07,17.18h-6a.52.52,0,0,1-.4-.2L30.5,15.36a.48.48,0,0,1,0-.56l4-5.59a2,2,0,0,1,3.34,0l1.48,2.07a.44.44,0,0,1,.09.27V15.5A1.52,1.52,0,0,1,38.07,17.18Zm-5.78-1h5.78c.14,0,.37-.28.37-.71V11.71l-1.39-2a1,1,0,0,0-1.77,0l-3.8,5.32Z"/><path class="cls-1" d="M29.68,9.75a2.17,2.17,0,1,1,2.16-2.17A2.17,2.17,0,0,1,29.68,9.75Zm0-3.37a1.21,1.21,0,1,0,1.2,1.2A1.21,1.21,0,0,0,29.68,6.38Z"/></g></svg>