<svg id="Layer_1" data-name="Layer 1" xmlns="http://www.w3.org/2000/svg" viewBox="0 0 45 36"><path d="M22,35.26c-.54,0-2.34-.2-2.93-2.82l-.36-1.59-.35-.12a13.33,13.33,0,0,1-1.93-.8l-.32-.16-1.41.88a4.34,4.34,0,0,1-2.2.7,2.54,2.54,0,0,1-1.86-.78l-.7-.7c-1.46-1.47-.54-3.33-.08-4.07l.87-1.41-.16-.32a13.16,13.16,0,0,1-.79-1.91l-.12-.34-1.62-.37c-.66-.15-2.82-.81-2.82-2.93v-1c0-2.13,2.16-2.78,2.82-2.93l1.62-.37.11-.34a12.68,12.68,0,0,1,.8-2l.16-.32-.87-1.39c-.36-.57-1.42-2.56.08-4.06l.7-.7a2.64,2.64,0,0,1,1.91-.79,4.06,4.06,0,0,1,2.15.71l1.38.86.33-.16a13.22,13.22,0,0,1,1.95-.82l.35-.11.36-1.59A3.21,3.21,0,0,1,22,.74h1c2.12,0,2.77,2.16,2.92,2.82l.36,1.58.35.12a12.55,12.55,0,0,1,2,.81l.32.16,1.36-.85a4.29,4.29,0,0,1,2.2-.71,2.53,2.53,0,0,1,1.86.79l.71.7c1.5,1.5.44,3.49.08,4.06l-.85,1.36.16.32a13.41,13.41,0,0,1,.82,2l.11.35,1.55.35c1.77.4,2.82,1.49,2.82,2.93v1c0,2.12-2.16,2.78-2.82,2.93l-1.55.35-.12.34a13.79,13.79,0,0,1-.81,2l-.17.33.86,1.36c1.43,2.27.3,3.69-.08,4.06l-.71.71a2.53,2.53,0,0,1-1.87.79,4.34,4.34,0,0,1-2.19-.71l-1.38-.87-.33.16a12.75,12.75,0,0,1-1.94.8l-.34.11L26,32.44c-.15.66-.81,2.82-2.93,2.82Zm-5.86-6.69a.46.46,0,0,1,.24.08,12.25,12.25,0,0,0,3,1.23c.26.07.35.26.43.58l.39,1.74c.41,1.82,1.52,2,1.85,2h1c.88,0,1.57-.74,1.85-2l.39-1.75h0c.1-.34.22-.49.45-.55a12.18,12.18,0,0,0,3-1.23.57.57,0,0,1,.28-.08.55.55,0,0,1,.37.15l0,0,1.51.95a3.06,3.06,0,0,0,1.57.53,1.52,1.52,0,0,0,1.12-.45l.72-.71c.83-.84.36-1.93-.07-2.67h0l-1-1.65,0,0v0a.64.64,0,0,1,0-.55,12.66,12.66,0,0,0,1.23-3,.62.62,0,0,1,.55-.42h0l1.72-.39c1.22-.28,1.95-1,1.95-1.85v-1c0-.88-.65-1.5-1.93-1.85h0l-1.66-.37c-.41-.1-.58-.23-.65-.48a12,12,0,0,0-1.23-3,.66.66,0,0,1,0-.66l1-1.56c.68-1.08.71-2.06.08-2.69l-.72-.72a1.55,1.55,0,0,0-1.13-.45,3.05,3.05,0,0,0-1.56.53l-1.54,1a.8.8,0,0,1-.41.14.51.51,0,0,1-.26-.07,12.18,12.18,0,0,0-3-1.23c-.23-.06-.38-.27-.46-.62L24.87,3.8c-.28-1.22-1-2-1.85-2H22c-.87,0-1.55.75-1.82,2l-.4,1.83v0a.56.56,0,0,1-.4.46,12.22,12.22,0,0,0-2.95,1.21h0a.61.61,0,0,1-.3.08.6.6,0,0,1-.29-.08L14.15,6.31a3.08,3.08,0,0,0-1.56-.53,1.55,1.55,0,0,0-1.12.45L10.75,7a2.17,2.17,0,0,0,.08,2.69l.93,1.47,0,.05.05.05a.53.53,0,0,1,.06.64,12.16,12.16,0,0,0-1.22,3c-.06.22-.25.35-.62.45l-1.74.4c-1.22.27-2,1-2,1.84v1c0,.87.76,1.57,2,1.85l1.61.36h0a1.58,1.58,0,0,1,.56.15l.06,0,0,.05a1.29,1.29,0,0,1,.09.2h0a12.49,12.49,0,0,0,1.22,2.95.62.62,0,0,1-.11.73v0l-.95,1.5c-1,1.58-.31,2.46-.08,2.69l.72.71a1.53,1.53,0,0,0,1.11.46,3.25,3.25,0,0,0,1.55-.52h0l1.46-.93h0A1.2,1.2,0,0,1,16.16,28.57Z"/><path d="M22,35c-.48,0-2.08-.19-2.62-2.58L19,30.6l-.52-.17a12.77,12.77,0,0,1-1.89-.78l-.48-.25-1.56,1a4,4,0,0,1-2,.65,2.17,2.17,0,0,1-1.63-.69l-.71-.7c-1.29-1.3-.45-3,0-3.67l1-1.56-.25-.48a14.34,14.34,0,0,1-.77-1.87l-.17-.51-1.8-.41c-.6-.14-2.57-.73-2.57-2.62v-1c0-1.89,2-2.48,2.57-2.62l1.79-.41.17-.52a12.52,12.52,0,0,1,.78-1.89l.25-.48-1-1.55c-.33-.52-1.3-2.33,0-3.67l.71-.7A2.29,2.29,0,0,1,12.57,5a3.73,3.73,0,0,1,2,.66l1.54,1,.48-.25a13.79,13.79,0,0,1,1.91-.8L19,5.4l.4-1.77A2.91,2.91,0,0,1,22,1.05h1c1.9,0,2.49,2,2.62,2.58L26,5.39l.51.17a12.91,12.91,0,0,1,1.92.79L29,6.6l1.52-.95a4,4,0,0,1,2-.66,2.25,2.25,0,0,1,1.64.69l.71.71c1.33,1.33.36,3.14,0,3.66l-1,1.51.25.49A13.86,13.86,0,0,1,35,14l.17.52,1.72.39c1.61.36,2.57,1.34,2.57,2.62v1c0,1.89-2,2.48-2.57,2.62l-1.73.39-.17.52a13.6,13.6,0,0,1-.8,1.92l-.25.48,1,1.52c1.3,2.07.3,3.33,0,3.67l-.71.7a2.24,2.24,0,0,1-1.65.7,4,4,0,0,1-2-.66l-1.54-1-.48.25a12.52,12.52,0,0,1-1.89.78l-.52.17-.4,1.76C25.5,33,24.91,35,23,35Zm-2.14-2.68c.47,2,1.77,2.2,2.16,2.2h1c1,0,1.85-.82,2.16-2.21l.39-1.74c.09-.3.17-.32.23-.34a12.81,12.81,0,0,0,3-1.25.18.18,0,0,1,.12,0,.35.35,0,0,1,.16.06l.06.06,1.54,1a3.4,3.4,0,0,0,1.74.58A1.91,1.91,0,0,0,33.83,30l.71-.72c1.11-1.1.26-2.57,0-3.05v0l-1.06-1.66h0a.32.32,0,0,1,0-.26,12.71,12.71,0,0,0,1.25-3,.35.35,0,0,1,.28-.19h0l1.74-.39c1.37-.31,2.2-1.12,2.2-2.16v-1c0-.72-.38-1.68-2.17-2.15h0L35.13,15c-.37-.09-.39-.18-.42-.25a12.25,12.25,0,0,0-1.25-3,.34.34,0,0,1,0-.33l1-1.56c.76-1.22.77-2.34,0-3.09L33.81,6a1.88,1.88,0,0,0-1.36-.55A3.38,3.38,0,0,0,30.72,6L29.18,7a.46.46,0,0,1-.24.09.21.21,0,0,1-.1,0,12.84,12.84,0,0,0-3-1.26c-.14,0-.2-.25-.23-.38l-.39-1.71c-.31-1.38-1.12-2.2-2.16-2.2H22c-1.05,0-1.85.82-2.16,2.21l-.41,1.84v0a.22.22,0,0,1-.17.2,12.11,12.11,0,0,0-3,1.25h0a.24.24,0,0,1-.13,0,.24.24,0,0,1-.12,0L14.32,6a3.38,3.38,0,0,0-1.73-.57A1.85,1.85,0,0,0,11.24,6l-.71.71a2.47,2.47,0,0,0,0,3.09s.83,1.3.93,1.47l0,.07.07.07a.23.23,0,0,1,0,.27,12.44,12.44,0,0,0-1.26,3.05s0,.13-.39.22l-1.73.4c-1.38.31-2.2,1.12-2.2,2.15v1c0,1,.84,1.85,2.2,2.16L9.86,21h0a1.66,1.66,0,0,1,.44.11s0,0,0,.11a12.77,12.77,0,0,0,1.26,3s.08.15-.09.38l0,0-1,1.51c-1.11,1.78-.31,2.81,0,3.08l.72.72a1.83,1.83,0,0,0,1.33.55A3.55,3.55,0,0,0,14.29,30h0l1.46-.92a1.23,1.23,0,0,1,.39-.18l.08,0a12.88,12.88,0,0,0,3.05,1.25c.06,0,.13,0,.2.35Z"/><path d="M27.8,22.58a.55.55,0,0,1-.39-.16.54.54,0,0,1,0-.78L31.05,18l-3.64-3.65a.52.52,0,0,1-.17-.39.55.55,0,0,1,.16-.39.57.57,0,0,1,.37-.16h0a.55.55,0,0,1,.38.16l4,4a.56.56,0,0,1,0,.78l-4,4A.55.55,0,0,1,27.8,22.58Z"/><path d="M27.8,22.26a.22.22,0,0,1-.17-.07.24.24,0,0,1,0-.33L31.5,18l-3.87-3.87a.24.24,0,0,1,0-.34.2.2,0,0,1,.15-.06h0a.2.2,0,0,1,.16.07l4,4a.24.24,0,0,1,0,.33l-4,4a.24.24,0,0,1-.17.07Z"/><path d="M17.2,22.58a.59.59,0,0,1-.39-.16l-4-4a.56.56,0,0,1,0-.78l4-4a.54.54,0,0,1,.36-.16h0a.59.59,0,0,1,.4.16.57.57,0,0,1,.16.39.52.52,0,0,1-.17.39L14,18l3.63,3.63a.54.54,0,0,1,0,.78A.55.55,0,0,1,17.2,22.58Z"/><path d="M17.2,22.26a.21.21,0,0,1-.16-.07l-4-4a.25.25,0,0,1,0-.33l4-4a.2.2,0,0,1,.15-.06h0a.2.2,0,0,1,.16.07.21.21,0,0,1,.07.16.22.22,0,0,1-.07.17L13.51,18l3.86,3.85a.24.24,0,0,1,0,.33A.22.22,0,0,1,17.2,22.26Z"/><path d="M20.45,22.62a.69.69,0,0,1-.24-.05l0,0a.56.56,0,0,1-.23-.73l4.1-8.24a.57.57,0,0,1,.49-.31h0a.51.51,0,0,1,.25.06h0a.55.55,0,0,1,.24.74l-4.11,8.24A.54.54,0,0,1,20.45,22.62Z"/><path d="M20.45,22.3a.16.16,0,0,1-.1,0h0a.23.23,0,0,1-.1-.31l4.11-8.24a.23.23,0,0,1,.2-.13h0l.1,0h0a.25.25,0,0,1,.11.32l-4.11,8.24a.23.23,0,0,1-.21.13Z"/></svg>