<?xml version="1.0" encoding="utf-8"?>
<!-- Generator: Adobe Illustrator 25.2.1, SVG Export Plug-In . SVG Version: 6.00 Build 0)  -->
<svg version="1.1" id="Layer_1" xmlns="http://www.w3.org/2000/svg" xmlns:xlink="http://www.w3.org/1999/xlink" x="0px" y="0px"
	 viewBox="0 0 78 77" style="enable-background:new 0 0 78 77;" xml:space="preserve">
<style type="text/css">
	.st0{fill:#FFFFFF;}
	.st1{fill:#00005B;}
	.st2{fill:#9999FF;}
</style>
<path class="st0" d="M14,0h50c7.7,0,14,6.3,14,14v49c0,7.7-6.3,14-14,14H14C6.3,77,0,70.7,0,63V14C0,6.3,6.3,0,14,0z"/>
<path class="st1" d="M63.8,2H14.2C6.8,2,0.9,8,0.9,15.4v47.2C0.9,70,6.8,76,14.2,76h49.6c7.4,0,13.4-6,13.4-13.4V15.4
	C77.1,8,71.2,2,63.8,2z"/>
<path class="st2" d="M26.3,48.3V27.9c0,0,0-0.1,0-0.1c0,0,0-0.1,0-0.1c0,0,0,0,0.1,0c0,0,0.1,0,0.1,0c1.5,0,3.3-0.2,5.7-0.2
	c2.8,0,4.8,0.6,6.1,1.8c0.6,0.6,1.1,1.3,1.5,2.1c0.3,0.8,0.5,1.6,0.5,2.5c0,2.3-0.8,3.9-2.4,5c-1.6,1.1-3.6,1.6-6,1.7l-1.7,0v7.6
	c0,0,0,0.1,0,0.1c0,0,0,0.1-0.1,0.1s-0.1,0-0.1,0.1c0,0-0.1,0-0.1,0h-3.3C26.3,48.5,26.3,48.4,26.3,48.3z M30,30.4v7.4
	c0,0,0.9,0,1.9,0c1.3,0,2.4-0.3,3.3-0.9c0.8-0.6,1.2-1.6,1.2-2.9c0-1.2-0.4-2.1-1.1-2.7c-0.7-0.6-1.8-1-3.2-1c-0.3,0-0.7,0-1,0
	c-0.3,0-0.6,0-0.8,0C30.1,30.3,30,30.3,30,30.4z M42.9,33.5h3.2c0.1,0,0.2,0,0.2,0.1c0.1,0,0.1,0.1,0.1,0.2c0.2,0.5,0.4,1.1,0.4,1.6
	c1.2-1.6,2.7-2.2,4.7-2.2c0,0,0.1,0,0.1,0c0,0,0.1,0,0.1,0c0,0,0,0,0,0.1c0,0,0,0.1,0,0.1v3.3c0,0.2-0.1,0.2-0.2,0.2
	c-1.8-0.1-3.2,0.1-4.3,1.2c-0.1,0.1-0.2,0.2-0.2,0.3c-0.1,0.1-0.1,0.3-0.1,0.4v9.5c0,0.1-0.1,0.2-0.2,0.2h-3.2
	c-0.2,0-0.3-0.1-0.3-0.2V37.6c0-2.5-0.2-2.9-0.4-3.9C42.7,33.6,42.8,33.5,42.9,33.5z"/>
</svg>
