<?xml version="1.0" encoding="utf-8"?>
<!-- Generator: Adobe Illustrator 24.3.0, SVG Export Plug-In . SVG Version: 6.00 Build 0)  -->
<svg version="1.1" id="Layer_1" xmlns="http://www.w3.org/2000/svg" xmlns:xlink="http://www.w3.org/1999/xlink" x="0px" y="0px"
	 viewBox="0 0 296 185" style="enable-background:new 0 0 296 185;" xml:space="preserve">
<style type="text/css">
	.st0{fill:#17313B;}
	.st1{fill:#EF4335;}
	.st2{fill:#FF8E03;}
	.st3{fill:#00B67A;}
	.st4{fill:#005128;}
	.st5{fill:#5B7FBE;}
	.st6{fill:#D7272A;}
	.st7{fill:#F4C300;}
	.st8{fill:#45AC43;}
	.st9{fill:#F7FAF9;stroke:url(#SVGID_1_);stroke-miterlimit:10;}
	.st10{fill:#606060;}
	.st11{fill:#F7FAF9;stroke:url(#SVGID_2_);stroke-miterlimit:10;}
	.st12{fill:#F7FAF9;stroke:url(#SVGID_3_);stroke-miterlimit:10;}
	.st13{font-family:'Nexa-Trial-Black';}
	.st14{font-size:55.6494px;}
	.st15{letter-spacing:2;}
	.st16{letter-spacing:-2;}
</style>
<g>
	<linearGradient id="SVGID_1_" gradientUnits="userSpaceOnUse" x1="9.5" y1="92.5" x2="286.5" y2="92.5">
		<stop  offset="0" style="stop-color:#2A7E74"/>
		<stop  offset="1" style="stop-color:#1DAC7A;stop-opacity:0"/>
	</linearGradient>
	<path class="st9" d="M267.42,182.5H28.58c-10.26,0-18.58-8.32-18.58-18.58V21.08C10,10.82,18.32,2.5,28.58,2.5h238.84
		c10.26,0,18.58,8.32,18.58,18.58v142.84C286,174.18,277.68,182.5,267.42,182.5z"/>
	<g>
		<path id="path2998_1_" class="st10" d="M90.04,48.23H65.4v7.36h17.49C82.04,65.83,73.51,70.2,65.51,70.2
			c-10.34,0-19.3-8.11-19.3-19.41c0-11.09,8.53-19.62,19.3-19.62c8.32,0,13.12,5.33,13.12,5.33l5.12-5.33c0,0-6.61-7.36-18.56-7.36
			c-15.25,0-26.98,12.8-26.98,26.77c0,13.65,11.09,26.88,27.41,26.88c14.4,0,24.85-9.81,24.85-24.42
			C90.46,49.94,90.04,48.23,90.04,48.23L90.04,48.23z"/>
		<path id="path3000_1_" class="st10" d="M110.19,42.9c-10.13,0-17.38,7.89-17.38,17.06c0,9.39,7.04,17.38,17.49,17.38
			c9.49,0,17.17-7.25,17.17-17.17C127.58,48.76,118.51,42.9,110.19,42.9L110.19,42.9z M110.3,49.72c5.01,0,9.7,4.05,9.7,10.45
			c0,6.29-4.69,10.45-9.7,10.45c-5.55,0-9.81-4.37-9.81-10.56C100.49,54.2,104.76,49.72,110.3,49.72L110.3,49.72z"/>
		<path id="path3005_1_" class="st10" d="M147.95,42.9c-10.13,0-17.38,7.89-17.38,17.06c0,9.39,7.04,17.38,17.49,17.38
			c9.49,0,17.17-7.25,17.17-17.17C165.22,48.76,156.27,42.9,147.95,42.9L147.95,42.9z M148.05,49.72c5.01,0,9.71,4.05,9.71,10.45
			c0,6.29-4.69,10.45-9.71,10.45c-5.55,0-9.81-4.37-9.81-10.56C138.14,54.2,142.51,49.72,148.05,49.72L148.05,49.72z"/>
		<path id="path3007_1_" class="st10" d="M184.95,42.9c-9.28,0-16.53,8.11-16.53,17.28c0,10.34,8.43,17.28,16.42,17.28
			c4.91,0,7.57-1.92,9.49-4.16v3.41c0,5.97-3.63,9.49-9.07,9.49c-5.23,0-7.89-3.95-8.85-6.19l-6.61,2.77
			c2.35,5.01,7.04,10.13,15.57,10.13c9.17,0,16.21-5.76,16.21-18.02V43.96h-7.25v2.88C191.99,44.5,189.01,42.9,184.95,42.9
			L184.95,42.9z M185.59,49.72c4.59,0,9.17,3.84,9.17,10.56s-4.69,10.45-9.28,10.45c-4.91,0-9.49-4.05-9.49-10.34
			C176,53.67,180.8,49.72,185.59,49.72L185.59,49.72z"/>
		<path id="path3011_1_" class="st10" d="M233.69,42.9c-8.75,0-16.1,6.93-16.1,17.28c0,10.88,8.21,17.28,16.96,17.28
			c7.25,0,11.73-3.95,14.5-7.57l-5.97-3.95c-1.6,2.45-4.16,4.8-8.43,4.8c-4.8,0-7.04-2.67-8.43-5.23l23.14-9.6l-1.17-2.77
			C245.74,47.48,240.52,42.9,233.69,42.9L233.69,42.9z M233.91,49.51c3.2,0,5.44,1.71,6.4,3.73l-15.46,6.51
			C224.2,54.63,229,49.51,233.91,49.51L233.91,49.51z"/>
		<path id="path3015_1_" class="st10" d="M206.5,76.38h7.57V25.51h-7.57V76.38z"/>
	</g>
	<g>
		<polygon class="st10" points="192.42,144.62 204.52,153.04 200.25,138.92 212.01,130.01 197.26,129.71 192.42,115.78 
			187.57,129.71 172.82,130.01 184.58,138.92 180.31,153.04 		"/>
		<g>
			<text transform="matrix(1 0 0 1 73.5931 155.5957)"><tspan x="0" y="0" class="st10 st13 st14 st15">4</tspan><tspan x="40.68" y="0" class="st10 st13 st14 st16">.</tspan><tspan x="53.92" y="0" class="st10 st13 st14 st15">9</tspan></text>
		</g>
	</g>
</g>
</svg>
