<?xml version="1.0" encoding="utf-8"?>
<!-- Generator: Adobe Illustrator 24.3.0, SVG Export Plug-In . SVG Version: 6.00 Build 0)  -->
<svg version="1.1" id="Layer_1" xmlns="http://www.w3.org/2000/svg" xmlns:xlink="http://www.w3.org/1999/xlink" x="0px" y="0px"
	 viewBox="0 0 296 185" style="enable-background:new 0 0 296 185;" xml:space="preserve">
<style type="text/css">
	.st0{fill:#17313B;}
	.st1{fill:#EF4335;}
	.st2{fill:#FF8E03;}
	.st3{fill:#00B67A;}
	.st4{fill:#005128;}
	.st5{fill:#5B7FBE;}
	.st6{fill:#D7272A;}
	.st7{fill:#F4C300;}
	.st8{fill:#45AC43;}
	.st9{fill:#F7FAF9;stroke:url(#SVGID_1_);stroke-miterlimit:10;}
	.st10{fill:#606060;}
	.st11{fill:#F7FAF9;stroke:url(#SVGID_2_);stroke-miterlimit:10;}
	.st12{font-family:'Nexa-Trial-Black';}
	.st13{font-size:55.6494px;}
	.st14{letter-spacing:2;}
	.st15{letter-spacing:-2;}
	.st16{fill:#F7FAF9;stroke:url(#SVGID_3_);stroke-miterlimit:10;}
</style>
<g>
	<linearGradient id="SVGID_1_" gradientUnits="userSpaceOnUse" x1="9.5" y1="92.5" x2="286.5" y2="92.5">
		<stop  offset="0" style="stop-color:#1DAC7A"/>
		<stop  offset="1" style="stop-color:#2A7E74;stop-opacity:0"/>
	</linearGradient>
	<path class="st9" d="M267.42,182.5H28.58c-10.26,0-18.58-8.32-18.58-18.58V21.08C10,10.82,18.32,2.5,28.58,2.5h238.84
		c10.26,0,18.58,8.32,18.58,18.58v142.84C286,174.18,277.68,182.5,267.42,182.5z"/>
	<g>
		<path class="st10" d="M88.47,47.85h24.96v4.73h-9.79v26.26h-5.38V52.58h-9.79V47.85z M112.28,56.5h4.57v4.4h0.16
			c0.16-0.65,0.49-1.14,0.82-1.79c0.49-0.65,0.98-1.14,1.47-1.63c0.65-0.49,1.3-0.82,1.96-1.14c0.65-0.33,1.47-0.49,2.12-0.49
			c0.65,0,0.98,0,1.14,0c0.16,0,0.49,0.16,0.65,0.16v4.73c-0.33-0.16-0.65-0.16-1.14-0.16c-0.33,0-0.65-0.16-1.14-0.16
			c-0.82,0-1.63,0.16-2.28,0.49c-0.82,0.33-1.3,0.82-1.96,1.47c-0.49,0.65-0.98,1.47-1.3,2.45c-0.33,0.98-0.49,2.12-0.49,3.26v10.6
			h-4.89L112.28,56.5z M148,78.84h-4.89v-3.1h-0.16c-0.65,1.14-1.47,1.96-2.77,2.77c-1.14,0.65-2.45,0.98-3.59,0.98
			c-2.94,0-5.06-0.65-6.36-2.12c-1.3-1.47-1.96-3.59-1.96-6.52V56.66h4.89v13.7c0,1.96,0.33,3.43,1.14,4.08
			c0.82,0.82,1.79,1.3,3.1,1.3c0.98,0,1.96-0.16,2.61-0.49c0.65-0.33,1.3-0.82,1.63-1.3c0.49-0.49,0.82-1.14,0.98-1.96
			c0.16-0.82,0.33-1.63,0.33-2.45V56.5h4.89L148,78.84L148,78.84z M156.48,71.67c0.16,1.47,0.65,2.45,1.63,3.1s2.12,0.82,3.43,0.82
			c0.49,0,0.98,0,1.63-0.16c0.65-0.16,1.14-0.16,1.63-0.49c0.49-0.16,0.98-0.49,1.3-0.98c0.33-0.49,0.49-0.98,0.49-1.47
			c0-0.65-0.33-1.14-0.65-1.63c-0.49-0.49-0.98-0.65-1.63-0.98c-0.65-0.33-1.47-0.49-2.28-0.65c-0.82-0.16-1.79-0.33-2.61-0.65
			c-0.98-0.16-1.79-0.49-2.61-0.82c-0.82-0.33-1.63-0.65-2.28-1.14c-0.65-0.49-1.3-1.14-1.63-1.96c-0.49-0.82-0.65-1.63-0.65-2.77
			c0-1.3,0.33-2.28,0.98-3.1s1.3-1.47,2.28-1.96s1.96-0.82,3.1-1.14c1.14-0.16,2.12-0.33,3.1-0.33c1.14,0,2.28,0.16,3.26,0.33
			c0.98,0.33,1.96,0.65,2.77,1.14c0.82,0.49,1.63,1.3,2.12,2.12c0.65,0.82,0.98,1.96,1.14,3.1h-5.38c-0.33-1.14-0.82-1.96-1.63-2.45
			c-0.82-0.49-1.79-0.65-2.94-0.65c-0.33,0-0.82,0-1.3,0.16c-0.49,0.16-0.98,0.16-1.3,0.33c-0.49,0.16-0.82,0.49-1.14,0.65
			c-0.33,0.33-0.49,0.65-0.49,1.14c0,0.65,0.16,1.14,0.65,1.47c0.49,0.33,0.98,0.65,1.63,0.98s1.47,0.49,2.28,0.65
			s1.79,0.33,2.61,0.65s1.79,0.49,2.61,0.82c0.82,0.33,1.63,0.65,2.28,1.14c0.65,0.49,1.3,1.14,1.63,1.79
			c0.49,0.82,0.65,1.63,0.65,2.77c0,1.3-0.33,2.45-0.98,3.43c-0.65,0.98-1.47,1.63-2.28,2.28c-0.98,0.65-2.12,0.98-3.26,1.3
			c-1.14,0.33-2.28,0.49-3.43,0.49c-1.47,0-2.77-0.16-3.91-0.49c-1.14-0.33-2.28-0.82-3.1-1.47s-1.63-1.47-2.12-2.45
			c-0.49-0.98-0.82-2.12-0.82-3.43L156.48,71.67L156.48,71.67L156.48,71.67z M172.79,56.5h3.75v-6.69h4.89v6.69h4.4v3.59h-4.4v11.91
			c0,0.49,0,0.98,0.16,1.3c0,0.33,0.16,0.65,0.33,0.98c0.16,0.33,0.49,0.49,0.65,0.65c0.33,0.16,0.82,0.16,1.3,0.16
			c0.33,0,0.65,0,0.98,0c0.33,0,0.65-0.16,0.98-0.16v3.75c-0.49,0.16-1.14,0.16-1.63,0.16c-0.49,0.16-0.98,0.16-1.63,0.16
			c-1.3,0-2.28-0.16-3.1-0.33c-0.82-0.33-1.47-0.65-1.79-1.14c-0.49-0.49-0.82-1.14-0.98-1.79c-0.16-0.65-0.33-1.63-0.33-2.45V60.09
			h-3.75L172.79,56.5L172.79,56.5z M189.27,56.5H194v3.1h0.16c0.65-1.3,1.63-2.28,2.94-2.77c1.3-0.65,2.61-0.82,4.08-0.82
			c1.79,0,3.26,0.33,4.57,0.98c1.3,0.65,2.45,1.47,3.26,2.61c0.82,1.14,1.47,2.28,1.96,3.75c0.49,1.47,0.65,2.94,0.65,4.57
			c0,1.47-0.16,2.94-0.65,4.4c-0.49,1.47-0.98,2.61-1.79,3.75c-0.82,1.14-1.79,1.96-2.94,2.61c-1.3,0.65-2.61,0.98-4.24,0.98
			c-0.65,0-1.47-0.16-2.12-0.16s-1.47-0.33-2.12-0.65c-0.65-0.33-1.3-0.65-1.79-1.14c-0.65-0.49-0.98-0.98-1.47-1.63h-0.16v11.09
			h-4.89L189.27,56.5L189.27,56.5z M206.56,67.59c0-0.98-0.16-1.96-0.49-2.94c-0.33-0.98-0.65-1.79-1.14-2.45
			c-0.49-0.65-1.14-1.3-1.96-1.79c-0.82-0.49-1.63-0.65-2.61-0.65c-2.12,0-3.59,0.65-4.73,2.12c-0.98,1.47-1.63,3.43-1.63,5.71
			c0,1.14,0.16,2.12,0.49,3.1c0.33,0.98,0.65,1.79,1.3,2.45c0.49,0.65,1.14,1.3,1.96,1.63s1.63,0.65,2.61,0.65
			c1.14,0,2.12-0.33,2.77-0.65c0.65-0.33,1.47-1.14,1.96-1.79c0.49-0.82,0.82-1.63,1.14-2.45
			C206.39,69.55,206.56,68.57,206.56,67.59z M215.2,47.85h4.89v4.73h-4.89V47.85z M215.2,56.5h4.89v22.35h-4.89V56.5z M224.66,47.85
			h4.89v30.83h-4.89V47.85z M244.56,79.33c-1.79,0-3.43-0.33-4.73-0.98c-1.47-0.65-2.61-1.47-3.59-2.45
			c-0.98-0.98-1.63-2.28-2.12-3.75c-0.49-1.47-0.82-3.1-0.82-4.73s0.33-3.26,0.82-4.73c0.49-1.47,1.3-2.61,2.12-3.75
			c0.98-0.98,2.12-1.79,3.59-2.45c1.47-0.65,2.94-0.98,4.73-0.98c1.79,0,3.43,0.33,4.73,0.98c1.47,0.65,2.61,1.47,3.59,2.45
			c0.98,0.98,1.63,2.28,2.12,3.75c0.49,1.47,0.82,2.94,0.82,4.73s-0.33,3.26-0.82,4.73c-0.49,1.47-1.3,2.61-2.12,3.75
			c-0.98,0.98-2.12,1.79-3.59,2.45C247.98,79.01,246.35,79.33,244.56,79.33z M244.56,75.42c1.14,0,2.12-0.33,2.77-0.65
			c0.82-0.49,1.47-1.14,1.96-1.79c0.49-0.82,0.98-1.63,1.14-2.45c0.33-0.98,0.33-1.96,0.33-2.94s-0.16-1.96-0.33-2.77
			c-0.33-0.98-0.65-1.79-1.14-2.45c-0.49-0.82-1.14-1.3-1.96-1.79c-0.82-0.49-1.79-0.65-2.77-0.65c-0.98,0-2.12,0.33-2.77,0.65
			c-0.82,0.49-1.47,1.14-1.96,1.79c-0.49,0.82-0.98,1.63-1.14,2.45c-0.33,0.98-0.33,1.96-0.33,2.77c0,0.98,0.16,1.96,0.33,2.94
			c0.33,0.98,0.65,1.79,1.14,2.45c0.49,0.82,1.14,1.3,1.96,1.79C242.6,75.25,243.58,75.42,244.56,75.42z M257.44,56.5h3.75v-6.69
			h4.89v6.69h4.4v3.59h-4.4v11.91c0,0.49,0,0.98,0.16,1.3c0,0.33,0.16,0.65,0.33,0.98c0.16,0.33,0.49,0.49,0.65,0.65
			c0.33,0.16,0.82,0.16,1.3,0.16c0.33,0,0.65,0,0.98,0c0.33,0,0.65-0.16,0.98-0.16v3.75c-0.49,0.16-1.14,0.16-1.63,0.16
			c-0.49,0.16-0.98,0.16-1.63,0.16c-1.3,0-2.28-0.16-3.1-0.33c-0.82-0.33-1.47-0.65-1.79-1.14c-0.49-0.49-0.82-1.14-0.98-1.79
			c-0.16-0.65-0.33-1.63-0.33-2.45V60.09h-3.75V56.5H257.44z"/>
		<path class="st10" d="M82.59,47.85H60.09l-7.01-21.37l-7.01,21.53H23.39l18.27,13.37l-7.01,21.53l18.43-13.54l18.27,13.37
			l-7.01-21.53L82.59,47.85z"/>
		<path class="st10" d="M65.96,65.96l-1.63-4.89l-11.25,8.16L65.96,65.96z"/>
	</g>
	<g>
		<polygon class="st10" points="196.69,144.62 208.8,153.04 204.53,138.92 216.28,130.01 201.54,129.71 196.69,115.78 
			191.85,129.71 177.1,130.01 188.86,138.92 184.59,153.04 		"/>
		<g>
			<text transform="matrix(1 0 0 1 77.5934 155.5947)"><tspan x="0" y="0" class="st10 st12 st13 st14">4</tspan><tspan x="40.68" y="0" class="st10 st12 st13 st15">.</tspan><tspan x="53.92" y="0" class="st10 st12 st13 st14">8</tspan></text>
		</g>
	</g>
</g>
</svg>
