<?xml version="1.0" encoding="utf-8"?>
<!-- Generator: Adobe Illustrator 24.3.0, SVG Export Plug-In . SVG Version: 6.00 Build 0)  -->
<svg version="1.1" id="Layer_1" xmlns="http://www.w3.org/2000/svg" xmlns:xlink="http://www.w3.org/1999/xlink" x="0px" y="0px"
	 viewBox="0 0 296 185" style="enable-background:new 0 0 296 185;" xml:space="preserve">
<style type="text/css">
	.st0{fill:#17313B;}
	.st1{fill:#EF4335;}
	.st2{fill:#FF8E03;}
	.st3{font-family:'Nexa-Trial-Black';}
	.st4{font-size:55.6494px;}
	.st5{letter-spacing:2;}
	.st6{fill:#00B67A;}
	.st7{fill:#005128;}
	.st8{fill:#5B7FBE;}
	.st9{fill:#D7272A;}
	.st10{fill:#F4C300;}
	.st11{fill:#45AC43;}
	.st12{fill:#F7FAF9;stroke:url(#SVGID_1_);stroke-miterlimit:10;}
	.st13{fill:#606060;}
	.st14{fill:#F7FAF9;stroke:url(#SVGID_2_);stroke-miterlimit:10;}
	.st15{fill:#F7FAF9;stroke:url(#SVGID_3_);stroke-miterlimit:10;}
</style>
<g>
	<g>
		<path class="st0" d="M95.89,26.8h9.47v58.59h-9.47C95.89,85.39,95.89,26.8,95.89,26.8z"/>
		<path class="st0" d="M138.43,66.85c0,9.07-7.47,9.86-9.86,9.86c-5.78,0-6.58-5.38-6.58-8.27V45.83h-9.47v22.32
			c0,5.38,1.69,10.26,4.98,13.15c2.89,2.89,6.58,4.09,11.16,4.09c3.29,0,7.47-0.8,9.86-3.29v3.29H148V45.83h-9.57V66.85z"/>
		<path class="st0" d="M166.43,31.38h-9.47v14.45h-6.98v9.07h6.98v30.49h9.47V54.9h6.98v-9.07h-6.98
			C166.43,45.83,166.43,31.38,166.43,31.38z"/>
		<path class="st0" d="M203.1,73.43c-2.09,1.69-4.98,2.89-7.87,2.89c-6.58,0-11.16-4.98-11.16-11.56s4.68-11.16,11.26-11.16
			c2.89,0,5.78,0.8,7.87,2.89l1.2,1.2l6.58-6.18l-1.69-1.2c-3.69-3.29-8.67-5.38-14.05-5.38c-11.56,0-20.23,8.67-20.23,20.23
			s8.67,20.23,20.23,20.23c5.38,0,10.26-2.09,14.05-5.38l1.69-1.2l-6.58-6.58L203.1,73.43z"/>
		<path class="st0" d="M244.36,49.12c-2.89-2.89-5.78-4.09-10.26-4.09c-3.29,0-6.58,0.8-9.07,3.29V26.8h-9.47v58.59h9.47V63.56
			c0-9.07,6.18-9.86,8.67-9.86c5.78,0,5.38,5.38,5.38,8.27v23.12h9.47V62.27C248.54,56.89,247.25,52.01,244.36,49.12z"/>
		<circle class="st1" cx="194.93" cy="65.16" r="6.58"/>
		<path class="st0" d="M82.73,70.94c-3.29,3.29-8.27,5.38-13.65,5.38c-10.26,0-17.74-8.27-17.74-19.43s7.47-19.43,18.14-19.43
			c4.98,0,9.86,2.09,13.65,5.78l1.2,1.2l6.18-6.18l-1.2-1.2c-5.38-5.38-12.36-8.27-19.83-8.27c-15.64-0.3-27.2,12.06-27.2,28.1
			s11.56,28.5,26.8,28.5c7.47,0,14.85-2.89,19.83-8.27l1.2-1.2l-6.18-6.18L82.73,70.94z"/>
	</g>
	<g>
		<g>
			<g>
				<polygon class="st2" points="196.01,144.62 208.12,153.04 203.85,138.92 215.6,130.01 200.86,129.71 196.01,115.78 
					191.17,129.71 176.42,130.01 188.18,138.92 183.9,153.04 				"/>
			</g>
			<g>
				<text transform="matrix(1 0 0 1 74.6592 155.5947)" class="st2 st3 st4 st5">5.0</text>
			</g>
		</g>
	</g>
</g>
</svg>
