<?xml version="1.0" encoding="utf-8"?>
<!-- Generator: Adobe Illustrator 24.3.0, SVG Export Plug-In . SVG Version: 6.00 Build 0)  -->
<svg version="1.1" id="Layer_1" xmlns="http://www.w3.org/2000/svg" xmlns:xlink="http://www.w3.org/1999/xlink" x="0px" y="0px"
	 viewBox="0 0 100 100" style="enable-background:new 0 0 100 100;" xml:space="preserve">
<style type="text/css">
	.st0{fill:#FFFFFF;}
	.st1{fill:#F16522;}
	.st2{fill:url(#SVGID_1_);}
	.st3{fill:url(#SVGID_2_);}
	.st4{fill:url(#SVGID_3_);}
	.st5{fill:url(#SVGID_4_);}
	.st6{fill:#F37521;}
	.st7{fill:url(#SVGID_5_);}
	.st8{fill:url(#SVGID_6_);}
	.st9{fill:url(#SVGID_7_);}
	.st10{fill:url(#SVGID_8_);}
	.st11{fill:url(#SVGID_9_);}
	.st12{enable-background:new    ;}
	.st13{clip-path:url(#SVGID_13_);}
	.st14{fill:#A479B4;}
	.st15{fill-rule:evenodd;clip-rule:evenodd;fill:#F16522;}
	.st16{clip-path:url(#SVGID_16_);fill:url(#SVGID_17_);stroke:url(#SVGID_18_);stroke-width:0.25;stroke-miterlimit:10;}
	.st17{clip-path:url(#SVGID_22_);fill:url(#SVGID_23_);stroke:url(#SVGID_24_);stroke-width:0.25;stroke-miterlimit:10;}
	.st18{clip-path:url(#SVGID_22_);fill:url(#SVGID_25_);stroke:url(#SVGID_26_);stroke-width:0.25;stroke-miterlimit:10;}
	.st19{clip-path:url(#SVGID_30_);fill:url(#SVGID_31_);stroke:url(#SVGID_32_);stroke-width:0.25;stroke-miterlimit:10;}
	.st20{clip-path:url(#SVGID_36_);fill:url(#SVGID_37_);stroke:url(#SVGID_38_);stroke-width:0.25;stroke-miterlimit:10;}
	.st21{clip-path:url(#SVGID_36_);fill:url(#SVGID_39_);stroke:url(#SVGID_40_);stroke-width:0.25;stroke-miterlimit:10;}
	.st22{clip-path:url(#SVGID_44_);fill:url(#SVGID_45_);stroke:url(#SVGID_46_);stroke-width:0.25;stroke-miterlimit:10;}
	.st23{clip-path:url(#SVGID_50_);fill:url(#SVGID_51_);stroke:url(#SVGID_52_);stroke-width:0.25;stroke-miterlimit:10;}
	.st24{clip-path:url(#SVGID_50_);fill:url(#SVGID_53_);stroke:url(#SVGID_54_);stroke-width:0.25;stroke-miterlimit:10;}
	.st25{clip-path:url(#SVGID_58_);fill:url(#SVGID_59_);stroke:url(#SVGID_60_);stroke-width:0.25;stroke-miterlimit:10;}
	.st26{clip-path:url(#SVGID_64_);fill:url(#SVGID_65_);stroke:url(#SVGID_66_);stroke-width:0.25;stroke-miterlimit:10;}
	.st27{clip-path:url(#SVGID_64_);fill:url(#SVGID_67_);stroke:url(#SVGID_68_);stroke-width:0.25;stroke-miterlimit:10;}
	.st28{clip-path:url(#SVGID_72_);fill:url(#SVGID_73_);stroke:url(#SVGID_74_);stroke-width:0.25;stroke-miterlimit:10;}
	.st29{clip-path:url(#SVGID_78_);fill:url(#SVGID_79_);stroke:url(#SVGID_80_);stroke-width:0.25;stroke-miterlimit:10;}
	.st30{clip-path:url(#SVGID_78_);fill:url(#SVGID_81_);stroke:url(#SVGID_82_);stroke-width:0.25;stroke-miterlimit:10;}
	.st31{clip-path:url(#SVGID_86_);fill:url(#SVGID_87_);stroke:url(#SVGID_88_);stroke-width:0.25;stroke-miterlimit:10;}
	.st32{clip-path:url(#SVGID_92_);fill:url(#SVGID_93_);stroke:url(#SVGID_94_);stroke-width:0.25;stroke-miterlimit:10;}
	.st33{clip-path:url(#SVGID_92_);fill:url(#SVGID_95_);stroke:url(#SVGID_96_);stroke-width:0.25;stroke-miterlimit:10;}
	.st34{clip-path:url(#SVGID_100_);fill:url(#SVGID_101_);stroke:url(#SVGID_102_);stroke-width:0.25;stroke-miterlimit:10;}
	.st35{clip-path:url(#SVGID_106_);fill:url(#SVGID_107_);stroke:url(#SVGID_108_);stroke-width:0.25;stroke-miterlimit:10;}
	.st36{clip-path:url(#SVGID_106_);fill:url(#SVGID_109_);stroke:url(#SVGID_110_);stroke-width:0.25;stroke-miterlimit:10;}
	.st37{clip-path:url(#SVGID_114_);fill:url(#SVGID_115_);stroke:url(#SVGID_116_);stroke-width:0.25;stroke-miterlimit:10;}
	.st38{clip-path:url(#SVGID_120_);fill:url(#SVGID_121_);stroke:url(#SVGID_122_);stroke-width:0.25;stroke-miterlimit:10;}
	.st39{clip-path:url(#SVGID_120_);fill:url(#SVGID_123_);stroke:url(#SVGID_124_);stroke-width:0.25;stroke-miterlimit:10;}
	.st40{clip-path:url(#SVGID_128_);fill:url(#SVGID_129_);stroke:url(#SVGID_130_);stroke-width:0.25;stroke-miterlimit:10;}
	.st41{clip-path:url(#SVGID_134_);fill:url(#SVGID_135_);stroke:url(#SVGID_136_);stroke-width:0.25;stroke-miterlimit:10;}
	.st42{clip-path:url(#SVGID_134_);fill:url(#SVGID_137_);stroke:url(#SVGID_138_);stroke-width:0.25;stroke-miterlimit:10;}
	.st43{clip-path:url(#SVGID_142_);fill:url(#SVGID_143_);stroke:url(#SVGID_144_);stroke-width:0.25;stroke-miterlimit:10;}
	.st44{clip-path:url(#SVGID_148_);fill:url(#SVGID_149_);stroke:url(#SVGID_150_);stroke-width:0.25;stroke-miterlimit:10;}
	.st45{clip-path:url(#SVGID_148_);fill:url(#SVGID_151_);stroke:url(#SVGID_152_);stroke-width:0.25;stroke-miterlimit:10;}
	.st46{clip-path:url(#SVGID_156_);fill:url(#SVGID_157_);stroke:url(#SVGID_158_);stroke-width:0.25;stroke-miterlimit:10;}
	.st47{clip-path:url(#SVGID_162_);fill:url(#SVGID_163_);stroke:url(#SVGID_164_);stroke-width:0.25;stroke-miterlimit:10;}
	.st48{clip-path:url(#SVGID_162_);fill:url(#SVGID_165_);stroke:url(#SVGID_166_);stroke-width:0.25;stroke-miterlimit:10;}
	.st49{clip-path:url(#SVGID_170_);fill:url(#SVGID_171_);stroke:url(#SVGID_172_);stroke-width:0.25;stroke-miterlimit:10;}
	.st50{clip-path:url(#SVGID_176_);fill:url(#SVGID_177_);stroke:url(#SVGID_178_);stroke-width:0.25;stroke-miterlimit:10;}
	.st51{clip-path:url(#SVGID_176_);fill:url(#SVGID_179_);stroke:url(#SVGID_180_);stroke-width:0.25;stroke-miterlimit:10;}
	.st52{clip-path:url(#SVGID_184_);fill:url(#SVGID_185_);stroke:url(#SVGID_186_);stroke-width:0.25;stroke-miterlimit:10;}
	.st53{clip-path:url(#SVGID_190_);fill:url(#SVGID_191_);stroke:url(#SVGID_192_);stroke-width:0.25;stroke-miterlimit:10;}
	.st54{clip-path:url(#SVGID_190_);fill:url(#SVGID_193_);stroke:url(#SVGID_194_);stroke-width:0.25;stroke-miterlimit:10;}
	.st55{clip-path:url(#SVGID_198_);fill:url(#SVGID_199_);stroke:url(#SVGID_200_);stroke-width:0.25;stroke-miterlimit:10;}
	.st56{clip-path:url(#SVGID_204_);fill:url(#SVGID_205_);stroke:url(#SVGID_206_);stroke-width:0.25;stroke-miterlimit:10;}
	.st57{clip-path:url(#SVGID_204_);fill:url(#SVGID_207_);stroke:url(#SVGID_208_);stroke-width:0.25;stroke-miterlimit:10;}
	.st58{clip-path:url(#SVGID_212_);fill:url(#SVGID_213_);stroke:url(#SVGID_214_);stroke-width:0.25;stroke-miterlimit:10;}
	.st59{clip-path:url(#SVGID_218_);fill:url(#SVGID_219_);stroke:url(#SVGID_220_);stroke-width:0.25;stroke-miterlimit:10;}
	.st60{clip-path:url(#SVGID_218_);fill:url(#SVGID_221_);stroke:url(#SVGID_222_);stroke-width:0.25;stroke-miterlimit:10;}
	.st61{clip-path:url(#SVGID_226_);fill:url(#SVGID_227_);stroke:url(#SVGID_228_);stroke-width:0.25;stroke-miterlimit:10;}
	.st62{clip-path:url(#SVGID_232_);fill:url(#SVGID_233_);stroke:url(#SVGID_234_);stroke-width:0.25;stroke-miterlimit:10;}
	.st63{clip-path:url(#SVGID_232_);fill:url(#SVGID_235_);stroke:url(#SVGID_236_);stroke-width:0.25;stroke-miterlimit:10;}
	.st64{clip-path:url(#SVGID_240_);fill:url(#SVGID_241_);stroke:url(#SVGID_242_);stroke-width:0.25;stroke-miterlimit:10;}
	.st65{clip-path:url(#SVGID_246_);fill:url(#SVGID_247_);stroke:url(#SVGID_248_);stroke-width:0.25;stroke-miterlimit:10;}
	.st66{clip-path:url(#SVGID_246_);fill:url(#SVGID_249_);stroke:url(#SVGID_250_);stroke-width:0.25;stroke-miterlimit:10;}
	.st67{clip-path:url(#SVGID_254_);fill:url(#SVGID_255_);stroke:url(#SVGID_256_);stroke-width:0.25;stroke-miterlimit:10;}
	.st68{clip-path:url(#SVGID_260_);fill:url(#SVGID_261_);stroke:url(#SVGID_262_);stroke-width:0.25;stroke-miterlimit:10;}
	.st69{clip-path:url(#SVGID_260_);fill:url(#SVGID_263_);stroke:url(#SVGID_264_);stroke-width:0.25;stroke-miterlimit:10;}
	.st70{fill:#58595B;}
	.st71{clip-path:url(#SVGID_267_);fill:#58595B;stroke:#58595B;stroke-width:0.175;stroke-miterlimit:10;}
	.st72{clip-path:url(#SVGID_269_);fill:#58595B;stroke:#58595B;stroke-width:0.175;stroke-miterlimit:10;}
	.st73{clip-path:url(#SVGID_271_);fill:#58595B;stroke:#58595B;stroke-width:0.175;stroke-miterlimit:10;}
	.st74{clip-path:url(#SVGID_273_);fill:#58595B;stroke:#58595B;stroke-width:0.175;stroke-miterlimit:10;}
	.st75{clip-path:url(#SVGID_275_);fill:#58595B;stroke:#58595B;stroke-width:0.175;stroke-miterlimit:10;}
	.st76{clip-path:url(#SVGID_277_);fill:#58595B;stroke:#58595B;stroke-width:0.175;stroke-miterlimit:10;}
	.st77{clip-path:url(#SVGID_279_);fill:#58595B;stroke:#58595B;stroke-width:0.175;stroke-miterlimit:10;}
	.st78{clip-path:url(#SVGID_281_);fill:#58595B;stroke:#58595B;stroke-width:0.175;stroke-miterlimit:10;}
	.st79{clip-path:url(#SVGID_283_);fill:#58595B;stroke:#58595B;stroke-width:0.175;stroke-miterlimit:10;}
	.st80{clip-path:url(#SVGID_285_);fill:#58595B;stroke:#58595B;stroke-width:0.175;stroke-miterlimit:10;}
	.st81{clip-path:url(#SVGID_287_);fill:#58595B;stroke:#58595B;stroke-width:0.175;stroke-miterlimit:10;}
	.st82{clip-path:url(#SVGID_289_);fill:#58595B;stroke:#58595B;stroke-width:0.175;stroke-miterlimit:10;}
	.st83{clip-path:url(#SVGID_291_);fill:#58595B;stroke:#58595B;stroke-width:0.175;stroke-miterlimit:10;}
	.st84{clip-path:url(#SVGID_293_);fill:#58595B;stroke:#58595B;stroke-width:0.175;stroke-miterlimit:10;}
	.st85{clip-path:url(#SVGID_295_);fill:#58595B;stroke:#58595B;stroke-width:0.175;stroke-miterlimit:10;}
	.st86{clip-path:url(#SVGID_297_);fill:#58595B;stroke:#58595B;stroke-width:0.175;stroke-miterlimit:10;}
	.st87{fill:#255D2E;}
	.st88{fill:#285F2F;}
	.st89{fill:#2D6331;}
	.st90{fill:#306632;}
	.st91{fill:#346933;}
	.st92{fill:#386C34;}
	.st93{fill:#3A6F35;}
	.st94{fill:#3F7237;}
	.st95{fill:#437638;}
	.st96{fill:#487939;}
	.st97{fill:#4B7B39;}
	.st98{fill:#4E7E3A;}
	.st99{fill:#52803B;}
	.st100{fill:#57803A;}
	.st101{fill:#5A8039;}
	.st102{fill:#5E8039;}
	.st103{fill:#648439;}
	.st104{fill:#67873A;}
	.st105{fill:#6B8B3B;}
	.st106{fill:#6E8E3C;}
	.st107{fill:#72913C;}
	.st108{fill:#77963D;}
	.st109{fill:#7C993D;}
	.st110{fill:#809C3D;}
	.st111{fill:#80A13E;}
	.st112{fill:#7FA53F;}
	.st113{fill:#81A940;}
	.st114{fill:#85AE3F;}
	.st115{fill:#88B13F;}
	.st116{fill:#8FB63E;}
	.st117{fill:#93BB3D;}
	.st118{fill:#98C13C;stroke:#98C13C;stroke-width:2;}
	.st119{fill:url(#SVGID_298_);}
	.st120{fill:#273942;}
	.st121{fill:#EEA66A;}
	.st122{opacity:0.15;fill:#DA9061;}
	.st123{opacity:0.33;fill:#3D2D1F;}
	.st124{fill:#753B1D;}
	.st125{opacity:0.39;fill:#753B1D;}
	.st126{opacity:0.17;fill:#753B1D;}
	.st127{fill:#303238;}
	.st128{opacity:0.45;fill:#DA9061;}
	.st129{fill:#344881;}
	.st130{opacity:0.74;fill:#CA202D;}
	.st131{opacity:0.68;}
	.st132{fill:#7DC0BF;}
	.st133{opacity:0.35;fill:#FFFFFF;}
	.st134{opacity:0.22;fill:#FFFFFF;}
	.st135{opacity:0.69;fill:#9B9C9E;}
	.st136{opacity:0.38;}
	.st137{fill:#5A8DBF;}
	.st138{opacity:0.13;fill:#4980B3;}
	.st139{opacity:0.73;fill:#CA202D;}
	.st140{opacity:0.28;fill:#9B9C9E;}
	.st141{opacity:0.67;fill:#FFFFFF;}
	.st142{opacity:0.65;fill:#FFFFFF;}
	.st143{fill:#E17281;}
	.st144{fill:#E35925;}
	.st145{opacity:0.46;fill:#801620;}
	.st146{opacity:0.53;fill:#FFFFFF;}
	.st147{fill:#508089;}
	.st148{fill:#24485B;}
	.st149{opacity:0.46;fill:#BAD8D6;}
	.st150{opacity:0.28;}
	.st151{opacity:0.38;fill:#C6C3C2;}
	.st152{fill:#096C37;}
	.st153{fill:#A6A6A6;}
	.st154{fill:#555868;}
	.st155{fill:#C6C3C2;}
	.st156{opacity:0.71;fill:#C6C3C2;}
	.st157{fill:#373A44;}
	.st158{fill:#283A76;}
	.st159{fill:#333333;}
	.st160{opacity:0.5;fill:#333333;}
	.st161{opacity:0.68;fill:#9895A2;}
	.st162{fill:#B8BBC1;}
	.st163{opacity:0.39;fill:#344881;}
	.st164{opacity:0.64;fill:#4D4E4E;}
	.st165{fill:#AEAEAE;}
	.st166{opacity:0.39;fill:#C6C3C2;}
	.st167{opacity:0.18;fill:#C6C3C2;}
	.st168{fill:#C0BFBD;}
	.st169{opacity:0.14;fill:#8080B7;}
	.st170{opacity:0.29;fill:#8080B7;}
	.st171{opacity:0.47;fill:#C6C3C2;}
	.st172{opacity:0.28;fill:#344881;}
	.st173{opacity:0.49;fill:#344881;}
	.st174{opacity:0.49;fill:#FFFFFF;}
	.st175{opacity:0.65;fill:#C6C3C2;}
	.st176{opacity:0.3;fill:#EEA66A;}
	.st177{fill:#A0D3ED;}
	.st178{fill:#C7E1EF;}
	.st179{opacity:0.74;fill:#1C76B0;}
	.st180{opacity:0.74;fill:#9B9C9E;}
	.st181{opacity:0.73;fill:#1C76B0;}
	.st182{fill:#273C82;}
	.st183{clip-path:url(#SVGID_300_);}
	.st184{clip-path:url(#SVGID_302_);}
	.st185{clip-path:url(#SVGID_304_);}
	.st186{clip-path:url(#SVGID_306_);}
	.st187{clip-path:url(#SVGID_308_);}
	.st188{clip-path:url(#SVGID_312_);}
	.st189{clip-path:url(#SVGID_320_);}
	.st190{clip-path:url(#SVGID_322_);}
	.st191{clip-path:url(#SVGID_2850_);}
	.st192{fill:#074823;}
	.st193{clip-path:url(#SVGID_2852_);}
	.st194{clip-path:url(#SVGID_2854_);}
	.st195{clip-path:url(#SVGID_2856_);}
	.st196{clip-path:url(#SVGID_2858_);enable-background:new    ;}
	.st197{clip-path:url(#SVGID_2860_);}
	.st198{clip-path:url(#SVGID_2862_);}
	.st199{clip-path:url(#SVGID_2864_);}
	.st200{clip-path:url(#SVGID_2866_);enable-background:new    ;}
	.st201{clip-path:url(#SVGID_2868_);}
	.st202{clip-path:url(#SVGID_2870_);}
	.st203{clip-path:url(#SVGID_2872_);}
	.st204{clip-path:url(#SVGID_2874_);}
	.st205{clip-path:url(#SVGID_2876_);}
	.st206{clip-path:url(#SVGID_2878_);}
	.st207{clip-path:url(#SVGID_2880_);}
	.st208{clip-path:url(#SVGID_2882_);}
	.st209{clip-path:url(#SVGID_2884_);}
	.st210{clip-path:url(#SVGID_2886_);}
	.st211{clip-path:url(#SVGID_2888_);}
	.st212{clip-path:url(#SVGID_2890_);}
	.st213{clip-path:url(#SVGID_2892_);}
	.st214{clip-path:url(#SVGID_2894_);}
	.st215{clip-path:url(#SVGID_2896_);}
	.st216{clip-path:url(#SVGID_2898_);}
	.st217{clip-path:url(#SVGID_2900_);}
	.st218{clip-path:url(#SVGID_2902_);}
	.st219{clip-path:url(#SVGID_2904_);}
	.st220{clip-path:url(#SVGID_2906_);}
	.st221{clip-path:url(#SVGID_2908_);}
	.st222{clip-path:url(#SVGID_2910_);}
	.st223{clip-path:url(#SVGID_2912_);}
	.st224{clip-path:url(#SVGID_2914_);}
	.st225{clip-path:url(#SVGID_2916_);}
	.st226{clip-path:url(#SVGID_2918_);}
	.st227{clip-path:url(#SVGID_2920_);}
	.st228{clip-path:url(#SVGID_2922_);}
	.st229{clip-path:url(#SVGID_2924_);}
	.st230{clip-path:url(#SVGID_2926_);}
	.st231{clip-path:url(#SVGID_2928_);}
	.st232{clip-path:url(#SVGID_2930_);enable-background:new    ;}
	.st233{clip-path:url(#SVGID_2932_);enable-background:new    ;}
	.st234{clip-path:url(#SVGID_2934_);enable-background:new    ;}
	.st235{clip-path:url(#SVGID_2936_);enable-background:new    ;}
	.st236{clip-path:url(#SVGID_2938_);enable-background:new    ;}
	.st237{clip-path:url(#SVGID_2940_);enable-background:new    ;}
	.st238{clip-path:url(#SVGID_2942_);enable-background:new    ;}
	.st239{clip-path:url(#SVGID_2944_);enable-background:new    ;}
	.st240{clip-path:url(#SVGID_2946_);enable-background:new    ;}
	.st241{clip-path:url(#SVGID_2948_);enable-background:new    ;}
	.st242{clip-path:url(#SVGID_2950_);enable-background:new    ;}
	.st243{clip-path:url(#SVGID_2952_);enable-background:new    ;}
	.st244{clip-path:url(#SVGID_2954_);enable-background:new    ;}
	.st245{clip-path:url(#SVGID_2956_);enable-background:new    ;}
	.st246{clip-path:url(#SVGID_2958_);enable-background:new    ;}
	.st247{clip-path:url(#SVGID_2960_);enable-background:new    ;}
	.st248{clip-path:url(#SVGID_2962_);enable-background:new    ;}
	.st249{clip-path:url(#SVGID_2964_);enable-background:new    ;}
	.st250{clip-path:url(#SVGID_2966_);enable-background:new    ;}
	.st251{clip-path:url(#SVGID_2968_);enable-background:new    ;}
	.st252{clip-path:url(#SVGID_2970_);enable-background:new    ;}
	.st253{clip-path:url(#SVGID_2972_);enable-background:new    ;}
	.st254{clip-path:url(#SVGID_2974_);enable-background:new    ;}
	.st255{clip-path:url(#SVGID_2976_);enable-background:new    ;}
	.st256{clip-path:url(#SVGID_2978_);enable-background:new    ;}
	.st257{clip-path:url(#SVGID_2980_);enable-background:new    ;}
	.st258{clip-path:url(#SVGID_2982_);enable-background:new    ;}
	.st259{fill:#016938;}
	.st260{fill:#BC5B28;}
	.st261{clip-path:url(#SVGID_2984_);enable-background:new    ;}
	.st262{fill:#803C1D;}
	.st263{clip-path:url(#SVGID_2986_);enable-background:new    ;}
	.st264{fill:#8D4621;}
	.st265{fill:#88441F;}
	.st266{fill:#82421F;}
	.st267{fill:#803F1D;}
	.st268{clip-path:url(#SVGID_2988_);enable-background:new    ;}
	.st269{fill:#BA5B27;}
	.st270{clip-path:url(#SVGID_2990_);enable-background:new    ;}
	.st271{fill:#CF6328;}
	.st272{clip-path:url(#SVGID_2992_);enable-background:new    ;}
	.st273{clip-path:url(#SVGID_2994_);enable-background:new    ;}
	.st274{fill:#B15627;}
	.st275{clip-path:url(#SVGID_2996_);enable-background:new    ;}
	.st276{clip-path:url(#SVGID_2998_);enable-background:new    ;}
	.st277{clip-path:url(#SVGID_3000_);enable-background:new    ;}
	.st278{clip-path:url(#SVGID_3002_);enable-background:new    ;}
	.st279{clip-path:url(#SVGID_3004_);enable-background:new    ;}
	.st280{clip-path:url(#SVGID_3006_);enable-background:new    ;}
	.st281{clip-path:url(#SVGID_3008_);enable-background:new    ;}
	.st282{clip-path:url(#SVGID_3010_);enable-background:new    ;}
	.st283{fill:#D16428;}
	.st284{clip-path:url(#SVGID_3012_);enable-background:new    ;}
	.st285{clip-path:url(#SVGID_3014_);enable-background:new    ;}
	.st286{fill:#AD5526;}
	.st287{fill:#BE5C28;}
	.st288{fill:#A55126;}
	.st289{fill:#B95A27;}
	.st290{fill:#B45827;}
	.st291{clip-path:url(#SVGID_3016_);enable-background:new    ;}
	.st292{fill:#C05B28;}
	.st293{clip-path:url(#SVGID_3018_);enable-background:new    ;}
	.st294{fill:#C25C28;}
	.st295{clip-path:url(#SVGID_3020_);enable-background:new    ;}
	.st296{fill:#C15C28;}
	.st297{clip-path:url(#SVGID_3022_);enable-background:new    ;}
	.st298{clip-path:url(#SVGID_3024_);enable-background:new    ;}
	.st299{clip-path:url(#SVGID_3026_);enable-background:new    ;}
	.st300{fill:#CD6228;}
	.st301{clip-path:url(#SVGID_3028_);enable-background:new    ;}
	.st302{clip-path:url(#SVGID_3030_);enable-background:new    ;}
	.st303{clip-path:url(#SVGID_3032_);enable-background:new    ;}
	.st304{fill:url(#SVGID_3033_);}
	.st305{fill:url(#SVGID_3034_);}
	.st306{fill:url(#SVGID_3035_);}
	.st307{fill:url(#SVGID_3036_);}
	.st308{fill:url(#SVGID_3037_);}
	.st309{fill:url(#SVGID_3038_);}
	.st310{fill:url(#SVGID_3039_);}
	.st311{fill:url(#SVGID_3040_);}
	.st312{fill:url(#SVGID_3041_);}
	.st313{fill:url(#SVGID_3042_);}
	.st314{fill:url(#SVGID_3043_);}
	.st315{fill:url(#SVGID_3044_);}
	.st316{fill:url(#SVGID_3045_);}
	.st317{fill:url(#SVGID_3046_);}
	.st318{fill:url(#SVGID_3047_);}
	.st319{fill:url(#SVGID_3048_);}
	.st320{fill:url(#SVGID_3049_);}
	.st321{fill:url(#SVGID_3050_);}
	.st322{fill:url(#SVGID_3051_);}
	.st323{fill:url(#SVGID_3052_);}
	.st324{fill:url(#SVGID_3053_);}
	.st325{fill:url(#SVGID_3054_);}
	.st326{fill:url(#SVGID_3055_);}
	.st327{fill:url(#SVGID_3056_);}
	.st328{fill:url(#);}
	.st329{fill:#231F20;}
	.st330{fill:#B22025;}
	.st331{fill:#2E4B47;}
	.st332{fill:#112A4D;}
	.st333{fill:none;stroke:#221F1F;stroke-width:0.125;stroke-miterlimit:10;}
	.st334{fill:#104F8B;}
	.st335{fill:#5C5D60;}
	.st336{fill:url(#SVGID_5317_);}
	.st337{fill:url(#SVGID_5318_);}
	.st338{fill:url(#SVGID_5319_);}
	.st339{fill:url(#SVGID_5320_);}
	.st340{fill:url(#SVGID_5321_);}
	.st341{fill:url(#SVGID_5322_);}
	.st342{fill:url(#SVGID_5323_);}
	.st343{fill:url(#SVGID_5324_);}
	.st344{fill:url(#SVGID_5325_);}
	.st345{fill:url(#SVGID_5326_);}
	.st346{fill:url(#SVGID_5327_);}
	.st347{fill:url(#SVGID_5328_);}
	.st348{fill:url(#SVGID_5329_);}
	.st349{fill:url(#SVGID_5330_);}
	.st350{fill:url(#SVGID_5331_);}
	.st351{fill:url(#SVGID_5332_);}
	.st352{fill:url(#SVGID_5333_);}
	.st353{fill:url(#SVGID_5334_);}
	.st354{fill:url(#SVGID_5335_);}
	.st355{fill:url(#SVGID_5336_);}
	.st356{fill:url(#SVGID_5337_);}
	.st357{fill:url(#SVGID_5338_);}
	.st358{fill:url(#SVGID_5339_);}
	.st359{fill:url(#SVGID_5340_);}
	.st360{fill:url(#SVGID_5341_);}
	.st361{fill:url(#SVGID_5342_);}
	.st362{fill:url(#SVGID_5343_);}
	.st363{fill:url(#SVGID_5344_);}
	.st364{fill:url(#SVGID_5345_);}
	.st365{fill:url(#SVGID_5346_);}
	.st366{fill:url(#SVGID_5347_);}
	.st367{fill:#4D4D4F;}
	.st368{fill:url(#SVGID_5348_);}
	.st369{fill:url(#SVGID_5349_);}
	.st370{fill:url(#SVGID_5350_);}
	.st371{fill:url(#SVGID_5351_);}
	.st372{fill:#0081C5;}
	.st373{fill:url(#SVGID_5352_);}
	.st374{fill:url(#SVGID_5353_);}
	.st375{fill:url(#SVGID_5354_);}
	.st376{fill:url(#SVGID_5355_);}
	.st377{fill:#038345;}
	.st378{fill:url(#SVGID_5356_);}
	.st379{fill:url(#SVGID_5357_);}
	.st380{fill:url(#SVGID_5358_);}
	.st381{fill:url(#SVGID_5359_);}
	.st382{fill:url(#SVGID_5360_);}
	.st383{fill:url(#SVGID_5361_);}
	.st384{fill:url(#SVGID_5362_);}
	.st385{fill:url(#SVGID_5363_);}
	.st386{fill:url(#SVGID_5364_);}
	.st387{fill:url(#SVGID_5365_);}
	.st388{fill:url(#SVGID_5366_);}
	.st389{fill:url(#SVGID_5367_);}
	.st390{fill:#0099A5;}
	.st391{fill:url(#SVGID_5368_);}
	.st392{fill:url(#SVGID_5369_);stroke:url(#SVGID_5370_);stroke-width:0.125;stroke-miterlimit:10;}
	.st393{fill:url(#SVGID_5371_);stroke:url(#SVGID_5372_);stroke-width:0.125;stroke-miterlimit:10;}
	.st394{fill:url(#SVGID_5373_);stroke:url(#SVGID_5374_);stroke-width:0.25;stroke-miterlimit:10;}
	.st395{fill:url(#SVGID_5375_);stroke:url(#SVGID_5376_);stroke-width:0.25;stroke-miterlimit:10;}
	.st396{fill:#12110B;}
	.st397{font-family:'MyriadPro-Regular';}
	.st398{font-size:2.1454px;}
	.st399{fill:url(#SVGID_5377_);stroke:url(#SVGID_5378_);stroke-width:0.125;stroke-miterlimit:10;}
	.st400{fill:url(#SVGID_5379_);stroke:url(#SVGID_5380_);stroke-width:0.125;stroke-miterlimit:10;}
	.st401{fill:url(#SVGID_5381_);stroke:url(#SVGID_5382_);stroke-width:0.125;stroke-miterlimit:10;}
	.st402{fill:url(#SVGID_5383_);stroke:url(#SVGID_5384_);stroke-width:0.125;stroke-miterlimit:10;}
	.st403{fill:url(#SVGID_5385_);stroke:url(#SVGID_5386_);stroke-width:0.125;stroke-miterlimit:10;}
	.st404{fill:url(#SVGID_5387_);stroke:url(#SVGID_5388_);stroke-width:0.125;stroke-miterlimit:10;}
	.st405{fill:url(#SVGID_5389_);stroke:url(#SVGID_5390_);stroke-width:0.125;stroke-miterlimit:10;}
	.st406{fill:url(#SVGID_5391_);stroke:url(#SVGID_5392_);stroke-width:0.125;stroke-miterlimit:10;}
	.st407{fill:url(#SVGID_5393_);stroke:url(#SVGID_5394_);stroke-width:0.125;stroke-miterlimit:10;}
	.st408{fill:url(#SVGID_5395_);stroke:url(#SVGID_5396_);stroke-width:0.125;stroke-miterlimit:10;}
	.st409{fill:url(#SVGID_5397_);stroke:url(#SVGID_5398_);stroke-width:0.125;stroke-miterlimit:10;}
	.st410{fill:url(#SVGID_5399_);stroke:url(#SVGID_5400_);stroke-width:0.125;stroke-miterlimit:10;}
	.st411{fill:url(#SVGID_5401_);stroke:url(#SVGID_5402_);stroke-width:0.125;stroke-miterlimit:10;}
	.st412{fill:url(#SVGID_5403_);stroke:url(#SVGID_5404_);stroke-width:0.125;stroke-miterlimit:10;}
	.st413{fill:url(#SVGID_5405_);stroke:url(#SVGID_5406_);stroke-width:0.125;stroke-miterlimit:10;}
	.st414{fill:url(#SVGID_5407_);stroke:url(#SVGID_5408_);stroke-width:0.125;stroke-miterlimit:10;}
	.st415{fill:url(#SVGID_5409_);stroke:url(#SVGID_5410_);stroke-width:0.125;stroke-miterlimit:10;}
	.st416{fill:url(#SVGID_5411_);stroke:url(#SVGID_5412_);stroke-width:0.125;stroke-miterlimit:10;}
	.st417{fill:url(#SVGID_5413_);stroke:url(#SVGID_5414_);stroke-width:0.125;stroke-miterlimit:10;}
	.st418{fill:url(#SVGID_5415_);stroke:url(#SVGID_5416_);stroke-width:0.125;stroke-miterlimit:10;}
</style>
<g>
	<g>
		<linearGradient id="SVGID_1_" gradientUnits="userSpaceOnUse" x1="45.8783" y1="56.2006" x2="63.4069" y2="38.0026">
			<stop  offset="0" style="stop-color:#FBCB02"/>
			<stop  offset="0.5344" style="stop-color:#96C021"/>
			<stop  offset="1" style="stop-color:#C79314"/>
		</linearGradient>
		<path class="st2" d="M54.95,51.15c-0.1,0.08-0.21,0.16-0.32,0.22c-0.35,0.19-0.73,0.29-1.13,0.35c-0.15,0.02-0.29,0.07-0.41,0.17
			c-0.34,0.26-0.69,0.49-1.06,0.7c-0.13,0.08-0.27,0.15-0.43,0.16c-0.13,0.01-0.2-0.06-0.19-0.19c0.01-0.12,0.07-0.22,0.13-0.32
			c0.05-0.08,0.11-0.16,0.16-0.24c-0.15,0.05-0.29,0.09-0.44,0.14C50.4,52.38,49.54,52.4,48.7,52c-0.2-0.09-0.37-0.22-0.46-0.42
			c-0.02-0.04-0.03-0.07-0.05-0.11c-0.05-0.12-0.11-0.22-0.19-0.32c-0.11-0.13-0.19-0.28-0.15-0.46c0.02-0.09-0.02-0.18-0.05-0.27
			c-0.04-0.09-0.08-0.18-0.12-0.27c-0.07-0.17-0.08-0.34,0.01-0.5c0.06-0.1,0.07-0.21,0.03-0.33c-0.01-0.03-0.02-0.07-0.03-0.1
			c-0.07-0.18-0.04-0.33,0.12-0.45c0.01-0.01,0.02-0.02,0.03-0.02c0.07-0.07,0.11-0.15,0.11-0.24c0-0.11,0-0.23-0.01-0.34
			c-0.01-0.19,0.07-0.33,0.23-0.42c0.06-0.04,0.13-0.08,0.19-0.12c0.14-0.08,0.23-0.19,0.28-0.34c0.01-0.04,0.03-0.08,0.04-0.12
			c0.04-0.12,0.09-0.23,0.22-0.28c0.06-0.02,0.12-0.04,0.18-0.04c0.19-0.02,0.35-0.11,0.47-0.27c0.04-0.05,0.08-0.11,0.14-0.16
			c0.04-0.03,0.1-0.06,0.16-0.07c0.14-0.01,0.28,0.01,0.41,0.06c0.34,0.1,0.64,0.27,0.92,0.48c0.01,0.01,0.02,0.01,0.05,0.03
			c-0.06-0.1-0.11-0.19-0.16-0.28c-0.13-0.25-0.26-0.5-0.32-0.77c-0.07-0.31-0.05-0.59,0.18-0.84c0.09-0.1,0.14-0.21,0.13-0.34
			c-0.01-0.17,0.07-0.29,0.2-0.39c0.04-0.03,0.08-0.06,0.12-0.08c0.1-0.07,0.15-0.16,0.16-0.28c0-0.04,0.01-0.07,0.01-0.11
			c0.01-0.16,0.07-0.28,0.21-0.35c0.23-0.13,0.4-0.31,0.5-0.56c0.08-0.2,0.22-0.35,0.41-0.45c0.1-0.05,0.19-0.11,0.28-0.16
			c0.14-0.08,0.24-0.2,0.3-0.35c0.05-0.14,0.09-0.29,0.13-0.43c0.06-0.19,0.14-0.37,0.28-0.52c0.23-0.26,0.57-0.29,0.84-0.08
			c0.22,0.18,0.38,0.41,0.5,0.66c0.25,0.52,0.44,1.07,0.58,1.63c0.04,0.15,0.07,0.29,0.1,0.44c0.04,0,0.07,0,0.11,0.01
			c0.25,0.03,0.48-0.01,0.69-0.15c0.15-0.1,0.32-0.15,0.51-0.13c0.09,0.01,0.18,0.01,0.27,0.03c0.26,0.05,0.48-0.01,0.68-0.18
			c0.03-0.02,0.06-0.05,0.08-0.07c0.17-0.15,0.35-0.28,0.57-0.34c0.29-0.09,0.65,0.01,0.78,0.39c0.02,0.07,0.04,0.13,0.05,0.2
			c0.05,0.28,0.03,0.56-0.02,0.84c-0.15,0.85-0.41,1.66-0.79,2.43c-0.43,0.85-0.99,1.61-1.68,2.27c-0.49,0.47-1.02,0.89-1.58,1.28
			c-0.02,0.01-0.04,0.03-0.06,0.05c0.05,0.01,0.09,0.01,0.12,0.02c0.05,0.01,0.08,0,0.11-0.02c0.26-0.17,0.54-0.32,0.84-0.42
			c0.27-0.09,0.55-0.15,0.84-0.12c0.17,0.02,0.35,0.06,0.52,0.1c0.01,0,0.02,0.01,0.03,0.01c0.07,0.03,0.09,0.09,0.06,0.16
			c-0.02,0.05-0.07,0.05-0.13,0.02c-0.02-0.01-0.05-0.02-0.07-0.04c-0.08-0.07-0.18-0.1-0.29-0.11c-0.12-0.01-0.24-0.02-0.35-0.02
			c-0.4,0.02-0.77,0.17-1.12,0.36c-0.1,0.05-0.19,0.11-0.28,0.17c0.03,0.05,0.05,0.09,0.07,0.12c0.19-0.04,0.38-0.09,0.57-0.12
			c0.36-0.06,0.72-0.07,1.06,0.05c0.2,0.07,0.38,0.18,0.58,0.28c0,0,0.01,0,0.01,0.01c0.05,0.04,0.06,0.11,0.02,0.16
			c-0.03,0.04-0.08,0.04-0.13-0.01c-0.03-0.03-0.05-0.06-0.08-0.09c-0.05-0.04-0.09-0.09-0.14-0.12c-0.22-0.13-0.46-0.18-0.71-0.2
			c-0.37-0.03-0.73,0.04-1.08,0.14c-0.05,0.01-0.08,0.03-0.08,0.08c0,0.04-0.01,0.07-0.02,0.11c-0.06,0.17-0.2,0.3-0.35,0.29
			c-0.07-0.01-0.14-0.04-0.21-0.06C55.04,51.05,55,51.11,54.95,51.15z M53.99,49.52c-0.05-0.56-0.11-1.12-0.16-1.69
			c-0.02-0.25-0.11-0.48-0.27-0.68c-0.13-0.17-0.24-0.35-0.37-0.51c-0.25-0.32-0.51-0.63-0.76-0.95c-0.13-0.17-0.26-0.34-0.41-0.5
			c-0.08-0.08-0.18-0.14-0.27-0.21c-0.03-0.02-0.07-0.02-0.1-0.02c-0.23,0.01-0.45,0.22-0.42,0.43c0.01,0.07,0.04,0.16,0.09,0.21
			c0.15,0.19,0.31,0.37,0.47,0.55c0.2,0.22,0.4,0.44,0.56,0.7c0.21,0.35,0.38,0.73,0.52,1.11c0.12,0.32,0.23,0.65,0.39,0.96
			c0.22,0.42,0.46,0.82,0.74,1.19c0.01,0.01,0.02,0.03,0.03,0.04c0,0,0.01,0,0.01,0C54.02,49.94,54.01,49.73,53.99,49.52z
			 M54.02,47.17c0,0.29,0.02,0.58,0.04,0.87c0.04,0.69,0.09,1.37,0.14,2.06c0.01,0.08,0.02,0.16,0.03,0.24
			c0,0.02,0.03,0.04,0.05,0.06c0.02-0.02,0.05-0.03,0.06-0.05c0.05-0.11,0.09-0.23,0.13-0.34c0.11-0.37,0.23-0.73,0.33-1.1
			c0.14-0.5,0.23-1.01,0.23-1.53c0-0.25-0.06-0.48-0.12-0.72c-0.07-0.24-0.14-0.48-0.21-0.72c-0.02-0.06-0.05-0.11-0.08-0.16
			c-0.07-0.12-0.16-0.13-0.23,0c-0.06,0.1-0.11,0.2-0.14,0.31c-0.06,0.16-0.1,0.32-0.15,0.51C54.07,46.77,54.02,46.97,54.02,47.17z
			 M52.79,50.67c-0.16-0.06-0.31-0.14-0.47-0.21c-0.55-0.23-1.11-0.36-1.71-0.35c-0.25,0.01-0.5,0-0.75,0.03
			c-0.17,0.02-0.35,0.07-0.51,0.13c-0.21,0.09-0.38,0.23-0.49,0.44c-0.03,0.05-0.03,0.1,0.01,0.15c0.02,0.02,0.03,0.05,0.05,0.07
			c0.1,0.12,0.17,0.14,0.32,0.09c0.41-0.15,0.83-0.21,1.27-0.21c0.44,0,0.88,0.03,1.32,0.09c0.49,0.07,0.98,0.06,1.46-0.06
			c0.02,0,0.03-0.01,0.05-0.02c0,0,0.01,0,0,0C53.16,50.78,52.97,50.74,52.79,50.67z M56.89,47.1c0-0.12-0.07-0.17-0.17-0.11
			c-0.14,0.07-0.29,0.16-0.41,0.25c-0.33,0.25-0.61,0.54-0.82,0.9c-0.05,0.09-0.08,0.19-0.1,0.28c-0.14,0.47-0.29,0.94-0.48,1.39
			c-0.05,0.11-0.1,0.22-0.15,0.33c-0.01,0.01,0,0.03-0.01,0.04c0.01,0,0.03,0,0.04-0.01c0.49-0.38,0.97-0.79,1.38-1.27
			c0.23-0.27,0.39-0.58,0.5-0.92c0.06-0.2,0.13-0.39,0.2-0.61C56.87,47.3,56.89,47.2,56.89,47.1z M53.89,46.65
			c0.02-0.12,0.03-0.24,0.03-0.36c0-0.05,0-0.1-0.02-0.15c-0.16-0.52-0.4-0.99-0.75-1.4c-0.2-0.24-0.48-0.32-0.77-0.35
			c-0.04,0-0.08,0.01-0.12,0.02c-0.12,0.03-0.19,0.13-0.19,0.26c0.01,0.19,0.09,0.36,0.19,0.52c0.16,0.23,0.33,0.46,0.5,0.68
			c0.2,0.26,0.42,0.51,0.62,0.77c0.13,0.16,0.26,0.33,0.39,0.51C53.82,46.97,53.87,46.81,53.89,46.65z M52.95,49.87
			c-0.14-0.22-0.3-0.43-0.49-0.62c-0.13-0.13-0.29-0.21-0.48-0.2c-0.09,0-0.17-0.02-0.26-0.03c-0.2-0.03-0.4-0.08-0.6-0.1
			c-0.07-0.01-0.14,0.01-0.21,0.03c-0.1,0.03-0.14,0.13-0.07,0.21c0.09,0.12,0.2,0.23,0.31,0.32c0.45,0.36,0.94,0.63,1.46,0.86
			c0.23,0.1,0.48,0.19,0.71,0.28c0.02,0.01,0.05,0.01,0.07,0.02c0-0.01,0.01-0.01,0.01-0.02C53.26,50.37,53.11,50.12,52.95,49.87z
			 M49.51,51.8c0.08,0.01,0.17-0.02,0.26-0.04c0.19-0.05,0.38-0.11,0.57-0.17c0.41-0.12,0.82-0.17,1.24-0.16
			c0.48,0.01,0.93-0.09,1.37-0.29c0.07-0.03,0.14-0.07,0.2-0.12c-0.12,0.02-0.24,0.04-0.35,0.06c-0.45,0.08-0.91,0.07-1.36,0.03
			c-0.25-0.03-0.5-0.04-0.75-0.02c-0.39,0.04-0.77,0.11-1.16,0.17c-0.21,0.03-0.42,0.08-0.64,0.12c-0.02,0-0.04,0.01-0.06,0.01
			C49,51.61,49.22,51.77,49.51,51.8z M51.17,49.83c-0.2-0.2-0.42-0.35-0.69-0.41c-0.17-0.04-0.35-0.09-0.53-0.12
			c-0.15-0.03-0.3-0.04-0.45-0.04c-0.16,0-0.33,0-0.49,0.02c-0.24,0.03-0.37,0.2-0.46,0.4c-0.02,0.04-0.01,0.08,0.01,0.12
			c0.08,0.11,0.19,0.2,0.31,0.25c0.07,0.03,0.16,0.03,0.23,0.02c0.15-0.02,0.29-0.06,0.43-0.1c0.56-0.17,1.11-0.16,1.67-0.02
			c0.01,0,0.03,0.01,0.04,0.01c0,0,0.01-0.01,0.01-0.01C51.24,49.9,51.21,49.86,51.17,49.83z M50.66,49.19
			c-0.03-0.07-0.04-0.14-0.01-0.21c0.01-0.03,0-0.05-0.02-0.07c-0.3-0.25-0.63-0.44-0.99-0.58c-0.16-0.06-0.31-0.12-0.48-0.12
			c-0.23,0.01-0.41,0.11-0.55,0.29c-0.02,0.02-0.02,0.06-0.01,0.09c0.03,0.14,0.09,0.27,0.18,0.37c0.04,0.05,0.11,0.07,0.18,0.07
			c0.2,0.01,0.4,0.01,0.59,0.03c0.38,0.05,0.76,0.11,1.14,0.22c0.01,0,0.02,0,0.03,0.01C50.7,49.25,50.68,49.22,50.66,49.19z
			 M50.92,48.4c-0.34-0.34-0.73-0.61-1.14-0.87c-0.07-0.04-0.16-0.06-0.24-0.07c-0.21-0.01-0.36,0.17-0.41,0.32
			c-0.03,0.08,0,0.15,0.08,0.19c0.09,0.04,0.19,0.08,0.28,0.11c0.46,0.18,0.9,0.4,1.28,0.72c0.01,0.01,0.04,0.02,0.05,0.01
			c0.13-0.06,0.27-0.05,0.41-0.02c0.01,0,0.03,0.01,0.04,0.01c0-0.01,0.01-0.01,0.01-0.02C51.16,48.65,51.04,48.52,50.92,48.4z
			 M51.62,48.29c-0.2-0.27-0.41-0.53-0.63-0.79c-0.17-0.2-0.37-0.25-0.62-0.21c-0.12,0.02-0.25,0.05-0.37,0.08
			c0,0.01-0.01,0.01-0.01,0.02c0.06,0.05,0.12,0.11,0.18,0.16c0.16,0.13,0.33,0.26,0.5,0.4c0.24,0.19,0.44,0.41,0.62,0.65
			c0.13,0.17,0.31,0.25,0.52,0.27c0.07,0.01,0.13,0,0.18-0.07C51.86,48.62,51.74,48.45,51.62,48.29z M55.61,47.6
			c0.18-0.17,0.37-0.33,0.49-0.55c0.04-0.07,0.05-0.15,0.07-0.23c0.11-0.46,0.15-0.92,0.09-1.39c-0.04-0.29-0.21-0.5-0.42-0.68
			C55.9,45.72,55.82,46.66,55.61,47.6z M54.08,45.41c0.02-0.31-0.02-0.61-0.16-0.89c-0.09-0.17-0.2-0.32-0.35-0.43
			c-0.06-0.05-0.14-0.09-0.21-0.11c-0.1-0.03-0.19,0.02-0.26,0.1c-0.07,0.09-0.08,0.18-0.04,0.28c0.03,0.06,0.07,0.13,0.12,0.17
			c0.3,0.29,0.49,0.64,0.66,1.01c0.05,0.11,0.09,0.22,0.14,0.33C53.99,45.88,54,45.89,54,45.9c0.01,0,0.01,0,0.02,0
			C54.04,45.74,54.07,45.57,54.08,45.41z M57,45.67c0.01-0.18,0-0.37-0.07-0.54c-0.02-0.05-0.05-0.11-0.09-0.15
			c-0.08-0.09-0.18-0.11-0.3-0.07c-0.1,0.04-0.16,0.12-0.16,0.24c0,0.07,0,0.14,0.02,0.2c0.07,0.29,0.06,0.57,0.03,0.86
			c-0.02,0.22-0.06,0.44-0.1,0.67C56.69,46.54,56.97,46.17,57,45.67z M52.15,48.09c-0.11-0.16-0.23-0.31-0.36-0.44
			c-0.21-0.22-0.46-0.35-0.76-0.4c-0.03,0-0.06,0-0.1-0.01c0.83,0.92,1.67,1.82,2.33,2.86C52.93,49.41,52.59,48.73,52.15,48.09z
			 M53.52,43.49c0.22,0.28,0.39,0.59,0.53,0.91c0.06,0.12,0.12,0.23,0.23,0.31c0.05,0.04,0.07,0.03,0.1-0.02
			c0.04-0.06,0.04-0.13,0.03-0.2c-0.04-0.14-0.07-0.28-0.12-0.42c-0.13-0.37-0.32-0.71-0.55-1.02c-0.03-0.04-0.07-0.08-0.1-0.11
			c-0.1-0.08-0.19-0.05-0.23,0.11C53.41,43.19,53.41,43.35,53.52,43.49z M57.22,44.88c0.01,0.27-0.02,0.54-0.06,0.81
			c-0.02,0.13-0.02,0.26,0.02,0.38c0.02,0.06,0.04,0.07,0.1,0.04c0.07-0.04,0.11-0.11,0.14-0.18c0.12-0.33,0.18-0.68,0.2-1.03
			c0-0.1,0.02-0.19,0.01-0.29c-0.01-0.11-0.02-0.21-0.05-0.31c-0.03-0.11-0.13-0.13-0.21-0.05c-0.08,0.08-0.12,0.19-0.17,0.31
			C57.21,44.66,57.22,44.77,57.22,44.88z M54.27,43.48c0.13,0.39,0.26,0.78,0.39,1.17c0,0.01,0,0.02,0.01,0.02
			c0.03,0.03,0.05,0.07,0.09,0.08c0.05,0.01,0.08-0.03,0.1-0.07c0.02-0.08,0.05-0.16,0.04-0.24c-0.03-0.51-0.19-0.98-0.53-1.37
			c-0.04-0.05-0.06-0.04-0.09,0.01c0,0.01-0.01,0.02-0.01,0.03c-0.01,0.02-0.01,0.04-0.02,0.06C54.22,43.28,54.23,43.38,54.27,43.48
			z M57.53,46.23c-0.01,0.06-0.04,0.12,0.03,0.16c0.04,0.03,0.11,0.01,0.17-0.05c0.12-0.11,0.19-0.25,0.25-0.4
			c0.12-0.32,0.2-0.65,0.17-1c0-0.04-0.01-0.08-0.01-0.12c-0.01-0.06-0.03-0.06-0.08-0.03c-0.13,0.08-0.19,0.2-0.23,0.34
			c-0.05,0.19-0.1,0.38-0.15,0.56C57.62,45.88,57.58,46.05,57.53,46.23z M51.34,45.95c-0.1,0.09-0.13,0.23-0.08,0.35
			c0.06,0.13,0.15,0.23,0.26,0.32c0.22,0.2,0.44,0.4,0.65,0.6c0.19,0.18,0.34,0.39,0.47,0.61c0.01,0.01,0.01,0.03,0.02,0.04
			c0.01-0.01,0.01-0.01,0.02-0.02C52.41,47.1,51.9,46.51,51.34,45.95z M50.51,51.94c0.52-0.05,1.05-0.12,1.56-0.25
			c0.3-0.08,0.61-0.22,0.82-0.37c-0.13,0.05-0.26,0.1-0.4,0.14c-0.44,0.13-0.89,0.17-1.35,0.16c-0.37-0.01-0.72,0.09-1.04,0.29
			c-0.02,0.01-0.03,0.02-0.05,0.04c0,0.01,0,0.02,0,0.03C50.21,51.95,50.36,51.95,50.51,51.94z M54.76,43.31
			c0.06,0.25,0.13,0.49,0.2,0.73c0.04,0.16,0.1,0.32,0.15,0.48c0.01,0.04,0.02,0.09,0.07,0.08c0.02-0.01,0.05-0.06,0.05-0.09
			c-0.01-0.24-0.03-0.48-0.05-0.72c-0.01-0.13-0.09-0.25-0.17-0.35c-0.05-0.06-0.1-0.12-0.16-0.18c-0.02-0.02-0.05-0.04-0.07-0.06
			c-0.01,0-0.01,0.01-0.02,0.01C54.75,43.24,54.75,43.28,54.76,43.31z M58.26,45.4c-0.08,0.24-0.15,0.49-0.22,0.73
			c-0.03,0.09-0.05,0.18-0.08,0.27c0,0.01-0.01,0.03-0.01,0.04c0,0.02,0.01,0.05,0.02,0.07c0.02-0.01,0.05-0.01,0.07-0.02
			c0.03-0.02,0.05-0.05,0.07-0.09c0.09-0.15,0.18-0.3,0.26-0.45c0.07-0.12,0.1-0.25,0.09-0.39c-0.01-0.1-0.02-0.21-0.04-0.31
			c0-0.03-0.02-0.05-0.03-0.07c-0.01,0-0.02,0-0.03,0C58.32,45.24,58.28,45.32,58.26,45.4z M55.41,43.68c0.02-0.33,0-0.66-0.14-0.97
			c-0.03-0.07-0.07-0.13-0.12-0.18c-0.02-0.02-0.06-0.03-0.09-0.03c-0.02,0-0.03,0.05-0.04,0.08c-0.02,0.12,0.01,0.24,0.05,0.36
			c0.09,0.26,0.18,0.52,0.27,0.77c0.01,0.03,0.02,0.05,0.04,0.08c0.01,0,0.01,0,0.02,0C55.4,43.74,55.4,43.71,55.41,43.68z
			 M58.62,45.95c0.23-0.29,0.41-0.59,0.44-0.97c0-0.05,0-0.11-0.02-0.16c-0.02-0.07-0.07-0.08-0.12-0.02
			c-0.08,0.09-0.13,0.2-0.15,0.32c-0.06,0.26-0.12,0.51-0.19,0.77c-0.01,0.03-0.01,0.06-0.02,0.1
			C58.6,45.97,58.61,45.96,58.62,45.95z M55.08,45.07c-0.01-0.02-0.01-0.03-0.02-0.05c-0.06-0.11-0.17-0.12-0.23-0.01
			c-0.04,0.07-0.06,0.16-0.08,0.25c-0.02,0.13-0.01,0.26,0.03,0.38c0.01,0.02,0.02,0.04,0.03,0.07c0.05,0.09,0.12,0.1,0.17,0.01
			c0.05-0.08,0.07-0.16,0.11-0.24C55.11,45.33,55.12,45.2,55.08,45.07z M57.13,47.27c0.05,0.04,0.11,0.01,0.16-0.02
			c0.17-0.1,0.29-0.23,0.36-0.41c0.02-0.07,0.04-0.15-0.03-0.2c-0.07-0.05-0.14-0.02-0.2,0.02c-0.16,0.11-0.25,0.27-0.31,0.44
			C57.1,47.17,57.08,47.23,57.13,47.27z M55.18,46.11c0.04,0.11,0.13,0.13,0.21,0.05c0.13-0.12,0.19-0.27,0.18-0.44
			c-0.01-0.13-0.12-0.22-0.23-0.18c-0.04,0.02-0.08,0.05-0.11,0.09c-0.04,0.05-0.06,0.12-0.07,0.15
			C55.14,45.91,55.14,46.01,55.18,46.11z M57.32,47.86c0.18-0.02,0.31-0.11,0.39-0.27c0.03-0.07,0.03-0.14-0.03-0.2
			c-0.05-0.06-0.12-0.06-0.19-0.04c-0.17,0.06-0.26,0.18-0.31,0.32C57.15,47.81,57.21,47.88,57.32,47.86z M55.41,46.59
			c0.01-0.09-0.01-0.16-0.1-0.2c-0.04-0.02-0.08-0.04-0.13-0.06c-0.08-0.03-0.13,0-0.12,0.08c0,0.11,0.02,0.21,0.04,0.32
			c0.03,0.14,0.07,0.27,0.11,0.41c0.01,0,0.01,0,0.02,0C55.3,46.96,55.39,46.79,55.41,46.59z M54.25,42.24
			c-0.02-0.02-0.04-0.04-0.06-0.05c-0.05-0.03-0.11-0.04-0.16,0c-0.05,0.04-0.06,0.1-0.04,0.15c0.08,0.17,0.16,0.33,0.24,0.5
			c0.02,0.04,0.06,0.07,0.1,0.05c0.03-0.01,0.05-0.05,0.07-0.07C54.4,42.6,54.37,42.41,54.25,42.24z M57.13,48.19
			c0.04-0.06,0.05-0.12,0.01-0.18c-0.03-0.05-0.06-0.1-0.09-0.15c-0.04-0.06-0.09-0.06-0.13,0c-0.06,0.09-0.1,0.18-0.14,0.28
			c-0.05,0.12-0.08,0.25-0.13,0.38c0,0,0.01,0.01,0.01,0.01C56.83,48.44,57.01,48.35,57.13,48.19z M58.14,44.57
			c0,0.05,0.01,0.1,0.06,0.1c0.03,0,0.08-0.02,0.1-0.05c0.11-0.14,0.18-0.3,0.17-0.49c0-0.05-0.03-0.11-0.06-0.14
			c-0.07-0.08-0.17-0.06-0.21,0.05c-0.01,0.04-0.02,0.07-0.02,0.11c0,0-0.01,0-0.01,0C58.16,44.29,58.15,44.43,58.14,44.57z
			 M55.44,45.07c0.05-0.21,0.1-0.42,0.13-0.64c0.03-0.17-0.06-0.31-0.16-0.43c-0.03-0.04-0.06-0.03-0.07,0.02
			c-0.01,0.03,0,0.06,0,0.09c0.01,0.33,0.03,0.67,0.04,1c0,0.02,0,0.04,0.01,0.06c0.01,0,0.01,0,0.02,0
			C55.42,45.13,55.44,45.1,55.44,45.07z M54.72,42.36c-0.04-0.04-0.08-0.08-0.14-0.06c-0.04,0.02-0.06,0.07-0.03,0.15
			c0.05,0.16,0.1,0.32,0.15,0.48c0.01,0.03,0.02,0.06,0.04,0.08c0.03,0.02,0.06,0.05,0.09,0.04c0.03,0,0.05-0.04,0.07-0.06
			C54.89,42.75,54.88,42.53,54.72,42.36z M58.01,46.98c0.12-0.1,0.23-0.21,0.34-0.31c0.14-0.14,0.17-0.31,0.14-0.5
			c-0.01-0.04-0.03-0.05-0.07-0.02c-0.01,0.01-0.03,0.02-0.04,0.04c-0.17,0.28-0.34,0.55-0.51,0.83c-0.01,0.02-0.02,0.04-0.04,0.06
			c0,0.01,0.01,0.01,0.01,0.02C57.91,47.06,57.97,47.02,58.01,46.98z M58.46,45.01c0,0.03,0.03,0.07,0.06,0.08
			c0.02,0.01,0.07-0.01,0.09-0.03c0.11-0.16,0.2-0.32,0.19-0.52c0-0.04-0.01-0.08-0.03-0.12c-0.01-0.03-0.05-0.06-0.07-0.06
			c-0.03,0-0.06,0.03-0.08,0.06c-0.03,0.05-0.04,0.11-0.06,0.16c-0.03,0.08-0.05,0.17-0.08,0.26
			C58.47,44.88,58.46,44.94,58.46,45.01z M48.07,50.37c0.11,0.03,0.25-0.07,0.28-0.19c0.03-0.12-0.05-0.24-0.18-0.27
			c-0.11-0.03-0.21,0.04-0.24,0.16C47.9,50.2,47.96,50.34,48.07,50.37z M52.63,43.68c0.03-0.13-0.04-0.27-0.15-0.29
			c-0.11-0.02-0.26,0.09-0.28,0.21c-0.02,0.11,0.05,0.21,0.18,0.24C52.5,43.87,52.6,43.81,52.63,43.68z M56.46,44.19
			c0.03-0.11-0.04-0.21-0.15-0.24c-0.13-0.03-0.27,0.05-0.29,0.15c-0.02,0.11,0.07,0.25,0.19,0.27
			C56.32,44.4,56.43,44.31,56.46,44.19z M54.56,45.04c-0.02-0.07-0.08-0.1-0.16-0.1c-0.07,0-0.11,0.04-0.14,0.1
			c-0.05,0.11-0.03,0.27,0.05,0.36c0.06,0.06,0.13,0.07,0.18,0.01c0.04-0.05,0.07-0.11,0.11-0.17
			C54.59,45.17,54.59,45.1,54.56,45.04z M56.9,46.74c0.07,0.05,0.14,0.02,0.2-0.02c0.09-0.06,0.15-0.13,0.15-0.25
			c-0.01-0.13-0.13-0.2-0.25-0.14c-0.07,0.04-0.13,0.11-0.15,0.23C56.84,46.62,56.83,46.69,56.9,46.74z M53.65,42.59
			c0.01,0.05,0.02,0.11,0.04,0.15c0.06,0.13,0.14,0.24,0.24,0.34c0.02,0.02,0.04,0.04,0.07,0.05c0.04,0.02,0.06,0,0.06-0.04
			c0-0.02,0-0.05-0.01-0.07c-0.04-0.15-0.09-0.3-0.18-0.42c-0.03-0.04-0.07-0.07-0.1-0.09C53.7,42.49,53.65,42.53,53.65,42.59z
			 M57.98,44.16c0-0.01,0-0.02-0.01-0.04c-0.01-0.07-0.06-0.12-0.1-0.12c-0.07,0-0.08,0.06-0.1,0.11c-0.04,0.17-0.04,0.35,0.01,0.52
			c0.01,0.03,0.03,0.05,0.05,0.08c0.02-0.02,0.05-0.04,0.06-0.07c0.02-0.06,0.04-0.12,0.07-0.2C57.97,44.36,57.97,44.26,57.98,44.16
			z M48.27,50.81c0.01,0.06,0.02,0.11,0.05,0.16c0.04,0.07,0.1,0.08,0.17,0.05c0.09-0.04,0.14-0.14,0.13-0.22
			c-0.01-0.07-0.07-0.14-0.15-0.15C48.34,50.62,48.26,50.69,48.27,50.81z M49.1,47.12c-0.02,0.11,0.03,0.22,0.11,0.24
			c0.09,0.02,0.24-0.09,0.26-0.19c0.02-0.08-0.05-0.16-0.15-0.19C49.22,46.96,49.12,47.02,49.1,47.12z M53.26,42.78
			c0.02-0.11-0.04-0.24-0.14-0.26c-0.09-0.02-0.2,0.06-0.22,0.16c-0.02,0.1,0.05,0.19,0.17,0.22
			C53.17,42.92,53.24,42.88,53.26,42.78z M52.07,44.24c0.02-0.11-0.03-0.22-0.11-0.24c-0.09-0.02-0.23,0.09-0.26,0.2
			c-0.02,0.08,0.05,0.16,0.15,0.18C51.96,44.41,52.05,44.35,52.07,44.24z M47.94,49.32c0,0.09,0.04,0.14,0.13,0.15
			c0.1,0.01,0.21-0.06,0.22-0.16c0.02-0.1-0.06-0.21-0.16-0.23c-0.05-0.01-0.09,0-0.12,0.04c-0.03,0.04-0.05,0.09-0.07,0.14
			c0,0,0,0,0.01,0C47.95,49.27,47.95,49.29,47.94,49.32z M54.48,41.25c-0.02-0.1-0.1-0.15-0.19-0.13c-0.1,0.02-0.16,0.11-0.14,0.21
			c0.02,0.08,0.06,0.13,0.13,0.16c0.1,0.04,0.18-0.01,0.21-0.12C54.48,41.33,54.48,41.29,54.48,41.25z M57.32,43.64
			c-0.1-0.02-0.22,0.03-0.23,0.12c-0.02,0.1,0.06,0.23,0.16,0.25c0.09,0.02,0.17-0.05,0.19-0.16
			C57.46,43.75,57.41,43.66,57.32,43.64z M58.98,43.61c0.08,0.02,0.18-0.06,0.2-0.16c0.02-0.1-0.03-0.18-0.13-0.21
			c-0.1-0.02-0.18,0.03-0.21,0.12C58.83,43.47,58.89,43.59,58.98,43.61z M54,41.72c0.02-0.1-0.03-0.21-0.11-0.23
			c-0.07-0.02-0.18,0.07-0.2,0.15c-0.02,0.08,0.05,0.16,0.15,0.18C53.92,41.83,53.98,41.8,54,41.72z M48.63,48.1
			c0.02-0.09-0.03-0.19-0.11-0.21c-0.08-0.02-0.16,0.05-0.18,0.14c-0.02,0.09,0.02,0.15,0.1,0.17
			C48.53,48.22,48.61,48.18,48.63,48.1z M58.51,43.28c-0.1-0.02-0.19,0.02-0.21,0.09c-0.02,0.08,0.05,0.2,0.14,0.22
			c0.08,0.02,0.14-0.04,0.16-0.14C58.62,43.36,58.59,43.3,58.51,43.28z M50.16,46.8c-0.02-0.05-0.06-0.07-0.11-0.06
			c-0.03,0.01-0.06,0.02-0.09,0.04c-0.07,0.04-0.1,0.1-0.08,0.16c0.02,0.06,0.1,0.12,0.16,0.11c0.07,0,0.12-0.05,0.14-0.13
			C50.18,46.88,50.18,46.84,50.16,46.8z M51.55,44.72c0.02-0.08-0.03-0.17-0.09-0.19c-0.06-0.01-0.15,0.06-0.17,0.12
			c-0.01,0.06,0.04,0.13,0.12,0.14C51.48,44.81,51.53,44.78,51.55,44.72z M52.98,43.19c-0.07-0.02-0.14,0.02-0.15,0.08
			c-0.02,0.07,0.04,0.16,0.1,0.17c0.06,0.01,0.12-0.05,0.14-0.12C53.08,43.25,53.05,43.2,52.98,43.19z M56.81,44.33
			c0.06,0.01,0.15-0.04,0.16-0.09c0.01-0.06-0.05-0.14-0.12-0.15c-0.06-0.01-0.1,0.03-0.12,0.09
			C56.72,44.25,56.75,44.31,56.81,44.33z M54.77,41.57c-0.07-0.02-0.13,0.01-0.14,0.07c-0.01,0.07,0.03,0.15,0.09,0.16
			c0.05,0.01,0.11-0.04,0.13-0.11C54.86,41.63,54.83,41.59,54.77,41.57z M59.13,44.06c0.06,0.01,0.14-0.04,0.15-0.09
			c0.01-0.05-0.04-0.12-0.11-0.14c-0.05-0.01-0.1,0.03-0.11,0.1C59.05,44,59.08,44.05,59.13,44.06z M51.14,45.79
			c0.01-0.06-0.03-0.14-0.08-0.16c-0.05-0.01-0.12,0.04-0.14,0.1c-0.01,0.05,0.03,0.11,0.1,0.13
			C51.09,45.87,51.13,45.85,51.14,45.79z M48.81,47.68c0.07,0.02,0.13-0.02,0.14-0.07c0.01-0.06-0.03-0.14-0.08-0.15
			c-0.05-0.01-0.13,0.05-0.14,0.11C48.72,47.62,48.76,47.67,48.81,47.68z M48.29,48.72c0.06,0.01,0.14-0.04,0.15-0.09
			c0.01-0.05-0.05-0.12-0.1-0.13c-0.05-0.01-0.09,0.03-0.11,0.1C48.21,48.66,48.24,48.71,48.29,48.72z M53.6,42.03
			c-0.05-0.01-0.13,0.05-0.14,0.1c-0.01,0.05,0.04,0.1,0.1,0.12c0.06,0.01,0.1-0.01,0.11-0.07C53.68,42.11,53.65,42.04,53.6,42.03z
			 M58.01,43.54c-0.06-0.01-0.13,0.02-0.14,0.06c-0.01,0.06,0.03,0.13,0.09,0.14c0.05,0.01,0.1-0.03,0.11-0.09
			C58.08,43.6,58.06,43.56,58.01,43.54z M50.74,46.95c0.01-0.06-0.02-0.13-0.07-0.14c-0.04-0.01-0.11,0.04-0.12,0.09
			c-0.01,0.05,0.03,0.09,0.09,0.11C50.69,47.02,50.72,47,50.74,46.95z M48.53,51.5c0.04,0.01,0.1-0.03,0.11-0.09
			c0.01-0.05-0.02-0.08-0.07-0.1c-0.05-0.01-0.09,0.01-0.1,0.06C48.45,51.43,48.48,51.49,48.53,51.5z M54.98,42.01
			c-0.05-0.01-0.11,0.02-0.12,0.06c-0.01,0.05,0.03,0.12,0.08,0.13c0.04,0.01,0.08-0.03,0.1-0.08
			C55.05,42.06,55.03,42.02,54.98,42.01z M59.04,44.38c-0.01,0.05,0.02,0.11,0.06,0.11c0.05,0.01,0.11-0.04,0.11-0.08
			c0.01-0.04-0.03-0.09-0.09-0.1C59.09,44.31,59.05,44.33,59.04,44.38z"/>
	</g>
	
		<linearGradient id="SVGID_2_" gradientUnits="userSpaceOnUse" x1="-199.2471" y1="213.6752" x2="-187.8277" y2="213.6752" gradientTransform="matrix(0.8078 -0.5895 0.5895 0.8078 42.6959 -245.6422)">
		<stop  offset="0" style="stop-color:#3E6429"/>
		<stop  offset="0.1361" style="stop-color:#537C29"/>
		<stop  offset="0.3082" style="stop-color:#679229"/>
		<stop  offset="0.4958" style="stop-color:#75A229"/>
		<stop  offset="0.7085" style="stop-color:#7DAB29"/>
		<stop  offset="1" style="stop-color:#80AE29"/>
	</linearGradient>
	
		<linearGradient id="SVGID_3_" gradientUnits="userSpaceOnUse" x1="-199.3137" y1="213.6752" x2="-187.745" y2="213.6752" gradientTransform="matrix(0.8078 -0.5895 0.5895 0.8078 42.6959 -245.6422)">
		<stop  offset="0" style="stop-color:#80AE29"/>
		<stop  offset="0.2915" style="stop-color:#7DAB29"/>
		<stop  offset="0.5042" style="stop-color:#75A229"/>
		<stop  offset="0.6918" style="stop-color:#679229"/>
		<stop  offset="0.8639" style="stop-color:#537C29"/>
		<stop  offset="1" style="stop-color:#3E6429"/>
	</linearGradient>
	<path style="fill:url(#SVGID_2_);stroke:url(#SVGID_3_);stroke-width:0.125;stroke-miterlimit:10;" d="M19.17,41.86
		c-2.42-1.21-4.77-1.99-7.3-2.21c2.35-0.21,4.61,0.4,7.05,0.77c-0.42-0.46-0.71-0.8-1.03-1.11c-2.09-1.95-4.5-2.69-7.31-1.94
		c-1.52,0.41-2.86,1.15-4.1,2.11C6,39.85,5.54,40.26,5,40.71c1.85,2.2,3.98,3.66,6.79,3.84C14.56,44.71,16.91,43.65,19.17,41.86z"/>
	
		<linearGradient id="SVGID_4_" gradientUnits="userSpaceOnUse" x1="-189.1245" y1="211.5761" x2="-183.6509" y2="211.5761" gradientTransform="matrix(0.8078 -0.5895 0.5895 0.8078 42.6959 -245.6422)">
		<stop  offset="0" style="stop-color:#3E6429"/>
		<stop  offset="0.1361" style="stop-color:#537C29"/>
		<stop  offset="0.3082" style="stop-color:#679229"/>
		<stop  offset="0.4958" style="stop-color:#75A229"/>
		<stop  offset="0.7085" style="stop-color:#7DAB29"/>
		<stop  offset="1" style="stop-color:#80AE29"/>
	</linearGradient>
	
		<linearGradient id="SVGID_5_" gradientUnits="userSpaceOnUse" x1="-189.191" y1="211.5975" x2="-183.5884" y2="211.5975" gradientTransform="matrix(0.8078 -0.5895 0.5895 0.8078 42.6959 -245.6422)">
		<stop  offset="0" style="stop-color:#80AE29"/>
		<stop  offset="0.2915" style="stop-color:#7DAB29"/>
		<stop  offset="0.5042" style="stop-color:#75A229"/>
		<stop  offset="0.6918" style="stop-color:#679229"/>
		<stop  offset="0.8639" style="stop-color:#537C29"/>
		<stop  offset="1" style="stop-color:#3E6429"/>
	</linearGradient>
	<path style="fill:url(#SVGID_4_);stroke:url(#SVGID_5_);stroke-width:0.125;stroke-miterlimit:10;" d="M14.58,30.96
		c-0.42,1.71-0.89,3.65,0.1,5.83c0,0,0.48,0.18,1.04,0.45c0.9,0.43,1.74,1,2.61,1.52c0.19,0.12,0.37,0.25,0.67,0.45
		c0.09-1.41-0.27-2.67-1.6-3.92c1.56,1.06,1.98,2.34,2.48,3.49C21.49,35.07,18.14,31.45,14.58,30.96z"/>
	
		<linearGradient id="SVGID_6_" gradientUnits="userSpaceOnUse" x1="-240.7859" y1="243.6531" x2="-231.0174" y2="213.7085" gradientTransform="matrix(0.7071 -0.7071 0.7071 0.7071 31.0681 -292.0097)">
		<stop  offset="5.618000e-03" style="stop-color:#FBCB02"/>
		<stop  offset="0.2528" style="stop-color:#FFF9D3"/>
		<stop  offset="0.2968" style="stop-color:#FAF0C2"/>
		<stop  offset="0.3843" style="stop-color:#EDD895"/>
		<stop  offset="0.5057" style="stop-color:#D8B24D"/>
		<stop  offset="0.5955" style="stop-color:#C79314"/>
		<stop  offset="0.816" style="stop-color:#E9CB70"/>
		<stop  offset="0.8708" style="stop-color:#F2D987"/>
		<stop  offset="1" style="stop-color:#FFF9D3"/>
	</linearGradient>
	
		<linearGradient id="SVGID_7_" gradientUnits="userSpaceOnUse" x1="-240.9902" y1="226.4051" x2="-230.4308" y2="226.4051" gradientTransform="matrix(0.7071 -0.7071 0.7071 0.7071 31.0681 -292.0097)">
		<stop  offset="5.618000e-03" style="stop-color:#FBCB02"/>
		<stop  offset="0.2528" style="stop-color:#FFF9D3"/>
		<stop  offset="0.2968" style="stop-color:#FAF0C2"/>
		<stop  offset="0.3843" style="stop-color:#EDD895"/>
		<stop  offset="0.5057" style="stop-color:#D8B24D"/>
		<stop  offset="0.5955" style="stop-color:#C79314"/>
		<stop  offset="0.816" style="stop-color:#E9CB70"/>
		<stop  offset="0.8708" style="stop-color:#F2D987"/>
		<stop  offset="1" style="stop-color:#FFF9D3"/>
	</linearGradient>
	<path style="fill:url(#SVGID_6_);stroke:url(#SVGID_7_);stroke-width:0.25;stroke-miterlimit:10;" d="M26.47,36.6
		c-0.04-1.94-0.08-3.87-0.59-5.75c-0.46-1.68-1.09-3.29-2.49-4.44c-1.33-1.1-2.94-1.35-4.68-1c0.1,0.21,2.47,2.13,4.11,8.38
		c0.41,1.58,0.94,3.13,1.4,4.7c1.39,4.72,4.18,7.54,4.24,7.51c-0.26-0.62-0.55-1.22-0.77-1.85C26.82,41.7,26.52,39.16,26.47,36.6z"
		/>
	
		<linearGradient id="SVGID_8_" gradientUnits="userSpaceOnUse" x1="-181.7717" y1="231.5292" x2="-195.4659" y2="220.6652" gradientTransform="matrix(0.8078 -0.5895 0.5895 0.8078 42.6959 -245.6422)">
		<stop  offset="5.618000e-03" style="stop-color:#FBCB02"/>
		<stop  offset="0.2528" style="stop-color:#FFF9D3"/>
		<stop  offset="0.2968" style="stop-color:#FAF0C2"/>
		<stop  offset="0.3843" style="stop-color:#EDD895"/>
		<stop  offset="0.5057" style="stop-color:#D8B24D"/>
		<stop  offset="0.5955" style="stop-color:#C79314"/>
		<stop  offset="0.816" style="stop-color:#E9CB70"/>
		<stop  offset="0.8708" style="stop-color:#F2D987"/>
		<stop  offset="1" style="stop-color:#FFF9D3"/>
	</linearGradient>
	
		<linearGradient id="SVGID_9_" gradientUnits="userSpaceOnUse" x1="-194.1232" y1="225.155" x2="-187.009" y2="225.155" gradientTransform="matrix(0.8078 -0.5895 0.5895 0.8078 42.6959 -245.6422)">
		<stop  offset="5.618000e-03" style="stop-color:#FBCB02"/>
		<stop  offset="0.2528" style="stop-color:#FFF9D3"/>
		<stop  offset="0.2968" style="stop-color:#FAF0C2"/>
		<stop  offset="0.3843" style="stop-color:#EDD895"/>
		<stop  offset="0.5057" style="stop-color:#D8B24D"/>
		<stop  offset="0.5955" style="stop-color:#C79314"/>
		<stop  offset="0.816" style="stop-color:#E9CB70"/>
		<stop  offset="0.8708" style="stop-color:#F2D987"/>
		<stop  offset="1" style="stop-color:#FFF9D3"/>
	</linearGradient>
	<path style="fill:url(#SVGID_8_);stroke:url(#SVGID_9_);stroke-width:0.25;stroke-miterlimit:10;" d="M17.7,45.72
		c-0.37,0.02-0.78,0.11-1.1,0.3c-0.72,0.43-0.69,1.16,0.07,1.5c0.42,0.19,0.92,0.28,1.38,0.29c2.2,0.06,6.33,0.48,9.18,2.81
		c-0.52-0.61-1-1.25-1.56-1.81C23.47,46.6,20.83,45.52,17.7,45.72z"/>
	<text transform="matrix(1 0 0 1 34.854 64.1538)" class="st396 st397 st398"> </text>
	<linearGradient id="SVGID_11_" gradientUnits="userSpaceOnUse" x1="24.9445" y1="81.1928" x2="70.4324" y2="35.7048">
		<stop  offset="5.618000e-03" style="stop-color:#FBCB02"/>
		<stop  offset="0.5344" style="stop-color:#F2D987"/>
		<stop  offset="1" style="stop-color:#C79314"/>
	</linearGradient>
	<linearGradient id="SVGID_13_" gradientUnits="userSpaceOnUse" x1="10.4633" y1="49.817" x2="91.0056" y2="49.817">
		<stop  offset="5.618000e-03" style="stop-color:#FBCB02"/>
		<stop  offset="0.2528" style="stop-color:#FFF9D3"/>
		<stop  offset="0.2968" style="stop-color:#FAF0C2"/>
		<stop  offset="0.3843" style="stop-color:#EDD895"/>
		<stop  offset="0.5057" style="stop-color:#D8B24D"/>
		<stop  offset="0.5955" style="stop-color:#C79314"/>
		<stop  offset="0.816" style="stop-color:#E9CB70"/>
		<stop  offset="0.8708" style="stop-color:#F2D987"/>
		<stop  offset="1" style="stop-color:#FFF9D3"/>
	</linearGradient>
	<path style="fill:url(#SVGID_11_);stroke:url(#SVGID_13_);stroke-width:0.125;stroke-miterlimit:10;" d="M90.93,57.21
		c-0.02-0.03-0.06-0.03-0.11,0.01c-0.05,0.03-0.12,0.11-0.22,0.24c-0.1,0.13-0.23,0.32-0.39,0.57c-0.13,0.2-0.27,0.45-0.44,0.73
		c-0.49,0.84-1.11,1.79-1.84,2.85c-0.48,0.69-1,1.31-1.56,1.86c-0.55,0.54-1.13,0.91-1.73,1.09c-0.61,0.17-1.16,0.1-1.64-0.22
		c-0.48-0.31-0.74-0.88-0.77-1.7c0.01-0.26,0.03-0.53,0.07-0.81c0.36-0.18,0.73-0.37,1.08-0.56c0.59-0.31,1.14-0.65,1.66-1.01
		c1.08-0.79,1.81-1.62,2.19-2.48c0.17-0.42,0.21-0.81,0.12-1.16c-0.09-0.35-0.32-0.63-0.68-0.84c-0.38-0.22-0.86-0.31-1.45-0.28
		c-0.59,0.03-1.22,0.26-1.88,0.7c-0.67,0.47-1.29,1.11-1.87,1.93s-1.01,1.66-1.28,2.53c-0.11,0.37-0.17,0.73-0.21,1.07
		c-0.44,0.61-0.85,1.16-1.22,1.61c-0.73,0.82-1.29,1.23-1.68,1.23c-0.19,0-0.28-0.12-0.28-0.37c0-0.23,0.07-0.6,0.22-1.11
		c0.15-0.51,0.38-1.22,0.71-2.15c0.37-1.05,0.81-2.29,1.33-3.71c1.54-4.25,2.48-7.04,2.84-8.38c0.1-0.39,0.16-0.67,0.17-0.83
		c0.02-0.16,0.03-0.28,0.03-0.36c0-0.15-0.03-0.26-0.09-0.34c-0.05-0.09-0.11-0.17-0.17-0.24c-0.06-0.07-0.17-0.14-0.32-0.22
		c-0.15-0.1-0.32-0.18-0.48-0.24s-0.31-0.09-0.41-0.09c-0.17,0-0.29,0.07-0.38,0.2c-0.06,0.1-0.14,0.26-0.22,0.49
		c-0.08,0.23-0.2,0.56-0.35,0.99c-0.15,0.43-0.57,1.63-1.27,3.59c-0.93,2.55-1.67,4.68-2.23,6.38c-0.22,0.37-0.51,0.77-0.9,1.2
		c-0.41,0.46-0.97,0.84-1.68,1.15c-0.08,0.04-0.18,0.07-0.27,0.09c0.34-1.09,0.52-2.05,0.52-2.87c0-0.91-0.23-1.57-0.69-1.98
		c-0.36-0.32-0.77-0.47-1.22-0.47h-0.05c-0.29,0-0.59,0.1-0.92,0.29c-0.35,0.21-0.75,0.58-1.19,1.09c-0.53,0.62-1.09,1.39-1.67,2.29
		c-0.72,1.09-1.34,2.18-1.87,3.25c0.45-1.53,1.3-3.91,2.55-7.14c1.22-3.12,1.96-5.2,2.21-6.22c0.08-0.35,0.13-0.59,0.14-0.72
		c0.01-0.13,0.02-0.22,0.02-0.28c0-0.2-0.04-0.36-0.11-0.46s-0.13-0.19-0.19-0.24c-0.13-0.11-0.39-0.26-0.79-0.43
		c-0.2-0.08-0.36-0.12-0.51-0.12c-0.07,0-0.14,0.03-0.2,0.08c-0.06,0.05-0.14,0.18-0.22,0.37c-0.19,0.42-0.51,1.27-0.97,2.56
		c-1.49,4.19-2.63,7.54-3.42,10.07c-0.03,0.05-0.07,0.1-0.1,0.15c-0.74,1.11-1.41,2.07-2.01,2.89c-0.5,0.66-0.88,1.09-1.14,1.3
		c-0.26,0.21-0.47,0.3-0.63,0.29c-0.18,0.01-0.31-0.06-0.39-0.19c-0.09-0.14-0.08-0.37,0.04-0.71c0.21-0.53,0.56-1.2,1.04-2.01
		c0.17-0.28,0.33-0.56,0.48-0.84c0.6-1.04,1-1.99,1.18-2.84c0.08-0.44,0.07-0.83-0.01-1.19c-0.08-0.36-0.27-0.63-0.55-0.82
		c-0.29-0.2-0.67-0.26-1.14-0.19c-0.46,0.07-0.97,0.33-1.52,0.78c-0.55,0.49-1.11,1.13-1.65,1.92c-0.07,0.1-0.14,0.2-0.21,0.31
		c0.04-0.13,0.08-0.26,0.12-0.39c0.09-0.35,0.13-0.72,0.11-1.11c-0.02-0.39-0.15-0.7-0.41-0.93c-0.27-0.22-0.65-0.3-1.13-0.25
		c-0.48,0.05-0.98,0.27-1.51,0.65c-0.52,0.4-1.02,0.93-1.49,1.6c-0.47,0.67-0.92,1.38-1.33,2.14c-0.25,0.46-0.48,0.9-0.71,1.33
		c-0.36,0.71-0.68,1.29-0.97,1.74c0.02-0.08,0.04-0.16,0.06-0.25c0.13-0.46,0.32-1.02,0.55-1.66c0.24-0.64,0.48-1.28,0.73-1.92
		c0.25-0.65,0.46-1.22,0.63-1.69c0.12-0.34,0.21-0.61,0.26-0.81c0.06-0.2,0.09-0.35,0.11-0.46c0.01-0.11,0.01-0.19,0-0.23
		c-0.01-0.05-0.03-0.08-0.05-0.1c-0.04-0.05-0.08-0.09-0.13-0.12c-0.05-0.03-0.14-0.06-0.27-0.09c-0.13-0.03-0.28-0.05-0.46-0.07
		c-0.18-0.02-0.34-0.01-0.48,0.02c-0.09,0.02-0.17,0.08-0.24,0.16c-0.07,0.09-0.16,0.25-0.26,0.47c-0.1,0.23-0.24,0.56-0.41,1.01
		c-0.28,0.72-0.6,1.58-0.96,2.61c-0.08,0.24-0.16,0.47-0.24,0.7c-0.15,0.22-0.3,0.43-0.45,0.64c-0.98,1.43-1.78,2.39-2.42,2.86
		c-0.32,0.22-0.55,0.24-0.68,0.06c-0.13-0.18-0.11-0.61,0.08-1.29c0.15-0.48,0.37-1.05,0.64-1.71c0.27-0.65,0.56-1.31,0.85-1.96
		c0.27-0.6,0.5-1.13,0.69-1.59c0.19-0.46,0.32-0.83,0.39-1.09c0.07-0.26,0.11-0.46,0.1-0.59c-0.01-0.13-0.03-0.23-0.07-0.3
		c-0.14-0.21-0.37-0.35-0.69-0.41c-0.17-0.04-0.35-0.06-0.53-0.06c-0.19-0.01-0.35,0.01-0.48,0.05c-0.18,0.06-0.46,0.44-0.84,1.15
		c-0.39,0.71-0.85,1.58-1.39,2.59c-0.36,0.67-0.72,1.34-1.08,1.99c-0.44,0.79-0.85,1.45-1.23,1.99c-0.38,0.54-0.71,0.88-0.98,1.02
		c-0.28,0.13-0.47,0.03-0.58-0.28c-0.11-0.31-0.07-0.82,0.12-1.51c0.14-0.51,0.34-1.06,0.61-1.68c0.26-0.61,0.53-1.21,0.79-1.78
		c0.2-0.45,0.38-0.85,0.53-1.19c0.16-0.39,0.27-0.7,0.34-0.93c0.06-0.23,0.09-0.4,0.08-0.52c-0.01-0.12-0.04-0.21-0.08-0.27
		c-0.13-0.2-0.36-0.33-0.68-0.39c-0.17-0.04-0.35-0.06-0.53-0.06c-0.19-0.01-0.35,0.01-0.48,0.05c-0.09,0.03-0.17,0.08-0.24,0.16
		c-0.07,0.08-0.15,0.22-0.24,0.43c-0.09,0.21-0.21,0.51-0.37,0.91c-0.25,0.63-0.53,1.41-0.85,2.34c-0.1,0.28-0.19,0.56-0.27,0.84
		c-0.85,1.25-1.6,2.28-2.23,3.06c-0.73,0.82-1.29,1.23-1.68,1.23c-0.19,0-0.28-0.12-0.28-0.37c0-0.23,0.07-0.6,0.22-1.11
		c0.15-0.51,0.38-1.22,0.71-2.15c0.37-1.05,0.81-2.29,1.33-3.71c1.54-4.25,3.73-10.9,4.08-12.25c0.1-0.39,0.16-0.67,0.17-0.83
		c0.02-0.16,0.03-0.28,0.03-0.36c0-0.15-0.03-0.26-0.09-0.34c-0.05-0.09-0.11-0.17-0.17-0.24c-0.06-0.07-0.17-0.14-0.32-0.22
		c-0.15-0.1-0.32-0.18-0.48-0.24s-0.31-0.09-0.41-0.09c-0.17,0-0.29,0.07-0.38,0.2c-0.06,0.1-0.14,0.26-0.22,0.49
		c-0.08,0.23-0.2,0.56-0.35,0.99c-0.15,0.43-0.57,1.63-1.27,3.59c-0.61,1.69-1.34,3.81-2.03,5.87c-0.43-0.09-1.16-0.2-2.17-0.35
		c-0.34-0.06-0.7-0.11-1.08-0.16c1.44-10.38-3.58-19.06-4.3-20.55c-0.78,1.32,1.91,6.44,0.99,7.61c-0.16,0.21-0.82-0.52-0.99-0.32
		c2.56,3.38,2.74,9.81,2.25,13.13c-0.83,0.02-1.65,0.08-2.48,0.19c-1.6,0.27-3.05,0.72-4.36,1.37s-2.45,1.39-3.42,2.21
		c-1.92,1.64-3.13,3.31-3.63,5.03c-0.27,0.87-0.34,1.67-0.19,2.41c0.14,0.74,0.57,1.32,1.28,1.74c0.75,0.42,1.73,0.62,2.93,0.6
		c1.2-0.02,2.43-0.29,3.68-0.8c1.22-0.49,2.4-1.3,3.55-2.44c1.15-1.14,3.52-3.49,4.58-9.31c0.01-0.07,0.02-0.15,0.03-0.22
		c0.63,0.08,1.21,0.16,1.74,0.26c0.54,0.1,1,0.18,1.38,0.26c-0.95,2.86-1.8,5.49-2.1,6.55c-0.34,1.29-0.52,2.26-0.52,2.91
		c0,0.11,0,0.2,0.01,0.28c0.06,0.62,0.26,1.03,0.6,1.22c0.24,0.18,0.52,0.26,0.85,0.26c0.11,0,0.23-0.01,0.35-0.03
		c0.98-0.17,2.21-1.28,3.72-3.33c0.08-0.11,0.16-0.22,0.24-0.34c-0.01,0.02-0.01,0.05-0.02,0.07c-0.15,0.79-0.2,1.43-0.14,1.94
		s0.19,0.89,0.38,1.15c0.19,0.26,0.42,0.42,0.68,0.48c0.26,0.06,0.54,0.05,0.82-0.04c0.27-0.06,0.56-0.25,0.88-0.56
		c0.32-0.31,0.74-0.88,1.26-1.7c0.56-0.9,1.16-1.94,1.81-3.14c0.15-0.29,0.3-0.58,0.44-0.84c-0.06,0.17-0.12,0.34-0.18,0.52
		c-0.38,1.07-0.67,2.03-0.86,2.87c-0.17,0.79-0.21,1.36-0.13,1.74s0.24,0.64,0.45,0.79c0.45,0.33,0.96,0.41,1.55,0.23
		c0.26-0.07,0.56-0.25,0.89-0.55c0.33-0.3,0.78-0.82,1.33-1.55c0.25-0.33,0.52-0.69,0.79-1.07c-0.05,0.17-0.09,0.35-0.13,0.51
		c-0.15,0.76-0.19,1.34-0.12,1.72c0.07,0.38,0.18,0.65,0.32,0.81c0.22,0.23,0.49,0.3,0.82,0.21c0.12-0.04,0.25-0.11,0.39-0.22
		c0.24-0.19,0.55-0.59,0.94-1.19c0.46-0.77,0.98-1.71,1.56-2.81c0.41-0.8,0.8-1.51,1.16-2.14c0.4-0.68,0.73-1.18,1-1.51
		c0.27-0.32,0.49-0.55,0.68-0.67c0.42-0.28,0.7-0.32,0.83-0.13c0.13,0.16,0.01,0.69-0.38,1.59c-0.18,0.39-0.38,0.84-0.62,1.34
		c-0.36,0.75-0.7,1.49-1,2.21c-0.48,1.21-0.72,2.11-0.71,2.69c0.01,0.28,0.06,0.48,0.17,0.61c0.11,0.12,0.24,0.19,0.39,0.22
		c0.3,0.04,0.59-0.11,0.87-0.44c0.32-0.41,0.71-1.01,1.16-1.79c0.45-0.79,0.9-1.6,1.35-2.44c0.3-0.57,0.58-1.08,0.83-1.53
		c0.48-0.85,0.85-1.45,1.11-1.79c0.26-0.34,0.49-0.58,0.68-0.69c0.2-0.15,0.38-0.26,0.54-0.31c0.16-0.05,0.28-0.03,0.35,0.05
		c0.16,0.15,0.02,0.69-0.42,1.62c-0.17,0.34-0.36,0.72-0.59,1.14c-0.46,0.84-0.86,1.67-1.22,2.51c-0.49,1.24-0.62,2.16-0.39,2.79
		c0.12,0.29,0.31,0.51,0.57,0.64c0.26,0.13,0.54,0.2,0.83,0.21c0.28,0.04,0.59-0.04,0.93-0.24c0.34-0.19,0.77-0.62,1.31-1.29
		c0.54-0.68,1.13-1.5,1.76-2.44c-0.17,0.63-0.28,1.13-0.34,1.49c-0.08,0.49-0.13,0.88-0.13,1.14c0,0.09,0,0.18,0.01,0.25
		c0.04,0.28,0.12,0.49,0.22,0.63c0.17,0.23,0.35,0.39,0.55,0.48s0.36,0.14,0.51,0.14h0.06c0.11-0.01,0.18-0.06,0.23-0.14
		c0.05-0.08,0.08-0.19,0.11-0.32c0.04-0.2,0.12-0.42,0.25-0.66c0.13-0.24,0.52-0.88,1.17-1.9c0.65-1.02,1.35-2.1,2.11-3.23
		c0.75-1.13,1.35-1.96,1.79-2.51c0.53-0.62,0.94-0.93,1.23-0.93c0.05,0,0.09,0.01,0.14,0.02c0.21,0.08,0.32,0.34,0.32,0.77
		c0,0.15-0.01,0.33-0.04,0.54c-0.2,1.07-0.65,2.31-1.35,3.73c-0.55,0.1-1.08,0.21-1.59,0.35c-0.52,0.13-0.98,0.32-1.38,0.55
		c-0.74,0.49-1.18,0.97-1.32,1.43c-0.14,0.46-0.21,0.79-0.21,0.99c0,0.36,0.12,0.66,0.36,0.89c0.25,0.18,0.58,0.27,0.98,0.27
		c0.25,0,0.52-0.04,0.83-0.11c0.79-0.19,1.53-0.54,2.23-1.04c0.98-0.74,1.7-1.78,2.17-3.11c0.13-0.04,0.25-0.09,0.37-0.14
		c0.76-0.34,1.38-0.78,1.87-1.32c0.17-0.18,0.33-0.37,0.48-0.56c-0.19,0.62-0.36,1.16-0.49,1.63c-0.34,1.29-0.52,2.26-0.52,2.91
		c0,0.11,0,0.2,0.01,0.28c0.06,0.62,0.26,1.03,0.6,1.22c0.24,0.18,0.52,0.26,0.85,0.26c0.11,0,0.23-0.01,0.35-0.03
		c0.91-0.16,2.04-1.13,3.41-2.91c0.1,0.81,0.46,1.5,1.06,2.07c0.55,0.49,1.23,0.77,2.06,0.85c0.82,0.07,1.69-0.2,2.58-0.82
		c0.91-0.69,1.75-1.61,2.52-2.75c0.78-1.14,1.39-2.14,1.85-2.98c0.22-0.39,0.4-0.71,0.52-0.96c0.12-0.25,0.21-0.43,0.27-0.56
		c0.06-0.13,0.09-0.22,0.09-0.28C90.95,57.26,90.94,57.23,90.93,57.21z M82.95,59.71c0.46-1.08,0.96-1.94,1.52-2.58
		c0.54-0.56,1-0.82,1.38-0.77c0.38,0.05,0.58,0.25,0.6,0.62c-0.01,0.35-0.21,0.75-0.57,1.2c-0.37,0.45-0.82,0.88-1.35,1.28
		c-0.6,0.44-1.16,0.82-1.71,1.13c-0.08,0.05-0.16,0.09-0.23,0.14C82.68,60.39,82.8,60.05,82.95,59.71z M30.86,54.02
		c-1.21,8.16-13.1,14.87-13.22,9.16c-0.02-0.82,0.38-1.61,0.82-2.4c0.76-1.44,1.94-2.71,3.53-3.81c0.82-0.61,1.79-1.18,2.91-1.71
		c1.12-0.53,2.44-0.9,3.96-1.13c0.66-0.07,1.32-0.12,2-0.15L30.86,54.02z M69.9,63.05c-0.57,0.8-1.05,1.33-1.43,1.58
		c-0.39,0.26-0.67,0.38-0.85,0.38c-0.12,0-0.21-0.04-0.28-0.12c-0.08-0.11-0.13-0.26-0.13-0.43c0-0.19,0.05-0.42,0.16-0.71
		c0.21-0.53,0.62-0.98,1.23-1.35c0.58-0.27,1.25-0.45,2.03-0.55C70.39,62.3,70.14,62.7,69.9,63.05z"/>
	<linearGradient id="SVGID_15_" gradientUnits="userSpaceOnUse" x1="92.9152" y1="70.3077" x2="91.2393" y2="63.1252">
		<stop  offset="5.618000e-03" style="stop-color:#FBCB02"/>
		<stop  offset="0.5344" style="stop-color:#F2D987"/>
		<stop  offset="1" style="stop-color:#C79314"/>
	</linearGradient>
	<linearGradient id="SVGID_16_" gradientUnits="userSpaceOnUse" x1="89.1604" y1="65.0232" x2="94.0703" y2="65.0232">
		<stop  offset="5.618000e-03" style="stop-color:#FBCB02"/>
		<stop  offset="0.2528" style="stop-color:#FFF9D3"/>
		<stop  offset="0.2968" style="stop-color:#FAF0C2"/>
		<stop  offset="0.3843" style="stop-color:#EDD895"/>
		<stop  offset="0.5057" style="stop-color:#D8B24D"/>
		<stop  offset="0.5955" style="stop-color:#C79314"/>
		<stop  offset="0.816" style="stop-color:#E9CB70"/>
		<stop  offset="0.8708" style="stop-color:#F2D987"/>
		<stop  offset="1" style="stop-color:#FFF9D3"/>
	</linearGradient>
	<path style="fill:url(#SVGID_15_);stroke:url(#SVGID_16_);stroke-width:0.125;stroke-miterlimit:10;" d="M89.52,66.98
		c0.52-1,1.12-1.84,1.91-2.54c-0.84,0.51-1.45,1.27-2.19,1.99c0.03-0.26,0.04-0.44,0.07-0.63c0.22-1.17,0.86-2.01,1.99-2.45
		c0.61-0.24,1.25-0.32,1.9-0.3c0.25,0.01,0.51,0.03,0.8,0.05c-0.08,1.2-0.44,2.21-1.34,2.96C91.77,66.81,90.72,67.03,89.52,66.98z"
		/>
	<g>
		<linearGradient id="SVGID_17_" gradientUnits="userSpaceOnUse" x1="14.9116" y1="73.7575" x2="14.9116" y2="68.4143">
			<stop  offset="0" style="stop-color:#3E6429"/>
			<stop  offset="0.1361" style="stop-color:#537C29"/>
			<stop  offset="0.3082" style="stop-color:#679229"/>
			<stop  offset="0.4958" style="stop-color:#75A229"/>
			<stop  offset="0.7085" style="stop-color:#7DAB29"/>
			<stop  offset="1" style="stop-color:#80AE29"/>
		</linearGradient>
		<linearGradient id="SVGID_18_" gradientUnits="userSpaceOnUse" x1="12.7153" y1="71.0908" x2="17.1079" y2="71.0908">
			<stop  offset="0" style="stop-color:#80AE29"/>
			<stop  offset="0.2915" style="stop-color:#7DAB29"/>
			<stop  offset="0.5042" style="stop-color:#75A229"/>
			<stop  offset="0.6918" style="stop-color:#679229"/>
			<stop  offset="0.8639" style="stop-color:#537C29"/>
			<stop  offset="1" style="stop-color:#3E6429"/>
		</linearGradient>
		<path style="fill:url(#SVGID_17_);stroke:url(#SVGID_18_);stroke-width:0.125;stroke-miterlimit:10;" d="M12.78,73.69v-5.21h0.69
			v2.38h2.87c0-0.69-0.4-1.34-1.19-1.96l0.45-0.48c0.96,0.66,1.44,1.52,1.44,2.59c0,1.03-0.44,1.95-1.33,2.75l-0.26-0.34
			c0.6-0.65,0.91-1.36,0.91-2.13h-2.89v2.4H12.78z"/>
		<linearGradient id="SVGID_19_" gradientUnits="userSpaceOnUse" x1="19.7032" y1="73.7575" x2="19.7032" y2="69.8277">
			<stop  offset="0" style="stop-color:#3E6429"/>
			<stop  offset="0.1361" style="stop-color:#537C29"/>
			<stop  offset="0.3082" style="stop-color:#679229"/>
			<stop  offset="0.4958" style="stop-color:#75A229"/>
			<stop  offset="0.7085" style="stop-color:#7DAB29"/>
			<stop  offset="1" style="stop-color:#80AE29"/>
		</linearGradient>
		<linearGradient id="SVGID_21_" gradientUnits="userSpaceOnUse" x1="17.7862" y1="71.7926" x2="21.6203" y2="71.7926">
			<stop  offset="0" style="stop-color:#80AE29"/>
			<stop  offset="0.2915" style="stop-color:#7DAB29"/>
			<stop  offset="0.5042" style="stop-color:#75A229"/>
			<stop  offset="0.6918" style="stop-color:#679229"/>
			<stop  offset="0.8639" style="stop-color:#537C29"/>
			<stop  offset="1" style="stop-color:#3E6429"/>
		</linearGradient>
		<path style="fill:url(#SVGID_19_);stroke:url(#SVGID_21_);stroke-width:0.125;stroke-miterlimit:10;" d="M19.7,73.76
			c-0.57,0-1.02-0.2-1.36-0.61c-0.33-0.4-0.5-0.85-0.5-1.35c0-0.51,0.17-0.97,0.5-1.35c0.35-0.41,0.8-0.61,1.36-0.61
			c0.56,0,1.02,0.2,1.36,0.61c0.33,0.39,0.5,0.84,0.5,1.35c0,0.51-0.17,0.97-0.5,1.35C20.72,73.55,20.26,73.76,19.7,73.76z
			 M19.7,70.26c-0.34,0-0.6,0.13-0.79,0.39c-0.2,0.27-0.3,0.66-0.3,1.15c0,0.5,0.1,0.88,0.3,1.15c0.19,0.26,0.46,0.39,0.79,0.39
			c0.34,0,0.6-0.13,0.79-0.39c0.2-0.27,0.3-0.66,0.3-1.15c0-0.5-0.1-0.88-0.3-1.15C20.3,70.38,20.04,70.26,19.7,70.26z"/>
		<linearGradient id="SVGID_22_" gradientUnits="userSpaceOnUse" x1="25.0136" y1="73.7575" x2="25.0136" y2="69.9001">
			<stop  offset="0" style="stop-color:#3E6429"/>
			<stop  offset="0.1361" style="stop-color:#537C29"/>
			<stop  offset="0.3082" style="stop-color:#679229"/>
			<stop  offset="0.4958" style="stop-color:#75A229"/>
			<stop  offset="0.7085" style="stop-color:#7DAB29"/>
			<stop  offset="1" style="stop-color:#80AE29"/>
		</linearGradient>
		<linearGradient id="SVGID_23_" gradientUnits="userSpaceOnUse" x1="22.5295" y1="71.8335" x2="27.4978" y2="71.8335">
			<stop  offset="0" style="stop-color:#80AE29"/>
			<stop  offset="0.2915" style="stop-color:#7DAB29"/>
			<stop  offset="0.5042" style="stop-color:#75A229"/>
			<stop  offset="0.6918" style="stop-color:#679229"/>
			<stop  offset="0.8639" style="stop-color:#537C29"/>
			<stop  offset="1" style="stop-color:#3E6429"/>
		</linearGradient>
		<path style="fill:url(#SVGID_22_);stroke:url(#SVGID_23_);stroke-width:0.125;stroke-miterlimit:10;" d="M22.59,73.69V69.9h2.75
			c0.62,0,1.11,0.16,1.47,0.48c0.42,0.37,0.62,0.87,0.62,1.48c0,0.61-0.21,1.11-0.62,1.48c-0.23,0.2-0.49,0.34-0.8,0.41l-0.19-0.36
			c0.18-0.07,0.35-0.19,0.49-0.35c0.25-0.27,0.37-0.66,0.37-1.19c0-0.5-0.13-0.89-0.39-1.17c-0.23-0.25-0.55-0.37-0.95-0.37h-0.21
			v3.36h-0.69v-3.36h-1.16v3.36H22.59z"/>
		<linearGradient id="SVGID_24_" gradientUnits="userSpaceOnUse" x1="29.819" y1="73.7575" x2="29.819" y2="69.8277">
			<stop  offset="0" style="stop-color:#3E6429"/>
			<stop  offset="0.1361" style="stop-color:#537C29"/>
			<stop  offset="0.3082" style="stop-color:#679229"/>
			<stop  offset="0.4958" style="stop-color:#75A229"/>
			<stop  offset="0.7085" style="stop-color:#7DAB29"/>
			<stop  offset="1" style="stop-color:#80AE29"/>
		</linearGradient>
		<linearGradient id="SVGID_25_" gradientUnits="userSpaceOnUse" x1="28.0622" y1="71.7926" x2="31.6054" y2="71.7926">
			<stop  offset="0" style="stop-color:#80AE29"/>
			<stop  offset="0.2915" style="stop-color:#7DAB29"/>
			<stop  offset="0.5042" style="stop-color:#75A229"/>
			<stop  offset="0.6918" style="stop-color:#679229"/>
			<stop  offset="0.8639" style="stop-color:#537C29"/>
			<stop  offset="1" style="stop-color:#3E6429"/>
		</linearGradient>
		<path style="fill:url(#SVGID_24_);stroke:url(#SVGID_25_);stroke-width:0.125;stroke-miterlimit:10;" d="M31.51,72.9
			c-0.06,0.09-0.12,0.17-0.18,0.24c-0.34,0.41-0.79,0.61-1.36,0.61c-0.56,0-1.01-0.2-1.36-0.61c-0.33-0.39-0.49-0.84-0.49-1.35
			c0-0.52,0.16-0.97,0.49-1.35c0.34-0.41,0.79-0.61,1.36-0.61c0.56,0,1.01,0.2,1.36,0.61c0.05,0.06,0.09,0.11,0.13,0.17l-0.55,0.28
			c-0.04-0.09-0.09-0.17-0.14-0.25c-0.19-0.26-0.46-0.39-0.79-0.39c-0.34,0-0.6,0.13-0.79,0.39c-0.17,0.23-0.27,0.54-0.3,0.94h1.85
			v0.43h-1.85c0.03,0.4,0.12,0.71,0.3,0.94c0.19,0.26,0.46,0.39,0.79,0.39c0.34,0,0.6-0.13,0.79-0.39c0.07-0.09,0.12-0.19,0.17-0.31
			L31.51,72.9z"/>
		<linearGradient id="SVGID_26_" gradientUnits="userSpaceOnUse" x1="37.3424" y1="73.7575" x2="37.3424" y2="68.4143">
			<stop  offset="0" style="stop-color:#3E6429"/>
			<stop  offset="0.1361" style="stop-color:#537C29"/>
			<stop  offset="0.3082" style="stop-color:#679229"/>
			<stop  offset="0.4958" style="stop-color:#75A229"/>
			<stop  offset="0.7085" style="stop-color:#7DAB29"/>
			<stop  offset="1" style="stop-color:#80AE29"/>
		</linearGradient>
		<linearGradient id="SVGID_27_" gradientUnits="userSpaceOnUse" x1="35.1461" y1="71.0908" x2="39.5387" y2="71.0908">
			<stop  offset="0" style="stop-color:#80AE29"/>
			<stop  offset="0.2915" style="stop-color:#7DAB29"/>
			<stop  offset="0.5042" style="stop-color:#75A229"/>
			<stop  offset="0.6918" style="stop-color:#679229"/>
			<stop  offset="0.8639" style="stop-color:#537C29"/>
			<stop  offset="1" style="stop-color:#3E6429"/>
		</linearGradient>
		<path style="fill:url(#SVGID_26_);stroke:url(#SVGID_27_);stroke-width:0.125;stroke-miterlimit:10;" d="M35.21,73.69v-5.21h0.69
			v2.38h2.87c0-0.69-0.4-1.34-1.19-1.96l0.45-0.48c0.96,0.66,1.44,1.52,1.44,2.59c0,1.03-0.44,1.95-1.33,2.75l-0.26-0.34
			c0.6-0.65,0.91-1.36,0.91-2.13H35.9v2.4H35.21z"/>
		<linearGradient id="SVGID_29_" gradientUnits="userSpaceOnUse" x1="41.9738" y1="73.7575" x2="41.9738" y2="69.8277">
			<stop  offset="0" style="stop-color:#3E6429"/>
			<stop  offset="0.1361" style="stop-color:#537C29"/>
			<stop  offset="0.3082" style="stop-color:#679229"/>
			<stop  offset="0.4958" style="stop-color:#75A229"/>
			<stop  offset="0.7085" style="stop-color:#7DAB29"/>
			<stop  offset="1" style="stop-color:#80AE29"/>
		</linearGradient>
		<linearGradient id="SVGID_30_" gradientUnits="userSpaceOnUse" x1="40.2171" y1="71.7926" x2="43.7603" y2="71.7926">
			<stop  offset="0" style="stop-color:#80AE29"/>
			<stop  offset="0.2915" style="stop-color:#7DAB29"/>
			<stop  offset="0.5042" style="stop-color:#75A229"/>
			<stop  offset="0.6918" style="stop-color:#679229"/>
			<stop  offset="0.8639" style="stop-color:#537C29"/>
			<stop  offset="1" style="stop-color:#3E6429"/>
		</linearGradient>
		<path style="fill:url(#SVGID_29_);stroke:url(#SVGID_30_);stroke-width:0.125;stroke-miterlimit:10;" d="M43.67,72.9
			c-0.06,0.09-0.12,0.17-0.18,0.24c-0.34,0.41-0.79,0.61-1.36,0.61c-0.56,0-1.01-0.2-1.36-0.61c-0.33-0.39-0.49-0.84-0.49-1.35
			c0-0.52,0.16-0.97,0.49-1.35c0.34-0.41,0.79-0.61,1.36-0.61c0.56,0,1.01,0.2,1.36,0.61c0.05,0.06,0.09,0.11,0.13,0.17l-0.55,0.28
			c-0.04-0.09-0.09-0.17-0.14-0.25c-0.19-0.26-0.46-0.39-0.79-0.39c-0.34,0-0.6,0.13-0.79,0.39c-0.17,0.23-0.27,0.54-0.3,0.94h1.85
			v0.43h-1.85c0.03,0.4,0.12,0.71,0.3,0.94c0.19,0.26,0.46,0.39,0.79,0.39c0.34,0,0.6-0.13,0.79-0.39c0.07-0.09,0.12-0.19,0.17-0.31
			L43.67,72.9z"/>
		<linearGradient id="SVGID_31_" gradientUnits="userSpaceOnUse" x1="45.9294" y1="73.6885" x2="45.9294" y2="69.9001">
			<stop  offset="0" style="stop-color:#3E6429"/>
			<stop  offset="0.1361" style="stop-color:#537C29"/>
			<stop  offset="0.3082" style="stop-color:#679229"/>
			<stop  offset="0.4958" style="stop-color:#75A229"/>
			<stop  offset="0.7085" style="stop-color:#7DAB29"/>
			<stop  offset="1" style="stop-color:#80AE29"/>
		</linearGradient>
		<linearGradient id="SVGID_32_" gradientUnits="userSpaceOnUse" x1="44.1985" y1="71.7943" x2="47.6602" y2="71.7943">
			<stop  offset="0" style="stop-color:#80AE29"/>
			<stop  offset="0.2915" style="stop-color:#7DAB29"/>
			<stop  offset="0.5042" style="stop-color:#75A229"/>
			<stop  offset="0.6918" style="stop-color:#679229"/>
			<stop  offset="0.8639" style="stop-color:#537C29"/>
			<stop  offset="1" style="stop-color:#3E6429"/>
		</linearGradient>
		<path style="fill:url(#SVGID_31_);stroke:url(#SVGID_32_);stroke-width:0.125;stroke-miterlimit:10;" d="M47.6,73.69h-1.24
			c-0.62,0-1.11-0.16-1.47-0.48c-0.42-0.37-0.62-0.84-0.62-1.41c0-0.57,0.21-1.04,0.62-1.41c0.36-0.32,0.85-0.48,1.47-0.48h1.24
			V73.69z M46.91,73.26v-2.93h-0.55c-0.4,0-0.72,0.12-0.95,0.37c-0.26,0.28-0.39,0.64-0.39,1.1c0,0.46,0.13,0.82,0.39,1.1
			c0.23,0.25,0.55,0.37,0.95,0.37H46.91z"/>
		<linearGradient id="SVGID_33_" gradientUnits="userSpaceOnUse" x1="49.3214" y1="73.6885" x2="49.3214" y2="68.4833">
			<stop  offset="0" style="stop-color:#3E6429"/>
			<stop  offset="0.1361" style="stop-color:#537C29"/>
			<stop  offset="0.3082" style="stop-color:#679229"/>
			<stop  offset="0.4958" style="stop-color:#75A229"/>
			<stop  offset="0.7085" style="stop-color:#7DAB29"/>
			<stop  offset="1" style="stop-color:#80AE29"/>
		</linearGradient>
		<linearGradient id="SVGID_35_" gradientUnits="userSpaceOnUse" x1="48.9143" y1="71.0859" x2="49.7286" y2="71.0859">
			<stop  offset="0" style="stop-color:#80AE29"/>
			<stop  offset="0.2915" style="stop-color:#7DAB29"/>
			<stop  offset="0.5042" style="stop-color:#75A229"/>
			<stop  offset="0.6918" style="stop-color:#679229"/>
			<stop  offset="0.8639" style="stop-color:#537C29"/>
			<stop  offset="1" style="stop-color:#3E6429"/>
		</linearGradient>
		<path style="fill:url(#SVGID_33_);stroke:url(#SVGID_35_);stroke-width:0.125;stroke-miterlimit:10;" d="M48.98,73.69v-5.21h0.69
			v5.21H48.98z"/>
		<linearGradient id="SVGID_36_" gradientUnits="userSpaceOnUse" x1="51.9586" y1="73.6885" x2="51.9586" y2="68.4833">
			<stop  offset="0" style="stop-color:#3E6429"/>
			<stop  offset="0.1361" style="stop-color:#537C29"/>
			<stop  offset="0.3082" style="stop-color:#679229"/>
			<stop  offset="0.4958" style="stop-color:#75A229"/>
			<stop  offset="0.7085" style="stop-color:#7DAB29"/>
			<stop  offset="1" style="stop-color:#80AE29"/>
		</linearGradient>
		<linearGradient id="SVGID_37_" gradientUnits="userSpaceOnUse" x1="50.9826" y1="71.0859" x2="52.9346" y2="71.0859">
			<stop  offset="0" style="stop-color:#80AE29"/>
			<stop  offset="0.2915" style="stop-color:#7DAB29"/>
			<stop  offset="0.5042" style="stop-color:#75A229"/>
			<stop  offset="0.6918" style="stop-color:#679229"/>
			<stop  offset="0.8639" style="stop-color:#537C29"/>
			<stop  offset="1" style="stop-color:#3E6429"/>
		</linearGradient>
		<path style="fill:url(#SVGID_36_);stroke:url(#SVGID_37_);stroke-width:0.125;stroke-miterlimit:10;" d="M51.05,73.69v-5.21h0.69
			v1.41h1.14v0.43h-1.14v3.36H51.05z"/>
		<linearGradient id="SVGID_38_" gradientUnits="userSpaceOnUse" x1="55.2646" y1="73.7575" x2="55.2646" y2="68.4833">
			<stop  offset="0" style="stop-color:#3E6429"/>
			<stop  offset="0.1361" style="stop-color:#537C29"/>
			<stop  offset="0.3082" style="stop-color:#679229"/>
			<stop  offset="0.4958" style="stop-color:#75A229"/>
			<stop  offset="0.7085" style="stop-color:#7DAB29"/>
			<stop  offset="1" style="stop-color:#80AE29"/>
		</linearGradient>
		<linearGradient id="SVGID_39_" gradientUnits="userSpaceOnUse" x1="53.5336" y1="71.1251" x2="56.9955" y2="71.1251">
			<stop  offset="0" style="stop-color:#80AE29"/>
			<stop  offset="0.2915" style="stop-color:#7DAB29"/>
			<stop  offset="0.5042" style="stop-color:#75A229"/>
			<stop  offset="0.6918" style="stop-color:#679229"/>
			<stop  offset="0.8639" style="stop-color:#537C29"/>
			<stop  offset="1" style="stop-color:#3E6429"/>
		</linearGradient>
		<path style="fill:url(#SVGID_38_);stroke:url(#SVGID_39_);stroke-width:0.125;stroke-miterlimit:10;" d="M53.6,73.69v-5.21h0.69
			v1.42h0.55c0.62,0,1.11,0.16,1.47,0.48c0.42,0.37,0.62,0.87,0.62,1.48c0,0.61-0.21,1.11-0.62,1.48c-0.23,0.2-0.49,0.34-0.8,0.41
			l-0.19-0.36c0.18-0.07,0.35-0.19,0.49-0.35c0.25-0.27,0.37-0.66,0.37-1.19c0-0.5-0.13-0.89-0.39-1.17
			c-0.23-0.25-0.55-0.37-0.95-0.37h-0.55v3.36H53.6z"/>
		<linearGradient id="SVGID_40_" gradientUnits="userSpaceOnUse" x1="62.7482" y1="73.7575" x2="62.7482" y2="68.4143">
			<stop  offset="0" style="stop-color:#3E6429"/>
			<stop  offset="0.1361" style="stop-color:#537C29"/>
			<stop  offset="0.3082" style="stop-color:#679229"/>
			<stop  offset="0.4958" style="stop-color:#75A229"/>
			<stop  offset="0.7085" style="stop-color:#7DAB29"/>
			<stop  offset="1" style="stop-color:#80AE29"/>
		</linearGradient>
		<linearGradient id="SVGID_41_" gradientUnits="userSpaceOnUse" x1="60.3175" y1="71.0859" x2="65.2098" y2="71.0859">
			<stop  offset="0" style="stop-color:#80AE29"/>
			<stop  offset="0.2915" style="stop-color:#7DAB29"/>
			<stop  offset="0.5042" style="stop-color:#75A229"/>
			<stop  offset="0.6918" style="stop-color:#679229"/>
			<stop  offset="0.8639" style="stop-color:#537C29"/>
			<stop  offset="1" style="stop-color:#3E6429"/>
		</linearGradient>
		<path style="fill:url(#SVGID_40_);stroke:url(#SVGID_41_);stroke-width:0.125;stroke-miterlimit:10;" d="M65.12,72.6
			c-0.09,0.13-0.19,0.25-0.3,0.37c-0.5,0.52-1.11,0.78-1.84,0.78c-0.72,0-1.33-0.26-1.84-0.78c-0.51-0.52-0.76-1.15-0.76-1.89
			c0-0.74,0.25-1.37,0.76-1.89c0.51-0.52,1.12-0.78,1.84-0.78c0.73,0,1.34,0.26,1.84,0.78c0.09,0.09,0.17,0.19,0.25,0.29l-0.55,0.29
			c-0.05-0.1-0.11-0.19-0.18-0.28c-0.33-0.44-0.78-0.65-1.36-0.65s-1.03,0.22-1.36,0.65c-0.32,0.43-0.48,0.96-0.48,1.59
			c0,0.63,0.16,1.16,0.48,1.59c0.33,0.44,0.78,0.66,1.36,0.66c0.58,0,1.03-0.22,1.36-0.66c0.08-0.11,0.15-0.22,0.21-0.34L65.12,72.6
			z"/>
		<linearGradient id="SVGID_43_" gradientUnits="userSpaceOnUse" x1="67.3709" y1="73.6885" x2="67.3709" y2="69.9001">
			<stop  offset="0" style="stop-color:#3E6429"/>
			<stop  offset="0.1361" style="stop-color:#537C29"/>
			<stop  offset="0.3082" style="stop-color:#679229"/>
			<stop  offset="0.4958" style="stop-color:#75A229"/>
			<stop  offset="0.7085" style="stop-color:#7DAB29"/>
			<stop  offset="1" style="stop-color:#80AE29"/>
		</linearGradient>
		<linearGradient id="SVGID_44_" gradientUnits="userSpaceOnUse" x1="65.64" y1="71.7943" x2="69.1019" y2="71.7943">
			<stop  offset="0" style="stop-color:#80AE29"/>
			<stop  offset="0.2915" style="stop-color:#7DAB29"/>
			<stop  offset="0.5042" style="stop-color:#75A229"/>
			<stop  offset="0.6918" style="stop-color:#679229"/>
			<stop  offset="0.8639" style="stop-color:#537C29"/>
			<stop  offset="1" style="stop-color:#3E6429"/>
		</linearGradient>
		<path style="fill:url(#SVGID_43_);stroke:url(#SVGID_44_);stroke-width:0.125;stroke-miterlimit:10;" d="M69.04,73.69H67.8
			c-0.62,0-1.11-0.16-1.47-0.48c-0.42-0.37-0.62-0.84-0.62-1.41c0-0.57,0.21-1.04,0.62-1.41c0.36-0.32,0.85-0.48,1.47-0.48h1.24
			V73.69z M68.35,73.26v-2.93H67.8c-0.4,0-0.72,0.12-0.95,0.37c-0.26,0.28-0.39,0.64-0.39,1.1c0,0.46,0.13,0.82,0.39,1.1
			c0.23,0.25,0.55,0.37,0.95,0.37H68.35z"/>
		<linearGradient id="SVGID_45_" gradientUnits="userSpaceOnUse" x1="71.7747" y1="73.6885" x2="71.7747" y2="69.9001">
			<stop  offset="0" style="stop-color:#3E6429"/>
			<stop  offset="0.1361" style="stop-color:#537C29"/>
			<stop  offset="0.3082" style="stop-color:#679229"/>
			<stop  offset="0.4958" style="stop-color:#75A229"/>
			<stop  offset="0.7085" style="stop-color:#7DAB29"/>
			<stop  offset="1" style="stop-color:#80AE29"/>
		</linearGradient>
		<linearGradient id="SVGID_46_" gradientUnits="userSpaceOnUse" x1="70.3557" y1="71.7943" x2="73.1936" y2="71.7943">
			<stop  offset="0" style="stop-color:#80AE29"/>
			<stop  offset="0.2915" style="stop-color:#7DAB29"/>
			<stop  offset="0.5042" style="stop-color:#75A229"/>
			<stop  offset="0.6918" style="stop-color:#679229"/>
			<stop  offset="0.8639" style="stop-color:#537C29"/>
			<stop  offset="1" style="stop-color:#3E6429"/>
		</linearGradient>
		<path style="fill:url(#SVGID_45_);stroke:url(#SVGID_46_);stroke-width:0.125;stroke-miterlimit:10;" d="M70.42,73.69V69.9h1.24
			c0.42,0,0.76,0.11,1.03,0.32c0.3,0.24,0.44,0.53,0.44,0.88c0,0.51-0.25,0.88-0.75,1.11l-0.19-0.36c0.17-0.16,0.26-0.41,0.26-0.74
			c0-0.25-0.08-0.46-0.24-0.61c-0.12-0.12-0.3-0.18-0.54-0.18h-0.55v3.36H70.42z"/>
		<linearGradient id="SVGID_47_" gradientUnits="userSpaceOnUse" x1="75.446" y1="73.7575" x2="75.446" y2="69.8277">
			<stop  offset="0" style="stop-color:#3E6429"/>
			<stop  offset="0.1361" style="stop-color:#537C29"/>
			<stop  offset="0.3082" style="stop-color:#679229"/>
			<stop  offset="0.4958" style="stop-color:#75A229"/>
			<stop  offset="0.7085" style="stop-color:#7DAB29"/>
			<stop  offset="1" style="stop-color:#80AE29"/>
		</linearGradient>
		<linearGradient id="SVGID_49_" gradientUnits="userSpaceOnUse" x1="73.6892" y1="71.7926" x2="77.2325" y2="71.7926">
			<stop  offset="0" style="stop-color:#80AE29"/>
			<stop  offset="0.2915" style="stop-color:#7DAB29"/>
			<stop  offset="0.5042" style="stop-color:#75A229"/>
			<stop  offset="0.6918" style="stop-color:#679229"/>
			<stop  offset="0.8639" style="stop-color:#537C29"/>
			<stop  offset="1" style="stop-color:#3E6429"/>
		</linearGradient>
		<path style="fill:url(#SVGID_47_);stroke:url(#SVGID_49_);stroke-width:0.125;stroke-miterlimit:10;" d="M77.14,72.9
			c-0.06,0.09-0.12,0.17-0.18,0.24c-0.34,0.41-0.79,0.61-1.36,0.61c-0.56,0-1.01-0.2-1.36-0.61c-0.33-0.39-0.49-0.84-0.49-1.35
			c0-0.52,0.16-0.97,0.49-1.35c0.34-0.41,0.79-0.61,1.36-0.61c0.56,0,1.01,0.2,1.36,0.61c0.05,0.06,0.09,0.11,0.13,0.17l-0.55,0.28
			c-0.04-0.09-0.09-0.17-0.14-0.25c-0.19-0.26-0.46-0.39-0.79-0.39c-0.34,0-0.6,0.13-0.79,0.39c-0.17,0.23-0.27,0.54-0.3,0.94h1.85
			v0.43h-1.85c0.03,0.4,0.12,0.71,0.3,0.94c0.19,0.26,0.46,0.39,0.79,0.39c0.34,0,0.6-0.13,0.79-0.39c0.07-0.09,0.12-0.19,0.17-0.31
			L77.14,72.9z"/>
		<linearGradient id="SVGID_50_" gradientUnits="userSpaceOnUse" x1="78.3829" y1="74.7468" x2="78.3829" y2="72.7233">
			<stop  offset="0" style="stop-color:#3E6429"/>
			<stop  offset="0.1361" style="stop-color:#537C29"/>
			<stop  offset="0.3082" style="stop-color:#679229"/>
			<stop  offset="0.4958" style="stop-color:#75A229"/>
			<stop  offset="0.7085" style="stop-color:#7DAB29"/>
			<stop  offset="1" style="stop-color:#80AE29"/>
		</linearGradient>
		<linearGradient id="SVGID_51_" gradientUnits="userSpaceOnUse" x1="77.8085" y1="73.7307" x2="78.9228" y2="73.7307">
			<stop  offset="0" style="stop-color:#80AE29"/>
			<stop  offset="0.2915" style="stop-color:#7DAB29"/>
			<stop  offset="0.5042" style="stop-color:#75A229"/>
			<stop  offset="0.6918" style="stop-color:#679229"/>
			<stop  offset="0.8639" style="stop-color:#537C29"/>
			<stop  offset="1" style="stop-color:#3E6429"/>
		</linearGradient>
		<path style="fill:url(#SVGID_50_);stroke:url(#SVGID_51_);stroke-width:0.125;stroke-miterlimit:10;" d="M78.44,72.72
			c0.28,0.29,0.42,0.61,0.42,0.97c0,0.42-0.22,0.78-0.65,1.06l-0.3-0.3c0.24-0.17,0.37-0.39,0.37-0.67c0-0.23-0.11-0.41-0.32-0.57
			L78.44,72.72z"/>
		<linearGradient id="SVGID_52_" gradientUnits="userSpaceOnUse" x1="83.1693" y1="73.6885" x2="83.1693" y2="68.4833">
			<stop  offset="0" style="stop-color:#3E6429"/>
			<stop  offset="0.1361" style="stop-color:#537C29"/>
			<stop  offset="0.3082" style="stop-color:#679229"/>
			<stop  offset="0.4958" style="stop-color:#75A229"/>
			<stop  offset="0.7085" style="stop-color:#7DAB29"/>
			<stop  offset="1" style="stop-color:#80AE29"/>
		</linearGradient>
		<linearGradient id="SVGID_53_" gradientUnits="userSpaceOnUse" x1="82.7621" y1="71.0859" x2="83.5765" y2="71.0859">
			<stop  offset="0" style="stop-color:#80AE29"/>
			<stop  offset="0.2915" style="stop-color:#7DAB29"/>
			<stop  offset="0.5042" style="stop-color:#75A229"/>
			<stop  offset="0.6918" style="stop-color:#679229"/>
			<stop  offset="0.8639" style="stop-color:#537C29"/>
			<stop  offset="1" style="stop-color:#3E6429"/>
		</linearGradient>
		<path style="fill:url(#SVGID_52_);stroke:url(#SVGID_53_);stroke-width:0.125;stroke-miterlimit:10;" d="M82.82,73.69v-5.21h0.69
			v5.21H82.82z"/>
		<linearGradient id="SVGID_54_" gradientUnits="userSpaceOnUse" x1="87.0681" y1="73.7575" x2="87.0681" y2="68.4833">
			<stop  offset="0" style="stop-color:#3E6429"/>
			<stop  offset="0.1361" style="stop-color:#537C29"/>
			<stop  offset="0.3082" style="stop-color:#679229"/>
			<stop  offset="0.4958" style="stop-color:#75A229"/>
			<stop  offset="0.7085" style="stop-color:#7DAB29"/>
			<stop  offset="1" style="stop-color:#80AE29"/>
		</linearGradient>
		<linearGradient id="SVGID_55_" gradientUnits="userSpaceOnUse" x1="84.8305" y1="71.1329" x2="89.3057" y2="71.1329">
			<stop  offset="0" style="stop-color:#80AE29"/>
			<stop  offset="0.2915" style="stop-color:#7DAB29"/>
			<stop  offset="0.5042" style="stop-color:#75A229"/>
			<stop  offset="0.6918" style="stop-color:#679229"/>
			<stop  offset="0.8639" style="stop-color:#537C29"/>
			<stop  offset="1" style="stop-color:#3E6429"/>
		</linearGradient>
		<path style="fill:url(#SVGID_54_);stroke:url(#SVGID_55_);stroke-width:0.125;stroke-miterlimit:10;" d="M84.89,73.69v-5.21h0.71
			c1.47,0.9,2.48,2.13,3.04,3.69v-3.69h0.6v4.96l-0.68,0.32c-0.59-2.09-1.58-3.68-2.98-4.76v4.7H84.89z"/>
		<linearGradient id="SVGID_57_" gradientUnits="userSpaceOnUse" x1="92.6318" y1="73.7575" x2="92.6318" y2="68.4143">
			<stop  offset="0" style="stop-color:#3E6429"/>
			<stop  offset="0.1361" style="stop-color:#537C29"/>
			<stop  offset="0.3082" style="stop-color:#679229"/>
			<stop  offset="0.4958" style="stop-color:#75A229"/>
			<stop  offset="0.7085" style="stop-color:#7DAB29"/>
			<stop  offset="1" style="stop-color:#80AE29"/>
		</linearGradient>
		<linearGradient id="SVGID_58_" gradientUnits="userSpaceOnUse" x1="90.2011" y1="71.0859" x2="95.0934" y2="71.0859">
			<stop  offset="0" style="stop-color:#80AE29"/>
			<stop  offset="0.2915" style="stop-color:#7DAB29"/>
			<stop  offset="0.5042" style="stop-color:#75A229"/>
			<stop  offset="0.6918" style="stop-color:#679229"/>
			<stop  offset="0.8639" style="stop-color:#537C29"/>
			<stop  offset="1" style="stop-color:#3E6429"/>
		</linearGradient>
		<path style="fill:url(#SVGID_57_);stroke:url(#SVGID_58_);stroke-width:0.125;stroke-miterlimit:10;" d="M95,72.6
			c-0.09,0.13-0.19,0.25-0.3,0.37c-0.5,0.52-1.11,0.78-1.84,0.78c-0.72,0-1.33-0.26-1.84-0.78c-0.51-0.52-0.76-1.15-0.76-1.89
			c0-0.74,0.25-1.37,0.76-1.89c0.51-0.52,1.12-0.78,1.84-0.78c0.73,0,1.34,0.26,1.84,0.78c0.09,0.09,0.17,0.19,0.25,0.29l-0.55,0.29
			c-0.05-0.1-0.11-0.19-0.18-0.28c-0.33-0.44-0.78-0.65-1.36-0.65s-1.03,0.22-1.36,0.65c-0.32,0.43-0.48,0.96-0.48,1.59
			c0,0.63,0.16,1.16,0.48,1.59c0.33,0.44,0.78,0.66,1.36,0.66c0.58,0,1.03-0.22,1.36-0.66c0.08-0.11,0.15-0.22,0.21-0.34L95,72.6z"
			/>
	</g>
</g>
</svg>
