<?xml version="1.0" encoding="utf-8"?>
<!-- Generator: Adobe Illustrator 24.3.0, SVG Export Plug-In . SVG Version: 6.00 Build 0)  -->
<svg version="1.1" id="Layer_1" xmlns="http://www.w3.org/2000/svg" xmlns:xlink="http://www.w3.org/1999/xlink" x="0px" y="0px"
	 viewBox="0 0 100 100" style="enable-background:new 0 0 100 100;" xml:space="preserve">
<style type="text/css">
	.st0{fill:#FFFFFF;}
	.st1{fill:#F16522;}
	.st2{fill:url(#SVGID_1_);}
	.st3{fill:url(#SVGID_2_);}
	.st4{fill:url(#SVGID_3_);}
	.st5{fill:url(#SVGID_4_);}
	.st6{fill:#F37521;}
	.st7{fill:url(#SVGID_5_);}
	.st8{fill:url(#SVGID_6_);}
	.st9{fill:url(#SVGID_7_);}
	.st10{fill:url(#SVGID_8_);}
	.st11{fill:url(#SVGID_9_);}
	.st12{enable-background:new    ;}
	.st13{clip-path:url(#SVGID_13_);}
	.st14{fill:#A479B4;}
	.st15{fill-rule:evenodd;clip-rule:evenodd;fill:#F16522;}
	.st16{clip-path:url(#SVGID_16_);fill:url(#SVGID_17_);stroke:url(#SVGID_18_);stroke-width:0.25;stroke-miterlimit:10;}
	.st17{clip-path:url(#SVGID_22_);fill:url(#SVGID_23_);stroke:url(#SVGID_24_);stroke-width:0.25;stroke-miterlimit:10;}
	.st18{clip-path:url(#SVGID_22_);fill:url(#SVGID_25_);stroke:url(#SVGID_26_);stroke-width:0.25;stroke-miterlimit:10;}
	.st19{clip-path:url(#SVGID_30_);fill:url(#SVGID_31_);stroke:url(#SVGID_32_);stroke-width:0.25;stroke-miterlimit:10;}
	.st20{clip-path:url(#SVGID_36_);fill:url(#SVGID_37_);stroke:url(#SVGID_38_);stroke-width:0.25;stroke-miterlimit:10;}
	.st21{clip-path:url(#SVGID_36_);fill:url(#SVGID_39_);stroke:url(#SVGID_40_);stroke-width:0.25;stroke-miterlimit:10;}
	.st22{clip-path:url(#SVGID_44_);fill:url(#SVGID_45_);stroke:url(#SVGID_46_);stroke-width:0.25;stroke-miterlimit:10;}
	.st23{clip-path:url(#SVGID_50_);fill:url(#SVGID_51_);stroke:url(#SVGID_52_);stroke-width:0.25;stroke-miterlimit:10;}
	.st24{clip-path:url(#SVGID_50_);fill:url(#SVGID_53_);stroke:url(#SVGID_54_);stroke-width:0.25;stroke-miterlimit:10;}
	.st25{clip-path:url(#SVGID_58_);fill:url(#SVGID_59_);stroke:url(#SVGID_60_);stroke-width:0.25;stroke-miterlimit:10;}
	.st26{clip-path:url(#SVGID_64_);fill:url(#SVGID_65_);stroke:url(#SVGID_66_);stroke-width:0.25;stroke-miterlimit:10;}
	.st27{clip-path:url(#SVGID_64_);fill:url(#SVGID_67_);stroke:url(#SVGID_68_);stroke-width:0.25;stroke-miterlimit:10;}
	.st28{clip-path:url(#SVGID_72_);fill:url(#SVGID_73_);stroke:url(#SVGID_74_);stroke-width:0.25;stroke-miterlimit:10;}
	.st29{clip-path:url(#SVGID_78_);fill:url(#SVGID_79_);stroke:url(#SVGID_80_);stroke-width:0.25;stroke-miterlimit:10;}
	.st30{clip-path:url(#SVGID_78_);fill:url(#SVGID_81_);stroke:url(#SVGID_82_);stroke-width:0.25;stroke-miterlimit:10;}
	.st31{clip-path:url(#SVGID_86_);fill:url(#SVGID_87_);stroke:url(#SVGID_88_);stroke-width:0.25;stroke-miterlimit:10;}
	.st32{clip-path:url(#SVGID_92_);fill:url(#SVGID_93_);stroke:url(#SVGID_94_);stroke-width:0.25;stroke-miterlimit:10;}
	.st33{clip-path:url(#SVGID_92_);fill:url(#SVGID_95_);stroke:url(#SVGID_96_);stroke-width:0.25;stroke-miterlimit:10;}
	.st34{clip-path:url(#SVGID_100_);fill:url(#SVGID_101_);stroke:url(#SVGID_102_);stroke-width:0.25;stroke-miterlimit:10;}
	.st35{clip-path:url(#SVGID_106_);fill:url(#SVGID_107_);stroke:url(#SVGID_108_);stroke-width:0.25;stroke-miterlimit:10;}
	.st36{clip-path:url(#SVGID_106_);fill:url(#SVGID_109_);stroke:url(#SVGID_110_);stroke-width:0.25;stroke-miterlimit:10;}
	.st37{clip-path:url(#SVGID_114_);fill:url(#SVGID_115_);stroke:url(#SVGID_116_);stroke-width:0.25;stroke-miterlimit:10;}
	.st38{clip-path:url(#SVGID_120_);fill:url(#SVGID_121_);stroke:url(#SVGID_122_);stroke-width:0.25;stroke-miterlimit:10;}
	.st39{clip-path:url(#SVGID_120_);fill:url(#SVGID_123_);stroke:url(#SVGID_124_);stroke-width:0.25;stroke-miterlimit:10;}
	.st40{clip-path:url(#SVGID_128_);fill:url(#SVGID_129_);stroke:url(#SVGID_130_);stroke-width:0.25;stroke-miterlimit:10;}
	.st41{clip-path:url(#SVGID_134_);fill:url(#SVGID_135_);stroke:url(#SVGID_136_);stroke-width:0.25;stroke-miterlimit:10;}
	.st42{clip-path:url(#SVGID_134_);fill:url(#SVGID_137_);stroke:url(#SVGID_138_);stroke-width:0.25;stroke-miterlimit:10;}
	.st43{clip-path:url(#SVGID_142_);fill:url(#SVGID_143_);stroke:url(#SVGID_144_);stroke-width:0.25;stroke-miterlimit:10;}
	.st44{clip-path:url(#SVGID_148_);fill:url(#SVGID_149_);stroke:url(#SVGID_150_);stroke-width:0.25;stroke-miterlimit:10;}
	.st45{clip-path:url(#SVGID_148_);fill:url(#SVGID_151_);stroke:url(#SVGID_152_);stroke-width:0.25;stroke-miterlimit:10;}
	.st46{clip-path:url(#SVGID_156_);fill:url(#SVGID_157_);stroke:url(#SVGID_158_);stroke-width:0.25;stroke-miterlimit:10;}
	.st47{clip-path:url(#SVGID_162_);fill:url(#SVGID_163_);stroke:url(#SVGID_164_);stroke-width:0.25;stroke-miterlimit:10;}
	.st48{clip-path:url(#SVGID_162_);fill:url(#SVGID_165_);stroke:url(#SVGID_166_);stroke-width:0.25;stroke-miterlimit:10;}
	.st49{clip-path:url(#SVGID_170_);fill:url(#SVGID_171_);stroke:url(#SVGID_172_);stroke-width:0.25;stroke-miterlimit:10;}
	.st50{clip-path:url(#SVGID_176_);fill:url(#SVGID_177_);stroke:url(#SVGID_178_);stroke-width:0.25;stroke-miterlimit:10;}
	.st51{clip-path:url(#SVGID_176_);fill:url(#SVGID_179_);stroke:url(#SVGID_180_);stroke-width:0.25;stroke-miterlimit:10;}
	.st52{clip-path:url(#SVGID_184_);fill:url(#SVGID_185_);stroke:url(#SVGID_186_);stroke-width:0.25;stroke-miterlimit:10;}
	.st53{clip-path:url(#SVGID_190_);fill:url(#SVGID_191_);stroke:url(#SVGID_192_);stroke-width:0.25;stroke-miterlimit:10;}
	.st54{clip-path:url(#SVGID_190_);fill:url(#SVGID_193_);stroke:url(#SVGID_194_);stroke-width:0.25;stroke-miterlimit:10;}
	.st55{clip-path:url(#SVGID_198_);fill:url(#SVGID_199_);stroke:url(#SVGID_200_);stroke-width:0.25;stroke-miterlimit:10;}
	.st56{clip-path:url(#SVGID_204_);fill:url(#SVGID_205_);stroke:url(#SVGID_206_);stroke-width:0.25;stroke-miterlimit:10;}
	.st57{clip-path:url(#SVGID_204_);fill:url(#SVGID_207_);stroke:url(#SVGID_208_);stroke-width:0.25;stroke-miterlimit:10;}
	.st58{clip-path:url(#SVGID_212_);fill:url(#SVGID_213_);stroke:url(#SVGID_214_);stroke-width:0.25;stroke-miterlimit:10;}
	.st59{clip-path:url(#SVGID_218_);fill:url(#SVGID_219_);stroke:url(#SVGID_220_);stroke-width:0.25;stroke-miterlimit:10;}
	.st60{clip-path:url(#SVGID_218_);fill:url(#SVGID_221_);stroke:url(#SVGID_222_);stroke-width:0.25;stroke-miterlimit:10;}
	.st61{clip-path:url(#SVGID_226_);fill:url(#SVGID_227_);stroke:url(#SVGID_228_);stroke-width:0.25;stroke-miterlimit:10;}
	.st62{clip-path:url(#SVGID_232_);fill:url(#SVGID_233_);stroke:url(#SVGID_234_);stroke-width:0.25;stroke-miterlimit:10;}
	.st63{clip-path:url(#SVGID_232_);fill:url(#SVGID_235_);stroke:url(#SVGID_236_);stroke-width:0.25;stroke-miterlimit:10;}
	.st64{clip-path:url(#SVGID_240_);fill:url(#SVGID_241_);stroke:url(#SVGID_242_);stroke-width:0.25;stroke-miterlimit:10;}
	.st65{clip-path:url(#SVGID_246_);fill:url(#SVGID_247_);stroke:url(#SVGID_248_);stroke-width:0.25;stroke-miterlimit:10;}
	.st66{clip-path:url(#SVGID_246_);fill:url(#SVGID_249_);stroke:url(#SVGID_250_);stroke-width:0.25;stroke-miterlimit:10;}
	.st67{clip-path:url(#SVGID_254_);fill:url(#SVGID_255_);stroke:url(#SVGID_256_);stroke-width:0.25;stroke-miterlimit:10;}
	.st68{clip-path:url(#SVGID_260_);fill:url(#SVGID_261_);stroke:url(#SVGID_262_);stroke-width:0.25;stroke-miterlimit:10;}
	.st69{clip-path:url(#SVGID_260_);fill:url(#SVGID_263_);stroke:url(#SVGID_264_);stroke-width:0.25;stroke-miterlimit:10;}
	.st70{fill:#58595B;}
	.st71{clip-path:url(#SVGID_267_);fill:#58595B;stroke:#58595B;stroke-width:0.175;stroke-miterlimit:10;}
	.st72{clip-path:url(#SVGID_269_);fill:#58595B;stroke:#58595B;stroke-width:0.175;stroke-miterlimit:10;}
	.st73{clip-path:url(#SVGID_271_);fill:#58595B;stroke:#58595B;stroke-width:0.175;stroke-miterlimit:10;}
	.st74{clip-path:url(#SVGID_273_);fill:#58595B;stroke:#58595B;stroke-width:0.175;stroke-miterlimit:10;}
	.st75{clip-path:url(#SVGID_275_);fill:#58595B;stroke:#58595B;stroke-width:0.175;stroke-miterlimit:10;}
	.st76{clip-path:url(#SVGID_277_);fill:#58595B;stroke:#58595B;stroke-width:0.175;stroke-miterlimit:10;}
	.st77{clip-path:url(#SVGID_279_);fill:#58595B;stroke:#58595B;stroke-width:0.175;stroke-miterlimit:10;}
	.st78{clip-path:url(#SVGID_281_);fill:#58595B;stroke:#58595B;stroke-width:0.175;stroke-miterlimit:10;}
	.st79{clip-path:url(#SVGID_283_);fill:#58595B;stroke:#58595B;stroke-width:0.175;stroke-miterlimit:10;}
	.st80{clip-path:url(#SVGID_285_);fill:#58595B;stroke:#58595B;stroke-width:0.175;stroke-miterlimit:10;}
	.st81{clip-path:url(#SVGID_287_);fill:#58595B;stroke:#58595B;stroke-width:0.175;stroke-miterlimit:10;}
	.st82{clip-path:url(#SVGID_289_);fill:#58595B;stroke:#58595B;stroke-width:0.175;stroke-miterlimit:10;}
	.st83{clip-path:url(#SVGID_291_);fill:#58595B;stroke:#58595B;stroke-width:0.175;stroke-miterlimit:10;}
	.st84{clip-path:url(#SVGID_293_);fill:#58595B;stroke:#58595B;stroke-width:0.175;stroke-miterlimit:10;}
	.st85{clip-path:url(#SVGID_295_);fill:#58595B;stroke:#58595B;stroke-width:0.175;stroke-miterlimit:10;}
	.st86{clip-path:url(#SVGID_297_);fill:#58595B;stroke:#58595B;stroke-width:0.175;stroke-miterlimit:10;}
	.st87{fill:#255D2E;}
	.st88{fill:#285F2F;}
	.st89{fill:#2D6331;}
	.st90{fill:#306632;}
	.st91{fill:#346933;}
	.st92{fill:#386C34;}
	.st93{fill:#3A6F35;}
	.st94{fill:#3F7237;}
	.st95{fill:#437638;}
	.st96{fill:#487939;}
	.st97{fill:#4B7B39;}
	.st98{fill:#4E7E3A;}
	.st99{fill:#52803B;}
	.st100{fill:#57803A;}
	.st101{fill:#5A8039;}
	.st102{fill:#5E8039;}
	.st103{fill:#648439;}
	.st104{fill:#67873A;}
	.st105{fill:#6B8B3B;}
	.st106{fill:#6E8E3C;}
	.st107{fill:#72913C;}
	.st108{fill:#77963D;}
	.st109{fill:#7C993D;}
	.st110{fill:#809C3D;}
	.st111{fill:#80A13E;}
	.st112{fill:#7FA53F;}
	.st113{fill:#81A940;}
	.st114{fill:#85AE3F;}
	.st115{fill:#88B13F;}
	.st116{fill:#8FB63E;}
	.st117{fill:#93BB3D;}
	.st118{fill:#98C13C;stroke:#98C13C;stroke-width:2;}
	.st119{fill:url(#SVGID_298_);}
	.st120{fill:#273942;}
	.st121{fill:#EEA66A;}
	.st122{opacity:0.15;fill:#DA9061;}
	.st123{opacity:0.33;fill:#3D2D1F;}
	.st124{fill:#753B1D;}
	.st125{opacity:0.39;fill:#753B1D;}
	.st126{opacity:0.17;fill:#753B1D;}
	.st127{fill:#303238;}
	.st128{opacity:0.45;fill:#DA9061;}
	.st129{fill:#344881;}
	.st130{opacity:0.74;fill:#CA202D;}
	.st131{opacity:0.68;}
	.st132{fill:#7DC0BF;}
	.st133{opacity:0.35;fill:#FFFFFF;}
	.st134{opacity:0.22;fill:#FFFFFF;}
	.st135{opacity:0.69;fill:#9B9C9E;}
	.st136{opacity:0.38;}
	.st137{fill:#5A8DBF;}
	.st138{opacity:0.13;fill:#4980B3;}
	.st139{opacity:0.73;fill:#CA202D;}
	.st140{opacity:0.28;fill:#9B9C9E;}
	.st141{opacity:0.67;fill:#FFFFFF;}
	.st142{opacity:0.65;fill:#FFFFFF;}
	.st143{fill:#E17281;}
	.st144{fill:#E35925;}
	.st145{opacity:0.46;fill:#801620;}
	.st146{opacity:0.53;fill:#FFFFFF;}
	.st147{fill:#508089;}
	.st148{fill:#24485B;}
	.st149{opacity:0.46;fill:#BAD8D6;}
	.st150{opacity:0.28;}
	.st151{opacity:0.38;fill:#C6C3C2;}
	.st152{fill:#096C37;}
	.st153{fill:#A6A6A6;}
	.st154{fill:#555868;}
	.st155{fill:#C6C3C2;}
	.st156{opacity:0.71;fill:#C6C3C2;}
	.st157{fill:#373A44;}
	.st158{fill:#283A76;}
	.st159{fill:#333333;}
	.st160{opacity:0.5;fill:#333333;}
	.st161{opacity:0.68;fill:#9895A2;}
	.st162{fill:#B8BBC1;}
	.st163{opacity:0.39;fill:#344881;}
	.st164{opacity:0.64;fill:#4D4E4E;}
	.st165{fill:#AEAEAE;}
	.st166{opacity:0.39;fill:#C6C3C2;}
	.st167{opacity:0.18;fill:#C6C3C2;}
	.st168{fill:#C0BFBD;}
	.st169{opacity:0.14;fill:#8080B7;}
	.st170{opacity:0.29;fill:#8080B7;}
	.st171{opacity:0.47;fill:#C6C3C2;}
	.st172{opacity:0.28;fill:#344881;}
	.st173{opacity:0.49;fill:#344881;}
	.st174{opacity:0.49;fill:#FFFFFF;}
	.st175{opacity:0.65;fill:#C6C3C2;}
	.st176{opacity:0.3;fill:#EEA66A;}
	.st177{fill:#A0D3ED;}
	.st178{fill:#C7E1EF;}
	.st179{opacity:0.74;fill:#1C76B0;}
	.st180{opacity:0.74;fill:#9B9C9E;}
	.st181{opacity:0.73;fill:#1C76B0;}
	.st182{fill:#273C82;}
	.st183{clip-path:url(#SVGID_300_);}
	.st184{clip-path:url(#SVGID_302_);}
	.st185{clip-path:url(#SVGID_304_);}
	.st186{clip-path:url(#SVGID_306_);}
	.st187{clip-path:url(#SVGID_308_);}
	.st188{clip-path:url(#SVGID_312_);}
	.st189{clip-path:url(#SVGID_320_);}
	.st190{clip-path:url(#SVGID_322_);}
	.st191{clip-path:url(#SVGID_2850_);}
	.st192{fill:#074823;}
	.st193{clip-path:url(#SVGID_2852_);}
	.st194{clip-path:url(#SVGID_2854_);}
	.st195{clip-path:url(#SVGID_2856_);}
	.st196{clip-path:url(#SVGID_2858_);enable-background:new    ;}
	.st197{clip-path:url(#SVGID_2860_);}
	.st198{clip-path:url(#SVGID_2862_);}
	.st199{clip-path:url(#SVGID_2864_);}
	.st200{clip-path:url(#SVGID_2866_);enable-background:new    ;}
	.st201{clip-path:url(#SVGID_2868_);}
	.st202{clip-path:url(#SVGID_2870_);}
	.st203{clip-path:url(#SVGID_2872_);}
	.st204{clip-path:url(#SVGID_2874_);}
	.st205{clip-path:url(#SVGID_2876_);}
	.st206{clip-path:url(#SVGID_2878_);}
	.st207{clip-path:url(#SVGID_2880_);}
	.st208{clip-path:url(#SVGID_2882_);}
	.st209{clip-path:url(#SVGID_2884_);}
	.st210{clip-path:url(#SVGID_2886_);}
	.st211{clip-path:url(#SVGID_2888_);}
	.st212{clip-path:url(#SVGID_2890_);}
	.st213{clip-path:url(#SVGID_2892_);}
	.st214{clip-path:url(#SVGID_2894_);}
	.st215{clip-path:url(#SVGID_2896_);}
	.st216{clip-path:url(#SVGID_2898_);}
	.st217{clip-path:url(#SVGID_2900_);}
	.st218{clip-path:url(#SVGID_2902_);}
	.st219{clip-path:url(#SVGID_2904_);}
	.st220{clip-path:url(#SVGID_2906_);}
	.st221{clip-path:url(#SVGID_2908_);}
	.st222{clip-path:url(#SVGID_2910_);}
	.st223{clip-path:url(#SVGID_2912_);}
	.st224{clip-path:url(#SVGID_2914_);}
	.st225{clip-path:url(#SVGID_2916_);}
	.st226{clip-path:url(#SVGID_2918_);}
	.st227{clip-path:url(#SVGID_2920_);}
	.st228{clip-path:url(#SVGID_2922_);}
	.st229{clip-path:url(#SVGID_2924_);}
	.st230{clip-path:url(#SVGID_2926_);}
	.st231{clip-path:url(#SVGID_2928_);}
	.st232{clip-path:url(#SVGID_2930_);enable-background:new    ;}
	.st233{clip-path:url(#SVGID_2932_);enable-background:new    ;}
	.st234{clip-path:url(#SVGID_2934_);enable-background:new    ;}
	.st235{clip-path:url(#SVGID_2936_);enable-background:new    ;}
	.st236{clip-path:url(#SVGID_2938_);enable-background:new    ;}
	.st237{clip-path:url(#SVGID_2940_);enable-background:new    ;}
	.st238{clip-path:url(#SVGID_2942_);enable-background:new    ;}
	.st239{clip-path:url(#SVGID_2944_);enable-background:new    ;}
	.st240{clip-path:url(#SVGID_2946_);enable-background:new    ;}
	.st241{clip-path:url(#SVGID_2948_);enable-background:new    ;}
	.st242{clip-path:url(#SVGID_2950_);enable-background:new    ;}
	.st243{clip-path:url(#SVGID_2952_);enable-background:new    ;}
	.st244{clip-path:url(#SVGID_2954_);enable-background:new    ;}
	.st245{clip-path:url(#SVGID_2956_);enable-background:new    ;}
	.st246{clip-path:url(#SVGID_2958_);enable-background:new    ;}
	.st247{clip-path:url(#SVGID_2960_);enable-background:new    ;}
	.st248{clip-path:url(#SVGID_2962_);enable-background:new    ;}
	.st249{clip-path:url(#SVGID_2964_);enable-background:new    ;}
	.st250{clip-path:url(#SVGID_2966_);enable-background:new    ;}
	.st251{clip-path:url(#SVGID_2968_);enable-background:new    ;}
	.st252{clip-path:url(#SVGID_2970_);enable-background:new    ;}
	.st253{clip-path:url(#SVGID_2972_);enable-background:new    ;}
	.st254{clip-path:url(#SVGID_2974_);enable-background:new    ;}
	.st255{clip-path:url(#SVGID_2976_);enable-background:new    ;}
	.st256{clip-path:url(#SVGID_2978_);enable-background:new    ;}
	.st257{clip-path:url(#SVGID_2980_);enable-background:new    ;}
	.st258{clip-path:url(#SVGID_2982_);enable-background:new    ;}
	.st259{fill:#016938;}
	.st260{fill:#BC5B28;}
	.st261{clip-path:url(#SVGID_2984_);enable-background:new    ;}
	.st262{fill:#803C1D;}
	.st263{clip-path:url(#SVGID_2986_);enable-background:new    ;}
	.st264{fill:#8D4621;}
	.st265{fill:#88441F;}
	.st266{fill:#82421F;}
	.st267{fill:#803F1D;}
	.st268{clip-path:url(#SVGID_2988_);enable-background:new    ;}
	.st269{fill:#BA5B27;}
	.st270{clip-path:url(#SVGID_2990_);enable-background:new    ;}
	.st271{fill:#CF6328;}
	.st272{clip-path:url(#SVGID_2992_);enable-background:new    ;}
	.st273{clip-path:url(#SVGID_2994_);enable-background:new    ;}
	.st274{fill:#B15627;}
	.st275{clip-path:url(#SVGID_2996_);enable-background:new    ;}
	.st276{clip-path:url(#SVGID_2998_);enable-background:new    ;}
	.st277{clip-path:url(#SVGID_3000_);enable-background:new    ;}
	.st278{clip-path:url(#SVGID_3002_);enable-background:new    ;}
	.st279{clip-path:url(#SVGID_3004_);enable-background:new    ;}
	.st280{clip-path:url(#SVGID_3006_);enable-background:new    ;}
	.st281{clip-path:url(#SVGID_3008_);enable-background:new    ;}
	.st282{clip-path:url(#SVGID_3010_);enable-background:new    ;}
	.st283{fill:#D16428;}
	.st284{clip-path:url(#SVGID_3012_);enable-background:new    ;}
	.st285{clip-path:url(#SVGID_3014_);enable-background:new    ;}
	.st286{fill:#AD5526;}
	.st287{fill:#BE5C28;}
	.st288{fill:#A55126;}
	.st289{fill:#B95A27;}
	.st290{fill:#B45827;}
	.st291{clip-path:url(#SVGID_3016_);enable-background:new    ;}
	.st292{fill:#C05B28;}
	.st293{clip-path:url(#SVGID_3018_);enable-background:new    ;}
	.st294{fill:#C25C28;}
	.st295{clip-path:url(#SVGID_3020_);enable-background:new    ;}
	.st296{fill:#C15C28;}
	.st297{clip-path:url(#SVGID_3022_);enable-background:new    ;}
	.st298{clip-path:url(#SVGID_3024_);enable-background:new    ;}
	.st299{clip-path:url(#SVGID_3026_);enable-background:new    ;}
	.st300{fill:#CD6228;}
	.st301{clip-path:url(#SVGID_3028_);enable-background:new    ;}
	.st302{clip-path:url(#SVGID_3030_);enable-background:new    ;}
	.st303{clip-path:url(#SVGID_3032_);enable-background:new    ;}
	.st304{fill:url(#SVGID_3033_);}
	.st305{fill:url(#SVGID_3034_);}
	.st306{fill:url(#SVGID_3035_);}
	.st307{fill:url(#SVGID_3036_);}
	.st308{fill:url(#SVGID_3037_);}
	.st309{fill:url(#SVGID_3038_);}
	.st310{fill:url(#SVGID_3039_);}
	.st311{fill:url(#SVGID_3040_);}
	.st312{fill:url(#SVGID_3041_);}
	.st313{fill:url(#SVGID_3042_);}
	.st314{fill:url(#SVGID_3043_);}
	.st315{fill:url(#SVGID_3044_);}
	.st316{fill:url(#SVGID_3045_);}
	.st317{fill:url(#SVGID_3046_);}
	.st318{fill:url(#SVGID_3047_);}
	.st319{fill:url(#SVGID_3048_);}
	.st320{fill:url(#SVGID_3049_);}
	.st321{fill:url(#SVGID_3050_);}
	.st322{fill:url(#SVGID_3051_);}
	.st323{fill:url(#SVGID_3052_);}
	.st324{fill:url(#SVGID_3053_);}
	.st325{fill:url(#SVGID_3054_);}
	.st326{fill:url(#SVGID_3055_);}
	.st327{fill:url(#SVGID_3056_);}
	.st328{fill:url(#);}
	.st329{fill:#231F20;}
	.st330{fill:#B22025;}
	.st331{fill:#2E4B47;}
	.st332{fill:#112A4D;}
	.st333{fill:none;stroke:#221F1F;stroke-width:0.125;stroke-miterlimit:10;}
	.st334{fill:#104F8B;}
	.st335{fill:#5C5D60;}
	.st336{fill:url(#SVGID_5317_);}
	.st337{fill:url(#SVGID_5318_);}
	.st338{fill:url(#SVGID_5319_);}
	.st339{fill:url(#SVGID_5320_);}
	.st340{fill:url(#SVGID_5321_);}
	.st341{fill:url(#SVGID_5322_);}
	.st342{fill:url(#SVGID_5323_);}
	.st343{fill:url(#SVGID_5324_);}
	.st344{fill:url(#SVGID_5325_);}
	.st345{fill:url(#SVGID_5326_);}
	.st346{fill:url(#SVGID_5327_);}
	.st347{fill:url(#SVGID_5328_);}
	.st348{fill:url(#SVGID_5329_);}
	.st349{fill:url(#SVGID_5330_);}
	.st350{fill:url(#SVGID_5331_);}
	.st351{fill:url(#SVGID_5332_);}
	.st352{fill:url(#SVGID_5333_);}
	.st353{fill:url(#SVGID_5334_);}
	.st354{fill:url(#SVGID_5335_);}
	.st355{fill:url(#SVGID_5336_);}
	.st356{fill:url(#SVGID_5337_);}
	.st357{fill:url(#SVGID_5338_);}
	.st358{fill:url(#SVGID_5339_);}
	.st359{fill:url(#SVGID_5340_);}
	.st360{fill:url(#SVGID_5341_);}
	.st361{fill:url(#SVGID_5342_);}
	.st362{fill:url(#SVGID_5343_);}
	.st363{fill:url(#SVGID_5344_);}
	.st364{fill:url(#SVGID_5345_);}
	.st365{fill:url(#SVGID_5346_);}
	.st366{fill:url(#SVGID_5347_);}
	.st367{fill:#4D4D4F;}
	.st368{fill:url(#SVGID_5348_);}
	.st369{fill:url(#SVGID_5349_);}
	.st370{fill:url(#SVGID_5350_);}
	.st371{fill:url(#SVGID_5351_);}
	.st372{fill:#0081C5;}
	.st373{fill:url(#SVGID_5352_);}
	.st374{fill:url(#SVGID_5353_);}
	.st375{fill:url(#SVGID_5354_);}
	.st376{fill:url(#SVGID_5355_);}
	.st377{fill:#038345;}
	.st378{fill:url(#SVGID_5356_);}
	.st379{fill:url(#SVGID_5357_);}
	.st380{fill:url(#SVGID_5358_);}
	.st381{fill:url(#SVGID_5359_);}
	.st382{fill:url(#SVGID_5360_);}
	.st383{fill:url(#SVGID_5361_);}
	.st384{fill:url(#SVGID_5362_);}
	.st385{fill:url(#SVGID_5363_);}
	.st386{fill:url(#SVGID_5364_);}
	.st387{fill:url(#SVGID_5365_);}
	.st388{fill:url(#SVGID_5366_);}
	.st389{fill:url(#SVGID_5367_);}
	.st390{fill:#0099A5;}
	.st391{fill:url(#SVGID_5368_);}
	.st392{fill:url(#SVGID_5369_);stroke:url(#SVGID_5370_);stroke-width:0.125;stroke-miterlimit:10;}
	.st393{fill:url(#SVGID_5371_);stroke:url(#SVGID_5372_);stroke-width:0.125;stroke-miterlimit:10;}
	.st394{fill:url(#SVGID_5373_);stroke:url(#SVGID_5374_);stroke-width:0.25;stroke-miterlimit:10;}
	.st395{fill:url(#SVGID_5375_);stroke:url(#SVGID_5376_);stroke-width:0.25;stroke-miterlimit:10;}
	.st396{fill:url(#SVGID_5377_);stroke:url(#SVGID_5378_);stroke-width:0.125;stroke-miterlimit:10;}
	.st397{fill:url(#SVGID_5379_);stroke:url(#SVGID_5380_);stroke-width:0.125;stroke-miterlimit:10;}
	.st398{fill:url(#SVGID_5381_);stroke:url(#SVGID_5382_);stroke-width:0.125;stroke-miterlimit:10;}
	.st399{fill:url(#SVGID_5383_);stroke:url(#SVGID_5384_);stroke-width:0.125;stroke-miterlimit:10;}
	.st400{fill:url(#SVGID_5385_);stroke:url(#SVGID_5386_);stroke-width:0.125;stroke-miterlimit:10;}
	.st401{fill:url(#SVGID_5387_);stroke:url(#SVGID_5388_);stroke-width:0.125;stroke-miterlimit:10;}
	.st402{fill:url(#SVGID_5389_);stroke:url(#SVGID_5390_);stroke-width:0.125;stroke-miterlimit:10;}
	.st403{fill:url(#SVGID_5391_);stroke:url(#SVGID_5392_);stroke-width:0.125;stroke-miterlimit:10;}
	.st404{fill:url(#SVGID_5393_);stroke:url(#SVGID_5394_);stroke-width:0.125;stroke-miterlimit:10;}
	.st405{fill:url(#SVGID_5395_);stroke:url(#SVGID_5396_);stroke-width:0.125;stroke-miterlimit:10;}
	.st406{fill:url(#SVGID_5397_);stroke:url(#SVGID_5398_);stroke-width:0.125;stroke-miterlimit:10;}
	.st407{fill:url(#SVGID_5399_);stroke:url(#SVGID_5400_);stroke-width:0.125;stroke-miterlimit:10;}
	.st408{fill:url(#SVGID_5401_);stroke:url(#SVGID_5402_);stroke-width:0.125;stroke-miterlimit:10;}
	.st409{fill:url(#SVGID_5403_);stroke:url(#SVGID_5404_);stroke-width:0.125;stroke-miterlimit:10;}
	.st410{fill:url(#SVGID_5405_);stroke:url(#SVGID_5406_);stroke-width:0.125;stroke-miterlimit:10;}
	.st411{fill:url(#SVGID_5407_);stroke:url(#SVGID_5408_);stroke-width:0.125;stroke-miterlimit:10;}
	.st412{fill:url(#SVGID_5409_);stroke:url(#SVGID_5410_);stroke-width:0.125;stroke-miterlimit:10;}
	.st413{fill:url(#SVGID_5411_);stroke:url(#SVGID_5412_);stroke-width:0.125;stroke-miterlimit:10;}
	.st414{fill:url(#SVGID_5413_);stroke:url(#SVGID_5414_);stroke-width:0.125;stroke-miterlimit:10;}
	.st415{fill:url(#SVGID_5415_);stroke:url(#SVGID_5416_);stroke-width:0.125;stroke-miterlimit:10;}
</style>
<g>
	<g>
		<linearGradient id="SVGID_1_" gradientUnits="userSpaceOnUse" x1="51.2991" y1="31.6173" x2="62.6642" y2="31.6173">
			<stop  offset="0" style="stop-color:#9C1A20"/>
			<stop  offset="1" style="stop-color:#AD1F26"/>
		</linearGradient>
		<path class="st2" d="M62.26,24.73c0.33,2.61-0.49,4.44-1.93,4.75c-1.6,0.34-7.5-2.2-7.5-2.2c1.17,0.51,2.08,1.12,2.78,1.78
			c-0.01,0-0.01,0-0.02,0c0.01,0,0.01,0,0.02,0c2.37,2.23,2.36,5.06,2.08,6.73c-0.14,0.62-0.54,1.86-1.61,1.95
			c-0.67,0.03-2.05-0.08-3.04-1.27c0,0,1.66,1.18,3.19,0.89c-0.06-0.12-0.12-0.25-0.18-0.37c-0.22-0.47-0.5-1.02-0.96-1.27
			c-0.63-0.34-2.04-0.36-2.7-0.61c-0.44-0.16-1.07-0.57-1.08-1.09c0,2.46,1.98,4.49,4.44,4.49c0.25,0,0.5-0.02,0.74-0.06
			c0.87-0.13,1.7-0.5,2.4-1.12C64.39,32.76,62.26,24.73,62.26,24.73z"/>
		<path class="st377" d="M42,37.43c-0.1-0.37-0.23-0.73-0.37-1.09c-0.15-0.36-0.32-0.69-0.5-1.02c-0.36-0.66-0.76-1.29-1.16-1.9
			c-0.4-0.61-0.82-1.2-1.16-1.79c-0.34-0.56-0.61-1.21-0.84-1.85c-0.11-0.32-0.21-0.65-0.3-0.98c-0.04-0.16-0.08-0.33-0.11-0.49
			c-0.03-0.16-0.06-0.34-0.08-0.47l-0.17-1.55l-1.07,1.11c-0.17,0.17-0.28,0.31-0.41,0.47c-0.13,0.16-0.25,0.31-0.36,0.47
			c-0.23,0.32-0.45,0.65-0.65,0.99c-0.39,0.68-0.73,1.4-0.99,2.14c-0.13,0.37-0.24,0.75-0.33,1.14c-0.09,0.39-0.16,0.77-0.21,1.17
			c-0.05,0.39-0.07,0.78-0.09,1.16l0,0.58c0,0.19,0.02,0.39,0.02,0.58c0.02,0.39,0.08,0.78,0.14,1.16l0.11,0.57
			c0.05,0.19,0.09,0.38,0.14,0.57c0.11,0.38,0.23,0.75,0.38,1.1c0.15,0.36,0.32,0.71,0.51,1.05c0.18,0.34,0.4,0.66,0.63,0.97
			c0.23,0.31,0.48,0.6,0.74,0.88c0.27,0.27,0.55,0.53,0.85,0.76c0.3,0.23,0.61,0.45,0.95,0.61c-0.56-0.5-1.03-1.07-1.43-1.67
			c-0.2-0.3-0.39-0.61-0.56-0.93c-0.08-0.16-0.16-0.32-0.24-0.48c-0.08-0.16-0.15-0.32-0.21-0.49c-0.13-0.33-0.25-0.67-0.34-1.01
			c-0.05-0.17-0.09-0.34-0.13-0.51c-0.05-0.17-0.07-0.35-0.11-0.52c-0.03-0.17-0.05-0.35-0.08-0.52l-0.06-0.53
			c-0.01-0.18-0.02-0.35-0.03-0.53l-0.01-0.53c0-0.18,0-0.35,0.01-0.53l0.03-0.53l0.05-0.53c0.02-0.15,0.05-0.37,0.07-0.52
			c0.05-0.33,0.13-0.68,0.22-1.01c0.09-0.34,0.19-0.67,0.31-0.99c0.24-0.65,0.54-1.29,0.9-1.89c0.1-0.17,0.21-0.35,0.32-0.51
			c0.07,0.23,0.15,0.46,0.23,0.69c0.14,0.36,0.29,0.71,0.46,1.05c0.17,0.34,0.35,0.68,0.57,1.02c0.21,0.32,0.43,0.63,0.65,0.93
			l0.66,0.87c0.44,0.57,0.86,1.14,1.23,1.73c0.19,0.3,0.37,0.6,0.52,0.9c0.16,0.3,0.31,0.62,0.43,0.94c0.25,0.64,0.39,1.31,0.44,2
			c0.04,0.68-0.07,1.37-0.34,2.01c-0.27,0.64-0.73,1.21-1.31,1.65c0.65-0.32,1.24-0.83,1.64-1.48c0.41-0.65,0.62-1.41,0.67-2.18
			C42.31,38.94,42.19,38.16,42,37.43z"/>
		<path class="st377" d="M69.09,41.59c-0.11,0.09-0.26,0.21-0.39,0.31c-0.14,0.1-0.28,0.2-0.42,0.3c-0.29,0.2-0.59,0.38-0.89,0.56
			c-0.61,0.35-1.24,0.66-1.89,0.92c-1.12,0.45-2.31,0.75-3.5,0.83c1.1-1.1,3.05-2.76,3.98-3.96c0.8-1.02,1.71-3.05,2.24-4.19
			c0.21-0.46,0.45-0.89,0.39-1.12c-0.13-0.46-0.85-0.42-1.17-0.28c-0.75,0.33-2.38,2.87-3.64,3.71c-1.26,0.84-4.46,2.71-6.48,2.6
			c-2.02-0.11-3.17-0.63-3.17-0.63s1.83-0.67,2.52-1.01c0.69-0.34,2.18-1.64,2.48-2.33c0.31-0.69-0.25-1.55-2.27-0.55
			c-2.03,0.99-3.23,0.48-7.43,1.59c-2.31,0.61-3.38,1.8-3.88,2.76c-0.4,0.77-1.09,1.36-1.91,1.65l0,0l-0.52,0.23
			c-0.34,0.16-0.67,0.33-0.99,0.53c-0.64,0.39-1.23,0.85-1.74,1.41c-0.5,0.55-0.92,1.19-1.19,1.88c-0.27,0.69-0.42,1.43-0.37,2.17
			c-0.01-0.74,0.18-1.46,0.48-2.12c0.3-0.66,0.73-1.26,1.25-1.76c0.51-0.51,1.11-0.93,1.74-1.27c0.32-0.18,0.64-0.33,0.98-0.47
			l0.5-0.19l0.52-0.17c0.69-0.21,1.4-0.34,2.11-0.39c0.71-0.05,1.43-0.02,2.14,0.06c1.42,0.17,2.81,0.59,4.2,1.04
			c1.38,0.46,2.77,0.97,4.22,1.37c0.72,0.2,1.46,0.37,2.2,0.5c0.37,0.06,0.75,0.12,1.14,0.15c0.2,0.02,0.37,0.03,0.56,0.05
			l0.14,0.01l0.03,0l0.05,0l0.07,0l0.29,0.01c1.56,0.01,3.1-0.3,4.54-0.84c0.72-0.27,1.42-0.6,2.09-0.97
			c0.09-0.05,0.17-0.1,0.26-0.15c-0.16,0.4-0.35,0.8-0.55,1.18c-0.5,0.96-1.1,1.86-1.78,2.72c-0.68,0.85-1.42,1.65-2.22,2.4
			c-0.4,0.38-0.79,0.72-1.23,1.09c-0.41,0.35-0.85,0.68-1.29,0.99c-1.77,1.25-3.75,2.17-5.84,2.7c-2.09,0.53-4.27,0.67-6.42,0.47
			c-1.07-0.1-2.15-0.29-3.18-0.56c-1.05-0.28-2.08-0.65-3.07-1.07c-1.99-0.85-3.83-2.03-5.42-3.47c-1.6-1.44-2.91-3.17-3.89-5.08
			c-0.98-1.91-1.62-4-1.92-6.15c-0.29-2.14-0.26-4.34,0.09-6.48c0.34-2.15,1.05-4.21,2.11-6.1c1.06-1.88,2.44-3.6,4.08-5.04
			c1.63-1.44,3.51-2.61,5.54-3.46c2.02-0.86,4.18-1.38,6.38-1.54c0.55-0.04,1.08-0.06,1.65-0.05c0.55-0.01,1.1,0.03,1.64,0.09
			c0.55,0.05,1.09,0.13,1.64,0.24c0.54,0.1,1.08,0.23,1.62,0.38c2.14,0.6,4.19,1.54,6.07,2.76c1.86,1.23,3.56,2.77,4.85,4.64
			c-1.15-1.96-2.75-3.64-4.59-5.01c-1.83-1.37-3.9-2.44-6.09-3.17c-0.55-0.18-1.1-0.34-1.67-0.48c-0.56-0.14-1.13-0.25-1.71-0.33
			c-0.58-0.08-1.16-0.14-1.74-0.16c-0.55-0.03-1.16-0.03-1.74-0.01c-2.32,0.09-4.64,0.56-6.82,1.39c-2.18,0.84-4.22,2.04-6.02,3.55
			c-1.8,1.51-3.36,3.32-4.55,5.36c-1.19,2.04-2.01,4.31-2.41,6.63l-0.08,0.42l-0.06,0.44c-0.04,0.3-0.08,0.59-0.11,0.88
			c-0.07,0.58-0.1,1.17-0.12,1.76c-0.04,1.18,0.01,2.36,0.17,3.53c0.31,2.34,1,4.65,2.07,6.77c1.07,2.12,2.52,4.06,4.29,5.66
			c1.77,1.59,3.8,2.88,5.98,3.79c1.09,0.46,2.2,0.85,3.34,1.15c1.15,0.3,2.32,0.5,3.5,0.6c2.36,0.21,4.75,0.02,7.05-0.6
			c2.29-0.62,4.46-1.67,6.37-3.06c0.48-0.35,0.94-0.71,1.39-1.1c0.42-0.36,0.88-0.78,1.29-1.18c0.84-0.81,1.61-1.7,2.32-2.63
			c0.71-0.94,1.34-1.94,1.86-3.01c1.34-2.75,1.34-5.23,1.34-5.23L69.09,41.59z"/>
		<linearGradient id="SVGID_2_" gradientUnits="userSpaceOnUse" x1="57.6177" y1="26.7044" x2="60.9114" y2="26.7044">
			<stop  offset="0" style="stop-color:#9C1A20"/>
			<stop  offset="1" style="stop-color:#AD1F26"/>
		</linearGradient>
		<path class="st3" d="M60.91,26.71c0,0.91-0.74,1.65-1.65,1.64c-0.91,0-1.65-0.74-1.64-1.65c0-0.91,0.74-1.65,1.65-1.64
			C60.18,25.06,60.91,25.8,60.91,26.71z"/>
		<linearGradient id="SVGID_3_" gradientUnits="userSpaceOnUse" x1="47.6503" y1="30.3814" x2="51.8915" y2="30.3814">
			<stop  offset="0" style="stop-color:#9C1A20"/>
			<stop  offset="1" style="stop-color:#AD1F26"/>
		</linearGradient>
		<path class="st4" d="M51.53,29.48h-0.85v-0.85c0-0.2-0.16-0.37-0.37-0.37h-1.07c-0.2,0-0.37,0.16-0.37,0.37v0.85h-0.85
			c-0.2,0-0.37,0.16-0.37,0.37v1.07c0,0.2,0.16,0.37,0.37,0.37h0.85v0.85c0,0.2,0.16,0.37,0.37,0.37h1.07c0.2,0,0.37-0.16,0.37-0.37
			v-0.85h0.85c0.2,0,0.37-0.16,0.37-0.37v-1.07C51.89,29.64,51.73,29.48,51.53,29.48z"/>
		<linearGradient id="SVGID_4_" gradientUnits="userSpaceOnUse" x1="45.4075" y1="26.9377" x2="47.8566" y2="26.9377">
			<stop  offset="0" style="stop-color:#9C1A20"/>
			<stop  offset="1" style="stop-color:#AD1F26"/>
		</linearGradient>
		<path class="st5" d="M47.65,26.42h-0.49v-0.49c0-0.12-0.09-0.21-0.21-0.21h-0.62c-0.12,0-0.21,0.09-0.21,0.21v0.49h-0.49
			c-0.12,0-0.21,0.09-0.21,0.21v0.62c0,0.12,0.09,0.21,0.21,0.21h0.49v0.49c0,0.12,0.09,0.21,0.21,0.21h0.62
			c0.12,0,0.21-0.09,0.21-0.21v-0.49h0.49c0.12,0,0.21-0.09,0.21-0.21v-0.62C47.86,26.51,47.76,26.42,47.65,26.42z"/>
		<path class="st377" d="M58.73,40.88c0,0,3.8-2.73,4.98-4.42c0,0,1.35-2.25,2.91-1.35c0,0-1.36,2.17-3.8,3.9
			C62.82,39.01,61.07,40.11,58.73,40.88z"/>
		<path class="st377" d="M58.27,40.79c0,0,2.12-2.7,3.37-3.98c0,0,0.66-0.73,1.21-1c0,0,0.73-0.12,0.94,0.11
			C63.8,35.91,61.07,39.21,58.27,40.79z"/>
		<polygon class="st377" points="49.62,26.22 59.99,18.06 64.32,21.22 64.32,18.49 67.48,18.56 67.48,23.77 70.53,26.21 
			69.31,27.64 60.03,20.47 50.91,27.64 		"/>
	</g>
	<g>
		<linearGradient id="SVGID_5_" gradientUnits="userSpaceOnUse" x1="10.5119" y1="74.741" x2="10.5119" y2="62.7209">
			<stop  offset="0" style="stop-color:#9C1A20"/>
			<stop  offset="1" style="stop-color:#AD1F26"/>
		</linearGradient>
		<path class="st7" d="M9.19,62.82c0.23-0.03,0.45-0.06,0.66-0.07c0.21-0.02,0.44-0.02,0.69-0.02c0.22,0,0.43,0.01,0.64,0.02
			c0.21,0.02,0.44,0.04,0.69,0.07l3.7,11.82c-0.45,0.07-0.89,0.1-1.32,0.1c-0.42,0-0.82-0.03-1.22-0.1l-0.66-2.37H8.46l-0.67,2.37
			c-0.39,0.07-0.77,0.1-1.13,0.1c-0.41,0-0.81-0.03-1.2-0.1L9.19,62.82z M11.82,70.28l-1.36-4.97l-1.43,4.97H11.82z"/>
		<linearGradient id="SVGID_6_" gradientUnits="userSpaceOnUse" x1="20.3037" y1="74.741" x2="20.3037" y2="62.8195">
			<stop  offset="0" style="stop-color:#9C1A20"/>
			<stop  offset="1" style="stop-color:#AD1F26"/>
		</linearGradient>
		<path class="st8" d="M16.9,62.82h6.71c0.07,0.33,0.1,0.66,0.1,1c0,0.36-0.03,0.71-0.1,1.04H19.3v2.78h3.42
			c0.07,0.35,0.1,0.69,0.1,1.02c0,0.35-0.03,0.7-0.1,1.04H19.3v4.95c-0.42,0.07-0.81,0.1-1.18,0.1c-0.41,0-0.81-0.03-1.22-0.1V62.82
			z"/>
		<linearGradient id="SVGID_7_" gradientUnits="userSpaceOnUse" x1="28.7472" y1="74.7246" x2="28.7472" y2="62.8195">
			<stop  offset="0" style="stop-color:#9C1A20"/>
			<stop  offset="1" style="stop-color:#AD1F26"/>
		</linearGradient>
		<path class="st9" d="M27.54,64.86H24.6c-0.07-0.33-0.1-0.67-0.1-1.04c0-0.34,0.03-0.67,0.1-1h8.3c0.07,0.33,0.1,0.66,0.1,1
			c0,0.36-0.03,0.71-0.1,1.04h-2.94v9.78c-0.2,0.02-0.39,0.04-0.59,0.06c-0.2,0.02-0.39,0.02-0.58,0.02c-0.19,0-0.39-0.01-0.6-0.02
			c-0.21-0.01-0.43-0.03-0.65-0.07V64.86z"/>
		<linearGradient id="SVGID_8_" gradientUnits="userSpaceOnUse" x1="38.0211" y1="74.6423" x2="38.0211" y2="62.8195">
			<stop  offset="0" style="stop-color:#9C1A20"/>
			<stop  offset="1" style="stop-color:#AD1F26"/>
		</linearGradient>
		<path class="st10" d="M34.56,62.82h6.71c0.07,0.33,0.1,0.66,0.1,1c0,0.36-0.03,0.71-0.1,1.04h-4.31v2.57h3.42
			c0.07,0.35,0.1,0.69,0.1,1.02c0,0.35-0.03,0.7-0.1,1.04h-3.42v3.12h4.42c0.07,0.33,0.1,0.66,0.1,1c0,0.36-0.03,0.71-0.1,1.04
			h-6.82V62.82z"/>
		<linearGradient id="SVGID_9_" gradientUnits="userSpaceOnUse" x1="47.7144" y1="74.7246" x2="47.7144" y2="62.6222">
			<stop  offset="0" style="stop-color:#9C1A20"/>
			<stop  offset="1" style="stop-color:#AD1F26"/>
		</linearGradient>
		<path class="st11" d="M43.41,62.82c0.48-0.05,0.93-0.1,1.36-0.14c0.42-0.04,0.89-0.06,1.41-0.06c0.6,0,1.2,0.06,1.78,0.16
			c0.59,0.11,1.12,0.3,1.59,0.58c0.47,0.28,0.85,0.66,1.14,1.13c0.29,0.48,0.44,1.08,0.44,1.82c0,0.44-0.06,0.83-0.16,1.16
			c-0.11,0.33-0.25,0.63-0.42,0.88c-0.17,0.25-0.35,0.47-0.55,0.65c-0.2,0.18-0.38,0.33-0.56,0.44l-0.28,0.18l2.88,5
			c-0.22,0.02-0.45,0.04-0.69,0.07c-0.24,0.02-0.49,0.03-0.74,0.03c-0.42,0-0.83-0.03-1.23-0.1l-3.09-5.49l0.39-0.2
			c0.15-0.08,0.34-0.18,0.56-0.3c0.22-0.12,0.43-0.27,0.63-0.45c0.2-0.18,0.38-0.4,0.52-0.66c0.14-0.26,0.21-0.56,0.21-0.91
			c0-0.69-0.2-1.2-0.59-1.52c-0.39-0.32-0.9-0.49-1.53-0.49c-0.24,0-0.46,0.02-0.66,0.05v9.98c-0.2,0.02-0.39,0.04-0.59,0.06
			s-0.39,0.02-0.58,0.02c-0.19,0-0.38-0.01-0.59-0.02c-0.21-0.01-0.42-0.03-0.64-0.07V62.82z"/>
		<linearGradient id="SVGID_11_" gradientUnits="userSpaceOnUse" x1="60.9921" y1="74.8396" x2="60.9921" y2="62.6222">
			<stop  offset="0" style="stop-color:#9C1A20"/>
			<stop  offset="1" style="stop-color:#AD1F26"/>
		</linearGradient>
		<path style="fill:url(#SVGID_11_);" d="M64.77,72.41c0.14,0.31,0.26,0.62,0.35,0.95c0.09,0.32,0.16,0.65,0.21,0.98
			c-0.57,0.21-1.08,0.35-1.54,0.41c-0.46,0.07-0.95,0.1-1.47,0.1c-0.93,0-1.75-0.15-2.45-0.45c-0.7-0.3-1.29-0.72-1.77-1.27
			c-0.48-0.54-0.84-1.19-1.08-1.93c-0.24-0.75-0.36-1.56-0.36-2.43c0-0.88,0.13-1.69,0.38-2.44c0.25-0.75,0.62-1.4,1.09-1.95
			c0.48-0.55,1.06-0.98,1.76-1.28c0.7-0.31,1.49-0.46,2.38-0.46c0.53,0,1.01,0.03,1.46,0.1c0.44,0.07,0.92,0.2,1.44,0.41
			c-0.02,0.33-0.09,0.65-0.2,0.96c-0.11,0.31-0.23,0.63-0.36,0.95c-0.38-0.13-0.72-0.22-1.02-0.28c-0.3-0.05-0.65-0.08-1.05-0.08
			c-1.05,0-1.86,0.34-2.43,1.03c-0.56,0.69-0.85,1.7-0.85,3.05c0,2.67,1.13,4.01,3.4,4.01c0.41,0,0.76-0.03,1.07-0.08
			C64.04,72.63,64.38,72.54,64.77,72.41z"/>
		<linearGradient id="SVGID_13_" gradientUnits="userSpaceOnUse" x1="71.1869" y1="74.741" x2="71.1869" y2="62.7209">
			<stop  offset="0" style="stop-color:#9C1A20"/>
			<stop  offset="1" style="stop-color:#AD1F26"/>
		</linearGradient>
		<path style="fill:url(#SVGID_13_);" d="M69.86,62.82c0.23-0.03,0.45-0.06,0.66-0.07c0.21-0.02,0.44-0.02,0.69-0.02
			c0.22,0,0.43,0.01,0.64,0.02c0.21,0.02,0.44,0.04,0.69,0.07l3.7,11.82c-0.45,0.07-0.89,0.1-1.32,0.1c-0.42,0-0.82-0.03-1.22-0.1
			l-0.66-2.37h-3.91l-0.67,2.37c-0.39,0.07-0.77,0.1-1.13,0.1c-0.41,0-0.81-0.03-1.2-0.1L69.86,62.82z M72.49,70.28l-1.36-4.97
			l-1.43,4.97H72.49z"/>
		<linearGradient id="SVGID_15_" gradientUnits="userSpaceOnUse" x1="81.9981" y1="74.7246" x2="81.9981" y2="62.6222">
			<stop  offset="0" style="stop-color:#9C1A20"/>
			<stop  offset="1" style="stop-color:#AD1F26"/>
		</linearGradient>
		<path style="fill:url(#SVGID_15_);" d="M77.69,62.82c0.48-0.05,0.93-0.1,1.36-0.14c0.42-0.04,0.89-0.06,1.41-0.06
			c0.6,0,1.2,0.06,1.78,0.16c0.59,0.11,1.12,0.3,1.59,0.58c0.47,0.28,0.85,0.66,1.14,1.13c0.29,0.48,0.44,1.08,0.44,1.82
			c0,0.44-0.06,0.83-0.16,1.16c-0.11,0.33-0.25,0.63-0.42,0.88c-0.17,0.25-0.35,0.47-0.55,0.65c-0.2,0.18-0.38,0.33-0.56,0.44
			l-0.28,0.18l2.88,5c-0.22,0.02-0.45,0.04-0.69,0.07c-0.24,0.02-0.49,0.03-0.74,0.03c-0.42,0-0.83-0.03-1.23-0.1l-3.09-5.49
			l0.39-0.2c0.15-0.08,0.34-0.18,0.56-0.3c0.22-0.12,0.43-0.27,0.63-0.45c0.2-0.18,0.38-0.4,0.52-0.66
			c0.14-0.26,0.21-0.56,0.21-0.91c0-0.69-0.2-1.2-0.59-1.52c-0.39-0.32-0.9-0.49-1.53-0.49c-0.24,0-0.46,0.02-0.66,0.05v9.98
			c-0.2,0.02-0.39,0.04-0.59,0.06s-0.39,0.02-0.58,0.02c-0.19,0-0.38-0.01-0.59-0.02c-0.21-0.01-0.42-0.03-0.64-0.07V62.82z"/>
		<linearGradient id="SVGID_16_" gradientUnits="userSpaceOnUse" x1="91.0831" y1="74.6423" x2="91.0831" y2="62.8195">
			<stop  offset="0" style="stop-color:#9C1A20"/>
			<stop  offset="1" style="stop-color:#AD1F26"/>
		</linearGradient>
		<path style="fill:url(#SVGID_16_);" d="M87.62,62.82h6.71c0.07,0.33,0.1,0.66,0.1,1c0,0.36-0.03,0.71-0.1,1.04h-4.31v2.57h3.42
			c0.07,0.35,0.1,0.69,0.1,1.02c0,0.35-0.03,0.7-0.1,1.04h-3.42v3.12h4.42c0.07,0.33,0.1,0.66,0.1,1c0,0.36-0.03,0.71-0.1,1.04
			h-6.82V62.82z"/>
	</g>
	<g>
		<path class="st377" d="M14.89,78.55c0.21-0.03,0.41-0.05,0.62-0.05s0.41,0.02,0.63,0.05v2.38h2.04v-2.38
			c0.21-0.03,0.41-0.05,0.62-0.05s0.41,0.02,0.63,0.05v6.07c-0.21,0.03-0.42,0.05-0.62,0.05c-0.21,0-0.42-0.02-0.63-0.05v-2.63
			h-2.04v2.63c-0.21,0.03-0.42,0.05-0.62,0.05c-0.21,0-0.42-0.02-0.63-0.05V78.55z"/>
		<path class="st377" d="M24.76,84.72c-0.46,0-0.85-0.08-1.18-0.24c-0.33-0.16-0.61-0.38-0.82-0.65c-0.21-0.28-0.37-0.61-0.48-0.99
			c-0.1-0.38-0.16-0.8-0.16-1.25c0-0.45,0.05-0.87,0.16-1.25c0.1-0.39,0.26-0.72,0.48-1c0.21-0.28,0.49-0.5,0.82-0.66
			c0.33-0.16,0.73-0.24,1.18-0.24s0.85,0.08,1.18,0.24s0.61,0.38,0.82,0.66c0.21,0.28,0.37,0.62,0.48,1c0.1,0.39,0.16,0.8,0.16,1.25
			c0,0.45-0.05,0.87-0.16,1.25c-0.1,0.38-0.26,0.71-0.48,0.99c-0.21,0.28-0.49,0.5-0.82,0.65C25.61,84.64,25.22,84.72,24.76,84.72z
			 M24.76,83.69c0.87,0,1.31-0.7,1.31-2.1c0-0.7-0.11-1.22-0.32-1.57c-0.21-0.35-0.54-0.52-0.98-0.52c-0.88,0-1.33,0.7-1.33,2.1
			C23.44,82.99,23.88,83.69,24.76,83.69z"/>
		<path class="st377" d="M30.28,78.55c0.23-0.03,0.44-0.05,0.65-0.05c0.22,0,0.44,0.02,0.65,0.05l1.39,3.48l1.44-3.48
			c0.17-0.03,0.37-0.05,0.58-0.05c0.21,0,0.42,0.02,0.62,0.05l0.29,6.07c-0.21,0.03-0.42,0.05-0.61,0.05
			c-0.19,0-0.38-0.02-0.57-0.05l-0.15-4.12l-1.23,2.86c-0.08,0.01-0.16,0.02-0.24,0.03c-0.08,0.01-0.17,0.01-0.25,0.01
			c-0.07,0-0.15,0-0.22-0.01c-0.07-0.01-0.15-0.02-0.23-0.03l-1.15-2.91l-0.12,4.18c-0.18,0.03-0.35,0.05-0.52,0.05
			c-0.18,0-0.37-0.02-0.56-0.05L30.28,78.55z"/>
		<path class="st377" d="M38.7,78.55h3.45c0.03,0.17,0.05,0.34,0.05,0.52c0,0.19-0.02,0.36-0.05,0.53h-2.21v1.32h1.76
			c0.03,0.18,0.05,0.35,0.05,0.52c0,0.18-0.02,0.36-0.05,0.53h-1.76v1.61h2.27c0.03,0.17,0.05,0.34,0.05,0.52
			c0,0.19-0.02,0.36-0.05,0.53H38.7V78.55z"/>
		<path class="st377" d="M48.42,78.55c0.21-0.03,0.41-0.05,0.62-0.05s0.41,0.02,0.63,0.05v2.38h2.04v-2.38
			c0.21-0.03,0.41-0.05,0.62-0.05s0.41,0.02,0.63,0.05v6.07c-0.21,0.03-0.42,0.05-0.62,0.05c-0.21,0-0.42-0.02-0.63-0.05v-2.63
			h-2.04v2.63c-0.21,0.03-0.42,0.05-0.62,0.05c-0.21,0-0.42-0.02-0.63-0.05V78.55z"/>
		<path class="st377" d="M55.82,78.55h3.45c0.03,0.17,0.05,0.34,0.05,0.52c0,0.19-0.02,0.36-0.05,0.53h-2.21v1.32h1.76
			c0.03,0.18,0.05,0.35,0.05,0.52c0,0.18-0.02,0.36-0.05,0.53h-1.76v1.61h2.27c0.03,0.17,0.05,0.34,0.05,0.52
			c0,0.19-0.02,0.36-0.05,0.53h-3.51V78.55z"/>
		<path class="st377" d="M63.4,78.55c0.12-0.02,0.23-0.03,0.34-0.04c0.11-0.01,0.23-0.01,0.35-0.01c0.11,0,0.22,0,0.33,0.01
			c0.11,0.01,0.23,0.02,0.35,0.04l1.9,6.07c-0.23,0.03-0.46,0.05-0.68,0.05c-0.21,0-0.42-0.02-0.63-0.05l-0.34-1.22h-2.01
			l-0.35,1.22c-0.2,0.03-0.4,0.05-0.58,0.05c-0.21,0-0.41-0.02-0.62-0.05L63.4,78.55z M64.76,82.38l-0.7-2.55l-0.74,2.55H64.76z"/>
		<path class="st377" d="M69.06,78.55c0.21-0.03,0.41-0.05,0.6-0.05c0.2,0,0.4,0.02,0.62,0.05v5.01h2.1
			c0.02,0.1,0.03,0.19,0.03,0.27c0.01,0.09,0.01,0.17,0.01,0.25c0,0.09,0,0.18-0.01,0.27c-0.01,0.09-0.02,0.18-0.03,0.27h-3.32
			V78.55z"/>
		<path class="st377" d="M75.29,79.59h-1.51c-0.03-0.17-0.05-0.35-0.05-0.53c0-0.17,0.02-0.35,0.05-0.52h4.27
			c0.03,0.17,0.05,0.34,0.05,0.52c0,0.19-0.02,0.36-0.05,0.53h-1.51v5.03c-0.1,0.01-0.2,0.02-0.3,0.03c-0.1,0.01-0.2,0.01-0.3,0.01
			c-0.1,0-0.2,0-0.31-0.01c-0.11-0.01-0.22-0.02-0.33-0.03V79.59z"/>
		<path class="st377" d="M80.59,78.55c0.21-0.03,0.41-0.05,0.62-0.05s0.41,0.02,0.63,0.05v2.38h2.04v-2.38
			c0.21-0.03,0.41-0.05,0.62-0.05s0.41,0.02,0.63,0.05v6.07c-0.21,0.03-0.42,0.05-0.62,0.05c-0.21,0-0.42-0.02-0.63-0.05v-2.63
			h-2.04v2.63c-0.21,0.03-0.42,0.05-0.62,0.05c-0.21,0-0.42-0.02-0.63-0.05V78.55z"/>
	</g>
</g>
</svg>
