<svg id="Layer_1" style="letters" data-name="Layer 1" xmlns="http://www.w3.org/2000/svg" viewBox="0 0 100 100">
    <defs>
        <style>
            .cls-1 {
                fill: black;
            }
            .letter:hover {
                fill: #67daff;
                animation: filter-animation 2s infinite;  
            }
            
            @keyframes filter-animation {
                0% {fill: #67daff; }
                33% { fill: #f92672; }
                66% { fill: #a6e22e; }
                100% { fill: #67daff;  }
            }
        </style>
    </defs>
    <path class="cls-1 letter"
        d="M44.55,84.92c0,1.94-.5,3.72-1.85,4.64a33.63,33.63,0,0,1-7.37.8q-9.3,0-15-5.07T14.66,71.86a23.58,23.58,0,0,1,3.6-12.81c.23-.36.47-.73.73-1.09a27,27,0,0,1,3.23-3.78,36.74,36.74,0,0,1,5.89-4.62l.1.2.06.12,6.12,14.21c-.06.24-.11.49-.16.73a30.72,30.72,0,0,0-.58,6q0,6.31,3,10.19a9.39,9.39,0,0,0,7.88,3.89Z" />
    <path class="cls-1 letter"
        d="M75.86,66.82l-.49-1.12L74,62.47,62.85,37.23,62.07,35v.15A27,27,0,0,1,61,32.53c-.3-.88-.58-1.76-.83-2.63a25.61,25.61,0,0,1-.91-4.48A41.53,41.53,0,0,1,59,20.8a15.28,15.28,0,0,1,1.68-7.64,7.83,7.83,0,0,1,.63-.95h0v0a4.38,4.38,0,0,1,.48-.55h0l.09-.1A10.48,10.48,0,0,1,69.7,8.71,14.82,14.82,0,0,0,65,8Q55.23,8,49,13.75A19.15,19.15,0,0,0,42.7,28.57v1.69A11.16,11.16,0,0,0,42.83,32c.17,1.36.43,2.84.77,4.4s.86,3.48,1.55,5.73l.9,2.35L58.72,74.31l1.81,4.17L61.18,80l5.16,12a19.24,19.24,0,0,0,9.52-25.15Z" />
    <path class="cls-1 letter"
        d="M25,22.94a5.74,5.74,0,0,1,2.72,3.15,5.61,5.61,0,0,1,.05,4.09,4.42,4.42,0,0,1-2.64,2.73,4.35,4.35,0,0,1-3.74-.3,6.07,6.07,0,0,1-2.78-7.28,4.34,4.34,0,0,1,2.58-2.72A4.65,4.65,0,0,1,25,22.94Z" />
    <path class="cls-1 letter"
        d="M84.23,30.19a4.72,4.72,0,0,1,0,6.08,3.46,3.46,0,0,1-2.69,1.26,3.42,3.42,0,0,1-2.65-1.27,4.76,4.76,0,0,1,0-6.11,3.39,3.39,0,0,1,2.65-1.27A3.61,3.61,0,0,1,84.23,30.19Z" />
    <path class="cls-1 letter"
        d="M76.93,18.59a16.74,16.74,0,0,1-3.68,10.28,30.9,30.9,0,0,1-10.4,8.36L62.07,35a22.46,22.46,0,0,0,6-7.63,21.53,21.53,0,0,0,2-9.25,10.46,10.46,0,0,0-1.42-5.65,4.22,4.22,0,0,0-6.79-1A10.48,10.48,0,0,1,69.7,8.71h0A10.84,10.84,0,0,1,73.63,11,9.7,9.7,0,0,1,76.93,18.59Z" />
    <path class="cls-1 letter"
        d="M84.29,40.75c-.26,1.17-.5,2.27-.71,3.3s-.45,2-.72,3q-1.15,4.26-2.32,7.64a53,53,0,0,1-2.7,6.45,23.3,23.3,0,0,1-1.17,2.28c-.43.73-.86,1.49-1.3,2.27L74,62.47a63.1,63.1,0,0,0,2.9-10,48.21,48.21,0,0,0,1-9.54l-.14-2.2Z" />
    <path class="cls-1 letter"
        d="M44.55,84.92c0,1.94-.5,3.72-1.85,4.64a33.63,33.63,0,0,1-7.37.8q-9.3,0-15-5.07T14.66,71.86a23.58,23.58,0,0,1,3.6-12.81c.23-.36.47-.73.73-1.09a27,27,0,0,1,3.23-3.78,36.74,36.74,0,0,1,5.89-4.62l.1.2.06.12,6.12,14.21c-.06.24-.11.49-.16.73a30.72,30.72,0,0,0-.58,6q0,6.31,3,10.19a9.39,9.39,0,0,0,7.88,3.89Z" />
    <path class="cls-1 letter"
        d="M46.05,44.43c-.75.82-1.47,1.64-2.14,2.45a59.82,59.82,0,0,0-3.8,5,43.38,43.38,0,0,0-4,7.11c-.29.67-.56,1.33-.8,2L30.16,49c-.09-.19-.19-.36-.27-.53A68.43,68.43,0,0,1,42.23,43c.94-.32,1.92-.64,2.92-.94Z" />
    <path class="cls-1 letter"
        d="M58.58,80.58a33.61,33.61,0,0,1-8.78,6.47l-.77.38c-.64.28-1.27.56-1.91.8l-.06,0a31.27,31.27,0,0,1-4.36,1.31c1.35-.92,1.87-2.7,1.85-4.64a13.19,13.19,0,0,0-1-4.83l0-.14-7-16.21L35.31,61,30.16,49c-.09-.19-.19-.36-.27-.53-.39-.78-.77-1.5-1.14-2.17A20.92,20.92,0,0,0,27.3,44a6.34,6.34,0,0,0-2.91-2.41,3.06,3.06,0,0,0-2.94.52,7.43,7.43,0,0,0-2.76,4.29,33.6,33.6,0,0,0-1,5.91c-.1.7-.2,1.37-.28,2s-.19,1.34-.29,2l-1.46-.57A29.1,29.1,0,0,1,17.5,44a17.8,17.8,0,0,1,6-7.56q4.47-3.28,8.61-2.95a9.63,9.63,0,0,1,7.09,4.35A20.33,20.33,0,0,1,40.55,40c.45.83.9,1.66,1.39,2.53a3.58,3.58,0,0,1,.29.46l0,0a3.88,3.88,0,0,1,.23.56l1.43,3.27L44.84,49,57.52,78.15Z" />
    <path class="cls-1 letter"
        d="M44.55,84.92c0,1.94-.5,3.72-1.85,4.64a33.63,33.63,0,0,1-7.37.8q-9.3,0-15-5.07T14.66,71.86a23.58,23.58,0,0,1,3.6-12.81c.23-.36.47-.73.73-1.09a27,27,0,0,1,3.23-3.78,36.74,36.74,0,0,1,5.89-4.62l.1.2.06.12,6.12,14.21c-.06.24-.11.49-.16.73a30.72,30.72,0,0,0-.58,6q0,6.31,3,10.19a9.39,9.39,0,0,0,7.88,3.89Z" />
</svg>