<?xml version="1.0" encoding="UTF-8"?>
<svg id="Layer_1" data-name="Layer 1" xmlns="http://www.w3.org/2000/svg" viewBox="0 0 50 50">
  <defs>
    <style>
      .cls-1 {
        fill: none;
        stroke: #606060;
        stroke-miterlimit: 10;
        stroke-width: .2px;
      }
    </style>
  </defs>
  <path class="cls-1" d="M1,23.7s.06-.03.07-.05c.37-.57.67-.71,1.33-.58.44.09.89.18,1.33.27,2.12.43,4.25.87,6.38,1.28,1.21.23,2.04.88,2.48,2.02.01.03.03.05.04.06,1.45-.24,2.88-.48,4.38-.73,0-.14,0-.33,0-.51,0-3.66,0-7.33,0-10.99,0-.46.09-.88.31-1.3,1.25-2.42,2.49-4.85,3.73-7.27.07-.14.14-.28.23-.41.18-.26.42-.41.74-.43.17,0,.34-.01.51-.01,6.98,0,13.96,0,20.94,0,.05,0,.09,0,.14,0,.64-.07,1.06.21,1.33.8.33.71.7,1.39,1.06,2.08.9,1.76,1.8,3.52,2.71,5.28.1.19.2.38.29.57v22.46c-.18.39-.49.62-.87.8-2.41,1.15-4.8,2.32-7.21,3.46-2.96,1.4-5.95,2.74-9.08,3.73-1.09.34-2.19.63-3.33.71-1.22.09-2.39-.15-3.56-.44-2.2-.55-4.34-1.29-6.43-2.15-2.38-.98-4.73-2.03-7.09-3.06-.14-.06-.28-.11-.4-.17-.05.06-.08.08-.09.11-.62,1.2-1.61,1.76-2.96,1.76-1.89-.01-3.78,0-5.67,0-.63,0-1.09-.2-1.31-.82,0-5.49,0-10.98,0-16.47ZM46.97,32.89V15.05h-7.98c0,.2,0,.36,0,.53,0,1.42,0,2.84,0,4.26,0,.79-.36,1.17-1.13,1.17-3.23,0-6.47,0-9.7,0-.75,0-1.11-.36-1.16-1.11,0-.12,0-.25,0-.37,0-1.33,0-2.65,0-3.98,0-.16-.02-.33-.02-.49h-7.94c-.09,1.06-.05,10.71.04,11.04.41.1.83.18,1.23.29,1.03.28,1.98.74,2.94,1.21,1.41.69,2.87,1.19,4.41,1.53,1.11.24,2.21.53,3.3.86.96.29,1.87.69,2.66,1.34.66.54,1.13,1.2,1.3,2.05.02.09.05.17.09.27.14-.04.26-.06.38-.1,2.14-.58,4.28-1.16,6.48-1.45,1.66-.22,3.27-.05,4.8.67.09.04.2.07.33.12ZM46.87,35.36c-.26-.23-.46-.46-.7-.61-.33-.19-.69-.36-1.06-.47-1.35-.4-2.71-.33-4.08-.06-2.11.43-4.19.97-6.26,1.57-.4.12-.79.25-1.14.5-.2.14-.44.23-.68.31-.63.24-1.3.32-1.97.36-1.76.09-3.49-.16-5.21-.5-1.96-.39-3.89-.9-5.81-1.45-.16-.05-.33-.11-.48-.19-.4-.23-.57-.71-.43-1.13.15-.44.54-.71,1-.67.18.02.37.06.55.11,2.2.6,4.39,1.21,6.64,1.57,1.14.18,2.29.35,3.45.29.54-.03,1.09-.12,1.61-.27.72-.21.88-.75.47-1.38-.08-.13-.18-.27-.3-.35-.39-.26-.77-.54-1.19-.73-1.01-.47-2.09-.72-3.16-.99-1.06-.26-2.14-.46-3.16-.82-1.24-.44-2.45-1.01-3.65-1.56-1.31-.6-2.66-1.02-4.12-.86-.98.11-1.95.25-2.92.42-.56.1-1.12.27-1.68.4-.4,2.77-.79,5.5-1.18,8.22.14.07.23.13.33.17,2.4,1.12,4.81,2.22,7.29,3.18,2.34.91,4.69,1.79,7.15,2.33,1,.22,2.01.34,3.02.1.83-.2,1.67-.4,2.48-.66,1.98-.64,3.9-1.42,5.78-2.3,3.08-1.44,6.14-2.92,9.2-4.39.04-.02.08-.05.2-.14ZM3.02,38.93c.08.02.14.04.2.04,1.67,0,3.34.01,5.01,0,.6,0,.94-.32,1.03-.94.16-1.03.31-2.06.46-3.1.27-1.89.54-3.79.81-5.69.07-.48.15-.95.2-1.43.07-.62-.23-1.05-.84-1.21-.09-.02-.18-.04-.27-.06-2.06-.41-4.13-.83-6.19-1.24-.13-.03-.26-.02-.41-.03v13.64ZM22.7,7.06c-1.02,1.98-2.02,3.95-3.05,5.95h7.58c.5-1.99.99-3.95,1.49-5.95h-6.02ZM37.28,7.06c.51,2.02,1,3.99,1.49,5.94h7.57c-1.03-2.01-2.04-3.98-3.04-5.94h-6.02ZM36.71,13.01c-.51-2.03-1-3.99-1.49-5.95h-4.44c-.5,1.98-.99,3.95-1.49,5.95h7.43ZM29.04,15.05v3.95h7.94v-3.95h-7.94Z"/>
</svg>