<?xml version="1.0" encoding="UTF-8"?>
<svg id="Layer_1" data-name="Layer 1" xmlns="http://www.w3.org/2000/svg" viewBox="0 0 50 50">
  <defs>
    <style>
      .cls-1 {
        fill: none;
        stroke: #606060;
        stroke-miterlimit: 10;
        stroke-width: .2px;
      }
    </style>
  </defs>
  <path class="cls-1" d="M45.46,26.91v4.02c1.15.43,2.29.85,3.49,1.3-.04,1.28-.52,2.37-1.04,3.55-1.27-.34-2.48-.66-3.76-1-.79,1.07-1.53,2.09-2.33,3.19.71,1.1,1.39,2.16,2.17,3.36-.97.71-1.89,1.38-2.92,2.14-.9-1.09-1.71-2.06-2.56-3.09-1.22.39-2.41.77-3.75,1.2-.07,1.25-.14,2.5-.21,3.82-1.22.23-2.36.2-3.65.02-.05-1.28-.1-2.53-.15-3.79-1.28-.44-2.43-.83-3.75-1.29-.83.99-1.71,2.03-2.63,3.13-.98-.73-1.87-1.38-2.8-2.07.34-1.36,1.59-2.16,1.97-3.53-.68-.96-1.39-1.94-2.12-2.96-1.33-.09-2.46.64-3.81.83-.72-.97-.9-2.15-1.22-3.44,1.22-.48,2.38-.93,3.45-1.35.51-1-.37-2.23.86-2.92.91.32,1.85.66,2.86,1.02.61,4.74,3.02,8.02,7.97,8.76,4.59.69,7.93-2.07,9.33-5,1.81-3.79,1.03-7.3-2.47-11.05.31-1.51.68-2.95.87-4.41.16-1.21.92-1.99,1.65-2.9,1.21.42,2.01,1.35,3.08,2.04-.77,1.18-1.46,2.24-2.18,3.35.79,1.09,1.53,2.1,2.33,3.21,1.23-.34,2.44-.67,3.69-1.01.62,1.13.97,2.21,1.18,3.47-1.16.46-2.29.9-3.54,1.39Z"/>
  <path class="cls-1" d="M26.35,4.45c6.2-.17,11.96,4.75,12.03,11.9.05,5.91-4.33,11.97-11.98,11.98-7.83.02-11.9-6.46-11.96-11.85-.06-6.29,5.12-12.15,11.91-12.03ZM26.37,26.08c4.43.18,9.76-3.24,9.77-9.67.01-6.64-5.52-9.78-9.69-9.78-5.46,0-9.77,4.58-9.79,9.7-.03,5.06,4.19,9.84,9.71,9.75Z"/>
  <path class="cls-1" d="M13.66,26.48c.91.94,1.68,1.74,2.56,2.65-.19.31-.44.76-.75,1.17-2.42,3.26-5.01,6.37-8.12,9-.93.78-1.96,1.47-3.02,2.06-.9.5-1.97.74-2.81-.14-.82-.86-.53-1.89-.07-2.83.3-.62.65-1.23,1.08-1.77,3.11-3.99,6.94-7.18,11.13-10.13Z"/>
  <path class="cls-1" d="M15.21,23.27c1.47,1.47,2.84,2.85,4.32,4.32-.28.57-.83,1.07-1.66,1.56-1.42-1.29-2.77-2.66-4.03-4.01.23-.97.95-1.33,1.38-1.87Z"/>
  <path class="cls-1" d="M21.31,19.55c-.86-2.27-3.02-3.7-3.4-6.14,1.66-1.2,3.16-2.29,4.75-3.44,1.64,1.58,2.71,3.5,4.18,5.1,1.23.32,2.12-.58,3.18-.84,1.07-.26,2.13-.6,3.27-.92.08-.64.15-1.21.22-1.77,1.82,1.81,2.25,5.47.9,8.14-3.69.65-6.82,2.44-9.32,5.36-2.28-.3-4.03-1.37-5.54-3.15.57-.76,1.13-1.51,1.74-2.34Z"/>
</svg>