<?xml version="1.0" encoding="UTF-8"?>
<svg id="Layer_1" data-name="Layer 1" xmlns="http://www.w3.org/2000/svg" viewBox="0 0 50 50">
  <defs>
    <style>
      .cls-1 {
        fill: none;
        stroke: #606060;
        stroke-miterlimit: 10;
        stroke-width: .2px;
      }
    </style>
  </defs>
  <path class="cls-1" d="M10.42,22.98v7.22c.3.15.64.34.99.48.8.32,1.62.61,2.42.94.82.34,1.33.96,1.48,1.84.57,3.37,1.12,6.75,1.69,10.12.14.84-.04,1.55-.72,2.08-.76.59-1.61.59-2.46.27-.61-.23-.95-.74-1.06-1.38-.25-1.41-.51-2.81-.75-4.22-.29-1.66-.57-3.33-.87-5.08-.94-.37-1.9-.76-2.86-1.14-.97-.38-1.94-.75-2.91-1.12-1.1-.42-1.66-1.22-1.66-2.38,0-3.91-.03-7.81,0-11.72.01-1.78.9-2.62,2.65-2.69.35-.01.7.02,1.04,0,1.03-.07,1.85.31,2.54,1.07.93,1.03,1.88,2.04,2.83,3.06.35.38.7.77,1.13,1.24.55,0,1.15,0,1.75,0,.82,0,1.65-.02,2.47.02,1.1.06,1.68.67,1.7,1.72.02,1.11-.58,1.86-1.69,1.89-1.69.06-3.38.02-5.08.02-.66,0-1.15-.34-1.54-.85-.31-.4-.63-.8-1.1-1.39Z"/>
  <path class="cls-1" d="M38.78,35.24c-.25,1.46-.51,2.91-.76,4.35-.27,1.58-.51,3.16-.8,4.74-.29,1.54-1.76,2.26-3.19,1.59-.91-.43-1.33-1.25-1.15-2.38.24-1.54.51-3.07.77-4.61.31-1.79.67-3.58.94-5.37.16-1.07.73-1.7,1.73-2.05,1.06-.38,2.09-.82,3.1-1.22.22-.99.26-5.43.08-7.09-.52.22-.75.7-1.05,1.1-.44.6-1,.94-1.76.93-1.56,0-3.12,0-4.69,0-.26,0-.52-.03-.77-.11-.81-.28-1.33-1.12-1.22-1.94.12-.89.72-1.52,1.62-1.58.82-.05,1.65-.02,2.47-.03.6,0,1.21,0,1.85,0,1.05-1.14,2.08-2.25,3.11-3.36.35-.38.69-.78,1.06-1.14.58-.57,1.26-.9,2.1-.87.43.02.87,0,1.3,0,1.72.05,2.56.87,2.58,2.57.02,2.13,0,4.25,0,6.38,0,1.69,0,3.39,0,5.08,0,1.87-.26,2.23-1.98,2.9-1.77.69-3.54,1.39-5.38,2.11Z"/>
  <path class="cls-1" d="M18.04,34.27c-1.08-1.54-2.1-3-3.18-4.54h10.29c.6.87,1.25,1.73,1.82,2.65.22.35.35.81.36,1.22.03,2.21.04,4.43,0,6.64-.02,1.33-.72,1.99-2.03,1.99-1.26,0-2.05-.7-2.09-1.97-.04-1.3-.01-2.6-.01-3.91,0-.82,0-1.65,0-2.47-.69-.9-1.26-1.86-2.24-2.77,0,.39-.05.58.01.74.09.24.21.48.37.68.85,1.08,1.07,2.31.98,3.66-.07,1.12,0,2.26-.02,3.38,0,.35,0,.7-.07,1.03-.23,1.12-.94,1.64-2.16,1.61-1.12-.03-1.79-.57-1.98-1.67-.07-.38-.06-.78-.06-1.17,0-1.69,0-3.38,0-5.13Z"/>
  <path class="cls-1" d="M20.74,25.22c.13-.61.34-1.18.37-1.75.08-1.76-1.15-3.09-2.91-3.17-1.21-.05-2.43-.01-3.75-.01-.52-.55-1.07-1.14-1.7-1.81.72-.72,1.35-1.45,2.08-2.04.37-.3.95-.45,1.44-.46,1.69-.05,3.39-.01,5.08-.03.64,0,1.18.22,1.67.61.99.78,1.99,1.55,2.98,2.31.2.15.43.28.74.48,1.01-1.1,2-2.19,2.87-3.14,1.57-.23,2.75.22,3.91.68.55.22.75.69.56,1.35-.88.94-2.13.22-3.23.61-.89.97-1.83,1.99-2.77,3.01-.93,1.01-1.42,1.06-2.56.24-.56-.4-1.11-.82-1.83-1.36v4.49h-2.94Z"/>
  <path class="cls-1" d="M41.76,46.09c-.37-.02-.74-.04-1.02-.06-.58-.69-.38-1.22.03-1.75.74-.96,1.71-1.58,2.85-1.88.21-1.17.21-4.53,0-5.64-.9.31-1.79.63-2.64.93q-.9-.51-.71-1.6c.33-.15.71-.35,1.11-.5,1.21-.47,2.41-.98,3.65-1.38,1.4-.45,1.99-1.45,2.12-2.81.05-.52.04-1.04.04-1.56,0-2.69,0-5.39,0-8.08,0-.43,0-.87,0-1.24q.81-.9,1.75-.26c.02.3.07.64.07.98,0,3.13,0,6.25,0,9.38,0,.39,0,.78-.04,1.17-.18,1.6-.86,2.9-2.31,3.71-.3.17-.61.33-.97.53v6.29c.3.13.65.29,1,.44.82.35,1.45.93,2,1.63.32.41.46.86.2,1.33-.25.46-.69.45-1.23.32-.73-.88-1.47-1.82-2.89-1.83-1.41-.01-2.23.79-2.98,1.9Z"/>
  <path class="cls-1" d="M2.38,46.02c-.51.13-.95.16-1.22-.29-.28-.46-.14-.91.17-1.33.75-1.01,1.75-1.66,3.01-2.02v-6.32c-.24-.14-.54-.31-.83-.47-1.59-.87-2.36-2.25-2.46-4.02-.04-.65-.04-1.3-.04-1.95,0-2.65,0-5.3,0-7.95,0-.47,0-.95,0-1.34q.98-.72,1.83.17c0,1.1,0,2.27,0,3.44,0,2.08,0,4.17,0,6.25,0,.48,0,.96.06,1.43.18,1.25.75,2.16,2.05,2.58,1.24.39,2.44.91,3.65,1.38.4.15.78.34,1.12.49q.24,1.08-.66,1.64c-.85-.3-1.74-.62-2.79-.99-.01.98-.03,1.88-.04,2.77,0,.91,0,1.82,0,2.8.36.16.71.31,1.05.46.82.35,1.47.92,1.99,1.63.3.4.51.84.23,1.33-.29.51-.77.48-1.25.32-2.22-2.51-3.76-2.53-5.89,0Z"/>
  <path class="cls-1" d="M27.06,11.33c-.6.03-1.14.06-1.74.08.01-.87.69-1.2.95-1.77.1-.72.15-1.45.31-2.16.41-1.86,2.21-3.87,5.14-3.62,2.26.19,4.16,1.93,4.45,4.2.29,2.35-1.17,4.72-3.43,5.33-1.93.52-3.69.09-5.12-1.39-.21-.22-.39-.46-.56-.66ZM28.77,9.64c.52,0,.91-.34.95-.85.05-.57-.34-1.01-.91-1.02-.57,0-.98.41-.95.98.02.52.4.88.92.89ZM32.29,8.69c-.51-.85-.78-1.03-1.27-.89-.42.12-.63.44-.67.85-.05.42.29.85.7.96.5.12.75-.05,1.24-.92ZM34.69,8.65c-.03-.52-.39-.89-.9-.88-.52,0-1,.49-.97.99.03.51.55.93,1.07.88.5-.05.82-.45.8-.98Z"/>
  <path class="cls-1" d="M7.05,14.84c-1.94.13-4.28-1.34-4.4-4.17-.1-2.35,1.96-4.42,4.34-4.4,2.42.01,4.37,1.86,4.4,4.35.03,2.34-1.93,4.22-4.35,4.23Z"/>
  <path class="cls-1" d="M47.2,10.6c.12,2.37-2.14,4.32-4.29,4.26-2.51-.07-4.38-1.85-4.36-4.32.01-2.38,1.91-4.27,4.3-4.28,2.14,0,4.45,1.67,4.35,4.34Z"/>
  <path class="cls-1" d="M19.02,6.2c1.87-.12,4.03,1.58,3.97,4.07-.05,2.04-1.58,3.93-4.14,3.95-2.23.02-4-1.9-3.99-4.12,0-1.76,1.5-4.01,4.16-3.9Z"/>
  <path class="cls-1" d="M37.96,28.26c-1.5.26-25.08.2-26.03-.05-.36-.41-.35-.85-.03-1.4.21-.06.49-.19.77-.21.52-.04,1.04-.01,1.56-.01,7.32,0,14.65,0,21.97,0,.3,0,.61-.01.91,0,1.1.06,1.36.54.86,1.68Z"/>
</svg>