<?xml version="1.0" encoding="UTF-8"?>
<svg id="Layer_1" data-name="Layer 1" xmlns="http://www.w3.org/2000/svg" viewBox="0 0 50 50">
  <defs>
    <style>
      .cls-1 {
        fill: none;
        stroke: #606060;
        stroke-miterlimit: 10;
        stroke-width: .2px;
      }
    </style>
  </defs>
  <path class="cls-1" d="M44.41,1c.05.03.1.07.16.08,1.36.37,2.19,1.41,2.25,2.82,0,.12,0,.25,0,.37,0,7.64,0,15.28,0,22.92,0,.43-.05.88-.17,1.29-.35,1.15-1.44,1.94-2.64,1.96-.94.02-1.87,0-2.81,0-4.17,0-8.34,0-12.51,0-.17,0-.34,0-.53,0,0,.16-.02.28-.02.41.13.08.24.16.36.22,1.28.68,2.57,1.35,3.84,2.05.42.23.76.21,1.17-.03,3.24-1.96,7.35-.11,7.97,3.63.49,2.91-1.39,5.36-3.97,6-2.91.72-5.96-1.17-6.47-4.33-.04-.23-.03-.47-.05-.7-.02-.33-.14-.61-.45-.77-.76-.4-1.52-.8-2.28-1.2-.02-.01-.06,0-.12,0,0,.1-.03.2-.03.31,0,.7.01,1.41,0,2.11-.01.47.17.78.59,1.03,1.45.85,2.33,2.13,2.56,3.78.4,2.87-1.42,5.16-3.76,5.85-3.04.88-6.22-1.11-6.67-4.24-.32-2.22.49-4.01,2.36-5.29.06-.04.13-.09.2-.12.43-.19.57-.54.56-.99,0-.56,0-1.12,0-1.69,0-.86,0-1.72,0-2.58v-.46c-.22-.13-.41-.24-.6-.34-1.53-.81-3.06-1.62-4.58-2.44-.27-.15-.54-.2-.85-.2-3.91,0-7.81,0-11.72,0-.86,0-1.59-.28-2.19-.89-.55-.56-.79-1.26-.82-2.03,0-.12,0-.25,0-.37,0-7.62,0-15.25,0-22.87,0-.37.02-.76.11-1.11.28-1.04.97-1.72,2-2.05.1-.03.2-.07.3-.11,12.94,0,25.87,0,38.81,0ZM28.11,24.12c.45.09,16.89.09,17.28,0V7.3h-20.05v.53c0,2.39,0,4.78,0,7.17,0,.22,0,.44-.06.65-.07.3-.36.5-.67.49-.32,0-.61-.24-.66-.56-.03-.17-.02-.34-.02-.51,0-2.42,0-4.84,0-7.26v-.51H4.65s-.05.08-.05.1c0,5.47,0,10.94,0,16.4,0,.09,0,.19.02.28,0,.01.02.03.03.04,0,.01.02.02.03.03.72.08,18.9.05,19.28-.04,0-.14,0-.3,0-.45,0-1.44,0-2.87,0-4.31,0-.25,0-.51.08-.74.2-.62.66-.97,1.31-1.05.61-.08,1.11.16,1.45.66.22.32.4.67.56,1.03.53,1.13.79,2.33.77,3.58,0,.43,0,.87,0,1.29ZM45.41,5.85c0-.69.02-1.33,0-1.97-.04-.76-.54-1.32-1.24-1.45-.2-.04-.4-.03-.61-.03-10.75,0-21.5,0-32.25,0-1.7,0-3.41,0-5.11,0-.96,0-1.59.61-1.62,1.57-.02.5,0,1,0,1.5,0,.12.02.24.03.38h40.8ZM4.6,25.62c0,.71-.02,1.38,0,2.05.02.46.25.83.63,1.1.32.23.68.27,1.06.27,5.71,0,11.43,0,17.14,0h.47v-3.42H4.6ZM25.52,18.92c-.25.2-.16.42-.16.6,0,6.14,0,12.27,0,18.41,0,.19,0,.37-.02.56-.06.81-.45,1.41-1.15,1.81-.14.08-.27.16-.39.25-1.32.98-1.85,2.31-1.56,3.9.39,2.17,2.53,3.52,4.67,3.03,1.53-.35,2.84-1.79,2.97-3.31.15-1.69-.51-2.97-1.95-3.86-.24-.15-.47-.32-.66-.52-.43-.45-.56-1.03-.56-1.64,0-3.12,0-6.25,0-9.37,0-2.09,0-4.18,0-6.28,0-1.22-.39-2.33-.99-3.37-.04-.08-.12-.14-.2-.23ZM28.14,29.04c.2,0,.38,0,.57,0,4.95,0,9.9,0,14.86,0,.14,0,.29.02.42,0,.24-.05.5-.1.7-.22.5-.29.72-.77.73-1.33.01-.52,0-1.03,0-1.55,0-.1-.03-.21-.04-.32h-17.23v3.43ZM28.13,34.04c.14.08.25.15.36.2.91.48,1.82.96,2.72,1.45.66.36,1.05.91,1.14,1.67.04.34.05.69.11,1.02.38,1.94,2.27,3.3,4.3,3.04,2.22-.29,3.79-2.48,3.28-4.66-.62-2.66-3.51-3.88-5.84-2.46-.84.52-1.65.55-2.51.08-1.04-.57-2.09-1.12-3.14-1.67-.13-.07-.27-.13-.42-.2v1.52ZM21.41,30.47c.88.47,1.66.88,2.5,1.33v-1.33h-2.5Z"/>
  <path class="cls-1" d="M10.57,15.73c0-.78-.01-1.56,0-2.34.02-.83.57-1.49,1.38-1.66.43-.09.84.01,1.21.23.58.34,1.16.68,1.74,1.01.71.42,1.43.84,2.14,1.25.39.23.68.54.82.98.24.74-.02,1.49-.67,1.93-.32.22-.67.41-1,.6-1,.58-2,1.16-2.99,1.75-.44.26-.9.35-1.39.21-.75-.21-1.22-.84-1.25-1.63,0-.03,0-.06,0-.09,0-.75,0-1.5,0-2.25h0ZM12.33,13.09c-.3.07-.36.22-.36.43,0,1.47,0,2.93,0,4.4,0,.06,0,.13.01.19.05.19.2.28.39.23.07-.02.14-.07.21-.1,1.22-.72,2.45-1.43,3.67-2.15.15-.09.3-.18.29-.44-.1-.08-.22-.2-.36-.28-.53-.32-1.07-.63-1.61-.95-.75-.44-1.5-.88-2.24-1.31Z"/>
  <path class="cls-1" d="M31.67,15.7c0-.75,0-1.5,0-2.25.01-.87.52-1.5,1.33-1.71.47-.12.9-.01,1.3.22,1.11.64,2.21,1.29,3.31,1.94.22.13.43.25.64.38,1.09.72,1.09,2.19,0,2.89-.95.6-1.93,1.15-2.9,1.72-.35.21-.71.4-1.05.61-1.11.69-2.62-.04-2.62-1.5,0-.77,0-1.53,0-2.3ZM33.42,13.08c-.36.11-.35.33-.35.56,0,1.39,0,2.78,0,4.16,0,.08,0,.16,0,.23.04.27.22.37.47.26.07-.03.14-.08.2-.11,1.18-.69,2.37-1.38,3.55-2.08.08-.05.17-.09.23-.15.15-.14.16-.31,0-.44-.08-.07-.18-.12-.27-.18-.86-.5-1.72-1.01-2.58-1.51-.43-.25-.86-.5-1.27-.74Z"/>
  <path class="cls-1" d="M22.71,3.44c.19,0,.38-.01.56,0,.39.03.68.34.67.7,0,.34-.28.66-.65.68-.39.03-.78.03-1.17,0-.4-.02-.68-.34-.67-.71,0-.36.29-.66.69-.69.19-.01.37,0,.56,0,0,0,0,0,0,0Z"/>
  <path class="cls-1" d="M27.31,3.44c.19,0,.38-.01.56,0,.38.03.65.3.68.65.02.36-.25.71-.64.74-.4.03-.81.03-1.22,0-.36-.03-.64-.36-.63-.7,0-.37.29-.66.69-.69.19-.01.37,0,.56,0Z"/>
  <path class="cls-1" d="M31.92,3.44c.19,0,.38-.01.56,0,.37.03.65.31.66.67.02.35-.24.68-.61.71-.42.03-.84.03-1.26,0-.36-.03-.63-.37-.62-.71.01-.36.28-.64.66-.67.2-.02.41,0,.61,0Z"/>
  <path class="cls-1" d="M18.12,3.44c.19,0,.38-.01.56,0,.37.03.64.32.66.67.01.32-.23.67-.57.7-.45.04-.9.04-1.35,0-.34-.03-.58-.37-.56-.7.02-.35.29-.64.66-.67.2-.02.41,0,.61,0Z"/>
  <path class="cls-1" d="M13.5,4.84c-.19,0-.37.01-.56,0-.4-.03-.68-.32-.69-.69,0-.39.29-.69.72-.7.36-.01.72-.01,1.07,0,.41.02.68.31.68.69,0,.35-.25.65-.62.7-.2.03-.4,0-.61,0,0,0,0,0,0,0Z"/>
  <path class="cls-1" d="M36.52,3.44c.19,0,.37-.01.56,0,.37.03.64.31.66.67.01.35-.24.68-.6.71-.42.04-.84.04-1.26,0-.37-.03-.62-.35-.61-.71.01-.38.28-.65.69-.68.19-.01.37,0,.56,0,0,0,0,0,0,0Z"/>
  <path class="cls-1" d="M8.91,3.44c.19,0,.37-.01.56,0,.38.03.63.3.65.67.01.37-.22.68-.59.72-.42.04-.84.03-1.26,0-.37-.03-.62-.35-.61-.71.01-.36.28-.64.65-.67.2-.02.4,0,.61,0Z"/>
  <path class="cls-1" d="M41.09,4.84c-.19,0-.38.02-.56,0-.4-.04-.66-.33-.65-.72,0-.39.27-.66.68-.68.36-.02.72-.01,1.07,0,.41.02.69.29.7.67.02.39-.27.7-.69.73-.19.01-.37,0-.56,0,0,0,0,0,0,0Z"/>
  <path class="cls-1" d="M8.87,28.01c-.19,0-.37.01-.56,0-.36-.03-.62-.29-.65-.62-.03-.36.18-.7.56-.74.44-.05.9-.05,1.35,0,.38.04.58.37.55.74-.03.35-.26.59-.64.62-.2.02-.4,0-.61,0Z"/>
  <path class="cls-1" d="M13.51,28.01c-.2,0-.41.01-.61,0-.35-.03-.61-.29-.64-.63-.03-.33.18-.68.53-.72.46-.05.93-.05,1.39-.01.35.03.57.36.55.7-.02.37-.27.62-.66.65-.19.02-.37,0-.56,0,0,0,0,0,0,0Z"/>
  <path class="cls-1" d="M18.06,28.01c-.19,0-.37.01-.56,0-.35-.03-.61-.3-.65-.63-.03-.32.19-.68.53-.72.46-.05.93-.05,1.39,0,.35.03.57.38.55.7-.02.36-.28.62-.67.65-.2.02-.4,0-.61,0,0,0,0,0,0,0Z"/>
  <path class="cls-1" d="M26.04,41.29c1.28-.03,2.43,1.05,2.42,2.45-.01,1.18-.89,2.4-2.43,2.4-1.67,0-2.47-1.39-2.44-2.48.03-1.27,1.11-2.42,2.45-2.37ZM25,43.71c0,.57.48,1.04,1.05,1.03.54-.01,1.01-.49,1.01-1.03,0-.58-.47-1.03-1.05-1.02-.56,0-1,.46-1,1.01Z"/>
  <path class="cls-1" d="M36.5,28.01c-.2,0-.41.02-.61,0-.36-.04-.6-.29-.62-.64-.02-.33.16-.66.5-.69.49-.05.99-.05,1.48,0,.33.04.52.38.49.7-.03.34-.28.6-.64.63-.2.02-.4,0-.61,0,0,0,0,0,0,0Z"/>
  <path class="cls-1" d="M41.08,28.01c-.19,0-.37.01-.56,0-.38-.03-.61-.27-.64-.62-.03-.38.18-.67.55-.75.18-.04.37-.02.56-.03.23,0,.47-.02.7.01.4.05.66.35.65.72-.01.37-.29.64-.7.67-.19.01-.37,0-.56,0h0Z"/>
  <path class="cls-1" d="M31.91,28.01c-.2,0-.41.01-.61,0-.36-.03-.61-.29-.64-.63-.03-.33.19-.68.53-.72.46-.05.93-.05,1.39,0,.35.03.57.38.55.71-.02.35-.29.62-.67.65-.19.01-.37,0-.56,0h0Z"/>
  <path class="cls-1" d="M36.25,40.01c-1.35,0-2.43-1.09-2.43-2.45,0-1.09.82-2.4,2.42-2.41,1.6,0,2.45,1.28,2.45,2.43,0,1.35-1.08,2.43-2.44,2.43ZM36.28,38.6c.56,0,1-.46,1-1.02,0-.57-.49-1.05-1.05-1.03-.54.01-1.01.49-1,1.03,0,.58.47,1.02,1.05,1.02Z"/>
</svg>