<?xml version="1.0" encoding="UTF-8"?>
<svg id="Layer_1" data-name="Layer 1" xmlns="http://www.w3.org/2000/svg" viewBox="0 0 50 50">
  <defs>
    <style>
      .cls-1 {
        fill: none;
        stroke: #606060;
        stroke-miterlimit: 10;
        stroke-width: .2px;
      }
    </style>
  </defs>
  <path class="cls-1" d="M48.41,29.48c-.21.74-.42,1.48-.63,2.23-.13.48-.25.97-.39,1.46-.1.36-.3.63-.69.72-.7.16-1.26-.43-1.08-1.15.17-.69.37-1.38.55-2.07.12-.44.24-.88.35-1.32.16-.65-.06-1.06-.72-1.24-1.33-.37-2.67-.72-4.01-1.08-.94-.25-1.88-.51-2.82-.75-.68-.18-1.09.05-1.27.73-.76,2.8-1.51,5.61-2.26,8.42-.53,1.98-1.06,3.97-1.59,5.95-.02.09-.05.18-.07.26-.14.63.09,1.04.7,1.22.95.27,1.91.51,2.86.77,1.32.35,2.64.71,3.97,1.06.7.18,1.12-.05,1.31-.74.26-.95.51-1.91.77-2.86.04-.15.07-.3.13-.44.19-.46.66-.68,1.12-.54.43.13.72.57.6,1.04-.22.9-.46,1.8-.7,2.69-.08.29-.15.59-.25.88-.45,1.32-1.79,2.12-3.14,1.8-1.24-.29-2.47-.64-3.71-.97-1.04-.28-2.09-.56-3.13-.84-1.7-.46-2.35-1.26-2.46-3.05-.44-.06-.89-.1-1.33-.18-4.66-.8-8.06-3.32-10.2-7.53-.15-.29-.29-.57-.6-.76-.36.36-.72.73-1.1,1.08-1.39,1.27-3.52,1.2-4.82-.15-.2-.21-.37-.45-.52-.69-.15-.25-.25-.52-.39-.82-.12.05-.24.09-.36.15-3.11,1.36-6.21,2.73-9.32,4.09-.13.05-.25.11-.38.16-.37.15-.7.07-.97-.2-.29-.28-.36-.63-.2-1.01.32-.74.64-1.48.97-2.22,1.14-2.59,2.28-5.18,3.43-7.8-.11-.05-.22-.1-.32-.14-2.36-.92-3.02-3.86-1.25-5.68,1.16-1.19,2.32-2.38,3.57-3.47,2.4-2.1,5.21-3.4,8.36-3.92.97-.16,1.96-.23,2.94-.34.02.04.04.07.06.11.11-.14.22-.3.35-.43,2.64-2.64,5.28-5.28,7.92-7.92.11-.11.21-.22.33-.32.38-.32.82-.32,1.21,0,.09.08.18.17.26.25,1.75,1.74,3.49,3.49,5.24,5.24.08.08.15.15.22.23.37.43.37.88,0,1.31-.09.1-.19.2-.29.29-1.47,1.47-2.93,2.93-4.4,4.4-.12.12-.23.24-.36.38.11.1.19.18.28.25,1.96,1.53,3.51,3.41,4.69,5.6.61,1.14,1.23,2.27,1.86,3.44.11-.07.21-.14.31-.2.67-.43,1.39-.61,2.18-.41,1.68.44,3.35.89,5.03,1.33.63.17,1.26.35,1.9.51,1.13.28,1.89.95,2.19,2.09.01.04.05.07.08.1v1.01ZM21.58,24.18c.12.11.26.21.38.33,1.17,1.16,2.33,2.32,3.49,3.49.12.12.24.24.34.37.26.36.21.87-.1,1.17-.31.3-.81.34-1.17.08-.12-.09-.23-.2-.34-.31-1.67-1.67-3.34-3.34-5.01-5.01-.15-.15-.3-.31-.46-.44-.64-.53-1.6-.59-2.31-.16-.73.45-1.09,1.28-.92,2.12.09.47.35.83.68,1.16,1.74,1.73,3.47,3.46,5.2,5.21.19.19.35.42.47.66,1.85,3.85,4.89,6.13,9.1,6.83.47.08.95.16,1.44.1,1.14-4.26,2.27-8.49,3.4-12.69-.92-1.69-1.8-3.34-2.7-4.98-.95-1.73-2.22-3.2-3.74-4.45-.24-.2-.5-.38-.7-.53-2.36,2.36-4.67,4.67-7.05,7.05ZM28.63,5.72c-6.77,6.77-13.53,13.53-20.25,20.25.47.49.96.99,1.41,1.45,6.75-6.75,13.52-13.52,20.27-20.27-.45-.45-.94-.95-1.43-1.43ZM31.48,8.59c-4.35,4.35-8.72,8.72-13.1,13.1.7.19,1.33.56,1.81,1.05,4.27-4.27,8.51-8.51,12.72-12.72-.46-.46-.95-.95-1.43-1.43ZM17.36,14.29c-.22.01-.37,0-.51.03-2.42.41-4.64,1.32-6.63,2.77-1.67,1.22-3.02,2.78-4.49,4.22-.03.03-.06.07-.09.11-.37.55-.43,1.14-.12,1.73.3.57.79.86,1.44.87.51,0,.91-.2,1.25-.55,2.96-2.96,5.92-5.92,8.88-8.88.07-.07.13-.15.25-.29ZM4.3,34.37c2.31-1.02,4.53-1.98,6.66-2.94-1.26-1.26-2.49-2.49-3.73-3.73-.95,2.16-1.92,4.37-2.93,6.67ZM16.08,29.59c-.34.34-.71.67-1.03,1.03-.53.59-.54,1.48-.05,2.09.5.62,1.35.8,2.05.43.31-.16,1.14-.98,1.31-1.27-.76-.76-1.51-1.51-2.28-2.29ZM13.71,26.4c-.85.85-1.67,1.67-2.46,2.45.47.46.97.96,1.44,1.42.66-.66,1.36-1.35,2.08-2.08-.52-.48-.86-1.12-1.07-1.79Z"/>
  <path class="cls-1" d="M46.32,36.98c0,.51-.39.9-.89.91-.49,0-.91-.41-.92-.89-.01-.5.43-.94.93-.93.5,0,.89.41.89.92Z"/>
</svg>