<svg width="105" height="18" viewBox="0 0 105 18" fill="none" xmlns="http://www.w3.org/2000/svg">
<path d="M9.32505 0.599609L11.2562 6.54313H17.5056L12.4497 10.2164L14.3809 16.1599L9.32505 12.4866L4.26919 16.1599L6.20036 10.2164L1.1445 6.54313H7.39388L9.32505 0.599609Z" fill="#01524b"/>
<path d="M31.0856 0.599609L33.0168 6.54313H39.2662L34.2103 10.2164L36.1415 16.1599L31.0856 12.4866L26.0298 16.1599L27.9609 10.2164L22.9051 6.54313H29.1544L31.0856 0.599609Z" fill="#01524b"/>
<path d="M52.8462 0.599609L54.7774 6.54313H61.0268L55.9709 10.2164L57.9021 16.1599L52.8462 12.4866L47.7904 16.1599L49.7215 10.2164L44.6657 6.54313H50.9151L52.8462 0.599609Z" fill="#01524b"/>
<path d="M74.6068 0.599609L76.538 6.54313H82.7873L77.7315 10.2164L79.6626 16.1599L74.6068 12.4866L69.5509 16.1599L71.4821 10.2164L66.4262 6.54313H72.6756L74.6068 0.599609Z" fill="#01524b"/>
<path d="M96.3675 0.599609L98.2986 6.54313H104.548L99.4922 10.2164L101.423 16.1599L96.3675 12.4866L91.3116 16.1599L93.2428 10.2164L88.1869 6.54313H94.4363L96.3675 0.599609Z" fill="#01524b"/>
</svg>
