<?xml version="1.0" encoding="utf-8"?>
<!-- Generator: Adobe Illustrator 24.3.0, SVG Export Plug-In . SVG Version: 6.00 Build 0)  -->
<svg version="1.1" id="Layer_1" xmlns="http://www.w3.org/2000/svg" xmlns:xlink="http://www.w3.org/1999/xlink" x="0px" y="0px"
	 viewBox="0 0 100 100" style="enable-background:new 0 0 100 100;" xml:space="preserve">
<style type="text/css">
	.st0{fill:#FFFFFF;}
	.st1{fill:#888888;}
	.st2{fill:url(#SVGID_1_);}
	.st3{fill:url(#SVGID_2_);}
	.st4{fill:url(#SVGID_3_);}
	.st5{fill:url(#SVGID_4_);}
	.st6{fill:#929292;}
	.st7{fill:url(#SVGID_5_);}
	.st8{fill:url(#SVGID_6_);}
	.st9{fill:url(#SVGID_7_);}
	.st10{fill:url(#SVGID_8_);}
	.st11{fill:url(#SVGID_9_);}
	.st12{enable-background:new    ;}
	.st13{clip-path:url(#SVGID_13_);}
	.st14{fill:#8C8C8C;}
	.st15{fill-rule:evenodd;clip-rule:evenodd;fill:#888888;}
	.st16{clip-path:url(#SVGID_16_);fill:url(#SVGID_17_);stroke:url(#SVGID_18_);stroke-width:0.25;stroke-miterlimit:10;}
	.st17{clip-path:url(#SVGID_22_);fill:url(#SVGID_23_);stroke:url(#SVGID_24_);stroke-width:0.25;stroke-miterlimit:10;}
	.st18{clip-path:url(#SVGID_22_);fill:url(#SVGID_25_);stroke:url(#SVGID_26_);stroke-width:0.25;stroke-miterlimit:10;}
	.st19{clip-path:url(#SVGID_30_);fill:url(#SVGID_31_);stroke:url(#SVGID_32_);stroke-width:0.25;stroke-miterlimit:10;}
	.st20{clip-path:url(#SVGID_36_);fill:url(#SVGID_37_);stroke:url(#SVGID_38_);stroke-width:0.25;stroke-miterlimit:10;}
	.st21{clip-path:url(#SVGID_36_);fill:url(#SVGID_39_);stroke:url(#SVGID_40_);stroke-width:0.25;stroke-miterlimit:10;}
	.st22{clip-path:url(#SVGID_44_);fill:url(#SVGID_45_);stroke:url(#SVGID_46_);stroke-width:0.25;stroke-miterlimit:10;}
	.st23{clip-path:url(#SVGID_50_);fill:url(#SVGID_51_);stroke:url(#SVGID_52_);stroke-width:0.25;stroke-miterlimit:10;}
	.st24{clip-path:url(#SVGID_50_);fill:url(#SVGID_53_);stroke:url(#SVGID_54_);stroke-width:0.25;stroke-miterlimit:10;}
	.st25{clip-path:url(#SVGID_58_);fill:url(#SVGID_59_);stroke:url(#SVGID_60_);stroke-width:0.25;stroke-miterlimit:10;}
	.st26{clip-path:url(#SVGID_64_);fill:url(#SVGID_65_);stroke:url(#SVGID_66_);stroke-width:0.25;stroke-miterlimit:10;}
	.st27{clip-path:url(#SVGID_64_);fill:url(#SVGID_67_);stroke:url(#SVGID_68_);stroke-width:0.25;stroke-miterlimit:10;}
	.st28{clip-path:url(#SVGID_72_);fill:url(#SVGID_73_);stroke:url(#SVGID_74_);stroke-width:0.25;stroke-miterlimit:10;}
	.st29{clip-path:url(#SVGID_78_);fill:url(#SVGID_79_);stroke:url(#SVGID_80_);stroke-width:0.25;stroke-miterlimit:10;}
	.st30{clip-path:url(#SVGID_78_);fill:url(#SVGID_81_);stroke:url(#SVGID_82_);stroke-width:0.25;stroke-miterlimit:10;}
	.st31{clip-path:url(#SVGID_86_);fill:url(#SVGID_87_);stroke:url(#SVGID_88_);stroke-width:0.25;stroke-miterlimit:10;}
	.st32{clip-path:url(#SVGID_92_);fill:url(#SVGID_93_);stroke:url(#SVGID_94_);stroke-width:0.25;stroke-miterlimit:10;}
	.st33{clip-path:url(#SVGID_92_);fill:url(#SVGID_95_);stroke:url(#SVGID_96_);stroke-width:0.25;stroke-miterlimit:10;}
	.st34{clip-path:url(#SVGID_100_);fill:url(#SVGID_101_);stroke:url(#SVGID_102_);stroke-width:0.25;stroke-miterlimit:10;}
	.st35{clip-path:url(#SVGID_106_);fill:url(#SVGID_107_);stroke:url(#SVGID_108_);stroke-width:0.25;stroke-miterlimit:10;}
	.st36{clip-path:url(#SVGID_106_);fill:url(#SVGID_109_);stroke:url(#SVGID_110_);stroke-width:0.25;stroke-miterlimit:10;}
	.st37{clip-path:url(#SVGID_114_);fill:url(#SVGID_115_);stroke:url(#SVGID_116_);stroke-width:0.25;stroke-miterlimit:10;}
	.st38{clip-path:url(#SVGID_120_);fill:url(#SVGID_121_);stroke:url(#SVGID_122_);stroke-width:0.25;stroke-miterlimit:10;}
	.st39{clip-path:url(#SVGID_120_);fill:url(#SVGID_123_);stroke:url(#SVGID_124_);stroke-width:0.25;stroke-miterlimit:10;}
	.st40{clip-path:url(#SVGID_128_);fill:url(#SVGID_129_);stroke:url(#SVGID_130_);stroke-width:0.25;stroke-miterlimit:10;}
	.st41{clip-path:url(#SVGID_134_);fill:url(#SVGID_135_);stroke:url(#SVGID_136_);stroke-width:0.25;stroke-miterlimit:10;}
	.st42{clip-path:url(#SVGID_134_);fill:url(#SVGID_137_);stroke:url(#SVGID_138_);stroke-width:0.25;stroke-miterlimit:10;}
	.st43{clip-path:url(#SVGID_142_);fill:url(#SVGID_143_);stroke:url(#SVGID_144_);stroke-width:0.25;stroke-miterlimit:10;}
	.st44{clip-path:url(#SVGID_148_);fill:url(#SVGID_149_);stroke:url(#SVGID_150_);stroke-width:0.25;stroke-miterlimit:10;}
	.st45{clip-path:url(#SVGID_148_);fill:url(#SVGID_151_);stroke:url(#SVGID_152_);stroke-width:0.25;stroke-miterlimit:10;}
	.st46{clip-path:url(#SVGID_156_);fill:url(#SVGID_157_);stroke:url(#SVGID_158_);stroke-width:0.25;stroke-miterlimit:10;}
	.st47{clip-path:url(#SVGID_162_);fill:url(#SVGID_163_);stroke:url(#SVGID_164_);stroke-width:0.25;stroke-miterlimit:10;}
	.st48{clip-path:url(#SVGID_162_);fill:url(#SVGID_165_);stroke:url(#SVGID_166_);stroke-width:0.25;stroke-miterlimit:10;}
	.st49{clip-path:url(#SVGID_170_);fill:url(#SVGID_171_);stroke:url(#SVGID_172_);stroke-width:0.25;stroke-miterlimit:10;}
	.st50{clip-path:url(#SVGID_176_);fill:url(#SVGID_177_);stroke:url(#SVGID_178_);stroke-width:0.25;stroke-miterlimit:10;}
	.st51{clip-path:url(#SVGID_176_);fill:url(#SVGID_179_);stroke:url(#SVGID_180_);stroke-width:0.25;stroke-miterlimit:10;}
	.st52{clip-path:url(#SVGID_184_);fill:url(#SVGID_185_);stroke:url(#SVGID_186_);stroke-width:0.25;stroke-miterlimit:10;}
	.st53{clip-path:url(#SVGID_190_);fill:url(#SVGID_191_);stroke:url(#SVGID_192_);stroke-width:0.25;stroke-miterlimit:10;}
	.st54{clip-path:url(#SVGID_190_);fill:url(#SVGID_193_);stroke:url(#SVGID_194_);stroke-width:0.25;stroke-miterlimit:10;}
	.st55{clip-path:url(#SVGID_198_);fill:url(#SVGID_199_);stroke:url(#SVGID_200_);stroke-width:0.25;stroke-miterlimit:10;}
	.st56{clip-path:url(#SVGID_204_);fill:url(#SVGID_205_);stroke:url(#SVGID_206_);stroke-width:0.25;stroke-miterlimit:10;}
	.st57{clip-path:url(#SVGID_204_);fill:url(#SVGID_207_);stroke:url(#SVGID_208_);stroke-width:0.25;stroke-miterlimit:10;}
	.st58{clip-path:url(#SVGID_212_);fill:url(#SVGID_213_);stroke:url(#SVGID_214_);stroke-width:0.25;stroke-miterlimit:10;}
	.st59{clip-path:url(#SVGID_218_);fill:url(#SVGID_219_);stroke:url(#SVGID_220_);stroke-width:0.25;stroke-miterlimit:10;}
	.st60{clip-path:url(#SVGID_218_);fill:url(#SVGID_221_);stroke:url(#SVGID_222_);stroke-width:0.25;stroke-miterlimit:10;}
	.st61{clip-path:url(#SVGID_226_);fill:url(#SVGID_227_);stroke:url(#SVGID_228_);stroke-width:0.25;stroke-miterlimit:10;}
	.st62{clip-path:url(#SVGID_232_);fill:url(#SVGID_233_);stroke:url(#SVGID_234_);stroke-width:0.25;stroke-miterlimit:10;}
	.st63{clip-path:url(#SVGID_232_);fill:url(#SVGID_235_);stroke:url(#SVGID_236_);stroke-width:0.25;stroke-miterlimit:10;}
	.st64{clip-path:url(#SVGID_240_);fill:url(#SVGID_241_);stroke:url(#SVGID_242_);stroke-width:0.25;stroke-miterlimit:10;}
	.st65{clip-path:url(#SVGID_246_);fill:url(#SVGID_247_);stroke:url(#SVGID_248_);stroke-width:0.25;stroke-miterlimit:10;}
	.st66{clip-path:url(#SVGID_246_);fill:url(#SVGID_249_);stroke:url(#SVGID_250_);stroke-width:0.25;stroke-miterlimit:10;}
	.st67{clip-path:url(#SVGID_254_);fill:url(#SVGID_255_);stroke:url(#SVGID_256_);stroke-width:0.25;stroke-miterlimit:10;}
	.st68{clip-path:url(#SVGID_260_);fill:url(#SVGID_261_);stroke:url(#SVGID_262_);stroke-width:0.25;stroke-miterlimit:10;}
	.st69{clip-path:url(#SVGID_260_);fill:url(#SVGID_263_);stroke:url(#SVGID_264_);stroke-width:0.25;stroke-miterlimit:10;}
	.st70{fill:#595959;}
	.st71{clip-path:url(#SVGID_267_);fill:#595959;stroke:#595959;stroke-width:0.175;stroke-miterlimit:10;}
	.st72{clip-path:url(#SVGID_269_);fill:#595959;stroke:#595959;stroke-width:0.175;stroke-miterlimit:10;}
	.st73{clip-path:url(#SVGID_271_);fill:#595959;stroke:#595959;stroke-width:0.175;stroke-miterlimit:10;}
	.st74{clip-path:url(#SVGID_273_);fill:#595959;stroke:#595959;stroke-width:0.175;stroke-miterlimit:10;}
	.st75{clip-path:url(#SVGID_275_);fill:#595959;stroke:#595959;stroke-width:0.175;stroke-miterlimit:10;}
	.st76{clip-path:url(#SVGID_277_);fill:#595959;stroke:#595959;stroke-width:0.175;stroke-miterlimit:10;}
	.st77{clip-path:url(#SVGID_279_);fill:#595959;stroke:#595959;stroke-width:0.175;stroke-miterlimit:10;}
	.st78{clip-path:url(#SVGID_281_);fill:#595959;stroke:#595959;stroke-width:0.175;stroke-miterlimit:10;}
	.st79{clip-path:url(#SVGID_283_);fill:#595959;stroke:#595959;stroke-width:0.175;stroke-miterlimit:10;}
	.st80{clip-path:url(#SVGID_285_);fill:#595959;stroke:#595959;stroke-width:0.175;stroke-miterlimit:10;}
	.st81{clip-path:url(#SVGID_287_);fill:#595959;stroke:#595959;stroke-width:0.175;stroke-miterlimit:10;}
	.st82{clip-path:url(#SVGID_289_);fill:#595959;stroke:#595959;stroke-width:0.175;stroke-miterlimit:10;}
	.st83{clip-path:url(#SVGID_291_);fill:#595959;stroke:#595959;stroke-width:0.175;stroke-miterlimit:10;}
	.st84{clip-path:url(#SVGID_293_);fill:#595959;stroke:#595959;stroke-width:0.175;stroke-miterlimit:10;}
	.st85{clip-path:url(#SVGID_295_);fill:#595959;stroke:#595959;stroke-width:0.175;stroke-miterlimit:10;}
	.st86{clip-path:url(#SVGID_297_);fill:#595959;stroke:#595959;stroke-width:0.175;stroke-miterlimit:10;}
	.st87{fill:url(#SVGID_298_);}
	.st88{fill:url(#SVGID_299_);}
	.st89{fill:url(#SVGID_300_);}
	.st90{fill:url(#SVGID_301_);}
	.st91{fill:url(#SVGID_302_);}
	.st92{fill:url(#SVGID_303_);}
	.st93{fill:url(#SVGID_304_);}
	.st94{fill:url(#SVGID_305_);}
	.st95{fill:url(#SVGID_306_);}
	.st96{clip-path:url(#SVGID_310_);}
	.st97{clip-path:url(#SVGID_313_);fill:url(#SVGID_314_);stroke:url(#SVGID_315_);stroke-width:0.25;stroke-miterlimit:10;}
	.st98{clip-path:url(#SVGID_319_);fill:url(#SVGID_320_);stroke:url(#SVGID_321_);stroke-width:0.25;stroke-miterlimit:10;}
	.st99{clip-path:url(#SVGID_319_);fill:url(#SVGID_322_);stroke:url(#SVGID_323_);stroke-width:0.25;stroke-miterlimit:10;}
	.st100{clip-path:url(#SVGID_327_);fill:url(#SVGID_328_);stroke:url(#SVGID_329_);stroke-width:0.25;stroke-miterlimit:10;}
	.st101{clip-path:url(#SVGID_333_);fill:url(#SVGID_334_);stroke:url(#SVGID_335_);stroke-width:0.25;stroke-miterlimit:10;}
	.st102{clip-path:url(#SVGID_333_);fill:url(#SVGID_336_);stroke:url(#SVGID_337_);stroke-width:0.25;stroke-miterlimit:10;}
	.st103{clip-path:url(#SVGID_341_);fill:url(#SVGID_342_);stroke:url(#SVGID_343_);stroke-width:0.25;stroke-miterlimit:10;}
	.st104{clip-path:url(#SVGID_347_);fill:url(#SVGID_348_);stroke:url(#SVGID_349_);stroke-width:0.25;stroke-miterlimit:10;}
	.st105{clip-path:url(#SVGID_347_);fill:url(#SVGID_350_);stroke:url(#SVGID_351_);stroke-width:0.25;stroke-miterlimit:10;}
	.st106{clip-path:url(#SVGID_355_);fill:url(#SVGID_356_);stroke:url(#SVGID_357_);stroke-width:0.25;stroke-miterlimit:10;}
	.st107{clip-path:url(#SVGID_361_);fill:url(#SVGID_362_);stroke:url(#SVGID_363_);stroke-width:0.25;stroke-miterlimit:10;}
	.st108{clip-path:url(#SVGID_361_);fill:url(#SVGID_364_);stroke:url(#SVGID_365_);stroke-width:0.25;stroke-miterlimit:10;}
	.st109{clip-path:url(#SVGID_369_);fill:url(#SVGID_370_);stroke:url(#SVGID_371_);stroke-width:0.25;stroke-miterlimit:10;}
	.st110{clip-path:url(#SVGID_375_);fill:url(#SVGID_376_);stroke:url(#SVGID_377_);stroke-width:0.25;stroke-miterlimit:10;}
	.st111{clip-path:url(#SVGID_375_);fill:url(#SVGID_378_);stroke:url(#SVGID_379_);stroke-width:0.25;stroke-miterlimit:10;}
	.st112{clip-path:url(#SVGID_383_);fill:url(#SVGID_384_);stroke:url(#SVGID_385_);stroke-width:0.25;stroke-miterlimit:10;}
	.st113{clip-path:url(#SVGID_389_);fill:url(#SVGID_390_);stroke:url(#SVGID_391_);stroke-width:0.25;stroke-miterlimit:10;}
	.st114{clip-path:url(#SVGID_389_);fill:url(#SVGID_392_);stroke:url(#SVGID_393_);stroke-width:0.25;stroke-miterlimit:10;}
	.st115{clip-path:url(#SVGID_397_);fill:url(#SVGID_398_);stroke:url(#SVGID_399_);stroke-width:0.25;stroke-miterlimit:10;}
	.st116{clip-path:url(#SVGID_403_);fill:url(#SVGID_404_);stroke:url(#SVGID_405_);stroke-width:0.25;stroke-miterlimit:10;}
	.st117{clip-path:url(#SVGID_403_);fill:url(#SVGID_406_);stroke:url(#SVGID_407_);stroke-width:0.25;stroke-miterlimit:10;}
	.st118{clip-path:url(#SVGID_411_);fill:url(#SVGID_412_);stroke:url(#SVGID_413_);stroke-width:0.25;stroke-miterlimit:10;}
	.st119{clip-path:url(#SVGID_417_);fill:url(#SVGID_418_);stroke:url(#SVGID_419_);stroke-width:0.25;stroke-miterlimit:10;}
	.st120{clip-path:url(#SVGID_417_);fill:url(#SVGID_420_);stroke:url(#SVGID_421_);stroke-width:0.25;stroke-miterlimit:10;}
	.st121{clip-path:url(#SVGID_425_);fill:url(#SVGID_426_);stroke:url(#SVGID_427_);stroke-width:0.25;stroke-miterlimit:10;}
	.st122{clip-path:url(#SVGID_431_);fill:url(#SVGID_432_);stroke:url(#SVGID_433_);stroke-width:0.25;stroke-miterlimit:10;}
	.st123{clip-path:url(#SVGID_431_);fill:url(#SVGID_434_);stroke:url(#SVGID_435_);stroke-width:0.25;stroke-miterlimit:10;}
	.st124{clip-path:url(#SVGID_439_);fill:url(#SVGID_440_);stroke:url(#SVGID_441_);stroke-width:0.25;stroke-miterlimit:10;}
	.st125{clip-path:url(#SVGID_445_);fill:url(#SVGID_446_);stroke:url(#SVGID_447_);stroke-width:0.25;stroke-miterlimit:10;}
	.st126{clip-path:url(#SVGID_445_);fill:url(#SVGID_448_);stroke:url(#SVGID_449_);stroke-width:0.25;stroke-miterlimit:10;}
	.st127{clip-path:url(#SVGID_453_);fill:url(#SVGID_454_);stroke:url(#SVGID_455_);stroke-width:0.25;stroke-miterlimit:10;}
	.st128{clip-path:url(#SVGID_459_);fill:url(#SVGID_460_);stroke:url(#SVGID_461_);stroke-width:0.25;stroke-miterlimit:10;}
	.st129{clip-path:url(#SVGID_459_);fill:url(#SVGID_462_);stroke:url(#SVGID_463_);stroke-width:0.25;stroke-miterlimit:10;}
	.st130{clip-path:url(#SVGID_467_);fill:url(#SVGID_468_);stroke:url(#SVGID_469_);stroke-width:0.25;stroke-miterlimit:10;}
	.st131{clip-path:url(#SVGID_473_);fill:url(#SVGID_474_);stroke:url(#SVGID_475_);stroke-width:0.25;stroke-miterlimit:10;}
	.st132{clip-path:url(#SVGID_473_);fill:url(#SVGID_476_);stroke:url(#SVGID_477_);stroke-width:0.25;stroke-miterlimit:10;}
	.st133{clip-path:url(#SVGID_481_);fill:url(#SVGID_482_);stroke:url(#SVGID_483_);stroke-width:0.25;stroke-miterlimit:10;}
	.st134{clip-path:url(#SVGID_487_);fill:url(#SVGID_488_);stroke:url(#SVGID_489_);stroke-width:0.25;stroke-miterlimit:10;}
	.st135{clip-path:url(#SVGID_487_);fill:url(#SVGID_490_);stroke:url(#SVGID_491_);stroke-width:0.25;stroke-miterlimit:10;}
	.st136{clip-path:url(#SVGID_495_);fill:url(#SVGID_496_);stroke:url(#SVGID_497_);stroke-width:0.25;stroke-miterlimit:10;}
	.st137{clip-path:url(#SVGID_501_);fill:url(#SVGID_502_);stroke:url(#SVGID_503_);stroke-width:0.25;stroke-miterlimit:10;}
	.st138{clip-path:url(#SVGID_501_);fill:url(#SVGID_504_);stroke:url(#SVGID_505_);stroke-width:0.25;stroke-miterlimit:10;}
	.st139{clip-path:url(#SVGID_509_);fill:url(#SVGID_510_);stroke:url(#SVGID_511_);stroke-width:0.25;stroke-miterlimit:10;}
	.st140{clip-path:url(#SVGID_515_);fill:url(#SVGID_516_);stroke:url(#SVGID_517_);stroke-width:0.25;stroke-miterlimit:10;}
	.st141{clip-path:url(#SVGID_515_);fill:url(#SVGID_518_);stroke:url(#SVGID_519_);stroke-width:0.25;stroke-miterlimit:10;}
	.st142{clip-path:url(#SVGID_523_);fill:url(#SVGID_524_);stroke:url(#SVGID_525_);stroke-width:0.25;stroke-miterlimit:10;}
	.st143{clip-path:url(#SVGID_529_);fill:url(#SVGID_530_);stroke:url(#SVGID_531_);stroke-width:0.25;stroke-miterlimit:10;}
	.st144{clip-path:url(#SVGID_529_);fill:url(#SVGID_532_);stroke:url(#SVGID_533_);stroke-width:0.25;stroke-miterlimit:10;}
	.st145{clip-path:url(#SVGID_537_);fill:url(#SVGID_538_);stroke:url(#SVGID_539_);stroke-width:0.25;stroke-miterlimit:10;}
	.st146{clip-path:url(#SVGID_543_);fill:url(#SVGID_544_);stroke:url(#SVGID_545_);stroke-width:0.25;stroke-miterlimit:10;}
	.st147{clip-path:url(#SVGID_543_);fill:url(#SVGID_546_);stroke:url(#SVGID_547_);stroke-width:0.25;stroke-miterlimit:10;}
	.st148{clip-path:url(#SVGID_551_);fill:url(#SVGID_552_);stroke:url(#SVGID_553_);stroke-width:0.25;stroke-miterlimit:10;}
	.st149{clip-path:url(#SVGID_557_);fill:url(#SVGID_558_);stroke:url(#SVGID_559_);stroke-width:0.25;stroke-miterlimit:10;}
	.st150{clip-path:url(#SVGID_557_);fill:url(#SVGID_560_);stroke:url(#SVGID_561_);stroke-width:0.25;stroke-miterlimit:10;}
	.st151{clip-path:url(#SVGID_564_);fill:#595959;stroke:#595959;stroke-width:0.175;stroke-miterlimit:10;}
	.st152{clip-path:url(#SVGID_566_);fill:#595959;stroke:#595959;stroke-width:0.175;stroke-miterlimit:10;}
	.st153{clip-path:url(#SVGID_568_);fill:#595959;stroke:#595959;stroke-width:0.175;stroke-miterlimit:10;}
	.st154{clip-path:url(#SVGID_570_);fill:#595959;stroke:#595959;stroke-width:0.175;stroke-miterlimit:10;}
	.st155{clip-path:url(#SVGID_572_);fill:#595959;stroke:#595959;stroke-width:0.175;stroke-miterlimit:10;}
	.st156{clip-path:url(#SVGID_574_);fill:#595959;stroke:#595959;stroke-width:0.175;stroke-miterlimit:10;}
	.st157{clip-path:url(#SVGID_576_);fill:#595959;stroke:#595959;stroke-width:0.175;stroke-miterlimit:10;}
	.st158{clip-path:url(#SVGID_578_);fill:#595959;stroke:#595959;stroke-width:0.175;stroke-miterlimit:10;}
	.st159{clip-path:url(#SVGID_580_);fill:#595959;stroke:#595959;stroke-width:0.175;stroke-miterlimit:10;}
	.st160{clip-path:url(#SVGID_582_);fill:#595959;stroke:#595959;stroke-width:0.175;stroke-miterlimit:10;}
	.st161{clip-path:url(#SVGID_584_);fill:#595959;stroke:#595959;stroke-width:0.175;stroke-miterlimit:10;}
	.st162{clip-path:url(#SVGID_586_);fill:#595959;stroke:#595959;stroke-width:0.175;stroke-miterlimit:10;}
	.st163{clip-path:url(#SVGID_588_);fill:#595959;stroke:#595959;stroke-width:0.175;stroke-miterlimit:10;}
	.st164{clip-path:url(#SVGID_590_);fill:#595959;stroke:#595959;stroke-width:0.175;stroke-miterlimit:10;}
	.st165{clip-path:url(#SVGID_592_);fill:#595959;stroke:#595959;stroke-width:0.175;stroke-miterlimit:10;}
	.st166{clip-path:url(#SVGID_594_);fill:#595959;stroke:#595959;stroke-width:0.175;stroke-miterlimit:10;}
	.st167{fill:#474747;}
	.st168{fill:#494949;}
	.st169{fill:#4D4D4D;}
	.st170{fill:#505050;}
	.st171{fill:#535353;}
	.st172{fill:#565656;}
	.st173{fill:#5C5C5C;}
	.st174{fill:#606060;}
	.st175{fill:#636363;}
	.st176{fill:#656565;}
	.st177{fill:#686868;}
	.st178{fill:#6B6B6B;}
	.st179{fill:#6C6C6C;}
	.st180{fill:#6D6D6D;}
	.st181{fill:#6E6E6E;}
	.st182{fill:#727272;}
	.st183{fill:#757575;}
	.st184{fill:#797979;}
	.st185{fill:#7B7B7B;}
	.st186{fill:#7E7E7E;}
	.st187{fill:#838383;}
	.st188{fill:#868686;}
	.st189{fill:#898989;}
	.st190{fill:#8E8E8E;}
	.st191{fill:#919191;}
	.st192{fill:#959595;}
	.st193{fill:#989898;}
	.st194{fill:#9D9D9D;}
	.st195{fill:#A1A1A1;}
	.st196{fill:#A6A6A6;stroke:#A6A6A6;stroke-width:2;}
	.st197{fill:url(#SVGID_595_);}
	.st198{fill:#353535;}
	.st199{fill:#B5B5B5;}
	.st200{opacity:0.15;fill:#A1A1A1;}
	.st201{opacity:0.33;fill:#303030;}
	.st202{opacity:0.39;fill:#494949;}
	.st203{opacity:0.17;fill:#494949;}
	.st204{fill:#323232;}
	.st205{opacity:0.45;fill:#A1A1A1;}
	.st206{fill:#484848;}
	.st207{opacity:0.74;fill:#545454;}
	.st208{opacity:0.68;}
	.st209{fill:#ACACAC;}
	.st210{opacity:0.35;fill:#FFFFFF;}
	.st211{opacity:0.22;fill:#FFFFFF;}
	.st212{opacity:0.69;fill:#9C9C9C;}
	.st213{opacity:0.38;}
	.st214{opacity:0.13;fill:#757575;}
	.st215{opacity:0.73;fill:#545454;}
	.st216{opacity:0.28;fill:#9C9C9C;}
	.st217{opacity:0.67;fill:#FFFFFF;}
	.st218{opacity:0.65;fill:#FFFFFF;}
	.st219{fill:#7D7D7D;}
	.st220{opacity:0.46;fill:#373737;}
	.st221{opacity:0.53;fill:#FFFFFF;}
	.st222{fill:#737373;}
	.st223{fill:#3F3F3F;}
	.st224{opacity:0.46;fill:#CFCFCF;}
	.st225{opacity:0.28;}
	.st226{opacity:0.38;fill:#C4C4C4;}
	.st227{fill:#A6A6A6;}
	.st228{fill:#C4C4C4;}
	.st229{opacity:0.71;fill:#C4C4C4;}
	.st230{fill:#3A3A3A;}
	.st231{fill:#3B3B3B;}
	.st232{fill:#333333;}
	.st233{opacity:0.5;fill:#333333;}
	.st234{opacity:0.68;fill:#979797;}
	.st235{fill:#BBBBBB;}
	.st236{opacity:0.39;fill:#484848;}
	.st237{opacity:0.64;fill:#4E4E4E;}
	.st238{fill:#AEAEAE;}
	.st239{opacity:0.39;fill:#C4C4C4;}
	.st240{opacity:0.18;fill:#C4C4C4;}
	.st241{fill:#BFBFBF;}
	.st242{opacity:0.14;fill:#868686;}
	.st243{opacity:0.29;fill:#868686;}
	.st244{opacity:0.47;fill:#C4C4C4;}
	.st245{opacity:0.28;fill:#484848;}
	.st246{opacity:0.49;fill:#484848;}
	.st247{opacity:0.49;fill:#FFFFFF;}
	.st248{opacity:0.65;fill:#C4C4C4;}
	.st249{opacity:0.3;fill:#B5B5B5;}
	.st250{fill:#C7C7C7;}
	.st251{fill:#DBDBDB;}
	.st252{opacity:0.74;fill:#616161;}
	.st253{opacity:0.74;fill:#9C9C9C;}
	.st254{opacity:0.73;fill:#616161;}
	.st255{fill:#3D3D3D;}
	.st256{clip-path:url(#SVGID_597_);}
	.st257{clip-path:url(#SVGID_599_);}
	.st258{clip-path:url(#SVGID_601_);}
	.st259{clip-path:url(#SVGID_603_);}
	.st260{clip-path:url(#SVGID_605_);}
	.st261{clip-path:url(#SVGID_609_);}
	.st262{clip-path:url(#SVGID_617_);}
	.st263{clip-path:url(#SVGID_619_);}
	.st264{clip-path:url(#SVGID_3147_);}
	.st265{fill:#303030;}
	.st266{clip-path:url(#SVGID_3149_);}
	.st267{clip-path:url(#SVGID_3151_);}
	.st268{clip-path:url(#SVGID_3153_);}
	.st269{clip-path:url(#SVGID_3155_);enable-background:new    ;}
	.st270{clip-path:url(#SVGID_3157_);}
	.st271{clip-path:url(#SVGID_3159_);}
	.st272{clip-path:url(#SVGID_3161_);}
	.st273{clip-path:url(#SVGID_3163_);enable-background:new    ;}
	.st274{clip-path:url(#SVGID_3165_);}
	.st275{clip-path:url(#SVGID_3167_);}
	.st276{clip-path:url(#SVGID_3169_);}
	.st277{clip-path:url(#SVGID_3171_);}
	.st278{clip-path:url(#SVGID_3173_);}
	.st279{clip-path:url(#SVGID_3175_);}
	.st280{clip-path:url(#SVGID_3177_);}
	.st281{clip-path:url(#SVGID_3179_);}
	.st282{clip-path:url(#SVGID_3181_);}
	.st283{clip-path:url(#SVGID_3183_);}
	.st284{clip-path:url(#SVGID_3185_);}
	.st285{clip-path:url(#SVGID_3187_);}
	.st286{clip-path:url(#SVGID_3189_);}
	.st287{clip-path:url(#SVGID_3191_);}
	.st288{clip-path:url(#SVGID_3193_);}
	.st289{clip-path:url(#SVGID_3195_);}
	.st290{clip-path:url(#SVGID_3197_);}
	.st291{clip-path:url(#SVGID_3199_);}
	.st292{clip-path:url(#SVGID_3201_);}
	.st293{clip-path:url(#SVGID_3203_);}
	.st294{clip-path:url(#SVGID_3205_);}
	.st295{clip-path:url(#SVGID_3207_);}
	.st296{clip-path:url(#SVGID_3209_);}
	.st297{clip-path:url(#SVGID_3211_);}
	.st298{clip-path:url(#SVGID_3213_);}
	.st299{clip-path:url(#SVGID_3215_);}
	.st300{clip-path:url(#SVGID_3217_);}
	.st301{clip-path:url(#SVGID_3219_);}
	.st302{clip-path:url(#SVGID_3221_);}
	.st303{clip-path:url(#SVGID_3223_);}
	.st304{clip-path:url(#SVGID_3225_);}
	.st305{clip-path:url(#SVGID_3227_);enable-background:new    ;}
	.st306{clip-path:url(#SVGID_3229_);enable-background:new    ;}
	.st307{clip-path:url(#SVGID_3231_);enable-background:new    ;}
	.st308{clip-path:url(#SVGID_3233_);enable-background:new    ;}
	.st309{clip-path:url(#SVGID_3235_);enable-background:new    ;}
	.st310{clip-path:url(#SVGID_3237_);enable-background:new    ;}
	.st311{clip-path:url(#SVGID_3239_);enable-background:new    ;}
	.st312{clip-path:url(#SVGID_3241_);enable-background:new    ;}
	.st313{clip-path:url(#SVGID_3243_);enable-background:new    ;}
	.st314{clip-path:url(#SVGID_3245_);enable-background:new    ;}
	.st315{clip-path:url(#SVGID_3247_);enable-background:new    ;}
	.st316{clip-path:url(#SVGID_3249_);enable-background:new    ;}
	.st317{clip-path:url(#SVGID_3251_);enable-background:new    ;}
	.st318{clip-path:url(#SVGID_3253_);enable-background:new    ;}
	.st319{clip-path:url(#SVGID_3255_);enable-background:new    ;}
	.st320{clip-path:url(#SVGID_3257_);enable-background:new    ;}
	.st321{clip-path:url(#SVGID_3259_);enable-background:new    ;}
	.st322{clip-path:url(#SVGID_3261_);enable-background:new    ;}
	.st323{clip-path:url(#SVGID_3263_);enable-background:new    ;}
	.st324{clip-path:url(#SVGID_3265_);enable-background:new    ;}
	.st325{clip-path:url(#SVGID_3267_);enable-background:new    ;}
	.st326{clip-path:url(#SVGID_3269_);enable-background:new    ;}
	.st327{clip-path:url(#SVGID_3271_);enable-background:new    ;}
	.st328{clip-path:url(#SVGID_3273_);enable-background:new    ;}
	.st329{clip-path:url(#SVGID_3275_);enable-background:new    ;}
	.st330{clip-path:url(#SVGID_3277_);enable-background:new    ;}
	.st331{clip-path:url(#SVGID_3279_);enable-background:new    ;}
	.st332{fill:#444444;}
	.st333{clip-path:url(#SVGID_3281_);enable-background:new    ;}
	.st334{clip-path:url(#SVGID_3283_);enable-background:new    ;}
	.st335{fill:#575757;}
	.st336{fill:#545454;}
	.st337{fill:#515151;}
	.st338{fill:#4F4F4F;}
	.st339{clip-path:url(#SVGID_3285_);enable-background:new    ;}
	.st340{clip-path:url(#SVGID_3287_);enable-background:new    ;}
	.st341{clip-path:url(#SVGID_3289_);enable-background:new    ;}
	.st342{clip-path:url(#SVGID_3291_);enable-background:new    ;}
	.st343{clip-path:url(#SVGID_3293_);enable-background:new    ;}
	.st344{clip-path:url(#SVGID_3295_);enable-background:new    ;}
	.st345{clip-path:url(#SVGID_3297_);enable-background:new    ;}
	.st346{clip-path:url(#SVGID_3299_);enable-background:new    ;}
	.st347{clip-path:url(#SVGID_3301_);enable-background:new    ;}
	.st348{clip-path:url(#SVGID_3303_);enable-background:new    ;}
	.st349{clip-path:url(#SVGID_3305_);enable-background:new    ;}
	.st350{clip-path:url(#SVGID_3307_);enable-background:new    ;}
	.st351{clip-path:url(#SVGID_3309_);enable-background:new    ;}
	.st352{clip-path:url(#SVGID_3311_);enable-background:new    ;}
	.st353{fill:#6A6A6A;}
	.st354{fill:#747474;}
	.st355{fill:#717171;}
	.st356{clip-path:url(#SVGID_3313_);enable-background:new    ;}
	.st357{clip-path:url(#SVGID_3315_);enable-background:new    ;}
	.st358{clip-path:url(#SVGID_3317_);enable-background:new    ;}
	.st359{clip-path:url(#SVGID_3319_);enable-background:new    ;}
	.st360{clip-path:url(#SVGID_3321_);enable-background:new    ;}
	.st361{clip-path:url(#SVGID_3323_);enable-background:new    ;}
	.st362{fill:#7C7C7C;}
	.st363{clip-path:url(#SVGID_3325_);enable-background:new    ;}
	.st364{clip-path:url(#SVGID_3327_);enable-background:new    ;}
	.st365{clip-path:url(#SVGID_3329_);enable-background:new    ;}
	.st366{fill:url(#SVGID_3330_);}
	.st367{fill:url(#SVGID_3331_);}
	.st368{fill:url(#SVGID_3332_);}
	.st369{fill:url(#SVGID_3333_);}
	.st370{fill:url(#SVGID_3334_);}
	.st371{fill:url(#SVGID_3335_);}
	.st372{fill:url(#SVGID_3336_);}
	.st373{fill:url(#SVGID_3337_);}
	.st374{fill:url(#SVGID_3338_);}
	.st375{fill:url(#SVGID_3339_);}
	.st376{fill:url(#SVGID_3340_);}
	.st377{fill:url(#SVGID_3341_);}
	.st378{fill:url(#SVGID_3342_);}
	.st379{fill:url(#SVGID_3343_);}
	.st380{fill:url(#SVGID_3344_);}
	.st381{fill:url(#SVGID_3345_);}
	.st382{fill:url(#SVGID_3346_);}
	.st383{fill:url(#SVGID_3347_);}
	.st384{fill:url(#SVGID_3348_);}
	.st385{fill:url(#SVGID_3349_);}
	.st386{fill:url(#SVGID_3350_);}
	.st387{fill:url(#SVGID_3351_);}
	.st388{fill:url(#SVGID_3352_);}
	.st389{fill:url(#SVGID_3353_);}
	.st390{fill:url(#);}
	.st391{fill:#202020;}
	.st392{fill:#4C4C4C;}
	.st393{fill:#424242;}
	.st394{fill:#262626;}
	.st395{fill:none;stroke:#202020;stroke-width:0.125;stroke-miterlimit:10;}
	.st396{fill:#434343;}
	.st397{fill:#5D5D5D;}
	.st398{fill:url(#SVGID_5614_);}
	.st399{fill:url(#SVGID_5615_);}
	.st400{fill:url(#SVGID_5616_);}
	.st401{fill:url(#SVGID_5617_);}
	.st402{fill:url(#SVGID_5618_);}
	.st403{fill:url(#SVGID_5619_);}
	.st404{fill:url(#SVGID_5620_);}
	.st405{fill:url(#SVGID_5621_);}
	.st406{fill:url(#SVGID_5622_);}
	.st407{fill:url(#SVGID_5623_);}
	.st408{fill:url(#SVGID_5624_);}
	.st409{fill:url(#SVGID_5625_);}
	.st410{fill:url(#SVGID_5626_);}
	.st411{fill:url(#SVGID_5627_);}
	.st412{fill:url(#SVGID_5628_);}
	.st413{fill:url(#SVGID_5629_);}
	.st414{fill:url(#SVGID_5630_);}
	.st415{fill:url(#SVGID_5631_);}
	.st416{fill:url(#SVGID_5632_);}
	.st417{fill:url(#SVGID_5633_);}
	.st418{fill:url(#SVGID_5634_);}
	.st419{fill:url(#SVGID_5635_);}
	.st420{fill:url(#SVGID_5636_);}
	.st421{fill:url(#SVGID_5637_);}
	.st422{fill:url(#SVGID_5638_);}
	.st423{fill:url(#SVGID_5639_);}
	.st424{fill:url(#SVGID_5640_);}
	.st425{fill:url(#SVGID_5641_);}
	.st426{fill:url(#SVGID_5642_);}
	.st427{fill:url(#SVGID_5643_);}
	.st428{fill:url(#SVGID_5644_);}
	.st429{fill:url(#SVGID_5645_);}
	.st430{fill:url(#SVGID_5646_);}
	.st431{fill:url(#SVGID_5647_);}
	.st432{fill:url(#SVGID_5648_);}
	.st433{fill:#626262;}
	.st434{fill:url(#SVGID_5649_);}
	.st435{fill:url(#SVGID_5650_);}
	.st436{fill:url(#SVGID_5651_);}
	.st437{fill:url(#SVGID_5652_);}
	.st438{fill:url(#SVGID_5653_);}
	.st439{fill:url(#SVGID_5654_);}
	.st440{fill:url(#SVGID_5655_);}
	.st441{fill:url(#SVGID_5656_);}
	.st442{fill:url(#SVGID_5657_);}
	.st443{fill:url(#SVGID_5658_);}
	.st444{fill:url(#SVGID_5659_);}
	.st445{fill:url(#SVGID_5660_);}
	.st446{fill:url(#SVGID_5661_);}
	.st447{fill:url(#SVGID_5662_);}
	.st448{fill:url(#SVGID_5663_);}
	.st449{fill:url(#SVGID_5664_);}
</style>
<g>
	<path class="st179" d="M13.3,60.47h3.08c0.6,0,1.2,0.12,1.79,0.37c0.6,0.24,1.14,0.6,1.61,1.08s0.86,1.07,1.16,1.78
		c0.3,0.71,0.46,1.53,0.46,2.46c0,0.92-0.15,1.74-0.46,2.46c-0.29,0.72-0.68,1.31-1.16,1.79c-0.48,0.48-1.01,0.84-1.6,1.09
		c-0.59,0.25-1.17,0.37-1.76,0.37H13.3V60.47z M14.49,71.57h1.5c0.54,0,1.06-0.11,1.56-0.34c0.51-0.23,0.96-0.57,1.35-1.03
		c0.4-0.46,0.72-1.02,0.96-1.7s0.36-1.46,0.36-2.35s-0.12-1.67-0.36-2.35s-0.56-1.23-0.96-1.68c-0.39-0.46-0.84-0.8-1.35-1.03
		c-0.5-0.23-1.02-0.34-1.56-0.34h-1.5V71.57z M23.94,71.88h-1.19V60.47h1.19V71.88z M32.58,68.83c0-0.58-0.17-1.03-0.51-1.35
		c-0.34-0.34-0.76-0.61-1.27-0.83c-0.51-0.22-1.06-0.4-1.65-0.55c-0.59-0.15-1.14-0.34-1.65-0.57C27,65.3,26.58,65,26.24,64.65
		c-0.34-0.36-0.51-0.85-0.51-1.47c0-0.51,0.12-0.93,0.36-1.27c0.24-0.35,0.54-0.62,0.9-0.83c0.37-0.22,0.77-0.37,1.19-0.46
		c0.43-0.1,0.84-0.15,1.22-0.15c0.54,0,1.03,0.06,1.47,0.18c0.45,0.12,0.83,0.28,1.16,0.47c0.33,0.18,0.59,0.39,0.78,0.62
		c0.2,0.23,0.32,0.45,0.36,0.67l-0.9,0.16c-0.04-0.23-0.14-0.45-0.28-0.65c-0.14-0.22-0.33-0.41-0.57-0.57
		c-0.24-0.17-0.52-0.31-0.85-0.41c-0.33-0.11-0.7-0.16-1.11-0.16c-0.3,0-0.61,0.04-0.93,0.13c-0.3,0.09-0.58,0.22-0.83,0.41
		c-0.24,0.17-0.43,0.4-0.59,0.67c-0.15,0.27-0.23,0.59-0.23,0.96c0,0.5,0.17,0.9,0.51,1.19c0.34,0.29,0.76,0.54,1.27,0.75
		c0.51,0.2,1.06,0.38,1.65,0.55c0.6,0.16,1.15,0.37,1.66,0.64c0.51,0.25,0.93,0.58,1.27,0.98c0.34,0.4,0.51,0.93,0.51,1.6
		c0,0.53-0.09,0.98-0.26,1.35c-0.16,0.37-0.38,0.67-0.65,0.91c-0.27,0.24-0.57,0.42-0.9,0.55c-0.33,0.13-0.65,0.23-0.96,0.29
		c-0.3,0.05-0.59,0.09-0.86,0.1c-0.26,0.01-0.46,0.02-0.59,0.02c-0.67,0-1.28-0.09-1.83-0.28c-0.53-0.2-0.98-0.46-1.35-0.78
		c-0.37-0.33-0.65-0.7-0.85-1.12c-0.2-0.43-0.29-0.89-0.29-1.35h1.22c-0.02,0.38,0.03,0.77,0.15,1.16c0.12,0.38,0.31,0.73,0.57,1.04
		c0.26,0.3,0.59,0.55,0.99,0.75c0.4,0.2,0.86,0.29,1.39,0.29c0.08,0,0.2-0.01,0.37-0.02c0.17-0.02,0.37-0.07,0.6-0.13
		c0.23-0.07,0.46-0.16,0.7-0.28c0.25-0.12,0.47-0.28,0.67-0.49c0.21-0.21,0.37-0.46,0.51-0.75C32.52,69.62,32.58,69.26,32.58,68.83z
		 M42.58,70.15c-0.79,1.15-1.96,1.73-3.49,1.73c-0.59,0-1.16-0.12-1.71-0.36c-0.54-0.25-1.03-0.61-1.45-1.09
		c-0.42-0.48-0.77-1.07-1.03-1.78c-0.26-0.72-0.39-1.54-0.39-2.48c0-0.93,0.13-1.76,0.39-2.48c0.26-0.72,0.6-1.31,1.03-1.79
		c0.43-0.48,0.92-0.84,1.47-1.08c0.55-0.25,1.12-0.37,1.71-0.37c0.78,0,1.47,0.16,2.07,0.47c0.6,0.32,1.09,0.77,1.48,1.35
		l-0.44,0.24c-0.36-0.58-0.79-1.02-1.3-1.32c-0.51-0.3-1.06-0.46-1.66-0.46c-0.5,0-0.97,0.11-1.42,0.34
		c-0.43,0.23-0.81,0.57-1.12,1.03c-0.31,0.45-0.57,1.01-0.75,1.68c-0.18,0.67-0.28,1.46-0.28,2.36c0,0.89,0.09,1.68,0.26,2.36
		c0.18,0.67,0.43,1.24,0.75,1.7c0.33,0.46,0.7,0.8,1.12,1.03c0.43,0.23,0.9,0.34,1.4,0.34c1.24,0,2.22-0.56,2.93-1.68L42.58,70.15z
		 M48.12,60.47c0.51,0,1.04,0.1,1.58,0.31c0.54,0.2,1.03,0.52,1.47,0.98c0.45,0.46,0.81,1.05,1.09,1.78
		c0.28,0.72,0.42,1.6,0.42,2.64s-0.14,1.93-0.42,2.66c-0.28,0.72-0.65,1.3-1.09,1.76c-0.43,0.46-0.92,0.79-1.47,0.99
		c-0.53,0.2-1.06,0.29-1.58,0.29c-0.52,0-1.05-0.1-1.6-0.29c-0.53-0.21-1.02-0.53-1.47-0.98c-0.43-0.46-0.79-1.05-1.08-1.78
		c-0.28-0.73-0.42-1.61-0.42-2.66c0-1.05,0.14-1.94,0.42-2.66c0.28-0.73,0.64-1.31,1.08-1.76c0.45-0.46,0.94-0.78,1.48-0.98
		C47.08,60.58,47.61,60.47,48.12,60.47z M48.12,71.57c0.48,0,0.92-0.11,1.34-0.33c0.41-0.22,0.77-0.55,1.08-0.99
		c0.3-0.45,0.54-1.01,0.72-1.68c0.17-0.68,0.26-1.49,0.26-2.41c0-0.93-0.09-1.74-0.28-2.41c-0.17-0.67-0.41-1.23-0.72-1.66
		c-0.3-0.45-0.66-0.77-1.08-0.98c-0.41-0.22-0.85-0.33-1.32-0.33s-0.91,0.11-1.32,0.33c-0.41,0.21-0.78,0.53-1.09,0.98
		c-0.3,0.43-0.55,0.99-0.73,1.66c-0.17,0.67-0.26,1.48-0.26,2.41s0.09,1.74,0.26,2.43c0.17,0.67,0.41,1.23,0.72,1.68
		c0.32,0.45,0.68,0.78,1.09,0.99C47.2,71.47,47.64,71.57,48.12,71.57z M57.88,70.4l3.8-9.93h0.42l-4.38,11.41h-0.44l-4.42-11.41
		h1.19L57.88,70.4z M62.9,60.47h6.78v0.33h-5.59v4.53h3.83v0.29h-3.83v5.93h5.59v0.33H62.9V60.47z M70.92,60.47h3.21
		c0.59,0,1.17,0.03,1.76,0.08c0.59,0.04,1.11,0.17,1.58,0.39c0.48,0.21,0.86,0.52,1.16,0.95c0.29,0.41,0.44,0.99,0.44,1.73
		c0,0.57-0.1,1.03-0.29,1.4c-0.18,0.37-0.43,0.67-0.73,0.9c-0.29,0.23-0.63,0.4-1.01,0.51c-0.37,0.11-0.75,0.18-1.14,0.23l2.79,5.23
		h-1.17l-2.72-5.17c-0.18,0.01-0.37,0.02-0.55,0.02c-0.17,0-0.39,0-0.64,0h-1.48v5.15h-1.19V60.47z M72.11,66.42h1.65
		c0.39,0,0.83-0.02,1.3-0.05c0.49-0.03,0.94-0.14,1.35-0.31c0.42-0.18,0.78-0.46,1.06-0.83c0.28-0.38,0.42-0.92,0.42-1.61
		s-0.14-1.23-0.42-1.61c-0.28-0.38-0.64-0.66-1.06-0.85c-0.41-0.18-0.86-0.29-1.34-0.33c-0.47-0.04-0.89-0.07-1.27-0.07
		c0,0-0.07,0-0.21,0c-0.13,0-0.29,0.01-0.47,0.02c-0.17,0-0.36,0-0.55,0c-0.18,0-0.34,0-0.46,0V66.42z M84.19,66.06v5.82H83v-5.62
		l-3.8-5.79h1.19l3.52,5.38l3.54-5.38h0.41L84.19,66.06z"/>
	<path class="st179" d="M21.32,83.97h2.6v-3.42h0.6v5.81h-0.6v-2.2h-2.6v2.2h-0.61v-5.81h0.61V83.97z M30.05,86.36h-0.61v-5.81h0.61
		V86.36z M38.64,85.71c-0.19,0.22-0.4,0.38-0.63,0.5c-0.23,0.11-0.5,0.17-0.83,0.17c-0.3,0-0.59-0.06-0.87-0.17
		c-0.28-0.12-0.52-0.29-0.74-0.53c-0.21-0.24-0.38-0.54-0.52-0.91c-0.13-0.37-0.19-0.81-0.19-1.31c0-0.52,0.07-0.96,0.2-1.32
		c0.14-0.37,0.32-0.67,0.54-0.91c0.22-0.24,0.47-0.41,0.76-0.52c0.29-0.11,0.58-0.17,0.88-0.17c0.37,0,0.72,0.07,1.05,0.22
		c0.34,0.14,0.61,0.37,0.81,0.66l-0.32,0.17c-0.15-0.3-0.36-0.52-0.62-0.67c-0.26-0.15-0.54-0.22-0.85-0.22
		c-0.28,0-0.53,0.06-0.76,0.17c-0.23,0.11-0.42,0.28-0.58,0.52c-0.16,0.23-0.29,0.51-0.37,0.86c-0.09,0.34-0.13,0.74-0.13,1.2
		c0,0.47,0.04,0.87,0.13,1.22c0.09,0.34,0.21,0.63,0.37,0.86c0.17,0.23,0.36,0.4,0.59,0.52c0.23,0.11,0.48,0.17,0.75,0.17
		c0.56,0,1.01-0.3,1.34-0.9v-2.01h-2.07V83.1h2.58v3.26h-0.51V85.71z M44.64,83.97h2.6v-3.42h0.6v5.81h-0.6v-2.2h-2.6v2.2h-0.61
		v-5.81h0.61V83.97z M60.93,85.48c-0.4,0.59-1,0.88-1.78,0.88c-0.3,0-0.59-0.06-0.87-0.18c-0.28-0.13-0.52-0.31-0.74-0.56
		c-0.22-0.24-0.39-0.55-0.52-0.91c-0.13-0.37-0.2-0.79-0.2-1.26c0-0.48,0.07-0.9,0.2-1.26c0.13-0.37,0.31-0.67,0.52-0.91
		c0.22-0.24,0.47-0.43,0.75-0.55c0.28-0.13,0.57-0.19,0.87-0.19c0.4,0,0.75,0.08,1.05,0.24c0.3,0.16,0.56,0.39,0.76,0.69l-0.22,0.12
		c-0.18-0.29-0.4-0.52-0.66-0.67c-0.26-0.15-0.54-0.23-0.85-0.23c-0.25,0-0.5,0.06-0.72,0.17c-0.22,0.12-0.41,0.29-0.57,0.52
		c-0.16,0.23-0.29,0.51-0.38,0.86c-0.09,0.34-0.14,0.74-0.14,1.2c0,0.45,0.04,0.86,0.13,1.2c0.09,0.34,0.22,0.63,0.38,0.86
		c0.17,0.23,0.36,0.41,0.57,0.52c0.22,0.12,0.46,0.17,0.71,0.17c0.63,0,1.13-0.29,1.5-0.86L60.93,85.48z M68.62,84.23h-2.25
		l-0.81,2.13h-0.22l2.23-5.81h0.23l2.24,5.81h-0.61L68.62,84.23z M68.57,84.09l-1.08-2.79l-1.06,2.79H68.57z M76.77,83.4v2.97h-0.61
		V83.5l-1.94-2.95h0.61l1.79,2.74l1.8-2.74h0.21L76.77,83.4z"/>
	<path class="st179" d="M87.84,77.32H13.3v0.36h74.54V77.32z"/>
	<path class="st179" d="M39.09,47.59V28.43h8.95l0.17-0.52H36.98v20.23h11.46l-0.18-0.55H39.09z"/>
	<path class="st179" d="M49.06,47.59l0.18,0.55h4.35l0.17-0.55H49.06z"/>
	<path class="st179" d="M53.48,27.91h-4.47l-0.17,0.52h4.81L53.48,27.91L53.48,27.91z"/>
	<path class="st179" d="M57.33,27.91H54.1l0.17,0.52h2.37c3.82,0,7.51,3.24,7.51,9.57c0,6.33-3.7,9.59-7.51,9.59h-2.09l-0.17,0.55
		h3.03c4.13,0,8.81-3.55,8.81-10.14C66.23,31.41,61.58,27.91,57.33,27.91L57.33,27.91z"/>
	<path class="st179" d="M50.88,22.16l1.87,5.76l0.17,0.52l3.06,9.41l-2.52,8.33h1.52l2.52-8.35l-3.06-9.4l-0.17-0.52l-3.4-10.46
		L48,26.32h1.53L50.88,22.16z"/>
	<path class="st179" d="M53.04,47.59l-0.17,0.55l-1.72,5.68l-1.91-5.68l-0.18-0.55l-3.28-9.76l3.06-9.4l0.17-0.52h-1.53l-0.17,0.52
		l-3.06,9.41l3.28,9.75l0.18,0.55l3.52,10.47l3.16-10.47l0.17-0.55H53.04z"/>
	<path class="st179" d="M52.66,37.96l-1.78-5.49l-1.79,5.49l1.88,5.59L52.66,37.96z"/>
</g>
</svg>
