<?xml version="1.0" encoding="utf-8"?>
<!-- Generator: Adobe Illustrator 24.3.0, SVG Export Plug-In . SVG Version: 6.00 Build 0)  -->
<svg version="1.1" id="Layer_1" xmlns="http://www.w3.org/2000/svg" xmlns:xlink="http://www.w3.org/1999/xlink" x="0px" y="0px"
	 viewBox="0 0 100 100" style="enable-background:new 0 0 100 100;" xml:space="preserve">
<style type="text/css">
	.st0{fill:#FFFFFF;}
	.st1{fill:#F16522;}
	.st2{fill:url(#SVGID_1_);}
	.st3{fill:url(#SVGID_2_);}
	.st4{fill:url(#SVGID_3_);}
	.st5{fill:url(#SVGID_4_);}
	.st6{fill:#F37521;}
	.st7{fill:url(#SVGID_5_);}
	.st8{fill:url(#SVGID_6_);}
	.st9{fill:url(#SVGID_7_);}
	.st10{fill:url(#SVGID_8_);}
	.st11{fill:url(#SVGID_9_);}
	.st12{enable-background:new    ;}
	.st13{clip-path:url(#SVGID_13_);}
	.st14{fill:#A479B4;}
	.st15{fill-rule:evenodd;clip-rule:evenodd;fill:#F16522;}
	.st16{clip-path:url(#SVGID_16_);fill:url(#SVGID_17_);stroke:url(#SVGID_18_);stroke-width:0.25;stroke-miterlimit:10;}
	.st17{clip-path:url(#SVGID_22_);fill:url(#SVGID_23_);stroke:url(#SVGID_24_);stroke-width:0.25;stroke-miterlimit:10;}
	.st18{clip-path:url(#SVGID_22_);fill:url(#SVGID_25_);stroke:url(#SVGID_26_);stroke-width:0.25;stroke-miterlimit:10;}
	.st19{clip-path:url(#SVGID_30_);fill:url(#SVGID_31_);stroke:url(#SVGID_32_);stroke-width:0.25;stroke-miterlimit:10;}
	.st20{clip-path:url(#SVGID_36_);fill:url(#SVGID_37_);stroke:url(#SVGID_38_);stroke-width:0.25;stroke-miterlimit:10;}
	.st21{clip-path:url(#SVGID_36_);fill:url(#SVGID_39_);stroke:url(#SVGID_40_);stroke-width:0.25;stroke-miterlimit:10;}
	.st22{clip-path:url(#SVGID_44_);fill:url(#SVGID_45_);stroke:url(#SVGID_46_);stroke-width:0.25;stroke-miterlimit:10;}
	.st23{clip-path:url(#SVGID_50_);fill:url(#SVGID_51_);stroke:url(#SVGID_52_);stroke-width:0.25;stroke-miterlimit:10;}
	.st24{clip-path:url(#SVGID_50_);fill:url(#SVGID_53_);stroke:url(#SVGID_54_);stroke-width:0.25;stroke-miterlimit:10;}
	.st25{clip-path:url(#SVGID_58_);fill:url(#SVGID_59_);stroke:url(#SVGID_60_);stroke-width:0.25;stroke-miterlimit:10;}
	.st26{clip-path:url(#SVGID_64_);fill:url(#SVGID_65_);stroke:url(#SVGID_66_);stroke-width:0.25;stroke-miterlimit:10;}
	.st27{clip-path:url(#SVGID_64_);fill:url(#SVGID_67_);stroke:url(#SVGID_68_);stroke-width:0.25;stroke-miterlimit:10;}
	.st28{clip-path:url(#SVGID_72_);fill:url(#SVGID_73_);stroke:url(#SVGID_74_);stroke-width:0.25;stroke-miterlimit:10;}
	.st29{clip-path:url(#SVGID_78_);fill:url(#SVGID_79_);stroke:url(#SVGID_80_);stroke-width:0.25;stroke-miterlimit:10;}
	.st30{clip-path:url(#SVGID_78_);fill:url(#SVGID_81_);stroke:url(#SVGID_82_);stroke-width:0.25;stroke-miterlimit:10;}
	.st31{clip-path:url(#SVGID_86_);fill:url(#SVGID_87_);stroke:url(#SVGID_88_);stroke-width:0.25;stroke-miterlimit:10;}
	.st32{clip-path:url(#SVGID_92_);fill:url(#SVGID_93_);stroke:url(#SVGID_94_);stroke-width:0.25;stroke-miterlimit:10;}
	.st33{clip-path:url(#SVGID_92_);fill:url(#SVGID_95_);stroke:url(#SVGID_96_);stroke-width:0.25;stroke-miterlimit:10;}
	.st34{clip-path:url(#SVGID_100_);fill:url(#SVGID_101_);stroke:url(#SVGID_102_);stroke-width:0.25;stroke-miterlimit:10;}
	.st35{clip-path:url(#SVGID_106_);fill:url(#SVGID_107_);stroke:url(#SVGID_108_);stroke-width:0.25;stroke-miterlimit:10;}
	.st36{clip-path:url(#SVGID_106_);fill:url(#SVGID_109_);stroke:url(#SVGID_110_);stroke-width:0.25;stroke-miterlimit:10;}
	.st37{clip-path:url(#SVGID_114_);fill:url(#SVGID_115_);stroke:url(#SVGID_116_);stroke-width:0.25;stroke-miterlimit:10;}
	.st38{clip-path:url(#SVGID_120_);fill:url(#SVGID_121_);stroke:url(#SVGID_122_);stroke-width:0.25;stroke-miterlimit:10;}
	.st39{clip-path:url(#SVGID_120_);fill:url(#SVGID_123_);stroke:url(#SVGID_124_);stroke-width:0.25;stroke-miterlimit:10;}
	.st40{clip-path:url(#SVGID_128_);fill:url(#SVGID_129_);stroke:url(#SVGID_130_);stroke-width:0.25;stroke-miterlimit:10;}
	.st41{clip-path:url(#SVGID_134_);fill:url(#SVGID_135_);stroke:url(#SVGID_136_);stroke-width:0.25;stroke-miterlimit:10;}
	.st42{clip-path:url(#SVGID_134_);fill:url(#SVGID_137_);stroke:url(#SVGID_138_);stroke-width:0.25;stroke-miterlimit:10;}
	.st43{clip-path:url(#SVGID_142_);fill:url(#SVGID_143_);stroke:url(#SVGID_144_);stroke-width:0.25;stroke-miterlimit:10;}
	.st44{clip-path:url(#SVGID_148_);fill:url(#SVGID_149_);stroke:url(#SVGID_150_);stroke-width:0.25;stroke-miterlimit:10;}
	.st45{clip-path:url(#SVGID_148_);fill:url(#SVGID_151_);stroke:url(#SVGID_152_);stroke-width:0.25;stroke-miterlimit:10;}
	.st46{clip-path:url(#SVGID_156_);fill:url(#SVGID_157_);stroke:url(#SVGID_158_);stroke-width:0.25;stroke-miterlimit:10;}
	.st47{clip-path:url(#SVGID_162_);fill:url(#SVGID_163_);stroke:url(#SVGID_164_);stroke-width:0.25;stroke-miterlimit:10;}
	.st48{clip-path:url(#SVGID_162_);fill:url(#SVGID_165_);stroke:url(#SVGID_166_);stroke-width:0.25;stroke-miterlimit:10;}
	.st49{clip-path:url(#SVGID_170_);fill:url(#SVGID_171_);stroke:url(#SVGID_172_);stroke-width:0.25;stroke-miterlimit:10;}
	.st50{clip-path:url(#SVGID_176_);fill:url(#SVGID_177_);stroke:url(#SVGID_178_);stroke-width:0.25;stroke-miterlimit:10;}
	.st51{clip-path:url(#SVGID_176_);fill:url(#SVGID_179_);stroke:url(#SVGID_180_);stroke-width:0.25;stroke-miterlimit:10;}
	.st52{clip-path:url(#SVGID_184_);fill:url(#SVGID_185_);stroke:url(#SVGID_186_);stroke-width:0.25;stroke-miterlimit:10;}
	.st53{clip-path:url(#SVGID_190_);fill:url(#SVGID_191_);stroke:url(#SVGID_192_);stroke-width:0.25;stroke-miterlimit:10;}
	.st54{clip-path:url(#SVGID_190_);fill:url(#SVGID_193_);stroke:url(#SVGID_194_);stroke-width:0.25;stroke-miterlimit:10;}
	.st55{clip-path:url(#SVGID_198_);fill:url(#SVGID_199_);stroke:url(#SVGID_200_);stroke-width:0.25;stroke-miterlimit:10;}
	.st56{clip-path:url(#SVGID_204_);fill:url(#SVGID_205_);stroke:url(#SVGID_206_);stroke-width:0.25;stroke-miterlimit:10;}
	.st57{clip-path:url(#SVGID_204_);fill:url(#SVGID_207_);stroke:url(#SVGID_208_);stroke-width:0.25;stroke-miterlimit:10;}
	.st58{clip-path:url(#SVGID_212_);fill:url(#SVGID_213_);stroke:url(#SVGID_214_);stroke-width:0.25;stroke-miterlimit:10;}
	.st59{clip-path:url(#SVGID_218_);fill:url(#SVGID_219_);stroke:url(#SVGID_220_);stroke-width:0.25;stroke-miterlimit:10;}
	.st60{clip-path:url(#SVGID_218_);fill:url(#SVGID_221_);stroke:url(#SVGID_222_);stroke-width:0.25;stroke-miterlimit:10;}
	.st61{clip-path:url(#SVGID_226_);fill:url(#SVGID_227_);stroke:url(#SVGID_228_);stroke-width:0.25;stroke-miterlimit:10;}
	.st62{clip-path:url(#SVGID_232_);fill:url(#SVGID_233_);stroke:url(#SVGID_234_);stroke-width:0.25;stroke-miterlimit:10;}
	.st63{clip-path:url(#SVGID_232_);fill:url(#SVGID_235_);stroke:url(#SVGID_236_);stroke-width:0.25;stroke-miterlimit:10;}
	.st64{clip-path:url(#SVGID_240_);fill:url(#SVGID_241_);stroke:url(#SVGID_242_);stroke-width:0.25;stroke-miterlimit:10;}
	.st65{clip-path:url(#SVGID_246_);fill:url(#SVGID_247_);stroke:url(#SVGID_248_);stroke-width:0.25;stroke-miterlimit:10;}
	.st66{clip-path:url(#SVGID_246_);fill:url(#SVGID_249_);stroke:url(#SVGID_250_);stroke-width:0.25;stroke-miterlimit:10;}
	.st67{clip-path:url(#SVGID_254_);fill:url(#SVGID_255_);stroke:url(#SVGID_256_);stroke-width:0.25;stroke-miterlimit:10;}
	.st68{clip-path:url(#SVGID_260_);fill:url(#SVGID_261_);stroke:url(#SVGID_262_);stroke-width:0.25;stroke-miterlimit:10;}
	.st69{clip-path:url(#SVGID_260_);fill:url(#SVGID_263_);stroke:url(#SVGID_264_);stroke-width:0.25;stroke-miterlimit:10;}
	.st70{fill:#58595B;}
	.st71{clip-path:url(#SVGID_267_);fill:#58595B;stroke:#58595B;stroke-width:0.175;stroke-miterlimit:10;}
	.st72{clip-path:url(#SVGID_269_);fill:#58595B;stroke:#58595B;stroke-width:0.175;stroke-miterlimit:10;}
	.st73{clip-path:url(#SVGID_271_);fill:#58595B;stroke:#58595B;stroke-width:0.175;stroke-miterlimit:10;}
	.st74{clip-path:url(#SVGID_273_);fill:#58595B;stroke:#58595B;stroke-width:0.175;stroke-miterlimit:10;}
	.st75{clip-path:url(#SVGID_275_);fill:#58595B;stroke:#58595B;stroke-width:0.175;stroke-miterlimit:10;}
	.st76{clip-path:url(#SVGID_277_);fill:#58595B;stroke:#58595B;stroke-width:0.175;stroke-miterlimit:10;}
	.st77{clip-path:url(#SVGID_279_);fill:#58595B;stroke:#58595B;stroke-width:0.175;stroke-miterlimit:10;}
	.st78{clip-path:url(#SVGID_281_);fill:#58595B;stroke:#58595B;stroke-width:0.175;stroke-miterlimit:10;}
	.st79{clip-path:url(#SVGID_283_);fill:#58595B;stroke:#58595B;stroke-width:0.175;stroke-miterlimit:10;}
	.st80{clip-path:url(#SVGID_285_);fill:#58595B;stroke:#58595B;stroke-width:0.175;stroke-miterlimit:10;}
	.st81{clip-path:url(#SVGID_287_);fill:#58595B;stroke:#58595B;stroke-width:0.175;stroke-miterlimit:10;}
	.st82{clip-path:url(#SVGID_289_);fill:#58595B;stroke:#58595B;stroke-width:0.175;stroke-miterlimit:10;}
	.st83{clip-path:url(#SVGID_291_);fill:#58595B;stroke:#58595B;stroke-width:0.175;stroke-miterlimit:10;}
	.st84{clip-path:url(#SVGID_293_);fill:#58595B;stroke:#58595B;stroke-width:0.175;stroke-miterlimit:10;}
	.st85{clip-path:url(#SVGID_295_);fill:#58595B;stroke:#58595B;stroke-width:0.175;stroke-miterlimit:10;}
	.st86{clip-path:url(#SVGID_297_);fill:#58595B;stroke:#58595B;stroke-width:0.175;stroke-miterlimit:10;}
	.st87{fill:#255D2E;}
	.st88{fill:#285F2F;}
	.st89{fill:#2D6331;}
	.st90{fill:#306632;}
	.st91{fill:#346933;}
	.st92{fill:#386C34;}
	.st93{fill:#3A6F35;}
	.st94{fill:#3F7237;}
	.st95{fill:#437638;}
	.st96{fill:#487939;}
	.st97{fill:#4B7B39;}
	.st98{fill:#4E7E3A;}
	.st99{fill:#52803B;}
	.st100{fill:#57803A;}
	.st101{fill:#5A8039;}
	.st102{fill:#5E8039;}
	.st103{fill:#648439;}
	.st104{fill:#67873A;}
	.st105{fill:#6B8B3B;}
	.st106{fill:#6E8E3C;}
	.st107{fill:#72913C;}
	.st108{fill:#77963D;}
	.st109{fill:#7C993D;}
	.st110{fill:#809C3D;}
	.st111{fill:#80A13E;}
	.st112{fill:#7FA53F;}
	.st113{fill:#81A940;}
	.st114{fill:#85AE3F;}
	.st115{fill:#88B13F;}
	.st116{fill:#8FB63E;}
	.st117{fill:#93BB3D;}
	.st118{fill:#98C13C;stroke:#98C13C;stroke-width:2;}
	.st119{fill:url(#SVGID_298_);}
	.st120{fill:#273942;}
	.st121{fill:#EEA66A;}
	.st122{opacity:0.15;fill:#DA9061;}
	.st123{opacity:0.33;fill:#3D2D1F;}
	.st124{fill:#753B1D;}
	.st125{opacity:0.39;fill:#753B1D;}
	.st126{opacity:0.17;fill:#753B1D;}
	.st127{fill:#303238;}
	.st128{opacity:0.45;fill:#DA9061;}
	.st129{fill:#344881;}
	.st130{opacity:0.74;fill:#CA202D;}
	.st131{opacity:0.68;}
	.st132{fill:#7DC0BF;}
	.st133{opacity:0.35;fill:#FFFFFF;}
	.st134{opacity:0.22;fill:#FFFFFF;}
	.st135{opacity:0.69;fill:#9B9C9E;}
	.st136{opacity:0.38;}
	.st137{fill:#5A8DBF;}
	.st138{opacity:0.13;fill:#4980B3;}
	.st139{opacity:0.73;fill:#CA202D;}
	.st140{opacity:0.28;fill:#9B9C9E;}
	.st141{opacity:0.67;fill:#FFFFFF;}
	.st142{opacity:0.65;fill:#FFFFFF;}
	.st143{fill:#E17281;}
	.st144{fill:#E35925;}
	.st145{opacity:0.46;fill:#801620;}
	.st146{opacity:0.53;fill:#FFFFFF;}
	.st147{fill:#508089;}
	.st148{fill:#24485B;}
	.st149{opacity:0.46;fill:#BAD8D6;}
	.st150{opacity:0.28;}
	.st151{opacity:0.38;fill:#C6C3C2;}
	.st152{fill:#096C37;}
	.st153{fill:#A6A6A6;}
	.st154{fill:#555868;}
	.st155{fill:#C6C3C2;}
	.st156{opacity:0.71;fill:#C6C3C2;}
	.st157{fill:#373A44;}
	.st158{fill:#283A76;}
	.st159{fill:#333333;}
	.st160{opacity:0.5;fill:#333333;}
	.st161{opacity:0.68;fill:#9895A2;}
	.st162{fill:#B8BBC1;}
	.st163{opacity:0.39;fill:#344881;}
	.st164{opacity:0.64;fill:#4D4E4E;}
	.st165{fill:#AEAEAE;}
	.st166{opacity:0.39;fill:#C6C3C2;}
	.st167{opacity:0.18;fill:#C6C3C2;}
	.st168{fill:#C0BFBD;}
	.st169{opacity:0.14;fill:#8080B7;}
	.st170{opacity:0.29;fill:#8080B7;}
	.st171{opacity:0.47;fill:#C6C3C2;}
	.st172{opacity:0.28;fill:#344881;}
	.st173{opacity:0.49;fill:#344881;}
	.st174{opacity:0.49;fill:#FFFFFF;}
	.st175{opacity:0.65;fill:#C6C3C2;}
	.st176{opacity:0.3;fill:#EEA66A;}
	.st177{fill:#A0D3ED;}
	.st178{fill:#C7E1EF;}
	.st179{opacity:0.74;fill:#1C76B0;}
	.st180{opacity:0.74;fill:#9B9C9E;}
	.st181{opacity:0.73;fill:#1C76B0;}
	.st182{fill:#273C82;}
	.st183{clip-path:url(#SVGID_300_);}
	.st184{clip-path:url(#SVGID_302_);}
	.st185{clip-path:url(#SVGID_304_);}
	.st186{clip-path:url(#SVGID_306_);}
	.st187{clip-path:url(#SVGID_308_);}
	.st188{clip-path:url(#SVGID_312_);}
	.st189{clip-path:url(#SVGID_320_);}
	.st190{clip-path:url(#SVGID_322_);}
	.st191{clip-path:url(#SVGID_2850_);}
	.st192{fill:#074823;}
	.st193{clip-path:url(#SVGID_2852_);}
	.st194{clip-path:url(#SVGID_2854_);}
	.st195{clip-path:url(#SVGID_2856_);}
	.st196{clip-path:url(#SVGID_2858_);enable-background:new    ;}
	.st197{clip-path:url(#SVGID_2860_);}
	.st198{clip-path:url(#SVGID_2862_);}
	.st199{clip-path:url(#SVGID_2864_);}
	.st200{clip-path:url(#SVGID_2866_);enable-background:new    ;}
	.st201{clip-path:url(#SVGID_2868_);}
	.st202{clip-path:url(#SVGID_2870_);}
	.st203{clip-path:url(#SVGID_2872_);}
	.st204{clip-path:url(#SVGID_2874_);}
	.st205{clip-path:url(#SVGID_2876_);}
	.st206{clip-path:url(#SVGID_2878_);}
	.st207{clip-path:url(#SVGID_2880_);}
	.st208{clip-path:url(#SVGID_2882_);}
	.st209{clip-path:url(#SVGID_2884_);}
	.st210{clip-path:url(#SVGID_2886_);}
	.st211{clip-path:url(#SVGID_2888_);}
	.st212{clip-path:url(#SVGID_2890_);}
	.st213{clip-path:url(#SVGID_2892_);}
	.st214{clip-path:url(#SVGID_2894_);}
	.st215{clip-path:url(#SVGID_2896_);}
	.st216{clip-path:url(#SVGID_2898_);}
	.st217{clip-path:url(#SVGID_2900_);}
	.st218{clip-path:url(#SVGID_2902_);}
	.st219{clip-path:url(#SVGID_2904_);}
	.st220{clip-path:url(#SVGID_2906_);}
	.st221{clip-path:url(#SVGID_2908_);}
	.st222{clip-path:url(#SVGID_2910_);}
	.st223{clip-path:url(#SVGID_2912_);}
	.st224{clip-path:url(#SVGID_2914_);}
	.st225{clip-path:url(#SVGID_2916_);}
	.st226{clip-path:url(#SVGID_2918_);}
	.st227{clip-path:url(#SVGID_2920_);}
	.st228{clip-path:url(#SVGID_2922_);}
	.st229{clip-path:url(#SVGID_2924_);}
	.st230{clip-path:url(#SVGID_2926_);}
	.st231{clip-path:url(#SVGID_2928_);}
	.st232{clip-path:url(#SVGID_2930_);enable-background:new    ;}
	.st233{clip-path:url(#SVGID_2932_);enable-background:new    ;}
	.st234{clip-path:url(#SVGID_2934_);enable-background:new    ;}
	.st235{clip-path:url(#SVGID_2936_);enable-background:new    ;}
	.st236{clip-path:url(#SVGID_2938_);enable-background:new    ;}
	.st237{clip-path:url(#SVGID_2940_);enable-background:new    ;}
	.st238{clip-path:url(#SVGID_2942_);enable-background:new    ;}
	.st239{clip-path:url(#SVGID_2944_);enable-background:new    ;}
	.st240{clip-path:url(#SVGID_2946_);enable-background:new    ;}
	.st241{clip-path:url(#SVGID_2948_);enable-background:new    ;}
	.st242{clip-path:url(#SVGID_2950_);enable-background:new    ;}
	.st243{clip-path:url(#SVGID_2952_);enable-background:new    ;}
	.st244{clip-path:url(#SVGID_2954_);enable-background:new    ;}
	.st245{clip-path:url(#SVGID_2956_);enable-background:new    ;}
	.st246{clip-path:url(#SVGID_2958_);enable-background:new    ;}
	.st247{clip-path:url(#SVGID_2960_);enable-background:new    ;}
	.st248{clip-path:url(#SVGID_2962_);enable-background:new    ;}
	.st249{clip-path:url(#SVGID_2964_);enable-background:new    ;}
	.st250{clip-path:url(#SVGID_2966_);enable-background:new    ;}
	.st251{clip-path:url(#SVGID_2968_);enable-background:new    ;}
	.st252{clip-path:url(#SVGID_2970_);enable-background:new    ;}
	.st253{clip-path:url(#SVGID_2972_);enable-background:new    ;}
	.st254{clip-path:url(#SVGID_2974_);enable-background:new    ;}
	.st255{clip-path:url(#SVGID_2976_);enable-background:new    ;}
	.st256{clip-path:url(#SVGID_2978_);enable-background:new    ;}
	.st257{clip-path:url(#SVGID_2980_);enable-background:new    ;}
	.st258{clip-path:url(#SVGID_2982_);enable-background:new    ;}
	.st259{fill:#016938;}
	.st260{fill:#BC5B28;}
	.st261{clip-path:url(#SVGID_2984_);enable-background:new    ;}
	.st262{fill:#803C1D;}
	.st263{clip-path:url(#SVGID_2986_);enable-background:new    ;}
	.st264{fill:#8D4621;}
	.st265{fill:#88441F;}
	.st266{fill:#82421F;}
	.st267{fill:#803F1D;}
	.st268{clip-path:url(#SVGID_2988_);enable-background:new    ;}
	.st269{fill:#BA5B27;}
	.st270{clip-path:url(#SVGID_2990_);enable-background:new    ;}
	.st271{fill:#CF6328;}
	.st272{clip-path:url(#SVGID_2992_);enable-background:new    ;}
	.st273{clip-path:url(#SVGID_2994_);enable-background:new    ;}
	.st274{fill:#B15627;}
	.st275{clip-path:url(#SVGID_2996_);enable-background:new    ;}
	.st276{clip-path:url(#SVGID_2998_);enable-background:new    ;}
	.st277{clip-path:url(#SVGID_3000_);enable-background:new    ;}
	.st278{clip-path:url(#SVGID_3002_);enable-background:new    ;}
	.st279{clip-path:url(#SVGID_3004_);enable-background:new    ;}
	.st280{clip-path:url(#SVGID_3006_);enable-background:new    ;}
	.st281{clip-path:url(#SVGID_3008_);enable-background:new    ;}
	.st282{clip-path:url(#SVGID_3010_);enable-background:new    ;}
	.st283{fill:#D16428;}
	.st284{clip-path:url(#SVGID_3012_);enable-background:new    ;}
	.st285{clip-path:url(#SVGID_3014_);enable-background:new    ;}
	.st286{fill:#AD5526;}
	.st287{fill:#BE5C28;}
	.st288{fill:#A55126;}
	.st289{fill:#B95A27;}
	.st290{fill:#B45827;}
	.st291{clip-path:url(#SVGID_3016_);enable-background:new    ;}
	.st292{fill:#C05B28;}
	.st293{clip-path:url(#SVGID_3018_);enable-background:new    ;}
	.st294{fill:#C25C28;}
	.st295{clip-path:url(#SVGID_3020_);enable-background:new    ;}
	.st296{fill:#C15C28;}
	.st297{clip-path:url(#SVGID_3022_);enable-background:new    ;}
	.st298{clip-path:url(#SVGID_3024_);enable-background:new    ;}
	.st299{clip-path:url(#SVGID_3026_);enable-background:new    ;}
	.st300{fill:#CD6228;}
	.st301{clip-path:url(#SVGID_3028_);enable-background:new    ;}
	.st302{clip-path:url(#SVGID_3030_);enable-background:new    ;}
	.st303{clip-path:url(#SVGID_3032_);enable-background:new    ;}
	.st304{fill:url(#SVGID_3033_);}
	.st305{fill:url(#SVGID_3034_);}
	.st306{fill:url(#SVGID_3035_);}
	.st307{fill:url(#SVGID_3036_);}
	.st308{fill:url(#SVGID_3037_);}
	.st309{fill:url(#SVGID_3038_);}
	.st310{fill:url(#SVGID_3039_);}
	.st311{fill:url(#SVGID_3040_);}
	.st312{fill:url(#SVGID_3041_);}
	.st313{fill:url(#SVGID_3042_);}
	.st314{fill:url(#SVGID_3043_);}
	.st315{fill:url(#SVGID_3044_);}
	.st316{fill:url(#SVGID_3045_);}
	.st317{fill:url(#SVGID_3046_);}
	.st318{fill:url(#SVGID_3047_);}
	.st319{fill:url(#SVGID_3048_);}
	.st320{fill:url(#SVGID_3049_);}
	.st321{fill:url(#SVGID_3050_);}
	.st322{fill:url(#SVGID_3051_);}
	.st323{fill:url(#SVGID_3052_);}
	.st324{fill:url(#SVGID_3053_);}
	.st325{fill:url(#SVGID_3054_);}
	.st326{fill:url(#SVGID_3055_);}
	.st327{fill:url(#SVGID_3056_);}
	.st328{fill:url(#);}
	.st329{fill:#231F20;}
	.st330{fill:#B22025;}
	.st331{fill:#2E4B47;}
	.st332{fill:#112A4D;}
	.st333{fill:none;stroke:#221F1F;stroke-width:0.125;stroke-miterlimit:10;}
	.st334{fill:#104F8B;}
	.st335{fill:#5C5D60;}
	.st336{fill:url(#SVGID_5317_);}
	.st337{fill:url(#SVGID_5318_);}
	.st338{fill:url(#SVGID_5319_);}
	.st339{fill:url(#SVGID_5320_);}
	.st340{fill:url(#SVGID_5321_);}
	.st341{fill:url(#SVGID_5322_);}
	.st342{font-family:'TimesNewRomanPS-BoldMT';}
	.st343{font-size:4.1001px;}
	.st344{fill:url(#SVGID_5323_);}
	.st345{fill:url(#SVGID_5324_);}
	.st346{fill:url(#SVGID_5325_);}
	.st347{fill:url(#SVGID_5326_);}
	.st348{fill:url(#SVGID_5327_);}
	.st349{fill:url(#SVGID_5328_);}
	.st350{fill:url(#SVGID_5329_);}
	.st351{fill:url(#SVGID_5330_);}
	.st352{fill:url(#SVGID_5331_);}
	.st353{fill:url(#SVGID_5332_);}
	.st354{fill:url(#SVGID_5333_);}
	.st355{fill:url(#SVGID_5334_);}
	.st356{fill:url(#SVGID_5335_);}
	.st357{fill:url(#SVGID_5336_);}
	.st358{fill:url(#SVGID_5337_);}
	.st359{fill:url(#SVGID_5338_);}
	.st360{fill:url(#SVGID_5339_);}
	.st361{fill:url(#SVGID_5340_);}
	.st362{fill:url(#SVGID_5341_);}
	.st363{fill:url(#SVGID_5342_);}
	.st364{fill:url(#SVGID_5343_);}
	.st365{fill:url(#SVGID_5344_);}
	.st366{fill:url(#SVGID_5345_);}
	.st367{fill:url(#SVGID_5346_);}
	.st368{fill:url(#SVGID_5347_);}
	.st369{fill:#4D4D4F;}
	.st370{fill:url(#SVGID_5348_);}
	.st371{fill:url(#SVGID_5349_);}
	.st372{fill:url(#SVGID_5350_);}
	.st373{fill:url(#SVGID_5351_);}
	.st374{fill:#0081C5;}
	.st375{fill:url(#SVGID_5352_);}
	.st376{fill:url(#SVGID_5353_);}
	.st377{fill:url(#SVGID_5354_);}
	.st378{fill:url(#SVGID_5355_);}
	.st379{fill:#038345;}
	.st380{fill:url(#SVGID_5356_);}
	.st381{fill:url(#SVGID_5357_);}
	.st382{fill:url(#SVGID_5358_);}
	.st383{fill:url(#SVGID_5359_);}
	.st384{fill:url(#SVGID_5360_);}
	.st385{fill:url(#SVGID_5361_);}
	.st386{fill:url(#SVGID_5362_);}
	.st387{fill:url(#SVGID_5363_);}
	.st388{fill:url(#SVGID_5364_);}
	.st389{fill:url(#SVGID_5365_);}
	.st390{fill:url(#SVGID_5366_);}
	.st391{fill:url(#SVGID_5367_);}
	.st392{fill:#0099A5;}
	.st393{fill:url(#SVGID_5368_);}
	.st394{fill:url(#SVGID_5369_);stroke:url(#SVGID_5370_);stroke-width:0.125;stroke-miterlimit:10;}
	.st395{fill:url(#SVGID_5371_);stroke:url(#SVGID_5372_);stroke-width:0.125;stroke-miterlimit:10;}
	.st396{fill:url(#SVGID_5373_);stroke:url(#SVGID_5374_);stroke-width:0.25;stroke-miterlimit:10;}
	.st397{fill:url(#SVGID_5375_);stroke:url(#SVGID_5376_);stroke-width:0.25;stroke-miterlimit:10;}
	.st398{fill:url(#SVGID_5377_);stroke:url(#SVGID_5378_);stroke-width:0.125;stroke-miterlimit:10;}
	.st399{fill:url(#SVGID_5379_);stroke:url(#SVGID_5380_);stroke-width:0.125;stroke-miterlimit:10;}
	.st400{fill:url(#SVGID_5381_);stroke:url(#SVGID_5382_);stroke-width:0.125;stroke-miterlimit:10;}
	.st401{fill:url(#SVGID_5383_);stroke:url(#SVGID_5384_);stroke-width:0.125;stroke-miterlimit:10;}
	.st402{fill:url(#SVGID_5385_);stroke:url(#SVGID_5386_);stroke-width:0.125;stroke-miterlimit:10;}
	.st403{fill:url(#SVGID_5387_);stroke:url(#SVGID_5388_);stroke-width:0.125;stroke-miterlimit:10;}
	.st404{fill:url(#SVGID_5389_);stroke:url(#SVGID_5390_);stroke-width:0.125;stroke-miterlimit:10;}
	.st405{fill:url(#SVGID_5391_);stroke:url(#SVGID_5392_);stroke-width:0.125;stroke-miterlimit:10;}
	.st406{fill:url(#SVGID_5393_);stroke:url(#SVGID_5394_);stroke-width:0.125;stroke-miterlimit:10;}
	.st407{fill:url(#SVGID_5395_);stroke:url(#SVGID_5396_);stroke-width:0.125;stroke-miterlimit:10;}
	.st408{fill:url(#SVGID_5397_);stroke:url(#SVGID_5398_);stroke-width:0.125;stroke-miterlimit:10;}
	.st409{fill:url(#SVGID_5399_);stroke:url(#SVGID_5400_);stroke-width:0.125;stroke-miterlimit:10;}
	.st410{fill:url(#SVGID_5401_);stroke:url(#SVGID_5402_);stroke-width:0.125;stroke-miterlimit:10;}
	.st411{fill:url(#SVGID_5403_);stroke:url(#SVGID_5404_);stroke-width:0.125;stroke-miterlimit:10;}
	.st412{fill:url(#SVGID_5405_);stroke:url(#SVGID_5406_);stroke-width:0.125;stroke-miterlimit:10;}
	.st413{fill:url(#SVGID_5407_);stroke:url(#SVGID_5408_);stroke-width:0.125;stroke-miterlimit:10;}
	.st414{fill:url(#SVGID_5409_);stroke:url(#SVGID_5410_);stroke-width:0.125;stroke-miterlimit:10;}
	.st415{fill:url(#SVGID_5411_);stroke:url(#SVGID_5412_);stroke-width:0.125;stroke-miterlimit:10;}
	.st416{fill:url(#SVGID_5413_);stroke:url(#SVGID_5414_);stroke-width:0.125;stroke-miterlimit:10;}
	.st417{fill:url(#SVGID_5415_);stroke:url(#SVGID_5416_);stroke-width:0.125;stroke-miterlimit:10;}
</style>
<g>
	<g>
		<g>
			<g>
				<g>
					<path class="st335" d="M49.94,44.12h-4.19v-0.89c0-2.41,1.84-4.38,4.19-4.62V44.12z"/>
					<path class="st335" d="M50.9,44.12v-5.51c2.35,0.24,4.19,2.21,4.19,4.62v0.89H50.9z"/>
					<rect x="50.9" y="45.06" class="st335" width="4.19" height="4.77"/>
					<rect x="45.75" y="45.06" class="st335" width="4.19" height="4.77"/>
				</g>
				
					<linearGradient id="SVGID_1_" gradientUnits="userSpaceOnUse" x1="-705.5792" y1="56.4517" x2="-692.9421" y2="14.1093" gradientTransform="matrix(-1 0 0 1 -630.6429 0)">
					<stop  offset="0" style="stop-color:#00A0E3"/>
					<stop  offset="0.333" style="stop-color:#0085C6"/>
					<stop  offset="0.9312" style="stop-color:#004B89"/>
				</linearGradient>
				<path class="st2" d="M71.72,42.83l-21.3-17.07c13.19,1.55,19.41,7.9,24.18,4.08c4.52-3.6-0.15-15.82-0.15-15.82
					s7.63,8.68,8.35,19.86c1.02,15.73-6.98,25.32-16.19,29.32V45.35l3.01,2.03L71.72,42.83z"/>
				
					<linearGradient id="SVGID_2_" gradientUnits="userSpaceOnUse" x1="-710.0457" y1="55.3048" x2="-697.4079" y2="12.96" gradientTransform="matrix(-1 0 0 1 -630.6429 0)">
					<stop  offset="0" style="stop-color:#00A0E3"/>
					<stop  offset="0.333" style="stop-color:#0085C6"/>
					<stop  offset="0.9312" style="stop-color:#004B89"/>
				</linearGradient>
				<path class="st3" d="M73.88,26.08c0,1.77-1.43,3.2-3.2,3.2s-3.2-1.43-3.2-3.2c0-1.77,1.43-3.2,3.2-3.2S73.88,24.32,73.88,26.08z
					"/>
				
					<linearGradient id="SVGID_3_" gradientUnits="userSpaceOnUse" x1="-692.631" y1="61.4217" x2="-703.1758" y2="47.1195" gradientTransform="matrix(-1 0 0 1 -630.6429 0)">
					<stop  offset="0" style="stop-color:#00A0E3"/>
					<stop  offset="0.333" style="stop-color:#0085C6"/>
					<stop  offset="0.9312" style="stop-color:#004B89"/>
				</linearGradient>
				<path class="st4" d="M69.62,47.37l2.1-4.54c0,0,9.49,8.47-5.1,20.37V45.35L69.62,47.37z"/>
				
					<linearGradient id="SVGID_4_" gradientUnits="userSpaceOnUse" x1="-501.1244" y1="56.4518" x2="-488.4873" y2="14.1094" gradientTransform="matrix(1 0 0 1 526.1881 0)">
					<stop  offset="0" style="stop-color:#EC1C24"/>
					<stop  offset="1" style="stop-color:#93070A"/>
				</linearGradient>
				<path class="st5" d="M28.28,42.83l21.3-17.07c-13.19,1.55-19.41,7.9-24.18,4.08c-4.52-3.6,0.15-15.82,0.15-15.82
					s-7.63,8.68-8.35,19.86C16.17,49.61,24.17,59.2,33.39,63.2V45.35l-3.01,2.03L28.28,42.83z"/>
				
					<linearGradient id="SVGID_5_" gradientUnits="userSpaceOnUse" x1="-505.5912" y1="55.3048" x2="-492.9534" y2="12.9599" gradientTransform="matrix(1 0 0 1 526.1881 0)">
					<stop  offset="0" style="stop-color:#EC1C24"/>
					<stop  offset="1" style="stop-color:#93070A"/>
				</linearGradient>
				<path class="st7" d="M26.12,26.08c0,1.77,1.43,3.2,3.2,3.2c1.77,0,3.2-1.43,3.2-3.2c0-1.77-1.43-3.2-3.2-3.2
					C27.55,22.88,26.12,24.32,26.12,26.08z"/>
				
					<linearGradient id="SVGID_6_" gradientUnits="userSpaceOnUse" x1="-488.1761" y1="61.4217" x2="-498.7209" y2="47.1195" gradientTransform="matrix(1 0 0 1 526.1881 0)">
					<stop  offset="0" style="stop-color:#EC1C24"/>
					<stop  offset="1" style="stop-color:#93070A"/>
				</linearGradient>
				<path class="st8" d="M30.38,47.37l-2.1-4.54c0,0-9.49,8.47,5.1,20.37V45.35L30.38,47.37z"/>
			</g>
			<path class="st335" d="M42.37,67.33c-0.95-0.02-1.9-0.12-2.84-0.29c-0.94-0.17-1.79-0.57-2.55-1.2
				c-0.69-0.61-1.19-1.36-1.48-2.26c-0.29-0.9-0.41-1.8-0.34-2.71c0.09-0.87,0.33-1.68,0.73-2.44c0.4-0.76,0.9-1.45,1.49-2.06
				c0.6-0.62,1.26-1.16,2-1.64c0.74-0.48,1.49-0.87,2.27-1.17c0.61-0.24,1.32-0.4,2.14-0.49c0.82-0.09,1.65,0.04,2.47,0.39
				c0.11,0.11,0.19,0.23,0.24,0.37c0.05,0.14,0.07,0.27,0.05,0.39c-0.02,0.12-0.08,0.22-0.18,0.29c-0.1,0.08-0.24,0.1-0.44,0.08
				c-0.19,0-0.38-0.06-0.57-0.19c-0.18-0.13-0.37-0.23-0.57-0.29c-0.24-0.09-0.48-0.13-0.73-0.13c-0.25,0-0.49,0.02-0.73,0.07
				c-0.82,0.11-1.59,0.4-2.29,0.88c-0.7,0.48-1.31,1.07-1.82,1.77c-0.51,0.7-0.89,1.47-1.15,2.31c-0.26,0.83-0.36,1.64-0.29,2.42
				c0.06,0.82,0.31,1.58,0.73,2.26c0.42,0.68,0.98,1.24,1.67,1.67c0.28,0.22,0.6,0.39,0.96,0.52c0.36,0.13,0.72,0.21,1.09,0.23
				c0.45,0,0.8-0.12,1.02-0.36c0.23-0.24,0.45-0.54,0.67-0.91c0.97-1.86,2.05-3.63,3.22-5.31c1.17-1.68,2.53-3.21,4.09-4.6
				c0.69-0.63,1.44-1.21,2.23-1.74c0.79-0.53,1.64-0.97,2.55-1.32c0.32-0.11,0.69-0.21,1.09-0.31c0.4-0.1,0.81-0.15,1.23-0.16
				c0.42-0.01,0.83,0.03,1.22,0.11c0.39,0.09,0.74,0.26,1.04,0.52c0.41,0.39,0.63,0.86,0.67,1.41c0.03,0.55-0.05,1.12-0.24,1.71
				c-0.19,0.58-0.45,1.14-0.76,1.67c-0.31,0.53-0.6,0.97-0.86,1.32c-1.21,1.65-2.67,3.15-4.37,4.52c-1.7,1.37-3.53,2.43-5.48,3.18
				c-0.43,0.17-0.89,0.32-1.38,0.44c-0.49,0.12-0.9,0.35-1.25,0.7c-0.56,0.56-1.05,1.22-1.46,1.97c-0.41,0.75-0.82,1.51-1.23,2.29
				c-0.41,0.78-0.87,1.52-1.36,2.23c-0.5,0.7-1.12,1.29-1.85,1.77c0.5,0.19,0.99,0.38,1.46,0.55c0.48,0.17,0.96,0.35,1.46,0.52
				c0.52,0.19,1.03,0.38,1.54,0.55c0.51,0.17,1.05,0.3,1.61,0.39c0.39,0.04,0.79,0.05,1.2,0.03c0.41-0.02,0.77-0.16,1.07-0.42
				c0.11-0.09,0.23-0.22,0.36-0.39c0.13-0.17,0.29-0.24,0.49-0.2c0.17,0.04,0.26,0.12,0.26,0.24c0,0.12-0.04,0.23-0.13,0.34
				c-0.13,0.32-0.31,0.6-0.55,0.83c-0.24,0.23-0.51,0.42-0.83,0.57c-0.31,0.15-0.64,0.28-0.97,0.37c-0.34,0.1-0.64,0.18-0.93,0.24
				c-0.5,0.11-1.01,0.15-1.53,0.11c-0.52-0.03-1.05-0.1-1.58-0.21c-0.53-0.11-1.06-0.24-1.58-0.41c-0.52-0.16-1.01-0.32-1.46-0.47
				c-0.37-0.11-0.74-0.28-1.1-0.5c-0.37-0.23-0.75-0.35-1.14-0.37c-0.24,0-0.45,0.05-0.65,0.16c-0.2,0.11-0.4,0.22-0.62,0.32
				c-0.45,0.22-0.95,0.39-1.49,0.52c-0.45,0.13-0.93,0.25-1.41,0.37c-0.49,0.12-0.98,0.21-1.48,0.26c-0.5,0.05-1,0.07-1.51,0.05
				c-0.51-0.02-1-0.11-1.48-0.26c-0.32-0.11-0.67-0.28-1.04-0.5c-0.37-0.23-0.67-0.49-0.91-0.8c-0.24-0.3-0.37-0.63-0.39-0.99
				c-0.02-0.36,0.15-0.72,0.52-1.09c0.63-0.63,1.4-1.05,2.31-1.25c0.91-0.21,1.78-0.32,2.6-0.34c0.56-0.02,1.14,0.02,1.72,0.13
				c0.58,0.11,1.16,0.25,1.72,0.42c0.19,0.04,0.41,0.12,0.63,0.23c0.23,0.11,0.45,0.14,0.67,0.1c0.24-0.04,0.41-0.16,0.52-0.36
				c0.11-0.2,0.22-0.38,0.32-0.55c0.69-1.02,1.34-2.01,1.93-2.99C41.23,69.47,41.81,68.43,42.37,67.33z M36.26,75.78
				c-0.69-0.32-1.44-0.6-2.23-0.83c-0.79-0.23-1.59-0.29-2.39-0.18c-0.22,0.04-0.45,0.11-0.71,0.19c-0.26,0.09-0.49,0.2-0.68,0.34
				c-0.2,0.14-0.34,0.32-0.44,0.55c-0.1,0.23-0.09,0.48,0.02,0.76c0.09,0.24,0.23,0.42,0.42,0.54c0.2,0.12,0.42,0.2,0.67,0.24
				c0.25,0.04,0.5,0.07,0.75,0.07c0.25,0,0.49-0.01,0.73-0.03c0.74-0.07,1.44-0.23,2.1-0.5C35.15,76.66,35.74,76.27,36.26,75.78z
				 M47.99,65.15c0.56-0.22,1.12-0.44,1.66-0.68c0.54-0.24,1.04-0.54,1.49-0.91c0.56-0.37,1.09-0.77,1.59-1.2
				c0.5-0.43,1-0.87,1.5-1.3c0.82-0.76,1.59-1.58,2.31-2.45c0.71-0.88,1.35-1.84,1.92-2.88c0.19-0.32,0.4-0.72,0.6-1.17
				c0.21-0.46,0.27-0.9,0.18-1.33c-0.07-0.26-0.2-0.46-0.39-0.58c-0.2-0.13-0.41-0.2-0.63-0.21c-0.23-0.01-0.47,0.02-0.72,0.08
				c-0.25,0.07-0.47,0.14-0.67,0.23c-0.48,0.24-0.91,0.54-1.3,0.89c-0.39,0.36-0.76,0.76-1.1,1.2c-0.35,0.44-0.68,0.9-0.99,1.36
				c-0.31,0.47-0.61,0.9-0.89,1.32c-0.82,1.26-1.6,2.52-2.32,3.79C49.49,62.57,48.75,63.85,47.99,65.15z"/>
			<path class="st335" d="M64.11,64.56h3.25c-0.91,1.6-1.8,3.21-2.66,4.81c-0.87,1.6-1.79,3.16-2.76,4.68
				c-0.09,0.13-0.22,0.39-0.41,0.78c-0.18,0.39-0.32,0.78-0.42,1.17c-0.1,0.39-0.11,0.72-0.03,0.97c0.08,0.26,0.33,0.32,0.76,0.19
				c0.61-0.35,1.14-0.77,1.61-1.27c0.47-0.5,0.9-1.03,1.3-1.61c0.4-0.57,0.8-1.15,1.19-1.72c0.39-0.57,0.81-1.11,1.27-1.61
				c0.17-0.17,0.31-0.24,0.42-0.2c0.11,0.04,0.18,0.09,0.23,0.13c0,0.02-0.05,0.12-0.16,0.29c-0.58,0.69-1.14,1.44-1.66,2.24
				c-0.52,0.8-1.08,1.57-1.67,2.31c-0.6,0.74-1.25,1.39-1.97,1.95c-0.71,0.56-1.55,0.95-2.5,1.17c-0.5,0.02-0.87-0.09-1.11-0.32
				c-0.24-0.24-0.4-0.54-0.49-0.91c-0.09-0.37-0.12-0.76-0.11-1.17c0.01-0.41,0.04-0.79,0.08-1.14c-0.24,0.26-0.55,0.58-0.93,0.96
				c-0.38,0.38-0.8,0.76-1.25,1.15c-0.45,0.39-0.93,0.74-1.41,1.06c-0.49,0.31-0.96,0.52-1.43,0.62c-0.47,0.1-0.9,0.05-1.3-0.13
				c-0.4-0.18-0.73-0.58-0.99-1.19c-0.26-0.61-0.38-1.22-0.36-1.84c0.02-0.62,0.13-1.23,0.32-1.84c0.2-0.61,0.45-1.19,0.76-1.75
				c0.31-0.56,0.63-1.09,0.96-1.59c0.72-1.08,1.54-2.07,2.49-2.96c0.94-0.89,1.98-1.65,3.1-2.27c0.39-0.22,0.84-0.43,1.35-0.63
				c0.51-0.21,1.01-0.33,1.5-0.37c0.49-0.04,0.94,0.03,1.35,0.23c0.41,0.2,0.73,0.58,0.94,1.17c0.13-0.24,0.26-0.47,0.39-0.68
				C63.88,65.03,64,64.8,64.11,64.56z M59.82,71.97c0.07-0.13,0.22-0.38,0.47-0.75c0.25-0.37,0.51-0.79,0.8-1.27
				c0.28-0.48,0.55-0.99,0.8-1.53c0.25-0.54,0.42-1.04,0.52-1.49c0.1-0.46,0.09-0.83-0.02-1.14c-0.11-0.3-0.4-0.48-0.88-0.52
				c-0.35,0.06-0.69,0.2-1.02,0.41c-0.34,0.21-0.67,0.46-0.99,0.75c-0.32,0.29-0.63,0.6-0.91,0.91c-0.28,0.31-0.55,0.61-0.81,0.89
				c-0.52,0.69-1.03,1.41-1.53,2.14c-0.5,0.74-0.96,1.48-1.4,2.24c-0.13,0.24-0.29,0.54-0.49,0.89c-0.19,0.36-0.37,0.73-0.52,1.12
				c-0.15,0.39-0.25,0.77-0.31,1.15c-0.05,0.38,0,0.71,0.18,0.99c0.15,0.28,0.35,0.44,0.6,0.49c0.25,0.04,0.5,0.02,0.76-0.07
				c0.26-0.09,0.51-0.21,0.76-0.37c0.25-0.16,0.45-0.32,0.6-0.47c0.67-0.63,1.29-1.31,1.85-2.05C58.86,73.58,59.37,72.8,59.82,71.97
				z"/>
			<path class="st335" d="M77.31,66.94c-0.74,0.3-1.49,0.45-2.27,0.44c-0.78-0.01-1.54-0.01-2.27,0.02c-0.41,0-0.8,0.01-1.17,0.03
				c-0.37,0.02-0.73,0.1-1.07,0.23c-0.07,0.02-0.17,0.09-0.32,0.2c-0.15,0.11-0.31,0.22-0.49,0.32c-0.17,0.11-0.33,0.2-0.47,0.28
				c-0.14,0.08-0.22,0.09-0.24,0.05c-0.11-0.13-0.08-0.34,0.08-0.63c0.16-0.29,0.37-0.6,0.62-0.93c0.25-0.32,0.5-0.63,0.75-0.91
				c0.25-0.28,0.42-0.47,0.5-0.55c0.5-0.5,1.06-0.82,1.69-0.97c0.63-0.15,1.29-0.22,1.98-0.19c0.35,0,0.7,0.03,1.07,0.1
				c0.37,0.07,0.74,0.12,1.12,0.16c0.38,0.04,0.75,0.07,1.1,0.08c0.36,0.01,0.72-0.02,1.09-0.08c0.11-0.02,0.31-0.07,0.6-0.15
				c0.29-0.08,0.57-0.12,0.83-0.15c0.26-0.02,0.44,0.02,0.54,0.11c0.1,0.1,0.01,0.3-0.28,0.6c-0.24,0.24-0.49,0.45-0.75,0.65
				c-0.26,0.19-0.51,0.41-0.75,0.65c-0.56,0.56-1.05,1.16-1.46,1.79c-0.45,0.61-0.9,1.2-1.33,1.77c-0.43,0.57-0.92,1.12-1.46,1.64
				c-0.61,0.58-1.26,1.11-1.95,1.58c-0.69,0.47-1.42,0.87-2.18,1.22c-0.35,0.2-0.71,0.37-1.09,0.52c-0.38,0.15-0.75,0.31-1.12,0.47
				c-0.37,0.16-0.72,0.34-1.06,0.54c-0.34,0.19-0.64,0.43-0.93,0.71c0.87-0.32,1.79-0.49,2.76-0.49c0.5,0,0.97,0.05,1.43,0.16
				c0.46,0.11,0.92,0.22,1.4,0.32c0.3,0.04,0.61,0.08,0.93,0.1c0.31,0.02,0.61-0.01,0.89-0.1c0.46-0.11,0.87-0.31,1.23-0.62
				c0.37-0.3,0.73-0.65,1.07-1.04c0.17-0.24,0.34-0.45,0.49-0.63c0.15-0.18,0.31-0.39,0.49-0.63c0.09-0.11,0.22-0.3,0.41-0.57
				c0.18-0.27,0.36-0.51,0.54-0.73c0.22-0.02,0.34,0.02,0.37,0.13c0.03,0.11,0.02,0.23-0.05,0.37c-0.07,0.14-0.15,0.28-0.24,0.42
				c-0.1,0.14-0.17,0.24-0.21,0.31c-0.13,0.13-0.25,0.28-0.36,0.44c-0.11,0.16-0.23,0.33-0.36,0.5c-0.06,0.09-0.14,0.18-0.21,0.28
				c-0.08,0.1-0.16,0.2-0.24,0.31c-0.13,0.15-0.27,0.28-0.41,0.39c-0.14,0.11-0.27,0.25-0.37,0.42c-0.52,0.65-1.1,1.23-1.75,1.75
				c-0.65,0.52-1.4,0.9-2.24,1.14c-0.5,0.13-0.98,0.19-1.45,0.18c-0.47-0.01-0.93-0.06-1.38-0.15c-0.45-0.09-0.92-0.17-1.38-0.26
				c-0.47-0.09-0.94-0.15-1.41-0.19c-0.45-0.02-0.83,0.02-1.14,0.11c-0.3,0.1-0.64,0.24-1.01,0.44c-0.32,0.17-0.57,0.2-0.73,0.07
				c-0.16-0.13-0.16-0.38,0.02-0.75c0.22-0.37,0.48-0.73,0.78-1.07c0.3-0.35,0.58-0.7,0.84-1.07c0.28-0.37,0.57-0.74,0.86-1.11
				c0.29-0.37,0.59-0.73,0.89-1.07c0.69-0.8,1.44-1.51,2.23-2.11c0.79-0.61,1.66-1.17,2.62-1.69c0.48-0.28,0.94-0.55,1.4-0.8
				c0.45-0.25,0.93-0.51,1.43-0.8c0.24-0.15,0.48-0.3,0.72-0.44c0.24-0.14,0.49-0.28,0.75-0.41c0.17-0.11,0.37-0.21,0.6-0.31
				C77.03,67.24,77.2,67.11,77.31,66.94z"/>
		</g>
	</g>
	<g>
		<text transform="matrix(1 0 0 1 31.9148 84.6341)" class="st342 st343">MEDICAL GROUP</text>
		<g>
			<linearGradient id="SVGID_7_" gradientUnits="userSpaceOnUse" x1="31.997" y1="83.2771" x2="69.4052" y2="83.2771">
				<stop  offset="0" style="stop-color:#00A0E3"/>
				<stop  offset="0.333" style="stop-color:#0085C6"/>
				<stop  offset="0.9312" style="stop-color:#004B89"/>
			</linearGradient>
			<path class="st9" d="M33.87,83.71l0.74-1.79h1.11v0.07h-0.09c-0.08,0-0.14,0.01-0.19,0.04c-0.03,0.02-0.06,0.05-0.08,0.09
				c-0.01,0.03-0.02,0.12-0.02,0.25v1.79c0,0.14,0.01,0.23,0.02,0.26c0.01,0.03,0.04,0.07,0.09,0.09c0.05,0.03,0.11,0.04,0.18,0.04
				h0.09v0.07h-1.42v-0.07h0.09c0.08,0,0.14-0.01,0.19-0.04c0.03-0.02,0.06-0.05,0.08-0.1c0.01-0.03,0.02-0.12,0.02-0.25v-2.01
				l-1.04,2.48h-0.05l-1.06-2.46v1.91c0,0.13,0,0.22,0.01,0.25c0.02,0.07,0.05,0.12,0.11,0.16c0.06,0.04,0.15,0.06,0.27,0.06v0.07
				H32v-0.07h0.03c0.06,0,0.12-0.01,0.17-0.03c0.05-0.02,0.09-0.05,0.12-0.08c0.03-0.03,0.05-0.08,0.06-0.15c0-0.01,0-0.08,0-0.2
				v-1.72c0-0.14-0.01-0.22-0.02-0.26s-0.04-0.06-0.09-0.09c-0.05-0.03-0.11-0.04-0.18-0.04H32v-0.07h1.11L33.87,83.71z"/>
			<linearGradient id="SVGID_8_" gradientUnits="userSpaceOnUse" x1="31.997" y1="83.2771" x2="69.4052" y2="83.2771">
				<stop  offset="0" style="stop-color:#00A0E3"/>
				<stop  offset="0.333" style="stop-color:#0085C6"/>
				<stop  offset="0.9312" style="stop-color:#004B89"/>
			</linearGradient>
			<path class="st10" d="M37.07,82.08v1.11h0.05c0.17,0,0.3-0.05,0.38-0.16c0.08-0.11,0.13-0.27,0.15-0.48h0.08v1.42h-0.08
				c-0.02-0.15-0.05-0.28-0.1-0.38c-0.05-0.1-0.11-0.17-0.18-0.2c-0.07-0.03-0.17-0.05-0.3-0.05v0.77c0,0.15,0.01,0.24,0.02,0.27
				c0.01,0.03,0.04,0.06,0.07,0.08c0.04,0.02,0.09,0.03,0.17,0.03h0.16c0.25,0,0.46-0.06,0.61-0.18c0.15-0.12,0.26-0.3,0.33-0.54
				h0.07l-0.12,0.86h-2.35v-0.07h0.09c0.08,0,0.14-0.01,0.19-0.04c0.04-0.02,0.06-0.05,0.08-0.1c0.01-0.03,0.02-0.12,0.02-0.25
				v-1.79c0-0.12,0-0.2-0.01-0.23c-0.01-0.05-0.04-0.08-0.07-0.11c-0.05-0.04-0.12-0.06-0.21-0.06h-0.09v-0.07h2.27v0.8h-0.08
				c-0.04-0.2-0.09-0.34-0.16-0.42c-0.07-0.09-0.17-0.15-0.3-0.19c-0.07-0.02-0.21-0.04-0.42-0.04H37.07z"/>
			<linearGradient id="SVGID_9_" gradientUnits="userSpaceOnUse" x1="31.997" y1="83.2771" x2="69.4052" y2="83.2771">
				<stop  offset="0" style="stop-color:#00A0E3"/>
				<stop  offset="0.333" style="stop-color:#0085C6"/>
				<stop  offset="0.9312" style="stop-color:#004B89"/>
			</linearGradient>
			<path class="st11" d="M38.9,84.63v-0.07h0.09c0.08,0,0.14-0.01,0.18-0.04c0.04-0.02,0.07-0.06,0.09-0.1
				c0.01-0.03,0.02-0.11,0.02-0.25v-1.79c0-0.14-0.01-0.23-0.02-0.26c-0.01-0.03-0.04-0.06-0.09-0.09s-0.1-0.04-0.18-0.04H38.9
				v-0.07h1.22c0.32,0,0.58,0.04,0.78,0.13c0.24,0.11,0.42,0.27,0.55,0.49s0.19,0.47,0.19,0.74c0,0.19-0.03,0.37-0.09,0.53
				c-0.06,0.16-0.14,0.29-0.24,0.4c-0.1,0.11-0.21,0.19-0.34,0.25s-0.28,0.11-0.47,0.15c-0.08,0.02-0.21,0.02-0.38,0.02H38.9z
				 M39.94,82.07v2.12c0,0.11,0.01,0.18,0.02,0.21s0.03,0.04,0.05,0.06c0.04,0.02,0.09,0.03,0.16,0.03c0.22,0,0.39-0.08,0.51-0.23
				c0.16-0.21,0.24-0.53,0.24-0.96c0-0.35-0.05-0.63-0.16-0.83c-0.09-0.16-0.2-0.27-0.33-0.33C40.32,82.09,40.16,82.07,39.94,82.07z
				"/>
			<linearGradient id="SVGID_11_" gradientUnits="userSpaceOnUse" x1="31.997" y1="83.2771" x2="69.4052" y2="83.2771">
				<stop  offset="0" style="stop-color:#00A0E3"/>
				<stop  offset="0.333" style="stop-color:#0085C6"/>
				<stop  offset="0.9312" style="stop-color:#004B89"/>
			</linearGradient>
			<path style="fill:url(#SVGID_11_);" d="M43.47,84.56v0.07h-1.42v-0.07h0.09c0.08,0,0.14-0.01,0.19-0.04
				c0.04-0.02,0.06-0.05,0.08-0.1c0.01-0.03,0.02-0.12,0.02-0.25v-1.79c0-0.14-0.01-0.23-0.02-0.26c-0.01-0.03-0.04-0.06-0.09-0.09
				s-0.11-0.04-0.18-0.04h-0.09v-0.07h1.42v0.07h-0.09c-0.08,0-0.14,0.01-0.19,0.04c-0.04,0.02-0.06,0.05-0.08,0.1
				c-0.01,0.03-0.02,0.12-0.02,0.25v1.79c0,0.14,0.01,0.23,0.02,0.26c0.02,0.03,0.05,0.07,0.09,0.09c0.04,0.03,0.1,0.04,0.18,0.04
				H43.47z"/>
			<linearGradient id="SVGID_13_" gradientUnits="userSpaceOnUse" x1="31.997" y1="83.2771" x2="69.4052" y2="83.2771">
				<stop  offset="0" style="stop-color:#00A0E3"/>
				<stop  offset="0.333" style="stop-color:#0085C6"/>
				<stop  offset="0.9312" style="stop-color:#004B89"/>
			</linearGradient>
			<path style="fill:url(#SVGID_13_);" d="M46.47,81.86v0.94h-0.08c-0.06-0.25-0.17-0.43-0.33-0.56s-0.34-0.2-0.54-0.2
				c-0.17,0-0.33,0.05-0.47,0.15s-0.25,0.22-0.31,0.38c-0.08,0.2-0.13,0.43-0.13,0.67c0,0.24,0.03,0.46,0.09,0.66
				c0.06,0.2,0.16,0.35,0.29,0.45c0.13,0.1,0.3,0.15,0.51,0.15c0.17,0,0.33-0.04,0.47-0.11c0.14-0.07,0.29-0.2,0.45-0.39v0.23
				c-0.15,0.16-0.31,0.27-0.48,0.35c-0.16,0.07-0.36,0.11-0.58,0.11c-0.29,0-0.55-0.06-0.77-0.17c-0.23-0.12-0.4-0.28-0.52-0.5
				c-0.12-0.22-0.18-0.45-0.18-0.7c0-0.26,0.07-0.5,0.2-0.74s0.32-0.41,0.55-0.54c0.23-0.13,0.47-0.19,0.73-0.19
				c0.19,0,0.39,0.04,0.6,0.12c0.12,0.05,0.2,0.07,0.23,0.07c0.04,0,0.08-0.02,0.11-0.05s0.05-0.08,0.06-0.15H46.47z"/>
			<linearGradient id="SVGID_15_" gradientUnits="userSpaceOnUse" x1="31.997" y1="83.2771" x2="69.4052" y2="83.2771">
				<stop  offset="0" style="stop-color:#00A0E3"/>
				<stop  offset="0.333" style="stop-color:#0085C6"/>
				<stop  offset="0.9312" style="stop-color:#004B89"/>
			</linearGradient>
			<path style="fill:url(#SVGID_15_);" d="M48.56,83.86H47.6l-0.11,0.26c-0.04,0.09-0.06,0.16-0.06,0.22c0,0.08,0.03,0.13,0.09,0.17
				c0.04,0.02,0.12,0.04,0.27,0.05v0.07h-0.9v-0.07c0.1-0.01,0.18-0.05,0.24-0.12s0.14-0.2,0.23-0.41l0.97-2.17h0.04l0.98,2.23
				c0.09,0.21,0.17,0.34,0.23,0.4c0.04,0.04,0.11,0.07,0.19,0.07v0.07h-1.31v-0.07h0.05c0.11,0,0.18-0.01,0.22-0.04
				c0.03-0.02,0.04-0.05,0.04-0.09c0-0.02,0-0.05-0.01-0.07c0-0.01-0.02-0.06-0.06-0.15L48.56,83.86z M48.5,83.71l-0.4-0.93
				l-0.42,0.93H48.5z"/>
			<linearGradient id="SVGID_16_" gradientUnits="userSpaceOnUse" x1="31.997" y1="83.2771" x2="69.4052" y2="83.2771">
				<stop  offset="0" style="stop-color:#00A0E3"/>
				<stop  offset="0.333" style="stop-color:#0085C6"/>
				<stop  offset="0.9312" style="stop-color:#004B89"/>
			</linearGradient>
			<path style="fill:url(#SVGID_16_);" d="M52.57,83.68l-0.1,0.95h-2.41v-0.07h0.09c0.08,0,0.14-0.01,0.19-0.04
				c0.03-0.02,0.06-0.05,0.08-0.1c0.01-0.03,0.02-0.12,0.02-0.25v-1.79c0-0.14-0.01-0.23-0.02-0.26c-0.01-0.03-0.04-0.06-0.09-0.09
				c-0.04-0.03-0.11-0.04-0.18-0.04h-0.09v-0.07h1.45v0.07h-0.12c-0.08,0-0.14,0.01-0.19,0.04c-0.03,0.02-0.06,0.05-0.08,0.1
				c-0.01,0.03-0.02,0.12-0.02,0.25v1.73c0,0.14,0.01,0.23,0.02,0.27c0.02,0.04,0.05,0.07,0.09,0.08c0.03,0.01,0.11,0.02,0.24,0.02
				h0.23c0.14,0,0.26-0.03,0.36-0.08c0.1-0.05,0.18-0.13,0.25-0.24c0.07-0.11,0.14-0.27,0.2-0.48H52.57z"/>
			<linearGradient id="SVGID_17_" gradientUnits="userSpaceOnUse" x1="31.997" y1="83.2771" x2="69.4052" y2="83.2771">
				<stop  offset="0" style="stop-color:#00A0E3"/>
				<stop  offset="0.333" style="stop-color:#0085C6"/>
				<stop  offset="0.9312" style="stop-color:#004B89"/>
			</linearGradient>
			<path style="fill:url(#SVGID_17_);" d="M56.9,81.86v0.96h-0.07c-0.09-0.26-0.22-0.46-0.4-0.6c-0.18-0.14-0.38-0.2-0.59-0.2
				c-0.2,0-0.37,0.06-0.51,0.17s-0.23,0.27-0.29,0.48c-0.06,0.2-0.08,0.41-0.08,0.63c0,0.26,0.03,0.49,0.09,0.69
				c0.06,0.2,0.16,0.34,0.3,0.43c0.14,0.09,0.3,0.14,0.49,0.14c0.07,0,0.13-0.01,0.2-0.02c0.07-0.01,0.14-0.03,0.21-0.06V83.9
				c0-0.11-0.01-0.18-0.02-0.21c-0.01-0.03-0.04-0.06-0.09-0.08c-0.05-0.03-0.1-0.04-0.17-0.04H55.9V83.5h1.32v0.07
				c-0.1,0.01-0.17,0.02-0.21,0.04c-0.04,0.02-0.07,0.06-0.09,0.1c-0.01,0.03-0.02,0.09-0.02,0.19v0.56
				c-0.17,0.08-0.35,0.14-0.54,0.17s-0.38,0.06-0.58,0.06c-0.26,0-0.47-0.04-0.64-0.11c-0.17-0.07-0.32-0.16-0.45-0.28
				c-0.13-0.11-0.23-0.24-0.3-0.39c-0.09-0.18-0.14-0.39-0.14-0.62c0-0.41,0.14-0.75,0.43-1.04s0.65-0.42,1.08-0.42
				c0.13,0,0.26,0.01,0.36,0.03c0.06,0.01,0.15,0.04,0.29,0.09c0.13,0.05,0.21,0.08,0.23,0.08c0.04,0,0.07-0.01,0.1-0.04
				c0.03-0.03,0.06-0.08,0.09-0.15H56.9z"/>
			<linearGradient id="SVGID_18_" gradientUnits="userSpaceOnUse" x1="31.997" y1="83.2771" x2="69.4052" y2="83.2771">
				<stop  offset="0" style="stop-color:#00A0E3"/>
				<stop  offset="0.333" style="stop-color:#0085C6"/>
				<stop  offset="0.9312" style="stop-color:#004B89"/>
			</linearGradient>
			<path style="fill:url(#SVGID_18_);" d="M58.51,83.4v0.76c0,0.15,0.01,0.24,0.03,0.28c0.02,0.04,0.05,0.07,0.09,0.09
				c0.05,0.02,0.13,0.03,0.25,0.03v0.07H57.5v-0.07c0.12,0,0.21-0.01,0.25-0.04s0.08-0.05,0.09-0.09c0.02-0.04,0.03-0.13,0.03-0.28
				V82.4c0-0.15-0.01-0.24-0.03-0.28c-0.02-0.04-0.05-0.07-0.1-0.09c-0.04-0.02-0.13-0.03-0.25-0.03v-0.07h1.26
				c0.33,0,0.57,0.02,0.72,0.07c0.15,0.04,0.28,0.13,0.37,0.25c0.1,0.12,0.14,0.27,0.14,0.43c0,0.2-0.07,0.37-0.22,0.5
				c-0.09,0.08-0.22,0.15-0.39,0.19l0.65,0.92c0.08,0.12,0.15,0.19,0.18,0.22c0.05,0.04,0.12,0.06,0.19,0.07v0.07h-0.85l-0.88-1.24
				H58.51z M58.51,82.07v1.19h0.11c0.19,0,0.32-0.02,0.42-0.05c0.09-0.03,0.17-0.09,0.22-0.18s0.08-0.21,0.08-0.35
				c0-0.21-0.05-0.36-0.15-0.46c-0.1-0.1-0.25-0.15-0.47-0.15H58.51z"/>
			<linearGradient id="SVGID_19_" gradientUnits="userSpaceOnUse" x1="31.997" y1="83.2771" x2="69.4052" y2="83.2771">
				<stop  offset="0" style="stop-color:#00A0E3"/>
				<stop  offset="0.333" style="stop-color:#0085C6"/>
				<stop  offset="0.9312" style="stop-color:#004B89"/>
			</linearGradient>
			<path style="fill:url(#SVGID_19_);" d="M62.13,81.88c0.43-0.02,0.78,0.11,1.05,0.38c0.27,0.27,0.41,0.6,0.41,1.01
				c0,0.34-0.1,0.65-0.3,0.91c-0.27,0.35-0.64,0.52-1.13,0.52c-0.49,0-0.87-0.17-1.13-0.5c-0.21-0.26-0.32-0.57-0.32-0.93
				c0-0.4,0.14-0.74,0.41-1.01C61.39,81.99,61.73,81.87,62.13,81.88z M62.16,82.01c-0.25,0-0.44,0.13-0.57,0.38
				c-0.11,0.21-0.16,0.51-0.16,0.9c0,0.46,0.08,0.81,0.24,1.03c0.11,0.16,0.27,0.23,0.48,0.23c0.14,0,0.25-0.03,0.34-0.1
				c0.12-0.08,0.21-0.22,0.27-0.41c0.06-0.19,0.1-0.43,0.1-0.73c0-0.36-0.03-0.63-0.1-0.81c-0.07-0.18-0.15-0.3-0.25-0.38
				S62.29,82.01,62.16,82.01z"/>
			<linearGradient id="SVGID_21_" gradientUnits="userSpaceOnUse" x1="31.997" y1="83.2771" x2="69.4052" y2="83.2771">
				<stop  offset="0" style="stop-color:#00A0E3"/>
				<stop  offset="0.333" style="stop-color:#0085C6"/>
				<stop  offset="0.9312" style="stop-color:#004B89"/>
			</linearGradient>
			<path style="fill:url(#SVGID_21_);" d="M64,81.92h1.4v0.07h-0.07c-0.11,0-0.18,0.01-0.22,0.03c-0.04,0.02-0.07,0.05-0.08,0.09
				S65,82.25,65,82.41v1.33c0,0.24,0.02,0.4,0.05,0.48c0.04,0.08,0.1,0.14,0.18,0.2c0.08,0.05,0.19,0.08,0.32,0.08
				c0.15,0,0.27-0.03,0.38-0.1s0.18-0.16,0.23-0.27c0.05-0.12,0.08-0.32,0.08-0.61v-1.11c0-0.12-0.01-0.21-0.04-0.26
				c-0.03-0.05-0.06-0.09-0.1-0.11c-0.06-0.03-0.14-0.05-0.25-0.05v-0.07h0.94v0.07h-0.06c-0.08,0-0.14,0.02-0.19,0.05
				c-0.05,0.03-0.09,0.08-0.11,0.14c-0.02,0.04-0.03,0.12-0.03,0.23v1.03c0,0.32-0.02,0.55-0.06,0.69
				c-0.04,0.14-0.14,0.27-0.31,0.39c-0.16,0.12-0.38,0.18-0.67,0.18c-0.24,0-0.42-0.03-0.54-0.09c-0.17-0.08-0.3-0.19-0.37-0.33
				s-0.11-0.31-0.11-0.54v-1.33c0-0.16-0.01-0.25-0.03-0.29c-0.02-0.04-0.05-0.07-0.09-0.09C64.19,82,64.11,81.99,64,81.99V81.92z"
				/>
			<linearGradient id="SVGID_22_" gradientUnits="userSpaceOnUse" x1="31.997" y1="83.2771" x2="69.4052" y2="83.2771">
				<stop  offset="0" style="stop-color:#00A0E3"/>
				<stop  offset="0.333" style="stop-color:#0085C6"/>
				<stop  offset="0.9312" style="stop-color:#004B89"/>
			</linearGradient>
			<path style="fill:url(#SVGID_22_);" d="M68.13,83.4v0.75c0,0.15,0.01,0.24,0.03,0.28c0.02,0.04,0.05,0.07,0.1,0.09
				c0.05,0.02,0.13,0.03,0.25,0.03v0.07h-1.38v-0.07c0.12,0,0.21-0.01,0.25-0.04s0.08-0.05,0.09-0.09c0.02-0.04,0.03-0.13,0.03-0.28
				V82.4c0-0.15-0.01-0.24-0.03-0.28c-0.02-0.04-0.05-0.07-0.09-0.09c-0.05-0.02-0.13-0.03-0.25-0.03v-0.07h1.18
				c0.39,0,0.67,0.07,0.84,0.21c0.17,0.14,0.25,0.31,0.25,0.52c0,0.18-0.05,0.33-0.16,0.45c-0.11,0.12-0.26,0.21-0.45,0.26
				C68.66,83.39,68.44,83.4,68.13,83.4z M68.13,82.08v1.17c0.04,0,0.08,0,0.1,0c0.16,0,0.29-0.05,0.38-0.14
				c0.09-0.1,0.13-0.25,0.13-0.45s-0.04-0.35-0.13-0.44c-0.09-0.09-0.22-0.14-0.39-0.14H68.13z"/>
		</g>
	</g>
	<g>
		<g>
			<path d="M33.93,82.67l0.12,2.77l0.47,0.19l-0.03,0.12H33.2l-0.03-0.12l0.24-0.12c0.12-0.05,0.17-0.12,0.17-0.21l-0.12-2.66
				l-1.04,3l-0.34,0.11l-0.1-0.05l-1.01-3.05l-0.15,2.79l0.41,0.19l-0.03,0.12h-1.14l-0.03-0.12l0.3-0.12
				c0.09-0.04,0.14-0.08,0.16-0.12c0-0.02,0.01-0.05,0.01-0.09l0.14-2.77l-0.47-0.19l0.03-0.12h1.1l0.07,0.05l0.92,2.83l0.96-2.88
				h1.13l0.03,0.12l-0.3,0.12C33.98,82.51,33.92,82.58,33.93,82.67z"/>
			<path d="M35.98,82.66v1.17c0.34,0,0.69-0.02,1.05-0.05l0.17-0.02l0.06,0.06l-0.06,0.3c-0.43-0.02-0.84-0.04-1.22-0.04v1.36
				l1.18-0.02l0.26-0.48L37.58,85v0.74h-2.49l-0.03-0.12l0.3-0.12c0.07-0.02,0.11-0.05,0.13-0.08s0.04-0.07,0.04-0.12v-2.77
				l-0.47-0.19l0.03-0.12h2.47v0.74L37.39,83l-0.26-0.48l-1-0.02C36.02,82.5,35.98,82.55,35.98,82.66z"/>
			<path d="M38.69,85.29v-2.77l-0.47-0.19l0.03-0.12c0.82-0.03,1.33-0.04,1.54-0.04c1.21,0,1.81,0.62,1.81,1.85
				c0,0.64-0.17,1.1-0.51,1.36c-0.34,0.26-0.88,0.4-1.62,0.4c-0.09,0-0.5-0.01-1.22-0.04l-0.03-0.12l0.3-0.12
				c0.07-0.02,0.11-0.05,0.13-0.08S38.69,85.35,38.69,85.29z M39.87,82.47h-0.58c-0.1,0-0.15,0.05-0.15,0.14v2.85
				c0.14,0.01,0.32,0.02,0.54,0.02c0.48,0,0.83-0.08,1.07-0.23c0.22-0.27,0.34-0.66,0.34-1.16c0-0.5-0.1-0.89-0.31-1.18
				C40.58,82.62,40.27,82.47,39.87,82.47z"/>
			<path d="M43.14,82.67v2.77l0.47,0.19l-0.03,0.12h-1.33l-0.03-0.12l0.3-0.12c0.07-0.02,0.11-0.05,0.13-0.08s0.04-0.07,0.04-0.12
				v-2.77l-0.47-0.19l0.03-0.12h1.33l0.03,0.12l-0.3,0.12c-0.07,0.03-0.11,0.05-0.13,0.08C43.15,82.57,43.14,82.61,43.14,82.67z"/>
			<path d="M45.85,85.79c-0.48,0-0.88-0.16-1.18-0.47s-0.46-0.76-0.46-1.33c0-0.57,0.17-1.02,0.5-1.33
				c0.34-0.32,0.74-0.48,1.21-0.48c0.34,0,0.6,0.07,0.78,0.22c0.13,0.1,0.22,0.19,0.27,0.27l-0.35,0.49l-0.13-0.04l-0.03-0.51
				c-0.17-0.06-0.38-0.09-0.63-0.09s-0.47,0.04-0.65,0.12c-0.33,0.3-0.49,0.73-0.49,1.29c0,0.49,0.13,0.86,0.38,1.12
				c0.25,0.26,0.57,0.39,0.96,0.39c0.29,0,0.59-0.08,0.91-0.23l0.08,0.16c-0.09,0.09-0.24,0.19-0.45,0.28
				C46.36,85.74,46.12,85.79,45.85,85.79z"/>
			<path d="M49.9,85.36c0-0.02-0.01-0.05-0.02-0.07l-0.24-0.69h-1.26l-0.29,0.83l0.47,0.19l-0.03,0.12h-1.2l-0.03-0.12l0.3-0.12
				c0.06-0.02,0.1-0.05,0.12-0.07s0.04-0.07,0.06-0.14l1.08-3.02l0.33-0.1l0.11,0.04l1.17,3.23l0.42,0.17l-0.03,0.12h-1.33
				l-0.03-0.12l0.3-0.12C49.87,85.47,49.9,85.42,49.9,85.36z M49.01,82.8l-0.53,1.52h1.07L49.01,82.8z"/>
			<path d="M52.15,82.67v2.79l1.2-0.02l0.26-0.48L53.78,85v0.74h-2.52l-0.03-0.12l0.3-0.12c0.07-0.02,0.11-0.05,0.13-0.08
				s0.04-0.07,0.04-0.12v-2.77l-0.47-0.19l0.03-0.12h1.33l0.03,0.12l-0.3,0.12c-0.07,0.03-0.11,0.05-0.13,0.08
				C52.16,82.57,52.15,82.61,52.15,82.67z"/>
			<path d="M58.46,84.66v0.79c-0.32,0.23-0.72,0.34-1.19,0.34c-0.47,0-0.87-0.15-1.19-0.46c-0.32-0.31-0.48-0.74-0.48-1.31
				c0-0.31,0.05-0.59,0.16-0.83c0.1-0.24,0.25-0.44,0.42-0.58c0.36-0.29,0.78-0.43,1.27-0.43s0.84,0.16,1.05,0.49l-0.35,0.49
				l-0.13-0.04l-0.03-0.51c-0.17-0.06-0.39-0.09-0.67-0.09c-0.28,0-0.51,0.04-0.69,0.12c-0.37,0.33-0.56,0.75-0.56,1.27
				s0.13,0.9,0.4,1.16c0.27,0.25,0.61,0.38,1.04,0.38c0.11,0,0.21-0.01,0.3-0.02c0.13-0.03,0.2-0.09,0.2-0.2v-0.7l-0.47-0.17
				l0.03-0.12h1.21l0.04,0.14l-0.21,0.08c-0.06,0.03-0.11,0.05-0.13,0.08S58.46,84.6,58.46,84.66z"/>
			<path d="M60.59,84.21h-0.31v1.22l0.45,0.19l-0.03,0.12h-1.31l-0.03-0.12l0.3-0.12c0.07-0.02,0.11-0.05,0.13-0.08
				s0.04-0.07,0.04-0.12v-2.77l-0.47-0.19l0.03-0.12c0.6-0.03,1-0.04,1.23-0.04c0.94,0,1.4,0.34,1.4,1.01
				c0,0.53-0.29,0.86-0.86,0.99c0.04,0.04,0.08,0.09,0.11,0.16c0.25,0.5,0.43,0.83,0.55,0.98c0.12,0.15,0.3,0.25,0.55,0.3
				l-0.04,0.14l-0.61,0.04c-0.2-0.16-0.34-0.32-0.44-0.47s-0.26-0.47-0.49-0.95C60.73,84.26,60.67,84.21,60.59,84.21z M60.27,82.61
				v1.33h0.35c0.27,0,0.48-0.03,0.63-0.09c0.08-0.06,0.14-0.13,0.18-0.2s0.06-0.19,0.06-0.34c0-0.23-0.06-0.43-0.19-0.59
				c-0.12-0.16-0.33-0.24-0.62-0.24h-0.28C60.32,82.47,60.27,82.52,60.27,82.61z"/>
			<path d="M62.84,84.01c0-0.3,0.05-0.57,0.14-0.81c0.09-0.24,0.22-0.43,0.38-0.57c0.33-0.3,0.73-0.44,1.2-0.44
				c0.47,0,0.85,0.16,1.15,0.48c0.3,0.32,0.45,0.76,0.45,1.31c0,0.3-0.05,0.57-0.14,0.81c-0.09,0.24-0.22,0.43-0.39,0.57
				c-0.33,0.29-0.72,0.44-1.19,0.44c-0.47,0-0.85-0.16-1.16-0.47C62.99,85,62.84,84.56,62.84,84.01z M63.68,82.72
				c-0.22,0.31-0.34,0.7-0.34,1.19s0.1,0.86,0.31,1.13c0.2,0.27,0.5,0.41,0.89,0.41c0.32,0,0.58-0.07,0.79-0.2
				c0.22-0.27,0.34-0.66,0.34-1.16s-0.1-0.89-0.31-1.16c-0.2-0.27-0.5-0.41-0.88-0.41C64.16,82.52,63.89,82.59,63.68,82.72z"/>
			<path d="M69.84,82.67v1.69c0,0.51-0.1,0.88-0.31,1.1c-0.21,0.22-0.54,0.33-0.98,0.33c-0.94,0-1.42-0.47-1.42-1.41v-1.87
				l-0.41-0.17l0.03-0.12h1.27l0.01,0.12l-0.27,0.12c-0.06,0.03-0.11,0.05-0.13,0.08c-0.02,0.03-0.04,0.07-0.04,0.12v1.68
				c0,0.35,0.08,0.62,0.25,0.81c0.17,0.19,0.4,0.29,0.68,0.29s0.52-0.04,0.69-0.13c0.18-0.19,0.27-0.51,0.27-0.94v-1.85l-0.47-0.19
				l0.03-0.12h1.17l0.03,0.12l-0.24,0.1C69.9,82.48,69.84,82.56,69.84,82.67z"/>
			<path d="M72.08,84.26c-0.08,0-0.2,0-0.37-0.01v1.16l0.52,0.21l-0.03,0.12h-1.38l-0.03-0.12l0.3-0.12
				c0.07-0.02,0.11-0.05,0.13-0.08s0.04-0.07,0.04-0.12v-2.77l-0.47-0.19l0.03-0.12c0.57-0.03,0.98-0.04,1.2-0.04
				c0.47,0,0.83,0.08,1.05,0.25s0.34,0.43,0.34,0.78C73.42,83.91,72.97,84.26,72.08,84.26z M72.11,82.47h-0.25
				c-0.1,0-0.15,0.05-0.15,0.14v1.34c0.09,0.01,0.2,0.02,0.33,0.02c0.25,0,0.48-0.04,0.68-0.12c0.13-0.1,0.19-0.29,0.19-0.56
				C72.91,82.75,72.65,82.47,72.11,82.47z"/>
		</g>
		<g>
			
				<linearGradient id="SVGID_23_" gradientUnits="userSpaceOnUse" x1="568.8856" y1="218.1281" x2="612.282" y2="218.1281" gradientTransform="matrix(1 0 0 1 -538.8632 -134.1474)">
				<stop  offset="0" style="stop-color:#00A0E3"/>
				<stop  offset="0.333" style="stop-color:#0085C6"/>
				<stop  offset="0.9312" style="stop-color:#004B89"/>
			</linearGradient>
			<path style="fill:url(#SVGID_23_);" d="M33.93,82.67l0.12,2.77l0.47,0.19l-0.03,0.12H33.2l-0.03-0.12l0.24-0.12
				c0.12-0.05,0.17-0.12,0.17-0.21l-0.12-2.66l-1.04,3l-0.34,0.11l-0.1-0.05l-1.01-3.05l-0.15,2.79l0.41,0.19l-0.03,0.12h-1.14
				l-0.03-0.12l0.3-0.12c0.09-0.04,0.14-0.08,0.16-0.12c0-0.02,0.01-0.05,0.01-0.09l0.14-2.77l-0.47-0.19l0.03-0.12h1.1l0.07,0.05
				l0.92,2.83l0.96-2.88h1.13l0.03,0.12l-0.3,0.12C33.98,82.51,33.92,82.58,33.93,82.67z"/>
			
				<linearGradient id="SVGID_24_" gradientUnits="userSpaceOnUse" x1="568.8856" y1="218.1281" x2="612.282" y2="218.1281" gradientTransform="matrix(1 0 0 1 -538.8632 -134.1474)">
				<stop  offset="0" style="stop-color:#00A0E3"/>
				<stop  offset="0.333" style="stop-color:#0085C6"/>
				<stop  offset="0.9312" style="stop-color:#004B89"/>
			</linearGradient>
			<path style="fill:url(#SVGID_24_);" d="M35.98,82.66v1.17c0.34,0,0.69-0.02,1.05-0.05l0.17-0.02l0.06,0.06l-0.06,0.3
				c-0.43-0.02-0.84-0.04-1.22-0.04v1.36l1.18-0.02l0.26-0.48L37.58,85v0.74h-2.49l-0.03-0.12l0.3-0.12
				c0.07-0.02,0.11-0.05,0.13-0.08s0.04-0.07,0.04-0.12v-2.77l-0.47-0.19l0.03-0.12h2.47v0.74L37.39,83l-0.26-0.48l-1-0.02
				C36.02,82.5,35.98,82.55,35.98,82.66z"/>
			
				<linearGradient id="SVGID_25_" gradientUnits="userSpaceOnUse" x1="568.8856" y1="218.1281" x2="612.282" y2="218.1281" gradientTransform="matrix(1 0 0 1 -538.8632 -134.1474)">
				<stop  offset="0" style="stop-color:#00A0E3"/>
				<stop  offset="0.333" style="stop-color:#0085C6"/>
				<stop  offset="0.9312" style="stop-color:#004B89"/>
			</linearGradient>
			<path style="fill:url(#SVGID_25_);" d="M38.69,85.29v-2.77l-0.47-0.19l0.03-0.12c0.82-0.03,1.33-0.04,1.54-0.04
				c1.21,0,1.81,0.62,1.81,1.85c0,0.64-0.17,1.1-0.51,1.36c-0.34,0.26-0.88,0.4-1.62,0.4c-0.09,0-0.5-0.01-1.22-0.04l-0.03-0.12
				l0.3-0.12c0.07-0.02,0.11-0.05,0.13-0.08S38.69,85.35,38.69,85.29z M39.87,82.47h-0.58c-0.1,0-0.15,0.05-0.15,0.14v2.85
				c0.14,0.01,0.32,0.02,0.54,0.02c0.48,0,0.83-0.08,1.07-0.23c0.22-0.27,0.34-0.66,0.34-1.16c0-0.5-0.1-0.89-0.31-1.18
				C40.58,82.62,40.27,82.47,39.87,82.47z"/>
			
				<linearGradient id="SVGID_26_" gradientUnits="userSpaceOnUse" x1="568.8856" y1="218.1281" x2="612.282" y2="218.1281" gradientTransform="matrix(1 0 0 1 -538.8632 -134.1474)">
				<stop  offset="0" style="stop-color:#00A0E3"/>
				<stop  offset="0.333" style="stop-color:#0085C6"/>
				<stop  offset="0.9312" style="stop-color:#004B89"/>
			</linearGradient>
			<path style="fill:url(#SVGID_26_);" d="M43.14,82.67v2.77l0.47,0.19l-0.03,0.12h-1.33l-0.03-0.12l0.3-0.12
				c0.07-0.02,0.11-0.05,0.13-0.08s0.04-0.07,0.04-0.12v-2.77l-0.47-0.19l0.03-0.12h1.33l0.03,0.12l-0.3,0.12
				c-0.07,0.03-0.11,0.05-0.13,0.08C43.15,82.57,43.14,82.61,43.14,82.67z"/>
			
				<linearGradient id="SVGID_27_" gradientUnits="userSpaceOnUse" x1="568.8856" y1="218.1281" x2="612.282" y2="218.1281" gradientTransform="matrix(1 0 0 1 -538.8632 -134.1474)">
				<stop  offset="0" style="stop-color:#00A0E3"/>
				<stop  offset="0.333" style="stop-color:#0085C6"/>
				<stop  offset="0.9312" style="stop-color:#004B89"/>
			</linearGradient>
			<path style="fill:url(#SVGID_27_);" d="M45.85,85.79c-0.48,0-0.88-0.16-1.18-0.47s-0.46-0.76-0.46-1.33
				c0-0.57,0.17-1.02,0.5-1.33c0.34-0.32,0.74-0.48,1.21-0.48c0.34,0,0.6,0.07,0.78,0.22c0.13,0.1,0.22,0.19,0.27,0.27l-0.35,0.49
				l-0.13-0.04l-0.03-0.51c-0.17-0.06-0.38-0.09-0.63-0.09s-0.47,0.04-0.65,0.12c-0.33,0.3-0.49,0.73-0.49,1.29
				c0,0.49,0.13,0.86,0.38,1.12c0.25,0.26,0.57,0.39,0.96,0.39c0.29,0,0.59-0.08,0.91-0.23l0.08,0.16
				c-0.09,0.09-0.24,0.19-0.45,0.28C46.36,85.74,46.12,85.79,45.85,85.79z"/>
			
				<linearGradient id="SVGID_29_" gradientUnits="userSpaceOnUse" x1="568.8856" y1="218.1281" x2="612.282" y2="218.1281" gradientTransform="matrix(1 0 0 1 -538.8632 -134.1474)">
				<stop  offset="0" style="stop-color:#00A0E3"/>
				<stop  offset="0.333" style="stop-color:#0085C6"/>
				<stop  offset="0.9312" style="stop-color:#004B89"/>
			</linearGradient>
			<path style="fill:url(#SVGID_29_);" d="M49.9,85.36c0-0.02-0.01-0.05-0.02-0.07l-0.24-0.69h-1.26l-0.29,0.83l0.47,0.19
				l-0.03,0.12h-1.2l-0.03-0.12l0.3-0.12c0.06-0.02,0.1-0.05,0.12-0.07s0.04-0.07,0.06-0.14l1.08-3.02l0.33-0.1l0.11,0.04l1.17,3.23
				l0.42,0.17l-0.03,0.12h-1.33l-0.03-0.12l0.3-0.12C49.87,85.47,49.9,85.42,49.9,85.36z M49.01,82.8l-0.53,1.52h1.07L49.01,82.8z"
				/>
			
				<linearGradient id="SVGID_30_" gradientUnits="userSpaceOnUse" x1="568.8856" y1="218.1281" x2="612.282" y2="218.1281" gradientTransform="matrix(1 0 0 1 -538.8632 -134.1474)">
				<stop  offset="0" style="stop-color:#00A0E3"/>
				<stop  offset="0.333" style="stop-color:#0085C6"/>
				<stop  offset="0.9312" style="stop-color:#004B89"/>
			</linearGradient>
			<path style="fill:url(#SVGID_30_);" d="M52.15,82.67v2.79l1.2-0.02l0.26-0.48L53.78,85v0.74h-2.52l-0.03-0.12l0.3-0.12
				c0.07-0.02,0.11-0.05,0.13-0.08s0.04-0.07,0.04-0.12v-2.77l-0.47-0.19l0.03-0.12h1.33l0.03,0.12l-0.3,0.12
				c-0.07,0.03-0.11,0.05-0.13,0.08C52.16,82.57,52.15,82.61,52.15,82.67z"/>
			
				<linearGradient id="SVGID_31_" gradientUnits="userSpaceOnUse" x1="568.8856" y1="218.1281" x2="612.282" y2="218.1281" gradientTransform="matrix(1 0 0 1 -538.8632 -134.1474)">
				<stop  offset="0" style="stop-color:#00A0E3"/>
				<stop  offset="0.333" style="stop-color:#0085C6"/>
				<stop  offset="0.9312" style="stop-color:#004B89"/>
			</linearGradient>
			<path style="fill:url(#SVGID_31_);" d="M58.46,84.66v0.79c-0.32,0.23-0.72,0.34-1.19,0.34c-0.47,0-0.87-0.15-1.19-0.46
				c-0.32-0.31-0.48-0.74-0.48-1.31c0-0.31,0.05-0.59,0.16-0.83c0.1-0.24,0.25-0.44,0.42-0.58c0.36-0.29,0.78-0.43,1.27-0.43
				s0.84,0.16,1.05,0.49l-0.35,0.49l-0.13-0.04l-0.03-0.51c-0.17-0.06-0.39-0.09-0.67-0.09c-0.28,0-0.51,0.04-0.69,0.12
				c-0.37,0.33-0.56,0.75-0.56,1.27s0.13,0.9,0.4,1.16c0.27,0.25,0.61,0.38,1.04,0.38c0.11,0,0.21-0.01,0.3-0.02
				c0.13-0.03,0.2-0.09,0.2-0.2v-0.7l-0.47-0.17l0.03-0.12h1.21l0.04,0.14l-0.21,0.08c-0.06,0.03-0.11,0.05-0.13,0.08
				S58.46,84.6,58.46,84.66z"/>
			
				<linearGradient id="SVGID_32_" gradientUnits="userSpaceOnUse" x1="568.8856" y1="218.1281" x2="612.282" y2="218.1281" gradientTransform="matrix(1 0 0 1 -538.8632 -134.1474)">
				<stop  offset="0" style="stop-color:#00A0E3"/>
				<stop  offset="0.333" style="stop-color:#0085C6"/>
				<stop  offset="0.9312" style="stop-color:#004B89"/>
			</linearGradient>
			<path style="fill:url(#SVGID_32_);" d="M60.59,84.21h-0.31v1.22l0.45,0.19l-0.03,0.12h-1.31l-0.03-0.12l0.3-0.12
				c0.07-0.02,0.11-0.05,0.13-0.08s0.04-0.07,0.04-0.12v-2.77l-0.47-0.19l0.03-0.12c0.6-0.03,1-0.04,1.23-0.04
				c0.94,0,1.4,0.34,1.4,1.01c0,0.53-0.29,0.86-0.86,0.99c0.04,0.04,0.08,0.09,0.11,0.16c0.25,0.5,0.43,0.83,0.55,0.98
				c0.12,0.15,0.3,0.25,0.55,0.3l-0.04,0.14l-0.61,0.04c-0.2-0.16-0.34-0.32-0.44-0.47s-0.26-0.47-0.49-0.95
				C60.73,84.26,60.67,84.21,60.59,84.21z M60.27,82.61v1.33h0.35c0.27,0,0.48-0.03,0.63-0.09c0.08-0.06,0.14-0.13,0.18-0.2
				s0.06-0.19,0.06-0.34c0-0.23-0.06-0.43-0.19-0.59c-0.12-0.16-0.33-0.24-0.62-0.24h-0.28C60.32,82.47,60.27,82.52,60.27,82.61z"/>
			
				<linearGradient id="SVGID_33_" gradientUnits="userSpaceOnUse" x1="568.8856" y1="218.1281" x2="612.282" y2="218.1281" gradientTransform="matrix(1 0 0 1 -538.8632 -134.1474)">
				<stop  offset="0" style="stop-color:#00A0E3"/>
				<stop  offset="0.333" style="stop-color:#0085C6"/>
				<stop  offset="0.9312" style="stop-color:#004B89"/>
			</linearGradient>
			<path style="fill:url(#SVGID_33_);" d="M62.84,84.01c0-0.3,0.05-0.57,0.14-0.81c0.09-0.24,0.22-0.43,0.38-0.57
				c0.33-0.3,0.73-0.44,1.2-0.44c0.47,0,0.85,0.16,1.15,0.48c0.3,0.32,0.45,0.76,0.45,1.31c0,0.3-0.05,0.57-0.14,0.81
				c-0.09,0.24-0.22,0.43-0.39,0.57c-0.33,0.29-0.72,0.44-1.19,0.44c-0.47,0-0.85-0.16-1.16-0.47C62.99,85,62.84,84.56,62.84,84.01z
				 M63.68,82.72c-0.22,0.31-0.34,0.7-0.34,1.19s0.1,0.86,0.31,1.13c0.2,0.27,0.5,0.41,0.89,0.41c0.32,0,0.58-0.07,0.79-0.2
				c0.22-0.27,0.34-0.66,0.34-1.16s-0.1-0.89-0.31-1.16c-0.2-0.27-0.5-0.41-0.88-0.41C64.16,82.52,63.89,82.59,63.68,82.72z"/>
			
				<linearGradient id="SVGID_35_" gradientUnits="userSpaceOnUse" x1="568.8856" y1="218.1281" x2="612.282" y2="218.1281" gradientTransform="matrix(1 0 0 1 -538.8632 -134.1474)">
				<stop  offset="0" style="stop-color:#00A0E3"/>
				<stop  offset="0.333" style="stop-color:#0085C6"/>
				<stop  offset="0.9312" style="stop-color:#004B89"/>
			</linearGradient>
			<path style="fill:url(#SVGID_35_);" d="M69.84,82.67v1.69c0,0.51-0.1,0.88-0.31,1.1c-0.21,0.22-0.54,0.33-0.98,0.33
				c-0.94,0-1.42-0.47-1.42-1.41v-1.87l-0.41-0.17l0.03-0.12h1.27l0.01,0.12l-0.27,0.12c-0.06,0.03-0.11,0.05-0.13,0.08
				c-0.02,0.03-0.04,0.07-0.04,0.12v1.68c0,0.35,0.08,0.62,0.25,0.81c0.17,0.19,0.4,0.29,0.68,0.29s0.52-0.04,0.69-0.13
				c0.18-0.19,0.27-0.51,0.27-0.94v-1.85l-0.47-0.19l0.03-0.12h1.17l0.03,0.12l-0.24,0.1C69.9,82.48,69.84,82.56,69.84,82.67z"/>
			
				<linearGradient id="SVGID_36_" gradientUnits="userSpaceOnUse" x1="568.8856" y1="218.1281" x2="612.282" y2="218.1281" gradientTransform="matrix(1 0 0 1 -538.8632 -134.1474)">
				<stop  offset="0" style="stop-color:#00A0E3"/>
				<stop  offset="0.333" style="stop-color:#0085C6"/>
				<stop  offset="0.9312" style="stop-color:#004B89"/>
			</linearGradient>
			<path style="fill:url(#SVGID_36_);" d="M72.08,84.26c-0.08,0-0.2,0-0.37-0.01v1.16l0.52,0.21l-0.03,0.12h-1.38l-0.03-0.12
				l0.3-0.12c0.07-0.02,0.11-0.05,0.13-0.08s0.04-0.07,0.04-0.12v-2.77l-0.47-0.19l0.03-0.12c0.57-0.03,0.98-0.04,1.2-0.04
				c0.47,0,0.83,0.08,1.05,0.25s0.34,0.43,0.34,0.78C73.42,83.91,72.97,84.26,72.08,84.26z M72.11,82.47h-0.25
				c-0.1,0-0.15,0.05-0.15,0.14v1.34c0.09,0.01,0.2,0.02,0.33,0.02c0.25,0,0.48-0.04,0.68-0.12c0.13-0.1,0.19-0.29,0.19-0.56
				C72.91,82.75,72.65,82.47,72.11,82.47z"/>
		</g>
	</g>
</g>
</svg>
