<?xml version="1.0" encoding="utf-8"?>
<!-- Generator: Adobe Illustrator 24.3.0, SVG Export Plug-In . SVG Version: 6.00 Build 0)  -->
<svg version="1.1" id="Layer_1" xmlns="http://www.w3.org/2000/svg" xmlns:xlink="http://www.w3.org/1999/xlink" x="0px" y="0px"
	 viewBox="0 0 100 100" style="enable-background:new 0 0 100 100;" xml:space="preserve">
<style type="text/css">
	.st0{fill:#FFFFFF;}
	.st1{fill:#888888;}
	.st2{fill:url(#SVGID_1_);}
	.st3{fill:url(#SVGID_2_);}
	.st4{fill:url(#SVGID_3_);}
	.st5{fill:url(#SVGID_4_);}
	.st6{fill:#929292;}
	.st7{fill:url(#SVGID_5_);}
	.st8{fill:url(#SVGID_6_);}
	.st9{fill:url(#SVGID_7_);}
	.st10{fill:url(#SVGID_8_);}
	.st11{fill:url(#SVGID_9_);}
	.st12{enable-background:new    ;}
	.st13{clip-path:url(#SVGID_13_);}
	.st14{fill:#8C8C8C;}
	.st15{fill-rule:evenodd;clip-rule:evenodd;fill:#888888;}
	.st16{clip-path:url(#SVGID_16_);fill:url(#SVGID_17_);stroke:url(#SVGID_18_);stroke-width:0.25;stroke-miterlimit:10;}
	.st17{clip-path:url(#SVGID_22_);fill:url(#SVGID_23_);stroke:url(#SVGID_24_);stroke-width:0.25;stroke-miterlimit:10;}
	.st18{clip-path:url(#SVGID_22_);fill:url(#SVGID_25_);stroke:url(#SVGID_26_);stroke-width:0.25;stroke-miterlimit:10;}
	.st19{clip-path:url(#SVGID_30_);fill:url(#SVGID_31_);stroke:url(#SVGID_32_);stroke-width:0.25;stroke-miterlimit:10;}
	.st20{clip-path:url(#SVGID_36_);fill:url(#SVGID_37_);stroke:url(#SVGID_38_);stroke-width:0.25;stroke-miterlimit:10;}
	.st21{clip-path:url(#SVGID_36_);fill:url(#SVGID_39_);stroke:url(#SVGID_40_);stroke-width:0.25;stroke-miterlimit:10;}
	.st22{clip-path:url(#SVGID_44_);fill:url(#SVGID_45_);stroke:url(#SVGID_46_);stroke-width:0.25;stroke-miterlimit:10;}
	.st23{clip-path:url(#SVGID_50_);fill:url(#SVGID_51_);stroke:url(#SVGID_52_);stroke-width:0.25;stroke-miterlimit:10;}
	.st24{clip-path:url(#SVGID_50_);fill:url(#SVGID_53_);stroke:url(#SVGID_54_);stroke-width:0.25;stroke-miterlimit:10;}
	.st25{clip-path:url(#SVGID_58_);fill:url(#SVGID_59_);stroke:url(#SVGID_60_);stroke-width:0.25;stroke-miterlimit:10;}
	.st26{clip-path:url(#SVGID_64_);fill:url(#SVGID_65_);stroke:url(#SVGID_66_);stroke-width:0.25;stroke-miterlimit:10;}
	.st27{clip-path:url(#SVGID_64_);fill:url(#SVGID_67_);stroke:url(#SVGID_68_);stroke-width:0.25;stroke-miterlimit:10;}
	.st28{clip-path:url(#SVGID_72_);fill:url(#SVGID_73_);stroke:url(#SVGID_74_);stroke-width:0.25;stroke-miterlimit:10;}
	.st29{clip-path:url(#SVGID_78_);fill:url(#SVGID_79_);stroke:url(#SVGID_80_);stroke-width:0.25;stroke-miterlimit:10;}
	.st30{clip-path:url(#SVGID_78_);fill:url(#SVGID_81_);stroke:url(#SVGID_82_);stroke-width:0.25;stroke-miterlimit:10;}
	.st31{clip-path:url(#SVGID_86_);fill:url(#SVGID_87_);stroke:url(#SVGID_88_);stroke-width:0.25;stroke-miterlimit:10;}
	.st32{clip-path:url(#SVGID_92_);fill:url(#SVGID_93_);stroke:url(#SVGID_94_);stroke-width:0.25;stroke-miterlimit:10;}
	.st33{clip-path:url(#SVGID_92_);fill:url(#SVGID_95_);stroke:url(#SVGID_96_);stroke-width:0.25;stroke-miterlimit:10;}
	.st34{clip-path:url(#SVGID_100_);fill:url(#SVGID_101_);stroke:url(#SVGID_102_);stroke-width:0.25;stroke-miterlimit:10;}
	.st35{clip-path:url(#SVGID_106_);fill:url(#SVGID_107_);stroke:url(#SVGID_108_);stroke-width:0.25;stroke-miterlimit:10;}
	.st36{clip-path:url(#SVGID_106_);fill:url(#SVGID_109_);stroke:url(#SVGID_110_);stroke-width:0.25;stroke-miterlimit:10;}
	.st37{clip-path:url(#SVGID_114_);fill:url(#SVGID_115_);stroke:url(#SVGID_116_);stroke-width:0.25;stroke-miterlimit:10;}
	.st38{clip-path:url(#SVGID_120_);fill:url(#SVGID_121_);stroke:url(#SVGID_122_);stroke-width:0.25;stroke-miterlimit:10;}
	.st39{clip-path:url(#SVGID_120_);fill:url(#SVGID_123_);stroke:url(#SVGID_124_);stroke-width:0.25;stroke-miterlimit:10;}
	.st40{clip-path:url(#SVGID_128_);fill:url(#SVGID_129_);stroke:url(#SVGID_130_);stroke-width:0.25;stroke-miterlimit:10;}
	.st41{clip-path:url(#SVGID_134_);fill:url(#SVGID_135_);stroke:url(#SVGID_136_);stroke-width:0.25;stroke-miterlimit:10;}
	.st42{clip-path:url(#SVGID_134_);fill:url(#SVGID_137_);stroke:url(#SVGID_138_);stroke-width:0.25;stroke-miterlimit:10;}
	.st43{clip-path:url(#SVGID_142_);fill:url(#SVGID_143_);stroke:url(#SVGID_144_);stroke-width:0.25;stroke-miterlimit:10;}
	.st44{clip-path:url(#SVGID_148_);fill:url(#SVGID_149_);stroke:url(#SVGID_150_);stroke-width:0.25;stroke-miterlimit:10;}
	.st45{clip-path:url(#SVGID_148_);fill:url(#SVGID_151_);stroke:url(#SVGID_152_);stroke-width:0.25;stroke-miterlimit:10;}
	.st46{clip-path:url(#SVGID_156_);fill:url(#SVGID_157_);stroke:url(#SVGID_158_);stroke-width:0.25;stroke-miterlimit:10;}
	.st47{clip-path:url(#SVGID_162_);fill:url(#SVGID_163_);stroke:url(#SVGID_164_);stroke-width:0.25;stroke-miterlimit:10;}
	.st48{clip-path:url(#SVGID_162_);fill:url(#SVGID_165_);stroke:url(#SVGID_166_);stroke-width:0.25;stroke-miterlimit:10;}
	.st49{clip-path:url(#SVGID_170_);fill:url(#SVGID_171_);stroke:url(#SVGID_172_);stroke-width:0.25;stroke-miterlimit:10;}
	.st50{clip-path:url(#SVGID_176_);fill:url(#SVGID_177_);stroke:url(#SVGID_178_);stroke-width:0.25;stroke-miterlimit:10;}
	.st51{clip-path:url(#SVGID_176_);fill:url(#SVGID_179_);stroke:url(#SVGID_180_);stroke-width:0.25;stroke-miterlimit:10;}
	.st52{clip-path:url(#SVGID_184_);fill:url(#SVGID_185_);stroke:url(#SVGID_186_);stroke-width:0.25;stroke-miterlimit:10;}
	.st53{clip-path:url(#SVGID_190_);fill:url(#SVGID_191_);stroke:url(#SVGID_192_);stroke-width:0.25;stroke-miterlimit:10;}
	.st54{clip-path:url(#SVGID_190_);fill:url(#SVGID_193_);stroke:url(#SVGID_194_);stroke-width:0.25;stroke-miterlimit:10;}
	.st55{clip-path:url(#SVGID_198_);fill:url(#SVGID_199_);stroke:url(#SVGID_200_);stroke-width:0.25;stroke-miterlimit:10;}
	.st56{clip-path:url(#SVGID_204_);fill:url(#SVGID_205_);stroke:url(#SVGID_206_);stroke-width:0.25;stroke-miterlimit:10;}
	.st57{clip-path:url(#SVGID_204_);fill:url(#SVGID_207_);stroke:url(#SVGID_208_);stroke-width:0.25;stroke-miterlimit:10;}
	.st58{clip-path:url(#SVGID_212_);fill:url(#SVGID_213_);stroke:url(#SVGID_214_);stroke-width:0.25;stroke-miterlimit:10;}
	.st59{clip-path:url(#SVGID_218_);fill:url(#SVGID_219_);stroke:url(#SVGID_220_);stroke-width:0.25;stroke-miterlimit:10;}
	.st60{clip-path:url(#SVGID_218_);fill:url(#SVGID_221_);stroke:url(#SVGID_222_);stroke-width:0.25;stroke-miterlimit:10;}
	.st61{clip-path:url(#SVGID_226_);fill:url(#SVGID_227_);stroke:url(#SVGID_228_);stroke-width:0.25;stroke-miterlimit:10;}
	.st62{clip-path:url(#SVGID_232_);fill:url(#SVGID_233_);stroke:url(#SVGID_234_);stroke-width:0.25;stroke-miterlimit:10;}
	.st63{clip-path:url(#SVGID_232_);fill:url(#SVGID_235_);stroke:url(#SVGID_236_);stroke-width:0.25;stroke-miterlimit:10;}
	.st64{clip-path:url(#SVGID_240_);fill:url(#SVGID_241_);stroke:url(#SVGID_242_);stroke-width:0.25;stroke-miterlimit:10;}
	.st65{clip-path:url(#SVGID_246_);fill:url(#SVGID_247_);stroke:url(#SVGID_248_);stroke-width:0.25;stroke-miterlimit:10;}
	.st66{clip-path:url(#SVGID_246_);fill:url(#SVGID_249_);stroke:url(#SVGID_250_);stroke-width:0.25;stroke-miterlimit:10;}
	.st67{clip-path:url(#SVGID_254_);fill:url(#SVGID_255_);stroke:url(#SVGID_256_);stroke-width:0.25;stroke-miterlimit:10;}
	.st68{clip-path:url(#SVGID_260_);fill:url(#SVGID_261_);stroke:url(#SVGID_262_);stroke-width:0.25;stroke-miterlimit:10;}
	.st69{clip-path:url(#SVGID_260_);fill:url(#SVGID_263_);stroke:url(#SVGID_264_);stroke-width:0.25;stroke-miterlimit:10;}
	.st70{fill:#595959;}
	.st71{clip-path:url(#SVGID_267_);fill:#595959;stroke:#595959;stroke-width:0.175;stroke-miterlimit:10;}
	.st72{clip-path:url(#SVGID_269_);fill:#595959;stroke:#595959;stroke-width:0.175;stroke-miterlimit:10;}
	.st73{clip-path:url(#SVGID_271_);fill:#595959;stroke:#595959;stroke-width:0.175;stroke-miterlimit:10;}
	.st74{clip-path:url(#SVGID_273_);fill:#595959;stroke:#595959;stroke-width:0.175;stroke-miterlimit:10;}
	.st75{clip-path:url(#SVGID_275_);fill:#595959;stroke:#595959;stroke-width:0.175;stroke-miterlimit:10;}
	.st76{clip-path:url(#SVGID_277_);fill:#595959;stroke:#595959;stroke-width:0.175;stroke-miterlimit:10;}
	.st77{clip-path:url(#SVGID_279_);fill:#595959;stroke:#595959;stroke-width:0.175;stroke-miterlimit:10;}
	.st78{clip-path:url(#SVGID_281_);fill:#595959;stroke:#595959;stroke-width:0.175;stroke-miterlimit:10;}
	.st79{clip-path:url(#SVGID_283_);fill:#595959;stroke:#595959;stroke-width:0.175;stroke-miterlimit:10;}
	.st80{clip-path:url(#SVGID_285_);fill:#595959;stroke:#595959;stroke-width:0.175;stroke-miterlimit:10;}
	.st81{clip-path:url(#SVGID_287_);fill:#595959;stroke:#595959;stroke-width:0.175;stroke-miterlimit:10;}
	.st82{clip-path:url(#SVGID_289_);fill:#595959;stroke:#595959;stroke-width:0.175;stroke-miterlimit:10;}
	.st83{clip-path:url(#SVGID_291_);fill:#595959;stroke:#595959;stroke-width:0.175;stroke-miterlimit:10;}
	.st84{clip-path:url(#SVGID_293_);fill:#595959;stroke:#595959;stroke-width:0.175;stroke-miterlimit:10;}
	.st85{clip-path:url(#SVGID_295_);fill:#595959;stroke:#595959;stroke-width:0.175;stroke-miterlimit:10;}
	.st86{clip-path:url(#SVGID_297_);fill:#595959;stroke:#595959;stroke-width:0.175;stroke-miterlimit:10;}
	.st87{fill:url(#SVGID_298_);}
	.st88{fill:url(#SVGID_299_);}
	.st89{fill:url(#SVGID_300_);}
	.st90{fill:url(#SVGID_301_);}
	.st91{fill:url(#SVGID_302_);}
	.st92{fill:url(#SVGID_303_);}
	.st93{fill:url(#SVGID_304_);}
	.st94{fill:url(#SVGID_305_);}
	.st95{fill:url(#SVGID_306_);}
	.st96{clip-path:url(#SVGID_310_);}
	.st97{clip-path:url(#SVGID_313_);fill:url(#SVGID_314_);stroke:url(#SVGID_315_);stroke-width:0.25;stroke-miterlimit:10;}
	.st98{clip-path:url(#SVGID_319_);fill:url(#SVGID_320_);stroke:url(#SVGID_321_);stroke-width:0.25;stroke-miterlimit:10;}
	.st99{clip-path:url(#SVGID_319_);fill:url(#SVGID_322_);stroke:url(#SVGID_323_);stroke-width:0.25;stroke-miterlimit:10;}
	.st100{clip-path:url(#SVGID_327_);fill:url(#SVGID_328_);stroke:url(#SVGID_329_);stroke-width:0.25;stroke-miterlimit:10;}
	.st101{clip-path:url(#SVGID_333_);fill:url(#SVGID_334_);stroke:url(#SVGID_335_);stroke-width:0.25;stroke-miterlimit:10;}
	.st102{clip-path:url(#SVGID_333_);fill:url(#SVGID_336_);stroke:url(#SVGID_337_);stroke-width:0.25;stroke-miterlimit:10;}
	.st103{clip-path:url(#SVGID_341_);fill:url(#SVGID_342_);stroke:url(#SVGID_343_);stroke-width:0.25;stroke-miterlimit:10;}
	.st104{clip-path:url(#SVGID_347_);fill:url(#SVGID_348_);stroke:url(#SVGID_349_);stroke-width:0.25;stroke-miterlimit:10;}
	.st105{clip-path:url(#SVGID_347_);fill:url(#SVGID_350_);stroke:url(#SVGID_351_);stroke-width:0.25;stroke-miterlimit:10;}
	.st106{clip-path:url(#SVGID_355_);fill:url(#SVGID_356_);stroke:url(#SVGID_357_);stroke-width:0.25;stroke-miterlimit:10;}
	.st107{clip-path:url(#SVGID_361_);fill:url(#SVGID_362_);stroke:url(#SVGID_363_);stroke-width:0.25;stroke-miterlimit:10;}
	.st108{clip-path:url(#SVGID_361_);fill:url(#SVGID_364_);stroke:url(#SVGID_365_);stroke-width:0.25;stroke-miterlimit:10;}
	.st109{clip-path:url(#SVGID_369_);fill:url(#SVGID_370_);stroke:url(#SVGID_371_);stroke-width:0.25;stroke-miterlimit:10;}
	.st110{clip-path:url(#SVGID_375_);fill:url(#SVGID_376_);stroke:url(#SVGID_377_);stroke-width:0.25;stroke-miterlimit:10;}
	.st111{clip-path:url(#SVGID_375_);fill:url(#SVGID_378_);stroke:url(#SVGID_379_);stroke-width:0.25;stroke-miterlimit:10;}
	.st112{clip-path:url(#SVGID_383_);fill:url(#SVGID_384_);stroke:url(#SVGID_385_);stroke-width:0.25;stroke-miterlimit:10;}
	.st113{clip-path:url(#SVGID_389_);fill:url(#SVGID_390_);stroke:url(#SVGID_391_);stroke-width:0.25;stroke-miterlimit:10;}
	.st114{clip-path:url(#SVGID_389_);fill:url(#SVGID_392_);stroke:url(#SVGID_393_);stroke-width:0.25;stroke-miterlimit:10;}
	.st115{clip-path:url(#SVGID_397_);fill:url(#SVGID_398_);stroke:url(#SVGID_399_);stroke-width:0.25;stroke-miterlimit:10;}
	.st116{clip-path:url(#SVGID_403_);fill:url(#SVGID_404_);stroke:url(#SVGID_405_);stroke-width:0.25;stroke-miterlimit:10;}
	.st117{clip-path:url(#SVGID_403_);fill:url(#SVGID_406_);stroke:url(#SVGID_407_);stroke-width:0.25;stroke-miterlimit:10;}
	.st118{clip-path:url(#SVGID_411_);fill:url(#SVGID_412_);stroke:url(#SVGID_413_);stroke-width:0.25;stroke-miterlimit:10;}
	.st119{clip-path:url(#SVGID_417_);fill:url(#SVGID_418_);stroke:url(#SVGID_419_);stroke-width:0.25;stroke-miterlimit:10;}
	.st120{clip-path:url(#SVGID_417_);fill:url(#SVGID_420_);stroke:url(#SVGID_421_);stroke-width:0.25;stroke-miterlimit:10;}
	.st121{clip-path:url(#SVGID_425_);fill:url(#SVGID_426_);stroke:url(#SVGID_427_);stroke-width:0.25;stroke-miterlimit:10;}
	.st122{clip-path:url(#SVGID_431_);fill:url(#SVGID_432_);stroke:url(#SVGID_433_);stroke-width:0.25;stroke-miterlimit:10;}
	.st123{clip-path:url(#SVGID_431_);fill:url(#SVGID_434_);stroke:url(#SVGID_435_);stroke-width:0.25;stroke-miterlimit:10;}
	.st124{clip-path:url(#SVGID_439_);fill:url(#SVGID_440_);stroke:url(#SVGID_441_);stroke-width:0.25;stroke-miterlimit:10;}
	.st125{clip-path:url(#SVGID_445_);fill:url(#SVGID_446_);stroke:url(#SVGID_447_);stroke-width:0.25;stroke-miterlimit:10;}
	.st126{clip-path:url(#SVGID_445_);fill:url(#SVGID_448_);stroke:url(#SVGID_449_);stroke-width:0.25;stroke-miterlimit:10;}
	.st127{clip-path:url(#SVGID_453_);fill:url(#SVGID_454_);stroke:url(#SVGID_455_);stroke-width:0.25;stroke-miterlimit:10;}
	.st128{clip-path:url(#SVGID_459_);fill:url(#SVGID_460_);stroke:url(#SVGID_461_);stroke-width:0.25;stroke-miterlimit:10;}
	.st129{clip-path:url(#SVGID_459_);fill:url(#SVGID_462_);stroke:url(#SVGID_463_);stroke-width:0.25;stroke-miterlimit:10;}
	.st130{clip-path:url(#SVGID_467_);fill:url(#SVGID_468_);stroke:url(#SVGID_469_);stroke-width:0.25;stroke-miterlimit:10;}
	.st131{clip-path:url(#SVGID_473_);fill:url(#SVGID_474_);stroke:url(#SVGID_475_);stroke-width:0.25;stroke-miterlimit:10;}
	.st132{clip-path:url(#SVGID_473_);fill:url(#SVGID_476_);stroke:url(#SVGID_477_);stroke-width:0.25;stroke-miterlimit:10;}
	.st133{clip-path:url(#SVGID_481_);fill:url(#SVGID_482_);stroke:url(#SVGID_483_);stroke-width:0.25;stroke-miterlimit:10;}
	.st134{clip-path:url(#SVGID_487_);fill:url(#SVGID_488_);stroke:url(#SVGID_489_);stroke-width:0.25;stroke-miterlimit:10;}
	.st135{clip-path:url(#SVGID_487_);fill:url(#SVGID_490_);stroke:url(#SVGID_491_);stroke-width:0.25;stroke-miterlimit:10;}
	.st136{clip-path:url(#SVGID_495_);fill:url(#SVGID_496_);stroke:url(#SVGID_497_);stroke-width:0.25;stroke-miterlimit:10;}
	.st137{clip-path:url(#SVGID_501_);fill:url(#SVGID_502_);stroke:url(#SVGID_503_);stroke-width:0.25;stroke-miterlimit:10;}
	.st138{clip-path:url(#SVGID_501_);fill:url(#SVGID_504_);stroke:url(#SVGID_505_);stroke-width:0.25;stroke-miterlimit:10;}
	.st139{clip-path:url(#SVGID_509_);fill:url(#SVGID_510_);stroke:url(#SVGID_511_);stroke-width:0.25;stroke-miterlimit:10;}
	.st140{clip-path:url(#SVGID_515_);fill:url(#SVGID_516_);stroke:url(#SVGID_517_);stroke-width:0.25;stroke-miterlimit:10;}
	.st141{clip-path:url(#SVGID_515_);fill:url(#SVGID_518_);stroke:url(#SVGID_519_);stroke-width:0.25;stroke-miterlimit:10;}
	.st142{clip-path:url(#SVGID_523_);fill:url(#SVGID_524_);stroke:url(#SVGID_525_);stroke-width:0.25;stroke-miterlimit:10;}
	.st143{clip-path:url(#SVGID_529_);fill:url(#SVGID_530_);stroke:url(#SVGID_531_);stroke-width:0.25;stroke-miterlimit:10;}
	.st144{clip-path:url(#SVGID_529_);fill:url(#SVGID_532_);stroke:url(#SVGID_533_);stroke-width:0.25;stroke-miterlimit:10;}
	.st145{clip-path:url(#SVGID_537_);fill:url(#SVGID_538_);stroke:url(#SVGID_539_);stroke-width:0.25;stroke-miterlimit:10;}
	.st146{clip-path:url(#SVGID_543_);fill:url(#SVGID_544_);stroke:url(#SVGID_545_);stroke-width:0.25;stroke-miterlimit:10;}
	.st147{clip-path:url(#SVGID_543_);fill:url(#SVGID_546_);stroke:url(#SVGID_547_);stroke-width:0.25;stroke-miterlimit:10;}
	.st148{clip-path:url(#SVGID_551_);fill:url(#SVGID_552_);stroke:url(#SVGID_553_);stroke-width:0.25;stroke-miterlimit:10;}
	.st149{clip-path:url(#SVGID_557_);fill:url(#SVGID_558_);stroke:url(#SVGID_559_);stroke-width:0.25;stroke-miterlimit:10;}
	.st150{clip-path:url(#SVGID_557_);fill:url(#SVGID_560_);stroke:url(#SVGID_561_);stroke-width:0.25;stroke-miterlimit:10;}
	.st151{clip-path:url(#SVGID_564_);fill:#595959;stroke:#595959;stroke-width:0.175;stroke-miterlimit:10;}
	.st152{clip-path:url(#SVGID_566_);fill:#595959;stroke:#595959;stroke-width:0.175;stroke-miterlimit:10;}
	.st153{clip-path:url(#SVGID_568_);fill:#595959;stroke:#595959;stroke-width:0.175;stroke-miterlimit:10;}
	.st154{clip-path:url(#SVGID_570_);fill:#595959;stroke:#595959;stroke-width:0.175;stroke-miterlimit:10;}
	.st155{clip-path:url(#SVGID_572_);fill:#595959;stroke:#595959;stroke-width:0.175;stroke-miterlimit:10;}
	.st156{clip-path:url(#SVGID_574_);fill:#595959;stroke:#595959;stroke-width:0.175;stroke-miterlimit:10;}
	.st157{clip-path:url(#SVGID_576_);fill:#595959;stroke:#595959;stroke-width:0.175;stroke-miterlimit:10;}
	.st158{clip-path:url(#SVGID_578_);fill:#595959;stroke:#595959;stroke-width:0.175;stroke-miterlimit:10;}
	.st159{clip-path:url(#SVGID_580_);fill:#595959;stroke:#595959;stroke-width:0.175;stroke-miterlimit:10;}
	.st160{clip-path:url(#SVGID_582_);fill:#595959;stroke:#595959;stroke-width:0.175;stroke-miterlimit:10;}
	.st161{clip-path:url(#SVGID_584_);fill:#595959;stroke:#595959;stroke-width:0.175;stroke-miterlimit:10;}
	.st162{clip-path:url(#SVGID_586_);fill:#595959;stroke:#595959;stroke-width:0.175;stroke-miterlimit:10;}
	.st163{clip-path:url(#SVGID_588_);fill:#595959;stroke:#595959;stroke-width:0.175;stroke-miterlimit:10;}
	.st164{clip-path:url(#SVGID_590_);fill:#595959;stroke:#595959;stroke-width:0.175;stroke-miterlimit:10;}
	.st165{clip-path:url(#SVGID_592_);fill:#595959;stroke:#595959;stroke-width:0.175;stroke-miterlimit:10;}
	.st166{clip-path:url(#SVGID_594_);fill:#595959;stroke:#595959;stroke-width:0.175;stroke-miterlimit:10;}
	.st167{fill:#474747;}
	.st168{fill:#494949;}
	.st169{fill:#4D4D4D;}
	.st170{fill:#505050;}
	.st171{fill:#535353;}
	.st172{fill:#565656;}
	.st173{fill:#5C5C5C;}
	.st174{fill:#606060;}
	.st175{fill:#636363;}
	.st176{fill:#656565;}
	.st177{fill:#686868;}
	.st178{fill:#6B6B6B;}
	.st179{fill:#6C6C6C;}
	.st180{fill:#6D6D6D;}
	.st181{fill:#6E6E6E;}
	.st182{fill:#727272;}
	.st183{fill:#757575;}
	.st184{fill:#797979;}
	.st185{fill:#7B7B7B;}
	.st186{fill:#7E7E7E;}
	.st187{fill:#838383;}
	.st188{fill:#868686;}
	.st189{fill:#898989;}
	.st190{fill:#8E8E8E;}
	.st191{fill:#919191;}
	.st192{fill:#959595;}
	.st193{fill:#989898;}
	.st194{fill:#9D9D9D;}
	.st195{fill:#A1A1A1;}
	.st196{fill:#A6A6A6;stroke:#A6A6A6;stroke-width:2;}
	.st197{fill:url(#SVGID_595_);}
	.st198{fill:#353535;}
	.st199{fill:#B5B5B5;}
	.st200{opacity:0.15;fill:#A1A1A1;}
	.st201{opacity:0.33;fill:#303030;}
	.st202{opacity:0.39;fill:#494949;}
	.st203{opacity:0.17;fill:#494949;}
	.st204{fill:#323232;}
	.st205{opacity:0.45;fill:#A1A1A1;}
	.st206{fill:#484848;}
	.st207{opacity:0.74;fill:#545454;}
	.st208{opacity:0.68;}
	.st209{fill:#ACACAC;}
	.st210{opacity:0.35;fill:#FFFFFF;}
	.st211{opacity:0.22;fill:#FFFFFF;}
	.st212{opacity:0.69;fill:#9C9C9C;}
	.st213{opacity:0.38;}
	.st214{opacity:0.13;fill:#757575;}
	.st215{opacity:0.73;fill:#545454;}
	.st216{opacity:0.28;fill:#9C9C9C;}
	.st217{opacity:0.67;fill:#FFFFFF;}
	.st218{opacity:0.65;fill:#FFFFFF;}
	.st219{fill:#7D7D7D;}
	.st220{opacity:0.46;fill:#373737;}
	.st221{opacity:0.53;fill:#FFFFFF;}
	.st222{fill:#737373;}
	.st223{fill:#3F3F3F;}
	.st224{opacity:0.46;fill:#CFCFCF;}
	.st225{opacity:0.28;}
	.st226{opacity:0.38;fill:#C4C4C4;}
	.st227{fill:#A6A6A6;}
	.st228{fill:#C4C4C4;}
	.st229{opacity:0.71;fill:#C4C4C4;}
	.st230{fill:#3A3A3A;}
	.st231{fill:#3B3B3B;}
	.st232{fill:#333333;}
	.st233{opacity:0.5;fill:#333333;}
	.st234{opacity:0.68;fill:#979797;}
	.st235{fill:#BBBBBB;}
	.st236{opacity:0.39;fill:#484848;}
	.st237{opacity:0.64;fill:#4E4E4E;}
	.st238{fill:#AEAEAE;}
	.st239{opacity:0.39;fill:#C4C4C4;}
	.st240{opacity:0.18;fill:#C4C4C4;}
	.st241{fill:#BFBFBF;}
	.st242{opacity:0.14;fill:#868686;}
	.st243{opacity:0.29;fill:#868686;}
	.st244{opacity:0.47;fill:#C4C4C4;}
	.st245{opacity:0.28;fill:#484848;}
	.st246{opacity:0.49;fill:#484848;}
	.st247{opacity:0.49;fill:#FFFFFF;}
	.st248{opacity:0.65;fill:#C4C4C4;}
	.st249{opacity:0.3;fill:#B5B5B5;}
	.st250{fill:#C7C7C7;}
	.st251{fill:#DBDBDB;}
	.st252{opacity:0.74;fill:#616161;}
	.st253{opacity:0.74;fill:#9C9C9C;}
	.st254{opacity:0.73;fill:#616161;}
	.st255{fill:#3D3D3D;}
	.st256{clip-path:url(#SVGID_597_);}
	.st257{clip-path:url(#SVGID_599_);}
	.st258{clip-path:url(#SVGID_601_);}
	.st259{clip-path:url(#SVGID_603_);}
	.st260{clip-path:url(#SVGID_605_);}
	.st261{clip-path:url(#SVGID_609_);}
	.st262{clip-path:url(#SVGID_617_);}
	.st263{clip-path:url(#SVGID_619_);}
	.st264{clip-path:url(#SVGID_3147_);}
	.st265{fill:#303030;}
	.st266{clip-path:url(#SVGID_3149_);}
	.st267{clip-path:url(#SVGID_3151_);}
	.st268{clip-path:url(#SVGID_3153_);}
	.st269{clip-path:url(#SVGID_3155_);enable-background:new    ;}
	.st270{clip-path:url(#SVGID_3157_);}
	.st271{clip-path:url(#SVGID_3159_);}
	.st272{clip-path:url(#SVGID_3161_);}
	.st273{clip-path:url(#SVGID_3163_);enable-background:new    ;}
	.st274{clip-path:url(#SVGID_3165_);}
	.st275{clip-path:url(#SVGID_3167_);}
	.st276{clip-path:url(#SVGID_3169_);}
	.st277{clip-path:url(#SVGID_3171_);}
	.st278{clip-path:url(#SVGID_3173_);}
	.st279{clip-path:url(#SVGID_3175_);}
	.st280{clip-path:url(#SVGID_3177_);}
	.st281{clip-path:url(#SVGID_3179_);}
	.st282{clip-path:url(#SVGID_3181_);}
	.st283{clip-path:url(#SVGID_3183_);}
	.st284{clip-path:url(#SVGID_3185_);}
	.st285{clip-path:url(#SVGID_3187_);}
	.st286{clip-path:url(#SVGID_3189_);}
	.st287{clip-path:url(#SVGID_3191_);}
	.st288{clip-path:url(#SVGID_3193_);}
	.st289{clip-path:url(#SVGID_3195_);}
	.st290{clip-path:url(#SVGID_3197_);}
	.st291{clip-path:url(#SVGID_3199_);}
	.st292{clip-path:url(#SVGID_3201_);}
	.st293{clip-path:url(#SVGID_3203_);}
	.st294{clip-path:url(#SVGID_3205_);}
	.st295{clip-path:url(#SVGID_3207_);}
	.st296{clip-path:url(#SVGID_3209_);}
	.st297{clip-path:url(#SVGID_3211_);}
	.st298{clip-path:url(#SVGID_3213_);}
	.st299{clip-path:url(#SVGID_3215_);}
	.st300{clip-path:url(#SVGID_3217_);}
	.st301{clip-path:url(#SVGID_3219_);}
	.st302{clip-path:url(#SVGID_3221_);}
	.st303{clip-path:url(#SVGID_3223_);}
	.st304{clip-path:url(#SVGID_3225_);}
	.st305{clip-path:url(#SVGID_3227_);enable-background:new    ;}
	.st306{clip-path:url(#SVGID_3229_);enable-background:new    ;}
	.st307{clip-path:url(#SVGID_3231_);enable-background:new    ;}
	.st308{clip-path:url(#SVGID_3233_);enable-background:new    ;}
	.st309{clip-path:url(#SVGID_3235_);enable-background:new    ;}
	.st310{clip-path:url(#SVGID_3237_);enable-background:new    ;}
	.st311{clip-path:url(#SVGID_3239_);enable-background:new    ;}
	.st312{clip-path:url(#SVGID_3241_);enable-background:new    ;}
	.st313{clip-path:url(#SVGID_3243_);enable-background:new    ;}
	.st314{clip-path:url(#SVGID_3245_);enable-background:new    ;}
	.st315{clip-path:url(#SVGID_3247_);enable-background:new    ;}
	.st316{clip-path:url(#SVGID_3249_);enable-background:new    ;}
	.st317{clip-path:url(#SVGID_3251_);enable-background:new    ;}
	.st318{clip-path:url(#SVGID_3253_);enable-background:new    ;}
	.st319{clip-path:url(#SVGID_3255_);enable-background:new    ;}
	.st320{clip-path:url(#SVGID_3257_);enable-background:new    ;}
	.st321{clip-path:url(#SVGID_3259_);enable-background:new    ;}
	.st322{clip-path:url(#SVGID_3261_);enable-background:new    ;}
	.st323{clip-path:url(#SVGID_3263_);enable-background:new    ;}
	.st324{clip-path:url(#SVGID_3265_);enable-background:new    ;}
	.st325{clip-path:url(#SVGID_3267_);enable-background:new    ;}
	.st326{clip-path:url(#SVGID_3269_);enable-background:new    ;}
	.st327{clip-path:url(#SVGID_3271_);enable-background:new    ;}
	.st328{clip-path:url(#SVGID_3273_);enable-background:new    ;}
	.st329{clip-path:url(#SVGID_3275_);enable-background:new    ;}
	.st330{clip-path:url(#SVGID_3277_);enable-background:new    ;}
	.st331{clip-path:url(#SVGID_3279_);enable-background:new    ;}
	.st332{fill:#444444;}
	.st333{clip-path:url(#SVGID_3281_);enable-background:new    ;}
	.st334{clip-path:url(#SVGID_3283_);enable-background:new    ;}
	.st335{fill:#575757;}
	.st336{fill:#545454;}
	.st337{fill:#515151;}
	.st338{fill:#4F4F4F;}
	.st339{clip-path:url(#SVGID_3285_);enable-background:new    ;}
	.st340{clip-path:url(#SVGID_3287_);enable-background:new    ;}
	.st341{clip-path:url(#SVGID_3289_);enable-background:new    ;}
	.st342{clip-path:url(#SVGID_3291_);enable-background:new    ;}
	.st343{clip-path:url(#SVGID_3293_);enable-background:new    ;}
	.st344{clip-path:url(#SVGID_3295_);enable-background:new    ;}
	.st345{clip-path:url(#SVGID_3297_);enable-background:new    ;}
	.st346{clip-path:url(#SVGID_3299_);enable-background:new    ;}
	.st347{clip-path:url(#SVGID_3301_);enable-background:new    ;}
	.st348{clip-path:url(#SVGID_3303_);enable-background:new    ;}
	.st349{clip-path:url(#SVGID_3305_);enable-background:new    ;}
	.st350{clip-path:url(#SVGID_3307_);enable-background:new    ;}
	.st351{clip-path:url(#SVGID_3309_);enable-background:new    ;}
	.st352{clip-path:url(#SVGID_3311_);enable-background:new    ;}
	.st353{fill:#6A6A6A;}
	.st354{fill:#747474;}
	.st355{fill:#717171;}
	.st356{clip-path:url(#SVGID_3313_);enable-background:new    ;}
	.st357{clip-path:url(#SVGID_3315_);enable-background:new    ;}
	.st358{clip-path:url(#SVGID_3317_);enable-background:new    ;}
	.st359{clip-path:url(#SVGID_3319_);enable-background:new    ;}
	.st360{clip-path:url(#SVGID_3321_);enable-background:new    ;}
	.st361{clip-path:url(#SVGID_3323_);enable-background:new    ;}
	.st362{fill:#7C7C7C;}
	.st363{clip-path:url(#SVGID_3325_);enable-background:new    ;}
	.st364{clip-path:url(#SVGID_3327_);enable-background:new    ;}
	.st365{clip-path:url(#SVGID_3329_);enable-background:new    ;}
	.st366{fill:url(#SVGID_3330_);}
	.st367{fill:url(#SVGID_3331_);}
	.st368{fill:url(#SVGID_3332_);}
	.st369{fill:url(#SVGID_3333_);}
	.st370{fill:url(#SVGID_3334_);}
	.st371{fill:url(#SVGID_3335_);}
	.st372{fill:url(#SVGID_3336_);}
	.st373{fill:url(#SVGID_3337_);}
	.st374{fill:url(#SVGID_3338_);}
	.st375{fill:url(#SVGID_3339_);}
	.st376{fill:url(#SVGID_3340_);}
	.st377{fill:url(#SVGID_3341_);}
	.st378{fill:url(#SVGID_3342_);}
	.st379{fill:url(#SVGID_3343_);}
	.st380{fill:url(#SVGID_3344_);}
	.st381{fill:url(#SVGID_3345_);}
	.st382{fill:url(#SVGID_3346_);}
	.st383{fill:url(#SVGID_3347_);}
	.st384{fill:url(#SVGID_3348_);}
	.st385{fill:url(#SVGID_3349_);}
	.st386{fill:url(#SVGID_3350_);}
	.st387{fill:url(#SVGID_3351_);}
	.st388{fill:url(#SVGID_3352_);}
	.st389{fill:url(#SVGID_3353_);}
	.st390{fill:url(#);}
	.st391{fill:#202020;}
	.st392{fill:#4C4C4C;}
	.st393{fill:#424242;}
	.st394{fill:#262626;}
	.st395{fill:none;stroke:#202020;stroke-width:0.125;stroke-miterlimit:10;}
	.st396{fill:#434343;}
	.st397{fill:#5D5D5D;}
	.st398{fill:url(#SVGID_5614_);}
	.st399{fill:url(#SVGID_5615_);}
	.st400{fill:url(#SVGID_5616_);}
	.st401{fill:url(#SVGID_5617_);}
	.st402{fill:url(#SVGID_5618_);}
	.st403{fill:url(#SVGID_5619_);}
	.st404{fill:url(#SVGID_5620_);}
	.st405{fill:url(#SVGID_5621_);}
	.st406{fill:url(#SVGID_5622_);}
	.st407{fill:url(#SVGID_5623_);}
	.st408{fill:url(#SVGID_5624_);}
	.st409{fill:url(#SVGID_5625_);}
	.st410{fill:url(#SVGID_5626_);}
	.st411{fill:url(#SVGID_5627_);}
	.st412{fill:url(#SVGID_5628_);}
	.st413{fill:url(#SVGID_5629_);}
	.st414{fill:url(#SVGID_5630_);}
	.st415{fill:url(#SVGID_5631_);}
	.st416{fill:url(#SVGID_5632_);}
	.st417{fill:url(#SVGID_5633_);}
	.st418{fill:url(#SVGID_5634_);}
	.st419{fill:url(#SVGID_5635_);}
	.st420{fill:url(#SVGID_5636_);}
	.st421{fill:url(#SVGID_5637_);}
	.st422{fill:url(#SVGID_5638_);}
	.st423{fill:url(#SVGID_5639_);}
	.st424{fill:url(#SVGID_5640_);}
	.st425{fill:url(#SVGID_5641_);}
	.st426{fill:url(#SVGID_5642_);}
	.st427{fill:url(#SVGID_5643_);}
	.st428{fill:url(#SVGID_5644_);}
	.st429{fill:url(#SVGID_5645_);}
	.st430{fill:url(#SVGID_5646_);}
	.st431{fill:url(#SVGID_5647_);}
	.st432{fill:url(#SVGID_5648_);}
	.st433{fill:#626262;}
	.st434{fill:url(#SVGID_5649_);}
	.st435{fill:url(#SVGID_5650_);}
	.st436{fill:url(#SVGID_5651_);}
	.st437{fill:url(#SVGID_5652_);}
	.st438{fill:url(#SVGID_5653_);}
	.st439{fill:url(#SVGID_5654_);}
	.st440{fill:url(#SVGID_5655_);}
	.st441{fill:url(#SVGID_5656_);}
	.st442{fill:url(#SVGID_5657_);}
	.st443{fill:url(#SVGID_5658_);}
	.st444{fill:url(#SVGID_5659_);}
	.st445{fill:url(#SVGID_5660_);}
	.st446{fill:url(#SVGID_5661_);}
	.st447{fill:url(#SVGID_5662_);}
	.st448{fill:url(#SVGID_5663_);}
	.st449{fill:url(#SVGID_5664_);}
	.st450{font-family:'MyriadPro-Regular';}
	.st451{font-size:2.1454px;}
</style>
<g>
	<g>
		<path class="st394" d="M54.95,51.15c-0.1,0.08-0.21,0.16-0.32,0.22c-0.35,0.19-0.73,0.29-1.13,0.35
			c-0.15,0.02-0.29,0.07-0.41,0.17c-0.34,0.26-0.69,0.49-1.06,0.7c-0.13,0.08-0.27,0.15-0.43,0.16c-0.13,0.01-0.2-0.06-0.19-0.19
			c0.01-0.12,0.07-0.22,0.13-0.32c0.05-0.08,0.11-0.16,0.16-0.24c-0.15,0.05-0.29,0.09-0.44,0.14C50.4,52.38,49.54,52.4,48.7,52
			c-0.2-0.09-0.37-0.22-0.46-0.42c-0.02-0.04-0.03-0.07-0.05-0.11c-0.05-0.12-0.11-0.22-0.19-0.32c-0.11-0.13-0.19-0.28-0.15-0.46
			c0.02-0.09-0.02-0.18-0.05-0.27c-0.04-0.09-0.08-0.18-0.12-0.27c-0.07-0.17-0.08-0.34,0.01-0.5c0.06-0.1,0.07-0.21,0.03-0.33
			c-0.01-0.03-0.02-0.07-0.03-0.1c-0.07-0.18-0.04-0.33,0.12-0.45c0.01-0.01,0.02-0.02,0.03-0.02c0.07-0.07,0.11-0.15,0.11-0.24
			c0-0.11,0-0.23-0.01-0.34c-0.01-0.19,0.07-0.33,0.23-0.42c0.06-0.04,0.13-0.08,0.19-0.12c0.14-0.08,0.23-0.19,0.28-0.34
			c0.01-0.04,0.03-0.08,0.04-0.12c0.04-0.12,0.09-0.23,0.22-0.28c0.06-0.02,0.12-0.04,0.18-0.04c0.19-0.02,0.35-0.11,0.47-0.27
			c0.04-0.05,0.08-0.11,0.14-0.16c0.04-0.03,0.1-0.06,0.16-0.07c0.14-0.01,0.28,0.01,0.41,0.06c0.34,0.1,0.64,0.27,0.92,0.48
			c0.01,0.01,0.02,0.01,0.05,0.03c-0.06-0.1-0.11-0.19-0.16-0.28c-0.13-0.25-0.26-0.5-0.32-0.77c-0.07-0.31-0.05-0.59,0.18-0.84
			c0.09-0.1,0.14-0.21,0.13-0.34c-0.01-0.17,0.07-0.29,0.2-0.39c0.04-0.03,0.08-0.06,0.12-0.08c0.1-0.07,0.15-0.16,0.16-0.28
			c0-0.04,0.01-0.07,0.01-0.11c0.01-0.16,0.07-0.28,0.21-0.35c0.23-0.13,0.4-0.31,0.5-0.56c0.08-0.2,0.22-0.35,0.41-0.45
			c0.1-0.05,0.19-0.11,0.28-0.16c0.14-0.08,0.24-0.2,0.3-0.35c0.05-0.14,0.09-0.29,0.13-0.43c0.06-0.19,0.14-0.37,0.28-0.52
			c0.23-0.26,0.57-0.29,0.84-0.08c0.22,0.18,0.38,0.41,0.5,0.66c0.25,0.52,0.44,1.07,0.58,1.63c0.04,0.15,0.07,0.29,0.1,0.44
			c0.04,0,0.07,0,0.11,0.01c0.25,0.03,0.48-0.01,0.69-0.15c0.15-0.1,0.32-0.15,0.51-0.13c0.09,0.01,0.18,0.01,0.27,0.03
			c0.26,0.05,0.48-0.01,0.68-0.18c0.03-0.02,0.06-0.05,0.08-0.07c0.17-0.15,0.35-0.28,0.57-0.34c0.29-0.09,0.65,0.01,0.78,0.39
			c0.02,0.07,0.04,0.13,0.05,0.2c0.05,0.28,0.03,0.56-0.02,0.84c-0.15,0.85-0.41,1.66-0.79,2.43c-0.43,0.85-0.99,1.61-1.68,2.27
			c-0.49,0.47-1.02,0.89-1.58,1.28c-0.02,0.01-0.04,0.03-0.06,0.05c0.05,0.01,0.09,0.01,0.12,0.02c0.05,0.01,0.08,0,0.11-0.02
			c0.26-0.17,0.54-0.32,0.84-0.42c0.27-0.09,0.55-0.15,0.84-0.12c0.17,0.02,0.35,0.06,0.52,0.1c0.01,0,0.02,0.01,0.03,0.01
			c0.07,0.03,0.09,0.09,0.06,0.16c-0.02,0.05-0.07,0.05-0.13,0.02c-0.02-0.01-0.05-0.02-0.07-0.04c-0.08-0.07-0.18-0.1-0.29-0.11
			c-0.12-0.01-0.24-0.02-0.35-0.02c-0.4,0.02-0.77,0.17-1.12,0.36c-0.1,0.05-0.19,0.11-0.28,0.17c0.03,0.05,0.05,0.09,0.07,0.12
			c0.19-0.04,0.38-0.09,0.57-0.12c0.36-0.06,0.72-0.07,1.06,0.05c0.2,0.07,0.38,0.18,0.58,0.28c0,0,0.01,0,0.01,0.01
			c0.05,0.04,0.06,0.11,0.02,0.16c-0.03,0.04-0.08,0.04-0.13-0.01c-0.03-0.03-0.05-0.06-0.08-0.09c-0.05-0.04-0.09-0.09-0.14-0.12
			c-0.22-0.13-0.46-0.18-0.71-0.2c-0.37-0.03-0.73,0.04-1.08,0.14c-0.05,0.01-0.08,0.03-0.08,0.08c0,0.04-0.01,0.07-0.02,0.11
			c-0.06,0.17-0.2,0.3-0.35,0.29c-0.07-0.01-0.14-0.04-0.21-0.06C55.04,51.05,55,51.11,54.95,51.15z M53.99,49.52
			c-0.05-0.56-0.11-1.12-0.16-1.69c-0.02-0.25-0.11-0.48-0.27-0.68c-0.13-0.17-0.24-0.35-0.37-0.51c-0.25-0.32-0.51-0.63-0.76-0.95
			c-0.13-0.17-0.26-0.34-0.41-0.5c-0.08-0.08-0.18-0.14-0.27-0.21c-0.03-0.02-0.07-0.02-0.1-0.02c-0.23,0.01-0.45,0.22-0.42,0.43
			c0.01,0.07,0.04,0.16,0.09,0.21c0.15,0.19,0.31,0.37,0.47,0.55c0.2,0.22,0.4,0.44,0.56,0.7c0.21,0.35,0.38,0.73,0.52,1.11
			c0.12,0.32,0.23,0.65,0.39,0.96c0.22,0.42,0.46,0.82,0.74,1.19c0.01,0.01,0.02,0.03,0.03,0.04c0,0,0.01,0,0.01,0
			C54.02,49.94,54.01,49.73,53.99,49.52z M54.02,47.17c0,0.29,0.02,0.58,0.04,0.87c0.04,0.69,0.09,1.37,0.14,2.06
			c0.01,0.08,0.02,0.16,0.03,0.24c0,0.02,0.03,0.04,0.05,0.06c0.02-0.02,0.05-0.03,0.06-0.05c0.05-0.11,0.09-0.23,0.13-0.34
			c0.11-0.37,0.23-0.73,0.33-1.1c0.14-0.5,0.23-1.01,0.23-1.53c0-0.25-0.06-0.48-0.12-0.72c-0.07-0.24-0.14-0.48-0.21-0.72
			c-0.02-0.06-0.05-0.11-0.08-0.16c-0.07-0.12-0.16-0.13-0.23,0c-0.06,0.1-0.11,0.2-0.14,0.31c-0.06,0.16-0.1,0.32-0.15,0.51
			C54.07,46.77,54.02,46.97,54.02,47.17z M52.79,50.67c-0.16-0.06-0.31-0.14-0.47-0.21c-0.55-0.23-1.11-0.36-1.71-0.35
			c-0.25,0.01-0.5,0-0.75,0.03c-0.17,0.02-0.35,0.07-0.51,0.13c-0.21,0.09-0.38,0.23-0.49,0.44c-0.03,0.05-0.03,0.1,0.01,0.15
			c0.02,0.02,0.03,0.05,0.05,0.07c0.1,0.12,0.17,0.14,0.32,0.09c0.41-0.15,0.83-0.21,1.27-0.21c0.44,0,0.88,0.03,1.32,0.09
			c0.49,0.07,0.98,0.06,1.46-0.06c0.02,0,0.03-0.01,0.05-0.02c0,0,0.01,0,0,0C53.16,50.78,52.97,50.74,52.79,50.67z M56.89,47.1
			c0-0.12-0.07-0.17-0.17-0.11c-0.14,0.07-0.29,0.16-0.41,0.25c-0.33,0.25-0.61,0.54-0.82,0.9c-0.05,0.09-0.08,0.19-0.1,0.28
			c-0.14,0.47-0.29,0.94-0.48,1.39c-0.05,0.11-0.1,0.22-0.15,0.33c-0.01,0.01,0,0.03-0.01,0.04c0.01,0,0.03,0,0.04-0.01
			c0.49-0.38,0.97-0.79,1.38-1.27c0.23-0.27,0.39-0.58,0.5-0.92c0.06-0.2,0.13-0.39,0.2-0.61C56.87,47.3,56.89,47.2,56.89,47.1z
			 M53.89,46.65c0.02-0.12,0.03-0.24,0.03-0.36c0-0.05,0-0.1-0.02-0.15c-0.16-0.52-0.4-0.99-0.75-1.4c-0.2-0.24-0.48-0.32-0.77-0.35
			c-0.04,0-0.08,0.01-0.12,0.02c-0.12,0.03-0.19,0.13-0.19,0.26c0.01,0.19,0.09,0.36,0.19,0.52c0.16,0.23,0.33,0.46,0.5,0.68
			c0.2,0.26,0.42,0.51,0.62,0.77c0.13,0.16,0.26,0.33,0.39,0.51C53.82,46.97,53.87,46.81,53.89,46.65z M52.95,49.87
			c-0.14-0.22-0.3-0.43-0.49-0.62c-0.13-0.13-0.29-0.21-0.48-0.2c-0.09,0-0.17-0.02-0.26-0.03c-0.2-0.03-0.4-0.08-0.6-0.1
			c-0.07-0.01-0.14,0.01-0.21,0.03c-0.1,0.03-0.14,0.13-0.07,0.21c0.09,0.12,0.2,0.23,0.31,0.32c0.45,0.36,0.94,0.63,1.46,0.86
			c0.23,0.1,0.48,0.19,0.71,0.28c0.02,0.01,0.05,0.01,0.07,0.02c0-0.01,0.01-0.01,0.01-0.02C53.26,50.37,53.11,50.12,52.95,49.87z
			 M49.51,51.8c0.08,0.01,0.17-0.02,0.26-0.04c0.19-0.05,0.38-0.11,0.57-0.17c0.41-0.12,0.82-0.17,1.24-0.16
			c0.48,0.01,0.93-0.09,1.37-0.29c0.07-0.03,0.14-0.07,0.2-0.12c-0.12,0.02-0.24,0.04-0.35,0.06c-0.45,0.08-0.91,0.07-1.36,0.03
			c-0.25-0.03-0.5-0.04-0.75-0.02c-0.39,0.04-0.77,0.11-1.16,0.17c-0.21,0.03-0.42,0.08-0.64,0.12c-0.02,0-0.04,0.01-0.06,0.01
			C49,51.61,49.22,51.77,49.51,51.8z M51.17,49.83c-0.2-0.2-0.42-0.35-0.69-0.41c-0.17-0.04-0.35-0.09-0.53-0.12
			c-0.15-0.03-0.3-0.04-0.45-0.04c-0.16,0-0.33,0-0.49,0.02c-0.24,0.03-0.37,0.2-0.46,0.4c-0.02,0.04-0.01,0.08,0.01,0.12
			c0.08,0.11,0.19,0.2,0.31,0.25c0.07,0.03,0.16,0.03,0.23,0.02c0.15-0.02,0.29-0.06,0.43-0.1c0.56-0.17,1.11-0.16,1.67-0.02
			c0.01,0,0.03,0.01,0.04,0.01c0,0,0.01-0.01,0.01-0.01C51.24,49.9,51.21,49.86,51.17,49.83z M50.66,49.19
			c-0.03-0.07-0.04-0.14-0.01-0.21c0.01-0.03,0-0.05-0.02-0.07c-0.3-0.25-0.63-0.44-0.99-0.58c-0.16-0.06-0.31-0.12-0.48-0.12
			c-0.23,0.01-0.41,0.11-0.55,0.29c-0.02,0.02-0.02,0.06-0.01,0.09c0.03,0.14,0.09,0.27,0.18,0.37c0.04,0.05,0.11,0.07,0.18,0.07
			c0.2,0.01,0.4,0.01,0.59,0.03c0.38,0.05,0.76,0.11,1.14,0.22c0.01,0,0.02,0,0.03,0.01C50.7,49.25,50.68,49.22,50.66,49.19z
			 M50.92,48.4c-0.34-0.34-0.73-0.61-1.14-0.87c-0.07-0.04-0.16-0.06-0.24-0.07c-0.21-0.01-0.36,0.17-0.41,0.32
			c-0.03,0.08,0,0.15,0.08,0.19c0.09,0.04,0.19,0.08,0.28,0.11c0.46,0.18,0.9,0.4,1.28,0.72c0.01,0.01,0.04,0.02,0.05,0.01
			c0.13-0.06,0.27-0.05,0.41-0.02c0.01,0,0.03,0.01,0.04,0.01c0-0.01,0.01-0.01,0.01-0.02C51.16,48.65,51.04,48.52,50.92,48.4z
			 M51.62,48.29c-0.2-0.27-0.41-0.53-0.63-0.79c-0.17-0.2-0.37-0.25-0.62-0.21c-0.12,0.02-0.25,0.05-0.37,0.08
			c0,0.01-0.01,0.01-0.01,0.02c0.06,0.05,0.12,0.11,0.18,0.16c0.16,0.13,0.33,0.26,0.5,0.4c0.24,0.19,0.44,0.41,0.62,0.65
			c0.13,0.17,0.31,0.25,0.52,0.27c0.07,0.01,0.13,0,0.18-0.07C51.86,48.62,51.74,48.45,51.62,48.29z M55.61,47.6
			c0.18-0.17,0.37-0.33,0.49-0.55c0.04-0.07,0.05-0.15,0.07-0.23c0.11-0.46,0.15-0.92,0.09-1.39c-0.04-0.29-0.21-0.5-0.42-0.68
			C55.9,45.72,55.82,46.66,55.61,47.6z M54.08,45.41c0.02-0.31-0.02-0.61-0.16-0.89c-0.09-0.17-0.2-0.32-0.35-0.43
			c-0.06-0.05-0.14-0.09-0.21-0.11c-0.1-0.03-0.19,0.02-0.26,0.1c-0.07,0.09-0.08,0.18-0.04,0.28c0.03,0.06,0.07,0.13,0.12,0.17
			c0.3,0.29,0.49,0.64,0.66,1.01c0.05,0.11,0.09,0.22,0.14,0.33C53.99,45.88,54,45.89,54,45.9c0.01,0,0.01,0,0.02,0
			C54.04,45.74,54.07,45.57,54.08,45.41z M57,45.67c0.01-0.18,0-0.37-0.07-0.54c-0.02-0.05-0.05-0.11-0.09-0.15
			c-0.08-0.09-0.18-0.11-0.3-0.07c-0.1,0.04-0.16,0.12-0.16,0.24c0,0.07,0,0.14,0.02,0.2c0.07,0.29,0.06,0.57,0.03,0.86
			c-0.02,0.22-0.06,0.44-0.1,0.67C56.69,46.54,56.97,46.17,57,45.67z M52.15,48.09c-0.11-0.16-0.23-0.31-0.36-0.44
			c-0.21-0.22-0.46-0.35-0.76-0.4c-0.03,0-0.06,0-0.1-0.01c0.83,0.92,1.67,1.82,2.33,2.86C52.93,49.41,52.59,48.73,52.15,48.09z
			 M53.52,43.49c0.22,0.28,0.39,0.59,0.53,0.91c0.06,0.12,0.12,0.23,0.23,0.31c0.05,0.04,0.07,0.03,0.1-0.02
			c0.04-0.06,0.04-0.13,0.03-0.2c-0.04-0.14-0.07-0.28-0.12-0.42c-0.13-0.37-0.32-0.71-0.55-1.02c-0.03-0.04-0.07-0.08-0.1-0.11
			c-0.1-0.08-0.19-0.05-0.23,0.11C53.41,43.19,53.41,43.35,53.52,43.49z M57.22,44.88c0.01,0.27-0.02,0.54-0.06,0.81
			c-0.02,0.13-0.02,0.26,0.02,0.38c0.02,0.06,0.04,0.07,0.1,0.04c0.07-0.04,0.11-0.11,0.14-0.18c0.12-0.33,0.18-0.68,0.2-1.03
			c0-0.1,0.02-0.19,0.01-0.29c-0.01-0.11-0.02-0.21-0.05-0.31c-0.03-0.11-0.13-0.13-0.21-0.05c-0.08,0.08-0.12,0.19-0.17,0.31
			C57.21,44.66,57.22,44.77,57.22,44.88z M54.27,43.48c0.13,0.39,0.26,0.78,0.39,1.17c0,0.01,0,0.02,0.01,0.02
			c0.03,0.03,0.05,0.07,0.09,0.08c0.05,0.01,0.08-0.03,0.1-0.07c0.02-0.08,0.05-0.16,0.04-0.24c-0.03-0.51-0.19-0.98-0.53-1.37
			c-0.04-0.05-0.06-0.04-0.09,0.01c0,0.01-0.01,0.02-0.01,0.03c-0.01,0.02-0.01,0.04-0.02,0.06C54.22,43.28,54.23,43.38,54.27,43.48
			z M57.53,46.23c-0.01,0.06-0.04,0.12,0.03,0.16c0.04,0.03,0.11,0.01,0.17-0.05c0.12-0.11,0.19-0.25,0.25-0.4
			c0.12-0.32,0.2-0.65,0.17-1c0-0.04-0.01-0.08-0.01-0.12c-0.01-0.06-0.03-0.06-0.08-0.03c-0.13,0.08-0.19,0.2-0.23,0.34
			c-0.05,0.19-0.1,0.38-0.15,0.56C57.62,45.88,57.58,46.05,57.53,46.23z M51.34,45.95c-0.1,0.09-0.13,0.23-0.08,0.35
			c0.06,0.13,0.15,0.23,0.26,0.32c0.22,0.2,0.44,0.4,0.65,0.6c0.19,0.18,0.34,0.39,0.47,0.61c0.01,0.01,0.01,0.03,0.02,0.04
			c0.01-0.01,0.01-0.01,0.02-0.02C52.41,47.1,51.9,46.51,51.34,45.95z M50.51,51.94c0.52-0.05,1.05-0.12,1.56-0.25
			c0.3-0.08,0.61-0.22,0.82-0.37c-0.13,0.05-0.26,0.1-0.4,0.14c-0.44,0.13-0.89,0.17-1.35,0.16c-0.37-0.01-0.72,0.09-1.04,0.29
			c-0.02,0.01-0.03,0.02-0.05,0.04c0,0.01,0,0.02,0,0.03C50.21,51.95,50.36,51.95,50.51,51.94z M54.76,43.31
			c0.06,0.25,0.13,0.49,0.2,0.73c0.04,0.16,0.1,0.32,0.15,0.48c0.01,0.04,0.02,0.09,0.07,0.08c0.02-0.01,0.05-0.06,0.05-0.09
			c-0.01-0.24-0.03-0.48-0.05-0.72c-0.01-0.13-0.09-0.25-0.17-0.35c-0.05-0.06-0.1-0.12-0.16-0.18c-0.02-0.02-0.05-0.04-0.07-0.06
			c-0.01,0-0.01,0.01-0.02,0.01C54.75,43.24,54.75,43.28,54.76,43.31z M58.26,45.4c-0.08,0.24-0.15,0.49-0.22,0.73
			c-0.03,0.09-0.05,0.18-0.08,0.27c0,0.01-0.01,0.03-0.01,0.04c0,0.02,0.01,0.05,0.02,0.07c0.02-0.01,0.05-0.01,0.07-0.02
			c0.03-0.02,0.05-0.05,0.07-0.09c0.09-0.15,0.18-0.3,0.26-0.45c0.07-0.12,0.1-0.25,0.09-0.39c-0.01-0.1-0.02-0.21-0.04-0.31
			c0-0.03-0.02-0.05-0.03-0.07c-0.01,0-0.02,0-0.03,0C58.32,45.24,58.28,45.32,58.26,45.4z M55.41,43.68c0.02-0.33,0-0.66-0.14-0.97
			c-0.03-0.07-0.07-0.13-0.12-0.18c-0.02-0.02-0.06-0.03-0.09-0.03c-0.02,0-0.03,0.05-0.04,0.08c-0.02,0.12,0.01,0.24,0.05,0.36
			c0.09,0.26,0.18,0.52,0.27,0.77c0.01,0.03,0.02,0.05,0.04,0.08c0.01,0,0.01,0,0.02,0C55.4,43.74,55.4,43.71,55.41,43.68z
			 M58.62,45.95c0.23-0.29,0.41-0.59,0.44-0.97c0-0.05,0-0.11-0.02-0.16c-0.02-0.07-0.07-0.08-0.12-0.02
			c-0.08,0.09-0.13,0.2-0.15,0.32c-0.06,0.26-0.12,0.51-0.19,0.77c-0.01,0.03-0.01,0.06-0.02,0.1
			C58.6,45.97,58.61,45.96,58.62,45.95z M55.08,45.07c-0.01-0.02-0.01-0.03-0.02-0.05c-0.06-0.11-0.17-0.12-0.23-0.01
			c-0.04,0.07-0.06,0.16-0.08,0.25c-0.02,0.13-0.01,0.26,0.03,0.38c0.01,0.02,0.02,0.04,0.03,0.07c0.05,0.09,0.12,0.1,0.17,0.01
			c0.05-0.08,0.07-0.16,0.11-0.24C55.11,45.33,55.12,45.2,55.08,45.07z M57.13,47.27c0.05,0.04,0.11,0.01,0.16-0.02
			c0.17-0.1,0.29-0.23,0.36-0.41c0.02-0.07,0.04-0.15-0.03-0.2c-0.07-0.05-0.14-0.02-0.2,0.02c-0.16,0.11-0.25,0.27-0.31,0.44
			C57.1,47.17,57.08,47.23,57.13,47.27z M55.18,46.11c0.04,0.11,0.13,0.13,0.21,0.05c0.13-0.12,0.19-0.27,0.18-0.44
			c-0.01-0.13-0.12-0.22-0.23-0.18c-0.04,0.02-0.08,0.05-0.11,0.09c-0.04,0.05-0.06,0.12-0.07,0.15
			C55.14,45.91,55.14,46.01,55.18,46.11z M57.32,47.86c0.18-0.02,0.31-0.11,0.39-0.27c0.03-0.07,0.03-0.14-0.03-0.2
			c-0.05-0.06-0.12-0.06-0.19-0.04c-0.17,0.06-0.26,0.18-0.31,0.32C57.15,47.81,57.21,47.88,57.32,47.86z M55.41,46.59
			c0.01-0.09-0.01-0.16-0.1-0.2c-0.04-0.02-0.08-0.04-0.13-0.06c-0.08-0.03-0.13,0-0.12,0.08c0,0.11,0.02,0.21,0.04,0.32
			c0.03,0.14,0.07,0.27,0.11,0.41c0.01,0,0.01,0,0.02,0C55.3,46.96,55.39,46.79,55.41,46.59z M54.25,42.24
			c-0.02-0.02-0.04-0.04-0.06-0.05c-0.05-0.03-0.11-0.04-0.16,0c-0.05,0.04-0.06,0.1-0.04,0.15c0.08,0.17,0.16,0.33,0.24,0.5
			c0.02,0.04,0.06,0.07,0.1,0.05c0.03-0.01,0.05-0.05,0.07-0.07C54.4,42.6,54.37,42.41,54.25,42.24z M57.13,48.19
			c0.04-0.06,0.05-0.12,0.01-0.18c-0.03-0.05-0.06-0.1-0.09-0.15c-0.04-0.06-0.09-0.06-0.13,0c-0.06,0.09-0.1,0.18-0.14,0.28
			c-0.05,0.12-0.08,0.25-0.13,0.38c0,0,0.01,0.01,0.01,0.01C56.83,48.44,57.01,48.35,57.13,48.19z M58.14,44.57
			c0,0.05,0.01,0.1,0.06,0.1c0.03,0,0.08-0.02,0.1-0.05c0.11-0.14,0.18-0.3,0.17-0.49c0-0.05-0.03-0.11-0.06-0.14
			c-0.07-0.08-0.17-0.06-0.21,0.05c-0.01,0.04-0.02,0.07-0.02,0.11c0,0-0.01,0-0.01,0C58.16,44.29,58.15,44.43,58.14,44.57z
			 M55.44,45.07c0.05-0.21,0.1-0.42,0.13-0.64c0.03-0.17-0.06-0.31-0.16-0.43c-0.03-0.04-0.06-0.03-0.07,0.02
			c-0.01,0.03,0,0.06,0,0.09c0.01,0.33,0.03,0.67,0.04,1c0,0.02,0,0.04,0.01,0.06c0.01,0,0.01,0,0.02,0
			C55.42,45.13,55.44,45.1,55.44,45.07z M54.72,42.36c-0.04-0.04-0.08-0.08-0.14-0.06c-0.04,0.02-0.06,0.07-0.03,0.15
			c0.05,0.16,0.1,0.32,0.15,0.48c0.01,0.03,0.02,0.06,0.04,0.08c0.03,0.02,0.06,0.05,0.09,0.04c0.03,0,0.05-0.04,0.07-0.06
			C54.89,42.75,54.88,42.53,54.72,42.36z M58.01,46.98c0.12-0.1,0.23-0.21,0.34-0.31c0.14-0.14,0.17-0.31,0.14-0.5
			c-0.01-0.04-0.03-0.05-0.07-0.02c-0.01,0.01-0.03,0.02-0.04,0.04c-0.17,0.28-0.34,0.55-0.51,0.83c-0.01,0.02-0.02,0.04-0.04,0.06
			c0,0.01,0.01,0.01,0.01,0.02C57.91,47.06,57.97,47.02,58.01,46.98z M58.46,45.01c0,0.03,0.03,0.07,0.06,0.08
			c0.02,0.01,0.07-0.01,0.09-0.03c0.11-0.16,0.2-0.32,0.19-0.52c0-0.04-0.01-0.08-0.03-0.12c-0.01-0.03-0.05-0.06-0.07-0.06
			c-0.03,0-0.06,0.03-0.08,0.06c-0.03,0.05-0.04,0.11-0.06,0.16c-0.03,0.08-0.05,0.17-0.08,0.26
			C58.47,44.88,58.46,44.94,58.46,45.01z M48.07,50.37c0.11,0.03,0.25-0.07,0.28-0.19c0.03-0.12-0.05-0.24-0.18-0.27
			c-0.11-0.03-0.21,0.04-0.24,0.16C47.9,50.2,47.96,50.34,48.07,50.37z M52.63,43.68c0.03-0.13-0.04-0.27-0.15-0.29
			c-0.11-0.02-0.26,0.09-0.28,0.21c-0.02,0.11,0.05,0.21,0.18,0.24C52.5,43.87,52.6,43.81,52.63,43.68z M56.46,44.19
			c0.03-0.11-0.04-0.21-0.15-0.24c-0.13-0.03-0.27,0.05-0.29,0.15c-0.02,0.11,0.07,0.25,0.19,0.27
			C56.32,44.4,56.43,44.31,56.46,44.19z M54.56,45.04c-0.02-0.07-0.08-0.1-0.16-0.1c-0.07,0-0.11,0.04-0.14,0.1
			c-0.05,0.11-0.03,0.27,0.05,0.36c0.06,0.06,0.13,0.07,0.18,0.01c0.04-0.05,0.07-0.11,0.11-0.17
			C54.59,45.17,54.59,45.1,54.56,45.04z M56.9,46.74c0.07,0.05,0.14,0.02,0.2-0.02c0.09-0.06,0.15-0.13,0.15-0.25
			c-0.01-0.13-0.13-0.2-0.25-0.14c-0.07,0.04-0.13,0.11-0.15,0.23C56.84,46.62,56.83,46.69,56.9,46.74z M53.65,42.59
			c0.01,0.05,0.02,0.11,0.04,0.15c0.06,0.13,0.14,0.24,0.24,0.34c0.02,0.02,0.04,0.04,0.07,0.05c0.04,0.02,0.06,0,0.06-0.04
			c0-0.02,0-0.05-0.01-0.07c-0.04-0.15-0.09-0.3-0.18-0.42c-0.03-0.04-0.07-0.07-0.1-0.09C53.7,42.49,53.65,42.53,53.65,42.59z
			 M57.98,44.16c0-0.01,0-0.02-0.01-0.04c-0.01-0.07-0.06-0.12-0.1-0.12c-0.07,0-0.08,0.06-0.1,0.11c-0.04,0.17-0.04,0.35,0.01,0.52
			c0.01,0.03,0.03,0.05,0.05,0.08c0.02-0.02,0.05-0.04,0.06-0.07c0.02-0.06,0.04-0.12,0.07-0.2C57.97,44.36,57.97,44.26,57.98,44.16
			z M48.27,50.81c0.01,0.06,0.02,0.11,0.05,0.16c0.04,0.07,0.1,0.08,0.17,0.05c0.09-0.04,0.14-0.14,0.13-0.22
			c-0.01-0.07-0.07-0.14-0.15-0.15C48.34,50.62,48.26,50.69,48.27,50.81z M49.1,47.12c-0.02,0.11,0.03,0.22,0.11,0.24
			c0.09,0.02,0.24-0.09,0.26-0.19c0.02-0.08-0.05-0.16-0.15-0.19C49.22,46.96,49.12,47.02,49.1,47.12z M53.26,42.78
			c0.02-0.11-0.04-0.24-0.14-0.26c-0.09-0.02-0.2,0.06-0.22,0.16c-0.02,0.1,0.05,0.19,0.17,0.22
			C53.17,42.92,53.24,42.88,53.26,42.78z M52.07,44.24c0.02-0.11-0.03-0.22-0.11-0.24c-0.09-0.02-0.23,0.09-0.26,0.2
			c-0.02,0.08,0.05,0.16,0.15,0.18C51.96,44.41,52.05,44.35,52.07,44.24z M47.94,49.32c0,0.09,0.04,0.14,0.13,0.15
			c0.1,0.01,0.21-0.06,0.22-0.16c0.02-0.1-0.06-0.21-0.16-0.23c-0.05-0.01-0.09,0-0.12,0.04c-0.03,0.04-0.05,0.09-0.07,0.14
			c0,0,0,0,0.01,0C47.95,49.27,47.95,49.29,47.94,49.32z M54.48,41.25c-0.02-0.1-0.1-0.15-0.19-0.13c-0.1,0.02-0.16,0.11-0.14,0.21
			c0.02,0.08,0.06,0.13,0.13,0.16c0.1,0.04,0.18-0.01,0.21-0.12C54.48,41.33,54.48,41.29,54.48,41.25z M57.32,43.64
			c-0.1-0.02-0.22,0.03-0.23,0.12c-0.02,0.1,0.06,0.23,0.16,0.25c0.09,0.02,0.17-0.05,0.19-0.16
			C57.46,43.75,57.41,43.66,57.32,43.64z M58.98,43.61c0.08,0.02,0.18-0.06,0.2-0.16c0.02-0.1-0.03-0.18-0.13-0.21
			c-0.1-0.02-0.18,0.03-0.21,0.12C58.83,43.47,58.89,43.59,58.98,43.61z M54,41.72c0.02-0.1-0.03-0.21-0.11-0.23
			c-0.07-0.02-0.18,0.07-0.2,0.15c-0.02,0.08,0.05,0.16,0.15,0.18C53.92,41.83,53.98,41.8,54,41.72z M48.63,48.1
			c0.02-0.09-0.03-0.19-0.11-0.21c-0.08-0.02-0.16,0.05-0.18,0.14c-0.02,0.09,0.02,0.15,0.1,0.17
			C48.53,48.22,48.61,48.18,48.63,48.1z M58.51,43.28c-0.1-0.02-0.19,0.02-0.21,0.09c-0.02,0.08,0.05,0.2,0.14,0.22
			c0.08,0.02,0.14-0.04,0.16-0.14C58.62,43.36,58.59,43.3,58.51,43.28z M50.16,46.8c-0.02-0.05-0.06-0.07-0.11-0.06
			c-0.03,0.01-0.06,0.02-0.09,0.04c-0.07,0.04-0.1,0.1-0.08,0.16c0.02,0.06,0.1,0.12,0.16,0.11c0.07,0,0.12-0.05,0.14-0.13
			C50.18,46.88,50.18,46.84,50.16,46.8z M51.55,44.72c0.02-0.08-0.03-0.17-0.09-0.19c-0.06-0.01-0.15,0.06-0.17,0.12
			c-0.01,0.06,0.04,0.13,0.12,0.14C51.48,44.81,51.53,44.78,51.55,44.72z M52.98,43.19c-0.07-0.02-0.14,0.02-0.15,0.08
			c-0.02,0.07,0.04,0.16,0.1,0.17c0.06,0.01,0.12-0.05,0.14-0.12C53.08,43.25,53.05,43.2,52.98,43.19z M56.81,44.33
			c0.06,0.01,0.15-0.04,0.16-0.09c0.01-0.06-0.05-0.14-0.12-0.15c-0.06-0.01-0.1,0.03-0.12,0.09
			C56.72,44.25,56.75,44.31,56.81,44.33z M54.77,41.57c-0.07-0.02-0.13,0.01-0.14,0.07c-0.01,0.07,0.03,0.15,0.09,0.16
			c0.05,0.01,0.11-0.04,0.13-0.11C54.86,41.63,54.83,41.59,54.77,41.57z M59.13,44.06c0.06,0.01,0.14-0.04,0.15-0.09
			c0.01-0.05-0.04-0.12-0.11-0.14c-0.05-0.01-0.1,0.03-0.11,0.1C59.05,44,59.08,44.05,59.13,44.06z M51.14,45.79
			c0.01-0.06-0.03-0.14-0.08-0.16c-0.05-0.01-0.12,0.04-0.14,0.1c-0.01,0.05,0.03,0.11,0.1,0.13
			C51.09,45.87,51.13,45.85,51.14,45.79z M48.81,47.68c0.07,0.02,0.13-0.02,0.14-0.07c0.01-0.06-0.03-0.14-0.08-0.15
			c-0.05-0.01-0.13,0.05-0.14,0.11C48.72,47.62,48.76,47.67,48.81,47.68z M48.29,48.72c0.06,0.01,0.14-0.04,0.15-0.09
			c0.01-0.05-0.05-0.12-0.1-0.13c-0.05-0.01-0.09,0.03-0.11,0.1C48.21,48.66,48.24,48.71,48.29,48.72z M53.6,42.03
			c-0.05-0.01-0.13,0.05-0.14,0.1c-0.01,0.05,0.04,0.1,0.1,0.12c0.06,0.01,0.1-0.01,0.11-0.07C53.68,42.11,53.65,42.04,53.6,42.03z
			 M58.01,43.54c-0.06-0.01-0.13,0.02-0.14,0.06c-0.01,0.06,0.03,0.13,0.09,0.14c0.05,0.01,0.1-0.03,0.11-0.09
			C58.08,43.6,58.06,43.56,58.01,43.54z M50.74,46.95c0.01-0.06-0.02-0.13-0.07-0.14c-0.04-0.01-0.11,0.04-0.12,0.09
			c-0.01,0.05,0.03,0.09,0.09,0.11C50.69,47.02,50.72,47,50.74,46.95z M48.53,51.5c0.04,0.01,0.1-0.03,0.11-0.09
			c0.01-0.05-0.02-0.08-0.07-0.1c-0.05-0.01-0.09,0.01-0.1,0.06C48.45,51.43,48.48,51.49,48.53,51.5z M54.98,42.01
			c-0.05-0.01-0.11,0.02-0.12,0.06c-0.01,0.05,0.03,0.12,0.08,0.13c0.04,0.01,0.08-0.03,0.1-0.08
			C55.05,42.06,55.03,42.02,54.98,42.01z M59.04,44.38c-0.01,0.05,0.02,0.11,0.06,0.11c0.05,0.01,0.11-0.04,0.11-0.08
			c0.01-0.04-0.03-0.09-0.09-0.1C59.09,44.31,59.05,44.33,59.04,44.38z"/>
	</g>
	<path class="st394" d="M19.17,41.86c-2.42-1.21-4.77-1.99-7.3-2.21c2.35-0.21,4.61,0.4,7.05,0.77c-0.42-0.46-0.71-0.8-1.03-1.11
		c-2.09-1.95-4.5-2.69-7.31-1.94c-1.52,0.41-2.86,1.15-4.1,2.11C6,39.85,5.54,40.26,5,40.71c1.85,2.2,3.98,3.66,6.79,3.84
		C14.56,44.71,16.91,43.65,19.17,41.86z"/>
	<path class="st394" d="M14.58,30.96c-0.42,1.71-0.89,3.65,0.1,5.83c0,0,0.48,0.18,1.04,0.45c0.9,0.43,1.74,1,2.61,1.52
		c0.19,0.12,0.37,0.25,0.67,0.45c0.09-1.41-0.27-2.67-1.6-3.92c1.56,1.06,1.98,2.34,2.48,3.49C21.49,35.07,18.14,31.45,14.58,30.96z
		"/>
	<path class="st394" d="M26.47,36.6c-0.04-1.94-0.08-3.87-0.59-5.75c-0.46-1.68-1.09-3.29-2.49-4.44c-1.33-1.1-2.94-1.35-4.68-1
		c0.1,0.21,2.47,2.13,4.11,8.38c0.41,1.58,0.94,3.13,1.4,4.7c1.39,4.72,4.18,7.54,4.24,7.51c-0.26-0.62-0.55-1.22-0.77-1.85
		C26.82,41.7,26.52,39.16,26.47,36.6z"/>
	<path class="st394" d="M17.7,45.72c-0.37,0.02-0.78,0.11-1.1,0.3c-0.72,0.43-0.69,1.16,0.07,1.5c0.42,0.19,0.92,0.28,1.38,0.29
		c2.2,0.06,6.33,0.48,9.18,2.81c-0.52-0.61-1-1.25-1.56-1.81C23.47,46.6,20.83,45.52,17.7,45.72z"/>
	<text transform="matrix(1 0 0 1 34.854 64.1538)" class="st394 st450 st451"> </text>
	<path class="st394" d="M90.93,57.21c-0.02-0.03-0.06-0.03-0.11,0.01c-0.05,0.03-0.12,0.11-0.22,0.24c-0.1,0.13-0.23,0.32-0.39,0.57
		c-0.13,0.2-0.27,0.45-0.44,0.73c-0.49,0.84-1.11,1.79-1.84,2.85c-0.48,0.69-1,1.31-1.56,1.86c-0.55,0.54-1.13,0.91-1.73,1.09
		c-0.61,0.17-1.16,0.1-1.64-0.22c-0.48-0.31-0.74-0.88-0.77-1.7c0.01-0.26,0.03-0.53,0.07-0.81c0.36-0.18,0.73-0.37,1.08-0.56
		c0.59-0.31,1.14-0.65,1.66-1.01c1.08-0.79,1.81-1.62,2.19-2.48c0.17-0.42,0.21-0.81,0.12-1.16c-0.09-0.35-0.32-0.63-0.68-0.84
		c-0.38-0.22-0.86-0.31-1.45-0.28c-0.59,0.03-1.22,0.26-1.88,0.7c-0.67,0.47-1.29,1.11-1.87,1.93s-1.01,1.66-1.28,2.53
		c-0.11,0.37-0.17,0.73-0.21,1.07c-0.44,0.61-0.85,1.16-1.22,1.61c-0.73,0.82-1.29,1.23-1.68,1.23c-0.19,0-0.28-0.12-0.28-0.37
		c0-0.23,0.07-0.6,0.22-1.11c0.15-0.51,0.38-1.22,0.71-2.15c0.37-1.05,0.81-2.29,1.33-3.71c1.54-4.25,2.48-7.04,2.84-8.38
		c0.1-0.39,0.16-0.67,0.17-0.83c0.02-0.16,0.03-0.28,0.03-0.36c0-0.15-0.03-0.26-0.09-0.34c-0.05-0.09-0.11-0.17-0.17-0.24
		c-0.06-0.07-0.17-0.14-0.32-0.22c-0.15-0.1-0.32-0.18-0.48-0.24s-0.31-0.09-0.41-0.09c-0.17,0-0.29,0.07-0.38,0.2
		c-0.06,0.1-0.14,0.26-0.22,0.49c-0.08,0.23-0.2,0.56-0.35,0.99c-0.15,0.43-0.57,1.63-1.27,3.59c-0.93,2.55-1.67,4.68-2.23,6.38
		c-0.22,0.37-0.51,0.77-0.9,1.2c-0.41,0.46-0.97,0.84-1.68,1.15c-0.08,0.04-0.18,0.07-0.27,0.09c0.34-1.09,0.52-2.05,0.52-2.87
		c0-0.91-0.23-1.57-0.69-1.98c-0.36-0.32-0.77-0.47-1.22-0.47h-0.05c-0.29,0-0.59,0.1-0.92,0.29c-0.35,0.21-0.75,0.58-1.19,1.09
		c-0.53,0.62-1.09,1.39-1.67,2.29c-0.72,1.09-1.34,2.18-1.87,3.25c0.45-1.53,1.3-3.91,2.55-7.14c1.22-3.12,1.96-5.2,2.21-6.22
		c0.08-0.35,0.13-0.59,0.14-0.72c0.01-0.13,0.02-0.22,0.02-0.28c0-0.2-0.04-0.36-0.11-0.46s-0.13-0.19-0.19-0.24
		c-0.13-0.11-0.39-0.26-0.79-0.43c-0.2-0.08-0.36-0.12-0.51-0.12c-0.07,0-0.14,0.03-0.2,0.08c-0.06,0.05-0.14,0.18-0.22,0.37
		c-0.19,0.42-0.51,1.27-0.97,2.56c-1.49,4.19-2.63,7.54-3.42,10.07c-0.03,0.05-0.07,0.1-0.1,0.15c-0.74,1.11-1.41,2.07-2.01,2.89
		c-0.5,0.66-0.88,1.09-1.14,1.3c-0.26,0.21-0.47,0.3-0.63,0.29c-0.18,0.01-0.31-0.06-0.39-0.19c-0.09-0.14-0.08-0.37,0.04-0.71
		c0.21-0.53,0.56-1.2,1.04-2.01c0.17-0.28,0.33-0.56,0.48-0.84c0.6-1.04,1-1.99,1.18-2.84c0.08-0.44,0.07-0.83-0.01-1.19
		c-0.08-0.36-0.27-0.63-0.55-0.82c-0.29-0.2-0.67-0.26-1.14-0.19c-0.46,0.07-0.97,0.33-1.52,0.78c-0.55,0.49-1.11,1.13-1.65,1.92
		c-0.07,0.1-0.14,0.2-0.21,0.31c0.04-0.13,0.08-0.26,0.12-0.39c0.09-0.35,0.13-0.72,0.11-1.11c-0.02-0.39-0.15-0.7-0.41-0.93
		c-0.27-0.22-0.65-0.3-1.13-0.25c-0.48,0.05-0.98,0.27-1.51,0.65c-0.52,0.4-1.02,0.93-1.49,1.6c-0.47,0.67-0.92,1.38-1.33,2.14
		c-0.25,0.46-0.48,0.9-0.71,1.33c-0.36,0.71-0.68,1.29-0.97,1.74c0.02-0.08,0.04-0.16,0.06-0.25c0.13-0.46,0.32-1.02,0.55-1.66
		c0.24-0.64,0.48-1.28,0.73-1.92c0.25-0.65,0.46-1.22,0.63-1.69c0.12-0.34,0.21-0.61,0.26-0.81c0.06-0.2,0.09-0.35,0.11-0.46
		c0.01-0.11,0.01-0.19,0-0.23c-0.01-0.05-0.03-0.08-0.05-0.1c-0.04-0.05-0.08-0.09-0.13-0.12c-0.05-0.03-0.14-0.06-0.27-0.09
		c-0.13-0.03-0.28-0.05-0.46-0.07c-0.18-0.02-0.34-0.01-0.48,0.02c-0.09,0.02-0.17,0.08-0.24,0.16c-0.07,0.09-0.16,0.25-0.26,0.47
		c-0.1,0.23-0.24,0.56-0.41,1.01c-0.28,0.72-0.6,1.58-0.96,2.61c-0.08,0.24-0.16,0.47-0.24,0.7c-0.15,0.22-0.3,0.43-0.45,0.64
		c-0.98,1.43-1.78,2.39-2.42,2.86c-0.32,0.22-0.55,0.24-0.68,0.06c-0.13-0.18-0.11-0.61,0.08-1.29c0.15-0.48,0.37-1.05,0.64-1.71
		c0.27-0.65,0.56-1.31,0.85-1.96c0.27-0.6,0.5-1.13,0.69-1.59c0.19-0.46,0.32-0.83,0.39-1.09c0.07-0.26,0.11-0.46,0.1-0.59
		c-0.01-0.13-0.03-0.23-0.07-0.3c-0.14-0.21-0.37-0.35-0.69-0.41c-0.17-0.04-0.35-0.06-0.53-0.06c-0.19-0.01-0.35,0.01-0.48,0.05
		c-0.18,0.06-0.46,0.44-0.84,1.15c-0.39,0.71-0.85,1.58-1.39,2.59c-0.36,0.67-0.72,1.34-1.08,1.99c-0.44,0.79-0.85,1.45-1.23,1.99
		c-0.38,0.54-0.71,0.88-0.98,1.02c-0.28,0.13-0.47,0.03-0.58-0.28c-0.11-0.31-0.07-0.82,0.12-1.51c0.14-0.51,0.34-1.06,0.61-1.68
		c0.26-0.61,0.53-1.21,0.79-1.78c0.2-0.45,0.38-0.85,0.53-1.19c0.16-0.39,0.27-0.7,0.34-0.93c0.06-0.23,0.09-0.4,0.08-0.52
		c-0.01-0.12-0.04-0.21-0.08-0.27c-0.13-0.2-0.36-0.33-0.68-0.39c-0.17-0.04-0.35-0.06-0.53-0.06c-0.19-0.01-0.35,0.01-0.48,0.05
		c-0.09,0.03-0.17,0.08-0.24,0.16c-0.07,0.08-0.15,0.22-0.24,0.43c-0.09,0.21-0.21,0.51-0.37,0.91c-0.25,0.63-0.53,1.41-0.85,2.34
		c-0.1,0.28-0.19,0.56-0.27,0.84c-0.85,1.25-1.6,2.28-2.23,3.06c-0.73,0.82-1.29,1.23-1.68,1.23c-0.19,0-0.28-0.12-0.28-0.37
		c0-0.23,0.07-0.6,0.22-1.11c0.15-0.51,0.38-1.22,0.71-2.15c0.37-1.05,0.81-2.29,1.33-3.71c1.54-4.25,3.73-10.9,4.08-12.25
		c0.1-0.39,0.16-0.67,0.17-0.83c0.02-0.16,0.03-0.28,0.03-0.36c0-0.15-0.03-0.26-0.09-0.34c-0.05-0.09-0.11-0.17-0.17-0.24
		c-0.06-0.07-0.17-0.14-0.32-0.22c-0.15-0.1-0.32-0.18-0.48-0.24s-0.31-0.09-0.41-0.09c-0.17,0-0.29,0.07-0.38,0.2
		c-0.06,0.1-0.14,0.26-0.22,0.49c-0.08,0.23-0.2,0.56-0.35,0.99c-0.15,0.43-0.57,1.63-1.27,3.59c-0.61,1.69-1.34,3.81-2.03,5.87
		c-0.43-0.09-1.16-0.2-2.17-0.35c-0.34-0.06-0.7-0.11-1.08-0.16c1.44-10.38-3.58-19.06-4.3-20.55c-0.78,1.32,1.91,6.44,0.99,7.61
		c-0.16,0.21-0.82-0.52-0.99-0.32c2.56,3.38,2.74,9.81,2.25,13.13c-0.83,0.02-1.65,0.08-2.48,0.19c-1.6,0.27-3.05,0.72-4.36,1.37
		s-2.45,1.39-3.42,2.21c-1.92,1.64-3.13,3.31-3.63,5.03c-0.27,0.87-0.34,1.67-0.19,2.41c0.14,0.74,0.57,1.32,1.28,1.74
		c0.75,0.42,1.73,0.62,2.93,0.6c1.2-0.02,2.43-0.29,3.68-0.8c1.22-0.49,2.4-1.3,3.55-2.44c1.15-1.14,3.52-3.49,4.58-9.31
		c0.01-0.07,0.02-0.15,0.03-0.22c0.63,0.08,1.21,0.16,1.74,0.26c0.54,0.1,1,0.18,1.38,0.26c-0.95,2.86-1.8,5.49-2.1,6.55
		c-0.34,1.29-0.52,2.26-0.52,2.91c0,0.11,0,0.2,0.01,0.28c0.06,0.62,0.26,1.03,0.6,1.22c0.24,0.18,0.52,0.26,0.85,0.26
		c0.11,0,0.23-0.01,0.35-0.03c0.98-0.17,2.21-1.28,3.72-3.33c0.08-0.11,0.16-0.22,0.24-0.34c-0.01,0.02-0.01,0.05-0.02,0.07
		c-0.15,0.79-0.2,1.43-0.14,1.94s0.19,0.89,0.38,1.15c0.19,0.26,0.42,0.42,0.68,0.48c0.26,0.06,0.54,0.05,0.82-0.04
		c0.27-0.06,0.56-0.25,0.88-0.56c0.32-0.31,0.74-0.88,1.26-1.7c0.56-0.9,1.16-1.94,1.81-3.14c0.15-0.29,0.3-0.58,0.44-0.84
		c-0.06,0.17-0.12,0.34-0.18,0.52c-0.38,1.07-0.67,2.03-0.86,2.87c-0.17,0.79-0.21,1.36-0.13,1.74s0.24,0.64,0.45,0.79
		c0.45,0.33,0.96,0.41,1.55,0.23c0.26-0.07,0.56-0.25,0.89-0.55c0.33-0.3,0.78-0.82,1.33-1.55c0.25-0.33,0.52-0.69,0.79-1.07
		c-0.05,0.17-0.09,0.35-0.13,0.51c-0.15,0.76-0.19,1.34-0.12,1.72c0.07,0.38,0.18,0.65,0.32,0.81c0.22,0.23,0.49,0.3,0.82,0.21
		c0.12-0.04,0.25-0.11,0.39-0.22c0.24-0.19,0.55-0.59,0.94-1.19c0.46-0.77,0.98-1.71,1.56-2.81c0.41-0.8,0.8-1.51,1.16-2.14
		c0.4-0.68,0.73-1.18,1-1.51c0.27-0.32,0.49-0.55,0.68-0.67c0.42-0.28,0.7-0.32,0.83-0.13c0.13,0.16,0.01,0.69-0.38,1.59
		c-0.18,0.39-0.38,0.84-0.62,1.34c-0.36,0.75-0.7,1.49-1,2.21c-0.48,1.21-0.72,2.11-0.71,2.69c0.01,0.28,0.06,0.48,0.17,0.61
		c0.11,0.12,0.24,0.19,0.39,0.22c0.3,0.04,0.59-0.11,0.87-0.44c0.32-0.41,0.71-1.01,1.16-1.79c0.45-0.79,0.9-1.6,1.35-2.44
		c0.3-0.57,0.58-1.08,0.83-1.53c0.48-0.85,0.85-1.45,1.11-1.79c0.26-0.34,0.49-0.58,0.68-0.69c0.2-0.15,0.38-0.26,0.54-0.31
		c0.16-0.05,0.28-0.03,0.35,0.05c0.16,0.15,0.02,0.69-0.42,1.62c-0.17,0.34-0.36,0.72-0.59,1.14c-0.46,0.84-0.86,1.67-1.22,2.51
		c-0.49,1.24-0.62,2.16-0.39,2.79c0.12,0.29,0.31,0.51,0.57,0.64c0.26,0.13,0.54,0.2,0.83,0.21c0.28,0.04,0.59-0.04,0.93-0.24
		c0.34-0.19,0.77-0.62,1.31-1.29c0.54-0.68,1.13-1.5,1.76-2.44c-0.17,0.63-0.28,1.13-0.34,1.49c-0.08,0.49-0.13,0.88-0.13,1.14
		c0,0.09,0,0.18,0.01,0.25c0.04,0.28,0.12,0.49,0.22,0.63c0.17,0.23,0.35,0.39,0.55,0.48s0.36,0.14,0.51,0.14h0.06
		c0.11-0.01,0.18-0.06,0.23-0.14c0.05-0.08,0.08-0.19,0.11-0.32c0.04-0.2,0.12-0.42,0.25-0.66c0.13-0.24,0.52-0.88,1.17-1.9
		c0.65-1.02,1.35-2.1,2.11-3.23c0.75-1.13,1.35-1.96,1.79-2.51c0.53-0.62,0.94-0.93,1.23-0.93c0.05,0,0.09,0.01,0.14,0.02
		c0.21,0.08,0.32,0.34,0.32,0.77c0,0.15-0.01,0.33-0.04,0.54c-0.2,1.07-0.65,2.31-1.35,3.73c-0.55,0.1-1.08,0.21-1.59,0.35
		c-0.52,0.13-0.98,0.32-1.38,0.55c-0.74,0.49-1.18,0.97-1.32,1.43c-0.14,0.46-0.21,0.79-0.21,0.99c0,0.36,0.12,0.66,0.36,0.89
		c0.25,0.18,0.58,0.27,0.98,0.27c0.25,0,0.52-0.04,0.83-0.11c0.79-0.19,1.53-0.54,2.23-1.04c0.98-0.74,1.7-1.78,2.17-3.11
		c0.13-0.04,0.25-0.09,0.37-0.14c0.76-0.34,1.38-0.78,1.87-1.32c0.17-0.18,0.33-0.37,0.48-0.56c-0.19,0.62-0.36,1.16-0.49,1.63
		c-0.34,1.29-0.52,2.26-0.52,2.91c0,0.11,0,0.2,0.01,0.28c0.06,0.62,0.26,1.03,0.6,1.22c0.24,0.18,0.52,0.26,0.85,0.26
		c0.11,0,0.23-0.01,0.35-0.03c0.91-0.16,2.04-1.13,3.41-2.91c0.1,0.81,0.46,1.5,1.06,2.07c0.55,0.49,1.23,0.77,2.06,0.85
		c0.82,0.07,1.69-0.2,2.58-0.82c0.91-0.69,1.75-1.61,2.52-2.75c0.78-1.14,1.39-2.14,1.85-2.98c0.22-0.39,0.4-0.71,0.52-0.96
		c0.12-0.25,0.21-0.43,0.27-0.56c0.06-0.13,0.09-0.22,0.09-0.28C90.95,57.26,90.94,57.23,90.93,57.21z M82.95,59.71
		c0.46-1.08,0.96-1.94,1.52-2.58c0.54-0.56,1-0.82,1.38-0.77c0.38,0.05,0.58,0.25,0.6,0.62c-0.01,0.35-0.21,0.75-0.57,1.2
		c-0.37,0.45-0.82,0.88-1.35,1.28c-0.6,0.44-1.16,0.82-1.71,1.13c-0.08,0.05-0.16,0.09-0.23,0.14
		C82.68,60.39,82.8,60.05,82.95,59.71z M30.86,54.02c-1.21,8.16-13.1,14.87-13.22,9.16c-0.02-0.82,0.38-1.61,0.82-2.4
		c0.76-1.44,1.94-2.71,3.53-3.81c0.82-0.61,1.79-1.18,2.91-1.71c1.12-0.53,2.44-0.9,3.96-1.13c0.66-0.07,1.32-0.12,2-0.15
		L30.86,54.02z M69.9,63.05c-0.57,0.8-1.05,1.33-1.43,1.58c-0.39,0.26-0.67,0.38-0.85,0.38c-0.12,0-0.21-0.04-0.28-0.12
		c-0.08-0.11-0.13-0.26-0.13-0.43c0-0.19,0.05-0.42,0.16-0.71c0.21-0.53,0.62-0.98,1.23-1.35c0.58-0.27,1.25-0.45,2.03-0.55
		C70.39,62.3,70.14,62.7,69.9,63.05z"/>
	<path class="st394" d="M89.52,66.98c0.52-1,1.12-1.84,1.91-2.54c-0.84,0.51-1.45,1.27-2.19,1.99c0.03-0.26,0.04-0.44,0.07-0.63
		c0.22-1.17,0.86-2.01,1.99-2.45c0.61-0.24,1.25-0.32,1.9-0.3c0.25,0.01,0.51,0.03,0.8,0.05c-0.08,1.2-0.44,2.21-1.34,2.96
		C91.77,66.81,90.72,67.03,89.52,66.98z"/>
	<g>
		<path class="st394" d="M12.78,73.69v-5.21h0.69v2.38h2.87c0-0.69-0.4-1.34-1.19-1.96l0.45-0.48c0.96,0.66,1.44,1.52,1.44,2.59
			c0,1.03-0.44,1.95-1.33,2.75l-0.26-0.34c0.6-0.65,0.91-1.36,0.91-2.13h-2.89v2.4H12.78z"/>
		<path class="st394" d="M19.7,73.76c-0.57,0-1.02-0.2-1.36-0.61c-0.33-0.4-0.5-0.85-0.5-1.35c0-0.51,0.17-0.97,0.5-1.35
			c0.35-0.41,0.8-0.61,1.36-0.61c0.56,0,1.02,0.2,1.36,0.61c0.33,0.39,0.5,0.84,0.5,1.35c0,0.51-0.17,0.97-0.5,1.35
			C20.72,73.55,20.26,73.76,19.7,73.76z M19.7,70.26c-0.34,0-0.6,0.13-0.79,0.39c-0.2,0.27-0.3,0.66-0.3,1.15
			c0,0.5,0.1,0.88,0.3,1.15c0.19,0.26,0.46,0.39,0.79,0.39c0.34,0,0.6-0.13,0.79-0.39c0.2-0.27,0.3-0.66,0.3-1.15
			c0-0.5-0.1-0.88-0.3-1.15C20.3,70.38,20.04,70.26,19.7,70.26z"/>
		<path class="st394" d="M22.59,73.69V69.9h2.75c0.62,0,1.11,0.16,1.47,0.48c0.42,0.37,0.62,0.87,0.62,1.48
			c0,0.61-0.21,1.11-0.62,1.48c-0.23,0.2-0.49,0.34-0.8,0.41l-0.19-0.36c0.18-0.07,0.35-0.19,0.49-0.35
			c0.25-0.27,0.37-0.66,0.37-1.19c0-0.5-0.13-0.89-0.39-1.17c-0.23-0.25-0.55-0.37-0.95-0.37h-0.21v3.36h-0.69v-3.36h-1.16v3.36
			H22.59z"/>
		<path class="st394" d="M31.51,72.9c-0.06,0.09-0.12,0.17-0.18,0.24c-0.34,0.41-0.79,0.61-1.36,0.61c-0.56,0-1.01-0.2-1.36-0.61
			c-0.33-0.39-0.49-0.84-0.49-1.35c0-0.52,0.16-0.97,0.49-1.35c0.34-0.41,0.79-0.61,1.36-0.61c0.56,0,1.01,0.2,1.36,0.61
			c0.05,0.06,0.09,0.11,0.13,0.17l-0.55,0.28c-0.04-0.09-0.09-0.17-0.14-0.25c-0.19-0.26-0.46-0.39-0.79-0.39
			c-0.34,0-0.6,0.13-0.79,0.39c-0.17,0.23-0.27,0.54-0.3,0.94h1.85v0.43h-1.85c0.03,0.4,0.12,0.71,0.3,0.94
			c0.19,0.26,0.46,0.39,0.79,0.39c0.34,0,0.6-0.13,0.79-0.39c0.07-0.09,0.12-0.19,0.17-0.31L31.51,72.9z"/>
		<path class="st394" d="M35.21,73.69v-5.21h0.69v2.38h2.87c0-0.69-0.4-1.34-1.19-1.96l0.45-0.48c0.96,0.66,1.44,1.52,1.44,2.59
			c0,1.03-0.44,1.95-1.33,2.75l-0.26-0.34c0.6-0.65,0.91-1.36,0.91-2.13H35.9v2.4H35.21z"/>
		<path class="st394" d="M43.67,72.9c-0.06,0.09-0.12,0.17-0.18,0.24c-0.34,0.41-0.79,0.61-1.36,0.61c-0.56,0-1.01-0.2-1.36-0.61
			c-0.33-0.39-0.49-0.84-0.49-1.35c0-0.52,0.16-0.97,0.49-1.35c0.34-0.41,0.79-0.61,1.36-0.61c0.56,0,1.01,0.2,1.36,0.61
			c0.05,0.06,0.09,0.11,0.13,0.17l-0.55,0.28c-0.04-0.09-0.09-0.17-0.14-0.25c-0.19-0.26-0.46-0.39-0.79-0.39
			c-0.34,0-0.6,0.13-0.79,0.39c-0.17,0.23-0.27,0.54-0.3,0.94h1.85v0.43h-1.85c0.03,0.4,0.12,0.71,0.3,0.94
			c0.19,0.26,0.46,0.39,0.79,0.39c0.34,0,0.6-0.13,0.79-0.39c0.07-0.09,0.12-0.19,0.17-0.31L43.67,72.9z"/>
		<path class="st394" d="M47.6,73.69h-1.24c-0.62,0-1.11-0.16-1.47-0.48c-0.42-0.37-0.62-0.84-0.62-1.41c0-0.57,0.21-1.04,0.62-1.41
			c0.36-0.32,0.85-0.48,1.47-0.48h1.24V73.69z M46.91,73.26v-2.93h-0.55c-0.4,0-0.72,0.12-0.95,0.37c-0.26,0.28-0.39,0.64-0.39,1.1
			c0,0.46,0.13,0.82,0.39,1.1c0.23,0.25,0.55,0.37,0.95,0.37H46.91z"/>
		<path class="st394" d="M48.98,73.69v-5.21h0.69v5.21H48.98z"/>
		<path class="st394" d="M51.05,73.69v-5.21h0.69v1.41h1.14v0.43h-1.14v3.36H51.05z"/>
		<path class="st394" d="M53.6,73.69v-5.21h0.69v1.42h0.55c0.62,0,1.11,0.16,1.47,0.48c0.42,0.37,0.62,0.87,0.62,1.48
			c0,0.61-0.21,1.11-0.62,1.48c-0.23,0.2-0.49,0.34-0.8,0.41l-0.19-0.36c0.18-0.07,0.35-0.19,0.49-0.35
			c0.25-0.27,0.37-0.66,0.37-1.19c0-0.5-0.13-0.89-0.39-1.17c-0.23-0.25-0.55-0.37-0.95-0.37h-0.55v3.36H53.6z"/>
		<path class="st394" d="M65.12,72.6c-0.09,0.13-0.19,0.25-0.3,0.37c-0.5,0.52-1.11,0.78-1.84,0.78c-0.72,0-1.33-0.26-1.84-0.78
			c-0.51-0.52-0.76-1.15-0.76-1.89c0-0.74,0.25-1.37,0.76-1.89c0.51-0.52,1.12-0.78,1.84-0.78c0.73,0,1.34,0.26,1.84,0.78
			c0.09,0.09,0.17,0.19,0.25,0.29l-0.55,0.29c-0.05-0.1-0.11-0.19-0.18-0.28c-0.33-0.44-0.78-0.65-1.36-0.65s-1.03,0.22-1.36,0.65
			c-0.32,0.43-0.48,0.96-0.48,1.59c0,0.63,0.16,1.16,0.48,1.59c0.33,0.44,0.78,0.66,1.36,0.66c0.58,0,1.03-0.22,1.36-0.66
			c0.08-0.11,0.15-0.22,0.21-0.34L65.12,72.6z"/>
		<path class="st394" d="M69.04,73.69H67.8c-0.62,0-1.11-0.16-1.47-0.48c-0.42-0.37-0.62-0.84-0.62-1.41c0-0.57,0.21-1.04,0.62-1.41
			c0.36-0.32,0.85-0.48,1.47-0.48h1.24V73.69z M68.35,73.26v-2.93H67.8c-0.4,0-0.72,0.12-0.95,0.37c-0.26,0.28-0.39,0.64-0.39,1.1
			c0,0.46,0.13,0.82,0.39,1.1c0.23,0.25,0.55,0.37,0.95,0.37H68.35z"/>
		<path class="st394" d="M70.42,73.69V69.9h1.24c0.42,0,0.76,0.11,1.03,0.32c0.3,0.24,0.44,0.53,0.44,0.88
			c0,0.51-0.25,0.88-0.75,1.11l-0.19-0.36c0.17-0.16,0.26-0.41,0.26-0.74c0-0.25-0.08-0.46-0.24-0.61c-0.12-0.12-0.3-0.18-0.54-0.18
			h-0.55v3.36H70.42z"/>
		<path class="st394" d="M77.14,72.9c-0.06,0.09-0.12,0.17-0.18,0.24c-0.34,0.41-0.79,0.61-1.36,0.61c-0.56,0-1.01-0.2-1.36-0.61
			c-0.33-0.39-0.49-0.84-0.49-1.35c0-0.52,0.16-0.97,0.49-1.35c0.34-0.41,0.79-0.61,1.36-0.61c0.56,0,1.01,0.2,1.36,0.61
			c0.05,0.06,0.09,0.11,0.13,0.17l-0.55,0.28c-0.04-0.09-0.09-0.17-0.14-0.25c-0.19-0.26-0.46-0.39-0.79-0.39
			c-0.34,0-0.6,0.13-0.79,0.39c-0.17,0.23-0.27,0.54-0.3,0.94h1.85v0.43h-1.85c0.03,0.4,0.12,0.71,0.3,0.94
			c0.19,0.26,0.46,0.39,0.79,0.39c0.34,0,0.6-0.13,0.79-0.39c0.07-0.09,0.12-0.19,0.17-0.31L77.14,72.9z"/>
		<path class="st394" d="M78.44,72.72c0.28,0.29,0.42,0.61,0.42,0.97c0,0.42-0.22,0.78-0.65,1.06l-0.3-0.3
			c0.24-0.17,0.37-0.39,0.37-0.67c0-0.23-0.11-0.41-0.32-0.57L78.44,72.72z"/>
		<path class="st394" d="M82.82,73.69v-5.21h0.69v5.21H82.82z"/>
		<path class="st394" d="M84.89,73.69v-5.21h0.71c1.47,0.9,2.48,2.13,3.04,3.69v-3.69h0.6v4.96l-0.68,0.32
			c-0.59-2.09-1.58-3.68-2.98-4.76v4.7H84.89z"/>
		<path class="st394" d="M95,72.6c-0.09,0.13-0.19,0.25-0.3,0.37c-0.5,0.52-1.11,0.78-1.84,0.78c-0.72,0-1.33-0.26-1.84-0.78
			c-0.51-0.52-0.76-1.15-0.76-1.89c0-0.74,0.25-1.37,0.76-1.89c0.51-0.52,1.12-0.78,1.84-0.78c0.73,0,1.34,0.26,1.84,0.78
			c0.09,0.09,0.17,0.19,0.25,0.29l-0.55,0.29c-0.05-0.1-0.11-0.19-0.18-0.28c-0.33-0.44-0.78-0.65-1.36-0.65s-1.03,0.22-1.36,0.65
			c-0.32,0.43-0.48,0.96-0.48,1.59c0,0.63,0.16,1.16,0.48,1.59c0.33,0.44,0.78,0.66,1.36,0.66c0.58,0,1.03-0.22,1.36-0.66
			c0.08-0.11,0.15-0.22,0.21-0.34L95,72.6z"/>
	</g>
</g>
</svg>
