<?xml version="1.0" encoding="UTF-8"?>
<svg id="Layer_1" data-name="Layer 1" xmlns="http://www.w3.org/2000/svg" viewBox="0 0 50 50">
  <defs>
    <style>
      .cls-1 {
        fill: none;
        stroke: #606060;
        stroke-miterlimit: 10;
        stroke-width: .2px;
      }
    </style>
  </defs>
  <path class="cls-1" d="M48.97,27.41s-.06.03-.09.04c-.07,0-.14,0-.21,0-2.84,0-5.67,0-8.51,0-.08,0-.17,0-.24,0-.54,3.2-1.95,5.94-4.21,8.22-2.27,2.28-5,3.67-8.21,4.25.02-.01,0,0-.03.03-.02.02-.03.03-.06.07v8.94s-.02.03-.03.03c0,0-.01,0-.02,0-1.55,0-3.1,0-4.65,0-.03,0-.06,0-.08,0-.01-.01-.02-.02-.02-.03,0,0,0-.01,0-.02,0-.02,0-.03,0-.05,0-2.96,0-5.92,0-8.88-.04-.04-.07-.08-.09-.09-3.2-.56-5.94-1.97-8.22-4.25-2.27-2.27-3.66-5.01-4.21-8.19-.05,0-.1-.03-.15-.03-.12,0-.23,0-.35,0-2.77,0-5.53,0-8.3,0-.09,0-.19.03-.27-.06v-4.79c.34-.02.68,0,1.01,0,.33,0,.66,0,.99,0h1.02c.33,0,.66,0,.99,0,.34,0,.68,0,1.02,0,.33,0,.66,0,.99,0,.34,0,.68,0,1.02,0,.33,0,.66,0,.99,0,.34,0,.67,0,1.02,0,.56-3.21,1.96-5.97,4.26-8.27,2.29-2.29,5.05-3.68,8.24-4.24.01-.04.03-.09.03-.13,0-.06,0-.12,0-.18,0-2.81,0-5.63,0-8.44v-.29c.07-.02.11-.04.16-.04.15,0,.31,0,.46,0,1.3,0,2.61,0,3.91,0,.08,0,.16,0,.27.01,0,.1.01.19.01.27,0,1.03,0,2.05,0,3.08v5.72c3.21.56,5.97,1.95,8.27,4.25,2.29,2.29,3.69,5.04,4.25,8.24.04,0,.09.02.14.03.15,0,.29,0,.44,0,2.74,0,5.47,0,8.21,0,.08,0,.17,0,.24,0,.02.02.02.02.03.03,0,0,.01.01.01.02,0,.06,0,.12,0,.18,0,1.51,0,3.02,0,4.53,0,.01-.01.03-.02.05ZM34.64,33.66c.15-.08.21-.21.31-.32.28-.32.52-.66.77-1,.35-.49.63-1.01.91-1.54.17-.33.32-.68.45-1.03.16-.44.31-.88.44-1.32.16-.55.28-1.1.33-1.68.03-.37.11-.74.13-1.11.02-.64.02-1.28-.04-1.91,0-.02,0-.05,0-.07-.03-.17-.05-.35-.08-.52-.04-.25-.05-.5-.12-.74-.09-.37-.18-.74-.28-1.1-.17-.58-.38-1.15-.63-1.69-.32-.7-.69-1.37-1.14-1.99-.29-.4-.58-.81-.91-1.18-.26-.29-.52-.58-.81-.84-.33-.31-.67-.6-1.03-.88-.46-.36-.94-.69-1.44-.98-.52-.3-1.05-.57-1.61-.78-.4-.15-.8-.3-1.21-.42-.41-.12-.82-.22-1.24-.31-.22-.05-.45-.07-.68-.1-.17-.02-.33-.03-.5-.05-.22-.03-.44-.08-.66-.08-.58-.01-1.15-.02-1.73.04-.32.04-.65.08-.97.14-.3.05-.6.11-.89.17-.46.09-.91.24-1.36.4-.48.17-.94.36-1.39.59-.27.13-.53.27-.79.42-.18.1-.36.2-.53.32-.33.23-.65.46-.96.7-.24.19-.48.38-.7.59-.24.23-.5.43-.7.69-.15.19-.33.36-.49.55-.39.43-.72.91-1.04,1.4-.38.58-.69,1.19-.98,1.82-.27.59-.45,1.2-.64,1.81-.04.14-.08.28-.1.42-.06.39-.17.77-.2,1.17-.02.37-.12.74-.12,1.11,0,.51-.04,1.03.03,1.54.04.31.07.62.1.93.03.34.1.66.17.99.11.54.28,1.06.46,1.58.23.66.53,1.29.86,1.9.12.22.25.44.39.65.24.36.49.72.75,1.07.15.2.32.39.48.58.03.03.07.04.1.06.1-.29.17-.57.28-.83.17-.41.45-.75.79-1.03.26-.22.54-.4.87-.5.7-.22,1.41-.44,2.12-.66.13-.04.27-.06.4-.1.33-.1.65-.2.97-.3.05-.2.06-1.63.03-2.4-.05-.07-.1-.14-.16-.22-.34-.43-.64-.88-.89-1.36-.31-.58-.56-1.19-.72-1.83-.08-.31-.2-.58-.39-.84-.38-.51-.56-1.1-.6-1.73,0-.08.01-.17.02-.25,0-.07.03-.14.02-.2-.01-.23.04-.46.11-.64.11-.19.28-.25.44-.32.02-.29.05-.58.06-.86,0-.52,0-1.05,0-1.57,0-.24.03-.49.05-.73,0-.02,0-.03,0-.05.06-.26.12-.52.22-.77.14-.32.3-.62.53-.88.41-.47.9-.83,1.48-1.07.28-.12.57-.22.87-.27.19-.03.39-.06.58-.11.24-.07.5-.08.74-.11.18-.02.37-.02.55-.05.31-.05.62-.07.93-.08.45-.01.91-.01,1.36.04.22.03.44.02.66.05.34.05.67.13,1.01.17.45.06.88.16,1.3.33.41.17.79.38,1.12.67.31.27.59.56.78.93.14.26.27.53.34.83.09.38.14.77.14,1.16,0,.35,0,.69,0,1.04,0,.43.03.86.05,1.29,0,.02.01.04.02.07.16.05.31.12.42.29.15.31.13.67.15,1.02.01.25-.04.5-.1.74-.12.46-.32.89-.63,1.26-.09.11-.15.24-.18.39-.12.56-.32,1.1-.56,1.62-.33.74-.78,1.42-1.29,2.06,0,.76,0,1.52,0,2.29,0,.04.02.07.03.11.06.01.11.02.16.03.63.19,1.25.39,1.88.59.36.11.71.23,1.07.32.4.11.77.28,1.11.53.58.44.96,1,1.12,1.71.02.09.05.17.07.27ZM19.9,21.04c-.01.08-.04.16-.04.24,0,.15.04.3.04.45-.02.43.09.83.16,1.25.07.46.19.92.31,1.38.11.42.23.84.42,1.23.2.4.44.79.72,1.14.16.2.31.4.49.58.22.22.46.42.7.62.42.35.88.63,1.39.84.4.17.82.22,1.24.16.37-.06.72-.2,1.05-.39.27-.16.54-.32.78-.52.22-.19.47-.35.66-.56.25-.27.51-.55.73-.84.36-.47.65-.96.83-1.52.13-.42.25-.85.36-1.27.06-.24.1-.49.14-.74.04-.19.07-.39.1-.58.03-.22.06-.44.08-.66,0-.08.03-.15.03-.23,0-.19.07-.4-.06-.57-.17-.04-.33-.08-.52-.13-.02-.1-.04-.19-.06-.29-.03-.18-.04-.36-.08-.54-.12-.54-.33-1.05-.61-1.53-.09-.16-.17-.33-.32-.44-.09.04-.18.07-.26.1-.36.14-.73.26-1.11.37-.35.09-.71.16-1.07.22-.2.03-.39.04-.59.05-.06,0-.12,0-.18,0-.13.01-.26.05-.39.03-.21-.04-.43-.03-.64-.04-.02,0-.05,0-.07,0-.23-.04-.46-.09-.69-.13-.47-.1-.93-.21-1.38-.39-.19-.08-.38-.14-.58-.21-.04.04-.08.08-.11.12-.27.42-.5.86-.66,1.33-.12.36-.22.73-.23,1.11,0,.08-.05.16-.07.23-.18.04-.34.08-.53.13ZM28.22,28.81c-.08.06-.11.09-.14.12-.27.19-.52.4-.8.57-.32.2-.65.36-1.01.49-.59.22-1.18.28-1.8.2-.39-.05-.75-.19-1.11-.34-.46-.2-.87-.48-1.27-.78-.1-.08-.2-.15-.33-.24v1.88c.56.41.96.66,1.58.9.44.17.9.29,1.37.34.33.03.66,0,.98-.06.49-.1.96-.26,1.4-.49.32-.17.62-.36.92-.55.08-.05.14-.11.19-.15v-1.88Z"/>
  <path class="cls-1" d="M41.58,28.11h2.63c.07.15-.01.28-.03.41-.06.37-.14.73-.22,1.09-.06.25-.13.5-.2.75-.21.72-.45,1.43-.74,2.12-.15.37-.33.72-.51,1.08-.12.25-.24.5-.37.74-.21.38-.43.76-.66,1.13-.27.42-.56.84-.85,1.25-.15.21-.31.39-.47.59-.2.25-.4.5-.61.74-.28.31-.58.61-.88.92-.13.14-.28.26-.42.39-.44.41-.9.81-1.38,1.17-.43.32-.86.64-1.31.92-.41.25-.83.5-1.24.74-.29.16-.58.32-.88.46-.53.25-1.07.49-1.63.69-.3.1-.6.22-.91.32-.57.18-1.15.34-1.74.46-.31.06-.61.12-.92.18-.04,0-.08,0-.11,0-.04-.17-.05-2.4,0-2.65.14-.04.29-.08.45-.11.72-.14,1.42-.35,2.11-.6.42-.15.82-.33,1.23-.5.16-.06.31-.13.46-.21.7-.34,1.38-.74,2.02-1.18.39-.27.77-.55,1.15-.83.12-.09.24-.2.35-.3.21-.19.42-.39.63-.58.1-.09.22-.17.31-.27.3-.32.59-.65.88-.97.57-.63,1.06-1.32,1.52-2.04.2-.31.38-.64.57-.97.14-.25.28-.49.4-.75.17-.37.33-.74.48-1.12.14-.36.29-.72.4-1.1.15-.5.26-1.02.39-1.52.04-.14.08-.28.12-.44Z"/>
  <path class="cls-1" d="M21.86,41.59c.04.18.05,2.18.02,2.63-.05,0-.1.03-.15.02-.54-.12-1.08-.23-1.62-.36-.65-.15-1.27-.37-1.9-.59-.74-.27-1.46-.58-2.16-.95-.46-.24-.91-.51-1.35-.78-.36-.22-.71-.45-1.05-.7-.38-.27-.74-.57-1.11-.85-.34-.26-.65-.56-.96-.86-.2-.2-.43-.38-.62-.59-.29-.3-.58-.62-.85-.94-.21-.25-.4-.52-.6-.78-.3-.37-.59-.76-.84-1.17-.29-.47-.58-.95-.85-1.44-.22-.4-.42-.81-.61-1.22-.32-.71-.62-1.43-.82-2.18-.05-.2-.12-.39-.18-.59-.14-.43-.22-.87-.32-1.31-.05-.22-.09-.45-.14-.67,0-.04,0-.09,0-.14h2.64c.04.14.09.27.12.41.1.41.2.83.31,1.24.18.67.43,1.31.7,1.94.24.57.53,1.12.84,1.65.24.42.49.83.77,1.22.28.38.57.76.85,1.13.25.33.54.63.83.92.13.13.23.29.37.41.37.29.68.64,1.05.93.41.32.81.65,1.24.94.47.32.95.62,1.44.89.56.3,1.13.57,1.72.81.79.33,1.61.57,2.43.79.23.06.47.11.71.16.03,0,.05.02.08.03Z"/>
  <path class="cls-1" d="M8.41,21.89h-2.64c-.05-.42.54-2.65,1.03-3.9.49-1.26,1.1-2.46,1.84-3.59.74-1.14,1.6-2.19,2.55-3.15.96-.97,2.01-1.82,3.14-2.57,1.13-.74,2.33-1.35,3.59-1.85,1.26-.49,2.56-.85,3.91-1.07.02.03.04.08.05.13,0,.03,0,.06,0,.09,0,.8,0,1.6,0,2.42-.05.02-.1.07-.15.07-.38.03-.75.15-1.11.25-.58.16-1.16.34-1.72.56-.63.24-1.24.53-1.84.84-.74.39-1.43.85-2.11,1.34-.28.2-.53.44-.8.65-.52.4-.96.88-1.43,1.34-.3.29-.55.61-.81.94-.22.28-.45.56-.66.85-.65.9-1.19,1.87-1.66,2.88-.13.27-.23.55-.33.83-.14.38-.28.76-.4,1.15-.13.44-.23.9-.35,1.35-.04.14-.07.28-.11.44Z"/>
  <path class="cls-1" d="M28.1,8.43c0-.89,0-1.74,0-2.59,0-.02.03-.04.05-.07,4.39.76,8.13,2.76,11.16,6.03,2.65,2.85,4.28,6.23,4.93,10.07-.18.05-2.29.07-2.68.02-.06-.25-.12-.51-.18-.77-.17-.7-.39-1.39-.64-2.07-.21-.57-.46-1.11-.73-1.65-.3-.59-.64-1.15-1-1.7-.3-.47-.64-.92-.99-1.35-.36-.43-.72-.86-1.14-1.24-.32-.3-.63-.61-.96-.9-.22-.19-.45-.37-.68-.54-.45-.32-.9-.64-1.35-.94-.23-.15-.47-.29-.71-.42-.34-.18-.67-.37-1.02-.53-.42-.19-.86-.36-1.29-.54-.66-.27-1.35-.44-2.03-.63-.19-.05-.39-.07-.58-.11-.06-.01-.11-.04-.17-.06Z"/>
</svg>