<?xml version="1.0" encoding="UTF-8"?>
<svg id="Layer_1" data-name="Layer 1" xmlns="http://www.w3.org/2000/svg" viewBox="0 0 50 50">
  <defs>
    <style>
      .cls-1 {
        fill: none;
        stroke: #606060;
        stroke-miterlimit: 10;
        stroke-width: .2px;
      }
    </style>
  </defs>
  <path class="cls-1" d="M37.47,25.01c-.15,7.01-5.56,12.42-12.45,12.42-6.97,0-12.46-5.5-12.47-12.51,0-6.82,5.7-12.42,12.49-12.38,6.81.04,12.43,5.68,12.42,12.47ZM25.01,15.78c-5,0-9.18,4.13-9.23,9.14-.05,5.04,4.15,9.28,9.2,9.29,5,0,9.18-4.12,9.23-9.14.05-5.04-4.15-9.28-9.2-9.29Z"/>
  <path class="cls-1" d="M43.87,15.53c-.99.5-1.87.94-2.87,1.45-3.17-5.78-8.05-9.01-14.8-9.78.42.64.73,1.1,1.12,1.68-.81.63-1.61,1.25-2.52,1.96-1.33-1.77-2.62-3.49-3.98-5.3,1.31-1.75,2.6-3.47,3.97-5.3.87.64,1.68,1.25,2.55,1.9-.4.61-.75,1.15-1.16,1.78,7.96.79,13.87,4.52,17.7,11.62Z"/>
  <path class="cls-1" d="M25.22,49.77c-.9-.68-1.7-1.27-2.55-1.91.39-.6.75-1.14,1.16-1.78-7.95-.79-13.87-4.51-17.7-11.62.98-.5,1.86-.94,2.86-1.45,3.17,5.76,8.04,9.02,14.79,9.77-.42-.62-.72-1.08-1.11-1.66.81-.63,1.62-1.25,2.53-1.96,1.33,1.77,2.62,3.49,3.98,5.3-1.31,1.75-2.6,3.47-3.97,5.3Z"/>
  <path class="cls-1" d="M7.19,23.84c.67-.47,1.11-.78,1.67-1.17.63.81,1.26,1.61,1.98,2.52-1.78,1.34-3.49,2.63-5.3,3.99-1.73-1.3-3.46-2.59-5.31-3.97.64-.86,1.25-1.67,1.9-2.55.59.39,1.13.75,1.78,1.17.79-7.96,4.51-13.87,11.56-17.68.15.22.25.34.32.48.39.77.78,1.55,1.19,2.38-5.82,3.18-9.04,8.02-9.8,14.82Z"/>
  <path class="cls-1" d="M34.46,43.88c-.53-1.07-.97-1.96-1.43-2.9,5.8-3.19,9.04-8.01,9.77-14.72-.36.21-.59.34-.81.48-.24.16-.47.34-.84.6-.33-.42-.66-.83-.98-1.24-.3-.4-.59-.8-.98-1.33,1.75-1.32,3.47-2.61,5.28-3.97,1.76,1.32,3.51,2.64,5.3,3.98-.67.89-1.26,1.68-1.9,2.55-.59-.39-1.13-.75-1.78-1.18-.79,7.96-4.52,13.87-11.63,17.72Z"/>
  <path class="cls-1" d="M23.96,30.12c-1.64-1.66-3.33-3.36-4.97-5.01.65-.71,1.34-1.46,2.14-2.34.94,1.05,1.8,2.01,2.75,3.06,1.74-1.73,3.35-3.33,5.04-5.02.75.8,1.45,1.55,2.1,2.25-2.35,2.35-4.72,4.72-7.06,7.06Z"/>
</svg>