<?xml version="1.0" encoding="UTF-8"?>
<svg id="Layer_1" data-name="Layer 1" xmlns="http://www.w3.org/2000/svg" viewBox="0 0 50 50">
  <defs>
    <style>
      .cls-1 {
        fill: none;
        stroke: #606060;
        stroke-miterlimit: 10;
        stroke-width: .2px;
      }
    </style>
  </defs>
  <path class="cls-1" d="M15.24,31.88c-.08-.72-.17-1.44-.25-2.21-.31,0-.61-.02-.91-.02-.29,0-.58,0-.86,0-.3,0-.6,0-.93,0-.01-.15-.02-.24-.02-.34,0-3.25,0-6.5,0-9.75,0-.81.23-1.53.75-2.15.19-.22.43-.4.68-.63.17.32.31.58.45.85-.16.19-.31.38-.45.56-.4.51-.5,1.11-.39,1.72.11.57.65,1.22,1.52,1.28.27.02.54.01.81.01,6.29,0,12.59,0,18.88,0,2.87,0,5.75.08,8.62.04,1.59-.02,2.89,1.46,2.86,2.87-.04,1.61,0,3.21,0,4.82,0,.12,0,.23,0,.37-.15.02-.26.06-.37.06-1.61,0-3.21-.03-4.82-.02-.43,0-.88.05-1.29.17-1.99.55-2.63,3.08-1.14,4.55.57.56,1.25.8,2.01.81,1.74.03,3.49,0,5.23,0,.1,0,.2-.02.32-.03.02.11.05.2.05.29,0,2.28.02,4.57,0,6.85-.01,1.22-.74,2.18-1.92,2.49-.29.08-.6.08-.9.08-3.16,0-6.33,0-9.49,0-4.52,0-9.04,0-13.55,0-.2,0-.4,0-.66,0,.65-1.22,1.37-2.37,2.03-3.59-.61-.46-1.19-.89-1.77-1.32v-1.77c.56-.43,1.15-.87,1.78-1.34-.91-1.57-1.8-3.11-2.7-4.67-.7.31-1.36.6-2.03.89-.49-.29-.98-.57-1.51-.89Z"/>
  <path class="cls-1" d="M4.28,41.19c.54-.4,1.06-.78,1.58-1.17-.13-.84-.13-1.67,0-2.56-.51-.38-1.03-.77-1.59-1.17.62-1.07,1.23-2.13,1.86-3.22.62.26,1.23.51,1.85.77.65-.55,1.41-.96,2.23-1.29.08-.64.15-1.27.23-1.9h3.74c.08.67.15,1.32.23,1.95.86.29,1.56.74,2.23,1.27.61-.26,1.21-.52,1.83-.79.62,1.08,1.24,2.15,1.86,3.23-.53.39-1.04.77-1.57,1.16.07.86.17,1.7-.06,2.55.52.38,1.03.75,1.58,1.16-.27.59-.62,1.11-.92,1.64-.3.53-.61,1.05-.92,1.59-.61-.26-1.21-.52-1.83-.79-.65.55-1.38.97-2.23,1.28-.07.63-.14,1.26-.21,1.9-.34.1-2.62.13-3.76.05-.03-.31-.05-.62-.08-.93-.03-.32-.08-.63-.12-1-.81-.28-1.55-.74-2.23-1.29-.61.26-1.19.52-1.83.79-.61-1.06-1.22-2.12-1.86-3.23ZM12.32,35.4c-1.78-.06-3.4,1.47-3.41,3.34,0,1.78,1.51,3.4,3.37,3.39,1.75,0,3.38-1.3,3.41-3.35.03-2.09-1.71-3.4-3.37-3.37Z"/>
  <path class="cls-1" d="M42.25,4.36c.29.03.39.17.48.34.29.54.58,1.07.87,1.6,1.55,2.85,3.09,5.7,4.63,8.55.4.74.8,1.49,1.2,2.23.06.11.09.24.15.39-.15.11-.25.21-.38.28-1.63.88-3.27,1.76-4.91,2.64-.04.02-.09.04-.16.07-1.19-.3-2.43-.09-3.77-.19,1.21-.65,2.34-1.26,3.51-1.89-.11-.25-.22-.49-.32-.74-.37-.92-.29-1.79.34-2.57.2-.24.48-.41.74-.6.17-.13.37-.23.6-.37-.75-1.45-1.55-2.85-2.31-4.27-1.92.95-3.19.58-4.42-1.24-4.6,2.47-9.2,4.95-13.79,7.41.14.46.32.86.39,1.29.15.89-.07,1.68-.79,2.27-.32.27-.68.49-.99.71h-2.61c-.58-1.07-1.15-2.13-1.71-3.16.03-.29.19-.39.38-.49,1.38-.74,2.77-1.48,4.15-2.23,2.51-1.35,5.02-2.71,7.54-4.06,1.64-.88,3.27-1.75,4.91-2.63,1.95-1.05,3.89-2.1,5.84-3.15.15-.08.3-.15.43-.21Z"/>
  <path class="cls-1" d="M42.54,11.02c.51.91,1,1.81,1.51,2.72-.7.46-1.25,1.06-1.49,1.87-.23.78-.18,1.57.11,2.35-.29.17-.56.33-.84.48-1.04.56-2.09,1.11-3.12,1.68-.23.13-.46.18-.72.18-.56-.01-1.12,0-1.67,0-.11,0-.22-.02-.37-.03,2.33-1.47,2.05-4.13.84-5.38-1.41-1.45-3.71-1.45-5.1.16-1.14,1.33-1.3,3.75,1,5.23h-7.7c1.1-1.08,1.33-2.35.92-3.81,4.11-2.22,8.24-4.44,12.37-6.66,1.15,1.39,2.56,1.77,4.27,1.22Z"/>
  <path class="cls-1" d="M19.68,20.27h-3c-.17-.29-.34-.57-.5-.87-.6-1.11-1.19-2.23-1.79-3.34-.09-.18-.23-.34-.13-.63.06-.04.17-.13.28-.19,1.32-.71,2.64-1.43,3.97-2.14,2.81-1.51,5.62-3.01,8.43-4.52,2.94-1.58,5.88-3.17,8.82-4.75.46-.25.92-.48,1.41-.74.11.11.24.18.3.28.35.62.68,1.24,1.03,1.89-.22.13-.41.26-.61.37-2.82,1.52-5.65,3.03-8.47,4.55-2.6,1.4-5.2,2.8-7.8,4.2-.89.48-1.79.95-2.67,1.44-.19.1-.38.24-.52.4-.34.4-.46.86-.2,1.36.21.4.42.81.64,1.21.25.48.51.95.81,1.48Z"/>
  <path class="cls-1" d="M4.18,24.2c.54-.07,1.03-.13,1.59-.2.16-.27.36-.6.57-.95.66.28,1.3.56,1.97.85.01.4-.21.74-.28,1.12.29.39.6.79.95,1.26h1.14c.09.74.17,1.44.25,2.16-.33.23-.75.17-1.1.33-.21.46-.42.94-.65,1.46.16.28.35.6.56.96-.59.43-1.16.86-1.78,1.32-.28-.29-.54-.57-.79-.82-.53.06-1.02.12-1.57.19-.17.26-.37.59-.6.95-.68-.3-1.34-.59-2-.88.12-.39.22-.75.32-1.09-.32-.43-.63-.85-.97-1.32H.66c-.08-.72-.16-1.4-.24-2.14.38-.11.77-.21,1.12-.31.21-.49.41-.95.63-1.45-.17-.29-.35-.61-.55-.97.59-.43,1.17-.86,1.79-1.3.28.29.54.57.78.82ZM5.45,25.56c-1-.07-2.36.75-2.41,2.29-.04,1.32,1.01,2.47,2.41,2.46,1.21,0,2.32-.9,2.36-2.36.04-1.39-1.17-2.44-2.36-2.4Z"/>
  <path class="cls-1" d="M45.98,30.34v3.64c-.13,0-.25,0-.36,0-1.67,0-3.34,0-5.02,0-.4,0-.81-.04-1.17-.24-.77-.42-1.06-1.24-.91-1.97.15-.77.85-1.35,1.65-1.42.1,0,.2,0,.3,0,1.72,0,3.45,0,5.17,0,.1,0,.2,0,.34,0ZM41.31,32.11c-.18-.62-.52-.91-.97-.86-.46.06-.76.39-.75.86,0,.46.29.79.76.85.45.06.78-.22.96-.85Z"/>
  <path class="cls-1" d="M33.48,14.61c.11.2.21.37.31.56.67-.07,1.23.08,1.57.78-.25.14-.49.26-.71.38-.53-.48-.94-.36-1.22.32.05.2.2.21.36.2.32-.04.64-.07.95-.14.54-.12.97.02,1.29.46.33.46.24.92-.03,1.38-.06.1-.12.2-.2.31.08.19.16.37.24.57-.24.13-.48.26-.75.4-.11-.19-.21-.36-.34-.56-.65.09-1.21-.07-1.56-.75.22-.13.44-.25.68-.39.24.15.45.4.8.24.24-.12.3-.17.45-.61-.09-.04-.19-.12-.29-.13-.22,0-.44.03-.66.05-.22.02-.43.06-.65.08-.47.05-.85-.14-1.06-.54-.23-.43-.2-.88.07-1.29.07-.11.15-.22.23-.34-.09-.18-.17-.36-.27-.57.27-.14.52-.26.79-.4Z"/>
  <path class="cls-1" d="M14.73,38.75c.06,1.27-1.07,2.44-2.42,2.45-1.31.01-2.45-1.11-2.45-2.44,0-1.27,1.03-2.44,2.44-2.45,1.36,0,2.48,1.17,2.43,2.44Z"/>
  <path class="cls-1" d="M3.95,27.92c0-.79.66-1.44,1.46-1.44.77,0,1.49.67,1.46,1.45-.03.82-.59,1.43-1.5,1.47-.79.03-1.42-.66-1.41-1.48Z"/>
</svg>