<?xml version="1.0" encoding="UTF-8"?>
<svg id="Layer_1" data-name="Layer 1" xmlns="http://www.w3.org/2000/svg" viewBox="0 0 50 50">
  <defs>
    <style>
      .cls-1 {
        fill: none;
        stroke: #606060;
        stroke-miterlimit: 10;
        stroke-width: .2px;
      }
    </style>
  </defs>
  <path class="cls-1" d="M31.99,29.79c1.48,1.48,2.94,2.94,4.39,4.4.57-.19,1.09-.31,1.64-.28.92.05,1.77.32,2.45.96.91.86,1.81,1.74,2.71,2.62,1.54,1.51,3.07,3.02,4.62,4.52.57.55.93,1.21,1.09,1.96.24,1.17.05,2.28-.67,3.26-.59.79-1.35,1.37-2.33,1.57-1.41.3-2.67,0-3.74-1-.28-.26-.55-.55-.83-.82-2.06-2.02-4.11-4.05-6.18-6.07-.62-.6-1.04-1.31-1.21-2.15-.13-.66-.11-1.32.08-1.98.03-.12.07-.23.08-.27-1.48-1.49-2.92-2.94-4.37-4.41-4.66,3.63-9.89,4.86-15.66,3.4-4.31-1.09-7.72-3.57-10.15-7.28C-1.02,20.74.55,11.1,6.86,5.51,14.22-1.01,25.06-.07,31.31,6.6c6.07,6.48,6.26,16.5.68,23.19ZM18.51,32.89c7.82.05,14.3-6.25,14.32-14.27,0-4.06-1.48-7.55-4.38-10.36-2.73-2.64-6.07-3.98-9.87-3.98-3.93,0-7.36,1.38-10.16,4.18-2.81,2.81-4.21,6.24-4.2,10.19.01,7.9,6.41,14.27,14.29,14.24Z"/>
  <path class="cls-1" d="M27.04,14.51c.3.19.38.43.37.71,0,.67,0,1.34,0,2,0,3.23,0,6.46,0,9.69,0,.17,0,.34,0,.52-6.03,0-12.01,0-18,0-.01-.01-.03-.02-.04-.03,0-.01-.02-.02-.02-.04,0-2.03,0-4.07-.01-6.1,0-.12.01-.25.02-.34.17-.34.45-.42.75-.42.67,0,1.34,0,2,0,.37,0,.45.06.77.42v5.35c.42.12.82.06,1.23.06.03-.11.07-.19.07-.28,0-.73-.01-1.46-.02-2.19,0-.28-.02-.56.22-.8.19-.11.41-.14.65-.13.51.02,1.02,0,1.53-.01.11,0,.22,0,.33,0,.63.02.83.22.83.84,0,.71,0,1.43,0,2.14,0,.11,0,.21,0,.35.41.13.81.06,1.18.06.19-.15.12-.34.12-.5,0-1.88,0-3.76,0-5.64,0-.47,0-.93,0-1.4,0-.23.04-.43.27-.63.95-.14,1.95-.1,2.93,0,.07.06.13.09.17.13.05.05.1.12.18.21v7.75c.4.18.78.06,1.2.1.02-.11.06-.21.06-.3,0-3.7,0-7.39,0-11.11.07-.11.16-.24.27-.41.97-.04,1.96-.02,2.94-.01Z"/>
  <path class="cls-1" d="M20.03,15.47c-.83.84-1.64,1.65-2.46,2.48.31.75.2,1.47-.44,2.04-.53.48-1.16.62-1.85.33-.81-.34-1.12-.97-1.09-1.86-.59-.3-1.19-.6-1.8-.91-.47.36-.98.59-1.56.49-.37-.07-.68-.27-.97-.52-.58-.51-.64-1.54-.3-2.1.51-.83,1.18-1.02,2.02-.86.79.15,1.25.86,1.33,1.98.56.28,1.14.58,1.74.88.32-.17.59-.46.98-.46.37,0,.74.04,1.17.06.75-.75,1.55-1.55,2.35-2.36-.06-.28-.12-.55-.17-.81.14-1.59,1.63-2.15,2.78-1.51.27-.11,1.76-1.22,2.13-1.58.04-.3-.08-.61,0-.94.17-.72.84-1.3,1.58-1.36.96-.08,1.77.54,1.93,1.55.12.71-.31,1.58-1.19,1.89-.55.19-1.07.11-1.6-.2-.7.52-1.4,1.05-2.12,1.59.2.74.05,1.38-.53,1.89-.58.51-1.25.57-1.92.3ZM21.1,14.59c.49-.33.62-.72.39-1.17-.18-.35-.58-.5-.94-.37-.41.14-.68.61-.56.99.13.42.48.69,1.12.55ZM25.59,10.98c.49,0,.83-.32.82-.8,0-.43-.37-.8-.8-.8-.41,0-.83.39-.81.8.03.52.32.79.78.8ZM15.11,18.69c.2.57.47.79.89.77.35-.02.65-.28.72-.62.08-.38-.09-.74-.41-.9-.37-.19-.67-.1-1.07.32-.04.13-.08.28-.13.43ZM11.41,17.02c.38-.2.54-.51.47-.93-.07-.4-.36-.55-.72-.64-.15.04-.32.08-.5.12-.09.09-.19.18-.26.24-.05.23-.09.4-.12.54.16.58.48.81,1.13.67Z"/>
</svg>