<?xml version="1.0" encoding="UTF-8"?>
<svg id="Layer_1" data-name="Layer 1" xmlns="http://www.w3.org/2000/svg" viewBox="0 0 50 50">
  <defs>
    <style>
      .cls-1 {
        fill: none;
        stroke: #606060;
        stroke-miterlimit: 10;
        stroke-width: .2px;
      }
    </style>
  </defs>
  <g>
    <path class="cls-1" d="M.37,5.38c.33-.01.67-.03,1-.04.1,0,.2,0,.31,0,.07.5.15.99.23,1.51-.41.11-.85.17-1.3.29-.02-.09-.04-.17-.06-.25-.08-.36-.13-.73-.14-1.11,0-.04-.03-.08-.04-.12,0-.09,0-.18,0-.28Z"/>
    <path class="cls-1" d="M44.52,49.31s-.09-.04-.14-.05c-.32-.06-.64-.11-.96-.16-.04,0-.08-.03-.13-.05.09-.44.18-.86.27-1.29.44.08.85.15,1.27.22,0,.02.02.05.02.07-.03.33-.05.65-.08.98,0,.09,0,.18,0,.27h-.23Z"/>
    <path class="cls-1" d="M17.2,44.21c-.17.11-.36.23-.56.36-.13-.21-.26-.4-.37-.61-.09-.18-.22-.29-.4-.38-1.23-.61-2.39-1.33-3.46-2.18-.49-.38-.94-.8-1.41-1.21-.24-.21-.47-.43-.7-.67-.43-.45-.84-.91-1.23-1.39-.45-.55-.87-1.12-1.26-1.72-.43-.66-.83-1.34-1.18-2.04-.04-.07-.07-.15-.12-.24-.05.07-.1.13-.14.19-.48.8-.97,1.61-1.45,2.41-.42.72-.81,1.47-1.18,2.23-.51,1.07-.97,2.17-1.32,3.31-.16.55-.31,1.1-.39,1.66-.06.42-.13.85-.1,1.27.04.51.1,1.02.34,1.48.24.45.59.78,1.06.97.07.03.14.07.22.11-.13.42-.26.83-.4,1.25-.37-.1-.69-.27-.99-.48-.78-.54-1.22-1.31-1.42-2.22-.05-.23-.08-.47-.1-.7-.02-.23-.04-.47-.04-.71.01-.56.08-1.11.19-1.65.13-.66.31-1.3.53-1.94.28-.81.59-1.62.96-2.39.27-.56.53-1.12.82-1.67.33-.62.68-1.23,1.03-1.84.47-.84.99-1.65,1.52-2.45.02-.02.04-.05.06-.07.1.06.18.12.31.2-.04-.11-.06-.17-.08-.24-.4-.98-.72-1.98-.96-3-.13-.55-.23-1.12-.32-1.68-.05-.3-.07-.6-.11-.91-.06-.51-.07-1.02-.1-1.53-.02-.33-.03-.66-.02-.98.01-.41.05-.82.08-1.23.01-.2.03-.39.05-.59.05-.61.16-1.22.27-1.83.17-.91.41-1.79.7-2.67.37-1.12.85-2.19,1.41-3.22.56-1.04,1.21-2.01,1.94-2.94.29-.37.61-.73.93-1.08.36-.39.73-.78,1.12-1.15.61-.58,1.26-1.12,1.94-1.61.87-.63,1.78-1.21,2.74-1.7.02-.01.04-.02.08-.05-.04-.03-.07-.06-.1-.08-.87-.51-1.73-1.04-2.61-1.53-.97-.54-1.96-1.03-2.98-1.46-.71-.3-1.42-.59-2.16-.82-.69-.22-1.39-.39-2.1-.5-.49-.08-.99-.11-1.48-.07-.43.03-.84.12-1.23.3-.52.25-.86.64-1.07,1.17-.02.06-.04.11-.07.18-.43-.12-.85-.25-1.27-.39.15-.47.36-.88.65-1.25.42-.53.98-.87,1.61-1.09.33-.12.67-.18,1.02-.22.4-.05.79-.05,1.19-.03.34.01.68.06,1.02.12.4.07.79.15,1.18.24.73.17,1.43.42,2.13.68,1.25.47,2.46,1.04,3.64,1.66.99.52,1.96,1.07,2.9,1.66.39.25.79.49,1.19.74,5.26-2.08,10.52-2.09,15.79-.03,0,0,0-.02,0-.04,0-.01,0-.03-.02-.06.07-.05.14-.1.22-.15.95-.61,1.91-1.2,2.9-1.75.82-.47,1.66-.91,2.52-1.32,1.19-.57,2.41-1.07,3.68-1.45.58-.17,1.17-.31,1.78-.41.57-.09,1.13-.15,1.71-.13.74.03,1.45.17,2.11.53.53.29.96.7,1.28,1.22.3.48.45,1.01.54,1.56,0,.01,0,.03,0,.06-.42.06-.85.11-1.29.17-.03-.11-.05-.2-.07-.3-.09-.41-.25-.78-.53-1.1-.36-.41-.84-.63-1.37-.73-.38-.08-.77-.12-1.16-.09-.34.03-.68.07-1.02.12-.89.13-1.75.39-2.59.7-.66.25-1.32.52-1.97.81-.47.2-.93.43-1.38.67-.94.49-1.87,1-2.78,1.55-.33.2-.65.4-.98.6-.06.04-.13.08-.21.14.06.04.11.07.16.1.88.44,1.72.96,2.53,1.52.58.4,1.12.84,1.66,1.3.5.43.98.88,1.43,1.36.48.52.95,1.06,1.38,1.62.51.66.97,1.35,1.4,2.06.45.75.84,1.52,1.19,2.32.06.13.13.24.25.31.06.03.11.08.16.12-.05.08-.09.16-.13.23,1.87,5.02,1.88,10.03,0,15.08.01.02.03.07.06.12.55.88,1.12,1.75,1.66,2.63.32.51.61,1.04.9,1.57.28.52.56,1.05.82,1.59.56,1.15,1.04,2.32,1.4,3.55.18.61.32,1.22.41,1.85.08.56.11,1.11.07,1.67-.06.94-.35,1.81-1,2.52-.36.39-.8.66-1.29.85-.25.1-.51.16-.76.23-.06.02-.14.01-.23.02-.07-.42-.13-.84-.2-1.28.13-.04.25-.07.38-.1.39-.11.74-.27,1.04-.55.36-.34.56-.76.66-1.23.11-.53.11-1.06.06-1.59-.12-1.19-.48-2.32-.9-3.43-.36-.93-.78-1.84-1.24-2.73-.5-.96-1.03-1.91-1.61-2.83-.24-.38-.48-.76-.72-1.14-.04-.06-.08-.12-.15-.21-.15.28-.28.54-.43.79-.14.26-.29.52-.44.78-.15.26-.31.51-.47.76-.16.25-.34.49-.51.73-.18.24-.35.48-.54.71-.18.23-.37.47-.56.69-.19.23-.4.44-.6.66-.21.22-.42.45-.64.66-.21.21-.43.41-.66.61-.22.2-.45.39-.68.57-.23.19-.46.37-.7.55-.24.18-.48.35-.73.52-.25.17-.49.34-.74.49-.25.16-.51.31-.77.45-.26.15-.52.29-.8.44.13.08.24.16.37.25-.23.38-.46.74-.7,1.13-.23-.14-.44-.27-.66-.41.15-.23.28-.45.43-.69-5.49,2.43-11.01,2.55-16.63.4ZM35.56,34.65c.13-.31.25-.61.37-.91.04-.09.08-.15.17-.2.49-.27.97-.55,1.46-.82.62-.35,1.25-.7,1.89-1.06.12.23.23.45.34.67.11.22.2.45.35.68.32-.46.62-.89.93-1.35.28.65.56,1.28.83,1.9.07.16.12.34.26.48.19-.38.36-.74.54-1.11.03-.05.03-.11.04-.17-1.35-1.96-2.8-3.83-4.32-5.67-.32.68-.63,1.35-.94,2.02h-.7c-.36-.3-.71-.6-1.06-.89-.05.03-.09.06-.13.08-.32-.31-.63-.61-.96-.91.04-.05.08-.09.11-.12.04-.04.07-.08.11-.12-.28-.41-.56-.81-.84-1.23-.6.58-1.18,1.14-1.77,1.71-.03-.03-.06-.05-.09-.08-.53-.51-1.05-1.02-1.58-1.53-.03-.03-.07-.05-.11-.08,0,.05.01.08.03.1.44.64.88,1.28,1.33,1.92.05.08.09.15.1.25.01.17.03.35.05.52.02.15.01.31.06.45.04.13.01.23-.05.35-.2.39-.39.79-.59,1.18.33.33.66.66.99.99-.41.37-.76.76-1.14,1.12-.22-.19-.35-.43-.59-.59-.24.49-.47.97-.69,1.44.07.08.12.14.18.2-.02.03-.03.05-.05.06-.29.22-.54.47-.67.82-.01.04-.04.07-.05.1-.05.14-.15.24-.27.34-.17.14-.34.28-.51.42-.12.1-.25.19-.37.28-.26-.1-.47-.24-.73-.3.12.13.23.25.36.38-.41.36-.8.7-1.2,1.05-.29-.34-.58-.67-.88-1.01.35-.32.69-.62,1.03-.93-.13-.34-.25-.67-.37-1-.08-.21-.18-.41-.22-.62-.06-.3-.07-.62-.1-.93-.02-.27-.03-.53-.05-.8-.01-.19-.03-.38-.05-.57-.02-.24-.06-.48-.08-.72-.02-.19-.03-.38-.04-.55-.23-.27-.45-.52-.67-.77-.05,0-.09,0-.13,0-.37.03-.74.06-1.11.09-.27.02-.55.03-.82.05-.14,0-.27.01-.42.02-.39-.49-.78-.98-1.16-1.47.08-.59.15-1.17.22-1.7.57-.73,1.11-1.42,1.63-2.1.34-.02.66-.05.98-.06.32-.02.64-.01.96-.04.46-.04.93-.04,1.39-.06.11,0,.21,0,.32,0,.04,0,.08,0,.11-.02-.03-.05-.06-.07-.1-.07-.51-.06-1.03-.12-1.54-.19-.35-.04-.69-.09-1.04-.14-.43-.06-.86-.12-1.28-.19-.11-.02-.22-.05-.35-.08.09-.24.17-.45.24-.66.05-.14.11-.29.13-.43.03-.25.04-.5.04-.75,0-.37-.02-.75-.03-1.1-.12-.14-.22-.27-.32-.4.08-.13.15-.25.22-.36.28-.11.52-.03.72.13.26.21.5.43.74.65.18.16.36.33.55.51.05-.37-.04-.7-.05-1.03,0-.27-.05-.54-.08-.82-.01-.14-.02-.29-.03-.47.58-.85,1.18-1.73,1.78-2.62.13.01.25.02.37.03.12.01.23.03.37-.02-1.4-1.26-2.81-2.47-4.28-3.65-.03.08-.05.13-.06.19-.06.28-.12.56-.19.84-.14.62-.3,1.24-.5,1.84-.12.34-.29.63-.55.88-.3.28-.65.51-1,.72-.25.15-.53.27-.78.43-.51.31-1.02.64-1.53.97-.17.11-.35.22-.52.33-.04-.18-.08-.35-.11-.52-.09-.47-.18-.94-.27-1.41-.06-.33-.13-.67-.2-1-.05-.24-.11-.47-.19-.7-.12-.36-.35-.66-.57-.96-.11-.14-.22-.28-.39-.44,0,.13,0,.21,0,.3.01.36.03.72.04,1.07.02.63,0,1.25.04,1.88.05.8,0,1.6.05,2.41.03.43,0,.87.01,1.31,0,.23,0,.45.02.7,0,0-.03.03-.06.04-.77.53-1.55,1.05-2.32,1.59-1.08.76-2.16,1.53-3.24,2.31-.39.29-.76.61-1.14.92-.08.07-.14.16-.22.25.07.12.12.23.19.32.31.42.72.72,1.13,1.03.06.04.14.07.21.09.22.04.43.07.65.1.31.05.63.1.94.15.32.05.64.11.96.17.28.05.57.1.84.18.55.16,1.11.31,1.66.48.14.04.29.08.4.16.32.23.62.49.93.74.39.31.79.62,1.19.93.12.1.25.2.36.3,0,.09,0,.17,0,.25-.01.35-.04.7-.04,1.05,0,.16-.04.3-.13.43-.17.27-.34.54-.51.81-.47.77-.96,1.52-1.49,2.25-.19.26-.4.5-.72.61-.14.05-.27.09-.41.13-.21.06-.43.11-.62.22-.15.09-.27.21-.33.39-.1.29-.14.59-.14.9-.01.53,0,1.06,0,1.58,0,.05-.01.11-.02.2-.28-.24-.53-.46-.78-.66-.31-.25-.58-.54-.81-.87-.11-.16-.19-.33-.21-.52-.03-.2-.05-.41-.05-.61,0-.5,0-1,0-1.49,0-.58,0-1.16,0-1.75,0-.27-.05-.53-.23-.75-.26-.33-.54-.64-.81-.96-.11-.13-.23-.26-.35-.4.01-.08.03-.17.04-.25.04-.23.08-.46.11-.7.03-.2.02-.4.06-.59.05-.22,0-.43-.03-.63-.02-.09-.08-.19-.15-.25-.18-.15-.38-.29-.58-.41-.6-.37-1.22-.69-1.85-1-.2-.1-.4-.19-.59-.31-.47-.3-.93-.61-1.38-.94-.26-.19-.51-.42-.75-.64-.12-.11-.2-.25-.21-.42-.02-.22-.07-.44-.08-.65-.03-.43-.04-.87-.05-1.3,0-.18,0-.35,0-.53,0-.06,0-.12-.01-.18-1.06,8.72,3.81,16.56,11.15,19.89.05-.02.11-.04.17-.06.05.07.09.13.17.23.45.17.94.37,1.44.54.75.26,1.51.46,2.29.63.39.08.79.14,1.19.2.28.04.56.07.84.1.3.03.61.07.91.08.47.02.93.02,1.4,0,.45,0,.9-.02,1.35-.06.43-.04.86-.1,1.29-.17.46-.08.91-.16,1.36-.26,1.06-.24,2.09-.59,3.1-1.01.93-.39,1.83-.85,2.68-1.38,1.03-.64,1.99-1.37,2.88-2.19.63-.58,1.22-1.2,1.77-1.86.04-.05.08-.12.13-.2h-.26c-.32-.57-.64-1.14-.95-1.7-.09,0-.16,0-.23.01-.35.06-.7.12-1.06.17-.41.06-.83.12-1.24.18-.09.01-.18,0-.28,0-.16-.43-.31-.85-.46-1.28ZM31.09,15.96c.47-.32.91-.61,1.34-.9.09-.06.16-.14.23-.22.43-.56.85-1.11,1.27-1.67.11-.15.24-.27.41-.35.39-.19.77-.4,1.16-.6.27-.14.54-.28.8-.4.22.05.42.1.62.13.62.11,1.24.22,1.86.33.32.06.32.06.56.3.31.3.63.6.94.9.12.12.24.24.36.35.03.03.06.05.09.07-.11-.22-.25-.41-.4-.59-.35-.43-.7-.87-1.08-1.27-.47-.5-.97-.97-1.48-1.44-.3-.28-.62-.54-.95-.79-.8-.61-1.63-1.16-2.51-1.64-.85-.47-1.73-.87-2.64-1.2-.86-.32-1.73-.57-2.63-.76-.62-.13-1.24-.24-1.87-.29-.2-.02-.39-.04-.59-.05-.39-.03-.79-.07-1.18-.08-.43,0-.85.02-1.28.03-.21,0-.43.03-.64.04-.42.02-.83.07-1.25.14-.48.08-.96.15-1.43.27-.61.14-1.2.32-1.8.49-.16.05-.32.1-.47.19.54.38,1.07.74,1.58,1.12.97.72,1.94,1.43,2.89,2.17.85.66,1.69,1.34,2.52,2.02.66.54,1.31,1.11,1.95,1.67.54.47,1.07.96,1.6,1.44.19.17.38.34.56.51.49.02.98.04,1.45.06ZM17.02,7.57c-1.41.64-2.71,1.45-3.92,2.4-1.11.87-3.11,2.91-3.19,3.26.93-.76,1.92-1.45,2.92-2.14.05,0,.12-.02.18,0,.3.1.6.08.91.09.57,0,1.08-.18,1.52-.53.31-.24.61-.51.91-.76.16-.13.32-.27.48-.38.17-.12.36-.21.58-.17.2.04.4.08.6.14,1.01.3,1.99.72,2.97,1.11.15.06.3.12.45.19-1.41-1.14-2.88-2.18-4.41-3.2ZM43.35,31.29c.46-1.35.75-2.69.9-4.06.15-1.38.14-2.75.01-4.13-.12-1.36-.61-3.42-.89-4.02,0,.07,0,.1,0,.14.08.4.17.8.26,1.2.1.45.2.9.29,1.36.03.16.05.32.04.47-.01.2-.06.39-.1.58-.07.36-.14.73-.21,1.09-.08.45-.16.89-.25,1.34-.07.36-.14.71-.22,1.07-.07.33-.14.67-.35.95-.19.25-.37.52-.55.77-.35-.04-.69-.09-1.02-.13-.24-.22-.47-.43-.7-.64-.23-.21-.44-.44-.71-.61,1.2,1.49,2.36,3.01,3.51,4.61ZM8.95,14.55c-.62.71-2.1,3.76-2.08,4.23.69-1.41,1.39-2.82,2.08-4.23Z"/>
    <path class="cls-1" d="M2.9,9.88c-.41.17-.8.34-1.2.51-.23-.53-.45-1.04-.6-1.61.41-.14.81-.27,1.23-.41.09.25.19.49.28.74.09.25.19.5.29.78Z"/>
    <path class="cls-1" d="M4.33,12.77c-.4.22-.77.43-1.16.65-.28-.5-.55-.98-.78-1.51.38-.21.78-.36,1.18-.57.25.48.5.94.75,1.43Z"/>
    <path class="cls-1" d="M5.14,14.2c.29.46.58.91.87,1.38-.37.24-.75.48-1.13.72-.3-.47-.58-.94-.89-1.42.38-.23.75-.45,1.14-.69Z"/>
    <path class="cls-1" d="M4.89,49.24v-1.29c.46-.05.91-.09,1.39-.14.09.06.06.19.08.3.08.32.14.65.21.98-.25.11-1.23.2-1.68.15Z"/>
    <path class="cls-1" d="M47.61,11.86c-.25.48-.48.94-.73,1.43-.39-.22-.77-.43-1.16-.64.23-.47.46-.92.69-1.38.4.2.79.39,1.2.6Z"/>
    <path class="cls-1" d="M13.28,44.99c.45-.25.87-.49,1.32-.74.26.35.45.73.71,1.09-.45.29-.91.55-1.38.84-.22-.4-.43-.79-.64-1.19Z"/>
    <path class="cls-1" d="M48.32,5.66c.44.05.86.09,1.31.14-.05.55-.13,1.07-.28,1.6-.45-.11-.89-.19-1.3-.32.09-.48.18-.94.28-1.42Z"/>
    <path class="cls-1" d="M46.09,14.66c-.27.47-.52.91-.84,1.33-.37-.23-.73-.46-1.09-.69.26-.45.52-.88.78-1.33.38.23.76.45,1.15.69Z"/>
    <path class="cls-1" d="M11.12,47.6c-.19-.42-.36-.82-.54-1.23.46-.22.91-.42,1.38-.64.19.39.39.78.6,1.18-.48.23-.94.45-1.43.69Z"/>
    <path class="cls-1" d="M47.6,8.5c.43.16.83.31,1.24.46-.16.51-.37.98-.6,1.47-.4-.19-.79-.36-1.2-.55.18-.46.36-.92.55-1.38Z"/>
    <path class="cls-1" d="M8.13,48.71c-.12-.42-.24-.82-.37-1.24.45-.17.9-.33,1.37-.51.19.39.33.81.51,1.23-.49.2-.98.36-1.51.51Z"/>
    <path class="cls-1" d="M36.53,46.37c-.43-.25-.82-.49-1.24-.74.22-.4.43-.77.64-1.14.42.23.83.46,1.24.69-.21.39-.42.77-.64,1.19Z"/>
    <path class="cls-1" d="M37.82,47.01c.2-.41.4-.79.59-1.19.42.2.82.39,1.24.59-.18.41-.36.81-.54,1.23-.45-.16-.84-.43-1.29-.63Z"/>
    <path class="cls-1" d="M40.47,48.22c.16-.44.31-.84.47-1.25.44.16.86.31,1.29.46-.12.42-.24.82-.37,1.25-.47-.15-.91-.3-1.38-.46Z"/>
    <path class="cls-1" d="M34.55,29.45c-.35.38-.7.76-1.04,1.13-.13-.08-.79-.72-.97-.95.34-.36.69-.72,1.05-1.1.33.31.65.61.97.92Z"/>
    <path class="cls-1" d="M19.76,40.81c.26.36.51.72.77,1.09-.4.32-.85.58-1.26.92-.17-.15-.27-.36-.4-.54-.13-.18-.26-.36-.39-.55.43-.31.85-.61,1.29-.92Z"/>
    <path class="cls-1" d="M24.26,39.02c-.3-.34-.58-.67-.87-1,.4-.34.8-.67,1.2-1.01.28.34.57.69.86,1.05-.4.32-.79.64-1.19.97Z"/>
    <path class="cls-1" d="M23.03,40.03c-.42.31-.82.61-1.24.92-.27-.36-.53-.71-.79-1.06.4-.31.79-.61,1.2-.92.27.35.55.7.83,1.06Z"/>
  </g>
  <polyline class="cls-1" points="29.63 15.9 32.54 17.84 33.61 16.96 34.02 21.53 29.43 20.87 30.82 19.63 27.55 15.82"/>
</svg>