<?xml version="1.0" encoding="UTF-8"?>
<svg id="Layer_1" data-name="Layer 1" xmlns="http://www.w3.org/2000/svg" viewBox="0 0 50 50">
  <defs>
    <style>
      .cls-1 {
        fill: none;
        stroke: #606060;
        stroke-miterlimit: 10;
        stroke-width: .2px;
      }
    </style>
  </defs>
  <path class="cls-1" d="M30.29,37.43c2.81,1.05,4.84,2.83,6.14,5.4.87,1.73,1.31,3.56,1.17,5.59h-20.97c-.18-2.44.46-4.63,1.76-6.66,1.31-2.05,3.17-3.44,5.57-4.36-2.1-1.46-3.3-3.28-3.28-5.77.01-1.82.69-3.34,1.98-4.59,2.58-2.51,6.82-2.35,9.22.32,2.7,3.01,2.13,6.85-1.59,10.07ZM36.4,47.24c-.37-3.7-2-6.44-5.18-8.08-3.22-1.65-6.41-1.37-9.38.69-2.52,1.75-4.23,5.11-3.85,7.39h18.42ZM21.86,31.65c-.02,2.91,2.28,5.26,5.19,5.31,2.85.05,5.27-2.34,5.29-5.22.02-2.91-2.3-5.26-5.2-5.28-2.92-.02-5.26,2.29-5.27,5.2Z"/>
  <path class="cls-1" d="M17.39,27.25c.17-2.11.92-4.09,1.34-6.27-2.5-2.64-3.85-5.8-3.37-9.6.34-2.72,1.54-5.01,3.55-6.86,4.01-3.69,10.07-3.93,14.4-.6,4.22,3.25,5.55,9.1,3.16,13.88-2.23,4.45-7.72,7.62-13.99,5.47-1.65,1.19-2.68,3.1-4.46,4.18-.13.08-.31-.01-.62-.22ZM19.27,24.54c.76-.4,1.2-1.13,1.82-1.68.38-.34.67-.81,1.28-.92.14.04.34.09.52.16,1.59.64,3.22.81,4.92.58,5.1-.68,8.89-5.21,8.65-10.36-.24-5.2-4.5-9.46-9.67-9.53-4.26-.06-7.49,1.84-9.33,5.68-1.84,3.84-1.24,7.51,1.42,10.84.37.46.88.82,1.07,1.39.11.57-.19,1.04-.27,1.54-.12.77-.58,1.49-.38,2.31-.16-.07-.17,0-.12.13.04-.05.07-.1.1-.15Z"/>
  <path class="cls-1" d="M44.02,36.61c3.87,2.18,5.61,5.01,5.34,8.63-.81.25-8.21.33-9.85.1-.18-.29-.38-.59-.24-1.11h8.93c-.34-2.73-1.49-4.77-3.79-6-3.08-1.66-5.92-1.02-8.45,1.2-.38-.09-.6-.32-.83-.64.7-1.05,1.82-1.56,2.89-2.13.01-.46-.39-.59-.63-.83-1.66-1.71-2.02-4.12-.9-6.17,1.06-1.95,3.27-3.02,5.44-2.63,2.28.41,4,2.23,4.25,4.56.17,1.59-.34,2.98-1.43,4.16-.24.25-.58.42-.74.87ZM40.98,28.15c-2.16.03-3.94,1.84-3.93,3.99,0,2.23,1.82,3.99,4.06,3.97,2.17-.03,3.95-1.82,3.94-3.98-.02-2.21-1.85-4.01-4.07-3.98Z"/>
  <path class="cls-1" d="M15.99,36.58c1.02.53,1.94.99,2.68,1.71.14.14.26.29.37.41-.1.39-.41.52-.7.82-2.22-2-4.73-2.78-7.6-1.76-2.63.93-4.53,3.54-4.64,6.32.95.31,1.94.11,2.91.14.99.04,1.99,0,2.99,0s1.97,0,2.92,0c.17.5-.04.8-.26,1.15H4.93c-.75-3.07,1.3-6.48,5.33-8.85-1.56-1.31-2.48-2.9-2.25-4.98.15-1.33.73-2.43,1.72-3.31,2.03-1.8,5.12-1.72,7.05.2,1.17,1.17,1.67,2.59,1.52,4.24-.15,1.59-1.02,2.8-2.32,3.89ZM17.13,32.16c.01-2.19-1.71-3.96-3.89-4.01-2.24-.04-4.05,1.72-4.06,3.96-.01,2.21,1.7,3.96,3.89,3.99,2.27.03,4.05-1.69,4.06-3.94Z"/>
  <path class="cls-1" d="M14.21,8.62c-.03.39-.1.69-.28.96-.24.09-.38-.07-.53-.18-1.84-1.28-3.84-1.7-6.03-1.17-4.06.99-6.46,5.18-5.27,9.18,1.17,3.94,5.41,6.14,9.33,4.84.26-.09.52-.18.73-.25.96.2,1.17,1.22,2.06,1.67-.15-.85-.28-1.56-.43-2.33.27-.92,1.19-1.39,1.58-2.24.48.25.55.62.75.87-.2.65-.75.99-1.06,1.57.35,1.47.7,2.97,1.02,4.32-.19.47-.41.59-.8.57-.96-1.03-1.96-2.11-2.94-3.17-2.76.88-5.25.76-7.58-.63-1.67-.99-2.86-2.4-3.57-4.21-1.42-3.61-.2-7.74,2.96-10.01,3.58-2.56,8-1.7,10.05.21Z"/>
  <path class="cls-1" d="M45.71,22.86c-.08-.71-.44-1.37-.41-1.99.12-.53.45-.78.71-1.08,2.15-2.49,2.51-5.81.93-8.57-1.58-2.76-4.58-4.1-7.86-3.5-.19.04-.39.05-.54.07-.37-.2-.4-.54-.53-.89.71-.52,1.56-.53,2.37-.53,3.55,0,6.27,1.55,7.83,4.75,1.75,3.59.98,6.9-1.64,9.89.21,1.56.86,3.09.99,4.57-.29.35-.5.42-.64.4-1.12-1.08-2.18-2.1-3.24-3.13-2.98.91-5.71.67-8.17-1.21.14-.42.37-.63.72-.85,2.32,1.51,4.83,1.86,7.39.75.84.2,1.16.93,1.74,1.34.05.19.17.3.36.34.15-.12.12-.24,0-.36Z"/>
  <path class="cls-1" d="M9.32,12.26c.24-.1.46-.21.68-.28,1.21-.41,2.38-.06,3.07.92.7.99.68,2.24-.15,3.2-1.12,1.29-2.31,2.51-3.42,3.71-.44.08-.56-.23-.74-.41-.93-.98-1.81-2.01-2.78-2.96-1.19-1.16-1.04-2.74-.4-3.58.81-1.06,1.95-1.31,3.42-.72.07.03.15.06.32.12ZM6.3,13.25c-.55.54-.6,1.15-.26,1.82.86,1.43,2.14,2.48,3.28,3.76,1.06-1.14,2.03-2.14,2.94-3.18.71-.81.68-1.77.01-2.48-.63-.68-1.52-.77-2.38-.24-.2.12-.37.28-.53.39-.44-.1-1.63-1.18-3.06-.07Z"/>
  <path class="cls-1" d="M40.74,15.58c-.68-.32-1.36.02-1.93-.27-.19-.31-.02-.54.06-.81.58-.29,1.22,0,1.82-.27.3-1.01-.08-2.11.21-3.07.25-.28.46-.29.76-.11.4.97-.04,2.08.28,3.15,1.07.47,2.35-.23,3.37.46-.04.75-.49.75-.94.76-.79.03-1.59-.08-2.41.08-.31,1.05,0,2.15-.22,3.12-.31.28-.55.3-.85.02-.23-.96,0-2.01-.15-3.08Z"/>
  <path class="cls-1" d="M28.51,9.56c1.13-.61,2.25-.32,3.3-.3.23.44.15.73-.18.77-.98.11-1.97.19-3-.14v1.71c.62.18,1.26.06,1.89.1,1.01.07,1.22.24,1.58,1.29-.4,1.47-.58,2.99-.83,4.5-.15.9-.48,1.31-1.38,1.32-1.71.03-3.43.01-5.14,0-.2,0-.39-.06-.36-.03-.45-.42-.44-.75-.44-1.06,0-1.28.02-2.55-.01-3.83-.02-.73.32-1.31.69-1.87.53-.81,1-1.63.88-2.66-.12-1.03,1-1.64,2.03-.96.41.27.64.7.97,1.15ZM26.63,9.22c-.15.1-.18.27-.16.42.1,1.02-.35,1.84-.87,2.66-.25.4-.59.78-.65,1.26-.2,1.41-.12,2.82.07,4.23h5.13c.26-.4-.14-.67-.01-.99.05-.28.41-.39.39-.77-.44-.53-.08-.98.28-1.37,0-.34-.29-.54-.18-.86-.03-.36.52-.49.36-1.02-1.15-.36-2.45.14-3.64-.27.4-2.78.38-2.9-.71-3.29Z"/>
  <path class="cls-1" d="M21.13,17.73c.41.17.79.17,1.24,0,.13-1.25.05-2.51.06-3.74-.46-.27-.85-.17-1.19-.14-.35.32-.13.73-.3,1.06-.23.23-.48.2-.82,0-.08-.58-.17-1.19.16-1.76,1.05-.47,2.07-.44,3.04.1.14,1.68.1,3.41.02,5.2-1.02.57-2,.39-3,.21-.47-1-.22-1.96-.25-2.86.25-.28.5-.3.83-.13.27.63-.06,1.39.21,2.05Z"/>
  <path class="cls-1" d="M26.47,4.43c.19-.1.37-.09.65.19-.05.91.31,1.96-.3,3.02-.68-.66-.78-2.01-.35-3.21Z"/>
  <path class="cls-1" d="M22.8,5.85c1.19-.08,1.5.91,2.13,1.39.3.23.61.56.2.98-.85-.22-1.86-1.2-2.33-2.38Z"/>
  <path class="cls-1" d="M28.45,8.4c-.6-.6-.28-.92.02-1.16.62-.49.94-1.46,2.22-1.38-.54,1.21-1.4,1.82-2.24,2.54Z"/>
  <path class="cls-1" d="M24.33,9.21c.24.28.27.42.21.61-.3.42-.78.31-1.18.26-.66-.09-1.5.4-2.06-.62,1.06-.47,2.07-.17,3.02-.25Z"/>
</svg>