<?xml version="1.0" encoding="UTF-8"?>
<svg id="Layer_1" data-name="Layer 1" xmlns="http://www.w3.org/2000/svg" viewBox="0 0 50 50">
  <defs>
    <style>
      .cls-1 {
        fill: none;
        stroke: #606060;
        stroke-miterlimit: 10;
        stroke-width: .2px;
      }
    </style>
  </defs>
  <path class="cls-1" d="M7.73,43.33h4.95c.17-.84.21-6.21.06-7.7h-2.17c1.56-2.64,3.14-5.08,4.69-7.54.58.53,3.91,5.71,4.79,7.45h-1.96c-.24.8-.29,6.42-.09,7.78h4.35c.18-.79.25-13.5.08-15.42-.68-.03-1.38-.06-2.17-.1,1.6-2.55,3.15-5.02,4.78-7.61,1.63,2.6,3.18,5.07,4.8,7.65h-2.12c-.18.86-.23,14-.06,15.5,1.51.05,3.03.02,4.53.03.18-.85.23-29.35.06-30.99h-2.28c1.61-2.58,3.14-5.02,4.75-7.59,1.59,2.54,3.13,5,4.74,7.56h-2.16c-.08.1-.11.12-.13.15-.02.03-.05.06-.05.09-.01,10-.02,20-.03,29.99,0,.21.02.42.03.62.76.2,3.78.25,5.23.09.15-.81.2-25.53.04-27.02h-2.7v-1.93c1.2,0,2.37,0,3.55,0,.35,0,.7,0,1.09,0v30.87H5.81s-.02-.01-.04-.04c-.02-.03-.06-.06-.06-.09-.01-9.39-.02-18.78-.03-28.17,0-.82,0-1.64,0-2.52h24.06c.01.29.03.56.04.84,0,.29,0,.57,0,.91-.94.18-1.87.07-2.78.09-.93.02-1.86,0-2.8,0H7.6c0,9.02,0,17.93,0,26.84,0,.09.08.18.12.25Z"/>
</svg>