<?xml version="1.0" encoding="UTF-8"?>
<svg id="Layer_1" data-name="Layer 1" xmlns="http://www.w3.org/2000/svg" viewBox="0 0 50 50">
  <defs>
    <style>
      .cls-1 {
        fill: none;
        stroke: #606060;
        stroke-miterlimit: 10;
        stroke-width: .2px;
      }
    </style>
  </defs>
  <path class="cls-1" d="M12.59,36.02c-.23,0-.45,0-.68,0-3.26,0-6.51,0-9.77,0-.86,0-.98-.12-.98-.99,0-6.68,0-13.36,0-20.04,0-.15-.01-.3,0-.44.05-.33.23-.54.58-.54.19,0,.38,0,.57,0,10.57,0,21.14,0,31.7,0h.79c.45-.48.94-1.01,1.44-1.51,2-2.01,4-4.02,6.01-6.03.12-.12.23-.26.37-.34.25-.15.53-.17.75.06.22.23.22.5.03.75-.1.13-.23.25-.34.37-6.08,6.1-12.17,12.2-18.25,18.3-5.93,5.95-11.87,11.9-17.8,17.85-.15.15-.29.31-.46.43-.23.16-.49.15-.7-.04-.23-.21-.27-.48-.09-.74.12-.17.27-.32.42-.47,2.05-2.05,4.09-4.11,6.14-6.16.1-.1.19-.21.29-.32,0-.05-.02-.09-.03-.14ZM31.2,17.4c-7.16,0-14.26,0-21.36.07-.44,3.01-1.5,5.48-4.74,6.37v2.32c2.96,1.02,3.77,2.1,4.76,6.35h6.19c1.35-1.31,2.6-2.52,3.86-3.73-.11-.21-.22-.41-.31-.63-1.16-2.71-.99-5.31.85-7.65,1.98-2.53,5.34-2.75,7.72-.59.11.1.22.18.28.23.91-.91,1.79-1.8,2.75-2.76ZM2.37,15.17v19.67h11.58c.33-.33.66-.66,1.07-1.08-.3-.02-.45-.03-.59-.03-1.53,0-3.07,0-4.6,0-.17,0-.34,0-.5,0-.46-.04-.62-.21-.66-.67,0-.1,0-.21-.01-.31-.11-1.5-.52-2.89-1.52-4.06-.67-.78-1.49-1.28-2.54-1.35-.52-.04-.67-.21-.67-.78,0-1.03,0-2.06,0-3.09,0-.58.14-.72.74-.78.85-.08,1.57-.44,2.18-1.02.54-.52.93-1.13,1.23-1.81.39-.9.56-1.84.6-2.82.03-.55.18-.71.72-.73.1,0,.21,0,.32,0,7.37,0,14.75-.02,22.12-.03.21,0,.42,0,.65,0,.33-.34.65-.68,1.05-1.09H2.37ZM27.64,21.06c-.16-.16-.31-.34-.48-.48-1.72-1.45-4.08-1.27-5.64.43-1.53,1.67-1.93,4.38-.96,6.47.07.14.17.26.22.35,2.29-2.27,4.55-4.5,6.86-6.78Z"/>
  <path class="cls-1" d="M47.63,18.92c-.27,0-.52,0-.76,0-3.44,0-6.89,0-10.33,0-.21,0-.42,0-.63-.01-.32-.03-.5-.22-.5-.54,0-.31.17-.51.48-.56.14-.02.29-.01.44-.01,3.86,0,7.73,0,11.59,0,.79,0,.92.13.92.91,0,6.74,0,13.48,0,20.23,0,.74-.14.88-.88.88-10.84,0-21.68,0-32.51,0-.13,0-.25,0-.38-.01-.31-.06-.48-.25-.48-.57,0-.32.19-.51.5-.54.23-.02.46-.02.69-.02,10.33,0,20.67,0,31,0,.27,0,.54,0,.79,0,.15-.5.2-18.75.05-19.74Z"/>
  <path class="cls-1" d="M41.25,20.22c.11.8.16,1.47.29,2.13.21,1.09.68,2.07,1.44,2.9.65.7,1.43,1.15,2.41,1.23.56.04.68.19.69.76,0,1.05,0,2.1,0,3.15,0,.55-.14.7-.7.74-.95.08-1.72.5-2.36,1.19-.97,1.04-1.44,2.3-1.6,3.69-.05.41-.07.83-.1,1.16-.28.39-.6.36-.92.36-2.31,0-4.62.02-6.93.02-5.19,0-10.38,0-15.56.01-.19,0-.38.01-.57-.02-.31-.05-.47-.26-.46-.58,0-.29.16-.48.45-.52.19-.03.38-.02.57-.02,3.82,0,7.64,0,11.47-.02,3.42-.01,6.85-.03,10.27-.05.17,0,.33,0,.55,0,.05-.29.1-.55.14-.82.17-1.09.52-2.12,1.11-3.05.81-1.28,1.92-2.15,3.46-2.47v-2.37c-3.18-.86-4.28-3.33-4.71-6.36-.22,0-.45-.03-.67-.03-1.79,0-3.57,0-5.36,0-.17,0-.34,0-.5-.02-.37-.06-.55-.26-.54-.58,0-.32.19-.52.55-.57.08-.01.17,0,.25,0,2.18,0,4.37,0,6.55,0,.26,0,.51.09.78.13Z"/>
  <path class="cls-1" d="M21.87,32.19c.24.27.46.53.69.76,1.67,1.67,4.13,1.66,5.79-.02,1.82-1.84,2.15-4.91.78-7.23-.1-.16-.22-.31-.28-.49-.11-.28-.08-.55.2-.72.26-.15.53-.11.74.12.07.08.13.17.19.25,1.81,2.67,1.42,6.69-.87,8.94-2.3,2.26-5.9,1.99-7.85-.57-.19-.25-.32-.5-.19-.81.1-.24.28-.29.8-.24Z"/>
  <path class="cls-1" d="M47.22,35.14c0,.8-.18,1.55-.63,2.21-.83,1.21-2.29,1.22-3.15.03-.86-1.19-.85-3.27.02-4.45.85-1.16,2.28-1.15,3.11.02.47.65.64,1.4.65,2.19ZM43.94,35.15c0,.56.11,1.09.44,1.55.38.53.83.53,1.23.02.6-.77.61-2.3.02-3.09-.41-.54-.87-.54-1.27.03-.31.45-.42.95-.42,1.49Z"/>
  <path class="cls-1" d="M7.23,18.61c-.03.8-.18,1.56-.64,2.22-.83,1.2-2.3,1.21-3.15.03-.87-1.21-.86-3.26.02-4.45.85-1.16,2.28-1.15,3.12.03.47.66.62,1.41.66,2.18ZM6.06,18.66c.01-.57-.09-1.1-.43-1.56-.38-.53-.84-.53-1.23-.02-.59.77-.6,2.31-.01,3.09.41.54.87.54,1.27-.03.31-.45.42-.95.41-1.48Z"/>
</svg>