<?xml version="1.0" encoding="UTF-8"?>
<svg id="Layer_1" data-name="Layer 1" xmlns="http://www.w3.org/2000/svg" viewBox="0 0 50 50">
  <defs>
    <style>
      .cls-1 {
        fill: none;
        stroke: #606060;
        stroke-miterlimit: 10;
        stroke-width: .2px;
      }
    </style>
  </defs>
  <path class="cls-1" d="M18.92,45.4c.18-1.06.36-2.08.53-3.11.13-.78.26-1.56.41-2.34.04-.23,0-.37-.17-.52-1.27-1.22-2.53-2.46-3.79-3.69-.32-.31-.42-.64-.2-.91.16-.19.43-.34.67-.38,1.74-.28,3.49-.52,5.23-.79.14-.02.32-.15.38-.28.79-1.56,1.56-3.13,2.33-4.71.15-.31.33-.55.7-.56.39,0,.58.25.73.57.75,1.53,1.51,3.05,2.25,4.59.13.28.3.4.6.44,1.69.23,3.37.48,5.06.72.33.05.63.14.75.5.12.36-.04.61-.29.85-1.25,1.21-2.49,2.43-3.74,3.64-.17.16-.23.31-.19.55.31,1.72.59,3.45.89,5.18.06.33.03.62-.24.83-.29.22-.59.15-.9-.01-1.55-.82-3.1-1.63-4.65-2.45-.2-.11-.35-.1-.55,0-1.56.83-3.12,1.65-4.68,2.46-.47.25-.9.13-1.08-.29-.04-.1-.05-.2-.07-.28ZM17.81,35.63c.13.14.22.23.31.32.96.93,1.91,1.88,2.88,2.8.29.28.39.57.32.95-.16.88-.31,1.77-.46,2.66-.1.56-.19,1.13-.29,1.75.17-.08.28-.13.38-.19,1.19-.63,2.39-1.25,3.58-1.89.35-.19.65-.19,1,0,1.21.65,2.43,1.28,3.64,1.92.09.05.18.08.31.14-.02-.16-.03-.26-.05-.37-.22-1.29-.43-2.59-.68-3.88-.09-.48,0-.83.36-1.17.95-.89,1.87-1.81,2.81-2.72.09-.09.18-.19.31-.33-1.53-.22-2.98-.44-4.43-.64-.38-.05-.62-.22-.79-.57-.59-1.21-1.19-2.42-1.79-3.63-.06-.11-.12-.22-.2-.37-.07.12-.12.2-.16.28-.61,1.23-1.23,2.46-1.82,3.69-.18.37-.43.56-.84.6-.69.08-1.38.19-2.07.3-.76.11-1.51.22-2.32.34Z"/>
  <path class="cls-1" d="M25.02,17.6c-3.7,0-6.67-2.98-6.67-6.67,0-3.69,2.99-6.66,6.68-6.66,3.69,0,6.66,2.99,6.65,6.69,0,3.68-2.98,6.64-6.67,6.64ZM30.53,11.11c.09-2.98-2.24-5.55-5.32-5.69-2.96-.14-5.55,2.24-5.71,5.3-.16,3.01,2.21,5.6,5.33,5.72,3.08.12,5.59-2.29,5.7-5.33Z"/>
  <path class="cls-1" d="M37.06,33.92c.17-.97.28-1.97.52-2.94.18-.73.07-1.25-.54-1.74-.73-.59-1.36-1.31-2.05-1.96-.24-.23-.38-.49-.27-.82.11-.34.38-.45.71-.5,1.17-.16,2.34-.33,3.51-.51.15-.02.34-.17.41-.31.53-1.04,1.05-2.09,1.56-3.15.15-.31.35-.54.72-.53.36,0,.54.23.68.53.51,1.05,1.04,2.1,1.55,3.15.1.21.23.29.45.32,1.18.16,2.37.34,3.55.51.31.04.54.19.64.49.1.3,0,.55-.23.77-.86.83-1.71,1.67-2.57,2.5-.17.16-.22.31-.17.56.22,1.15.4,2.31.6,3.46.06.33.03.62-.27.82-.29.2-.58.13-.87-.02-1.04-.55-2.09-1.1-3.14-1.66-.17-.09-.31-.1-.49,0-1.07.58-2.15,1.14-3.23,1.7-.54.28-1.09-.06-1.07-.66ZM46.17,27.12c-.76-.11-1.59-.25-2.42-.34-.49-.05-.79-.26-.99-.72-.34-.77-.74-1.52-1.14-2.33-.08.15-.14.25-.19.36-.35.71-.71,1.42-1.05,2.13-.15.31-.36.47-.7.52-.61.08-1.22.17-1.83.26-.29.04-.59.09-.8.13.61.65,1.21,1.32,1.84,1.96.24.24.34.5.28.83-.07.37-.13.75-.19,1.12-.09.53-.17,1.05-.27,1.66.87-.45,1.65-.86,2.43-1.28.34-.18.64-.18.97,0,.66.37,1.34.71,2.01,1.06.12.06.24.11.42.19-.16-.93-.29-1.79-.46-2.65-.08-.41.03-.69.32-.98.61-.62,1.2-1.27,1.79-1.91Z"/>
  <path class="cls-1" d="M3.89,33.9c.19-1.09.36-2.21.58-3.33.09-.45.01-.76-.34-1.07-.77-.7-1.5-1.45-2.25-2.17-.26-.25-.47-.51-.34-.9.13-.37.44-.45.79-.5,1.15-.16,2.3-.32,3.44-.51.14-.02.32-.16.38-.29.53-1.04,1.05-2.09,1.56-3.15.15-.31.33-.55.71-.55.37,0,.56.23.71.54.51,1.04,1.03,2.08,1.53,3.12.1.22.24.31.48.35,1.17.16,2.34.33,3.51.5.32.05.57.18.66.5.09.3-.01.55-.24.77-.86.83-1.71,1.67-2.57,2.5-.16.16-.21.3-.17.53.21,1.16.4,2.33.6,3.5.05.31.02.59-.25.79-.28.21-.57.16-.86,0-1.04-.55-2.1-1.1-3.14-1.66-.19-.1-.33-.11-.52,0-1.06.57-2.13,1.13-3.2,1.69-.56.29-1.12-.05-1.09-.66ZM11.3,32.67c0-.09.02-.13.01-.16-.13-.77-.24-1.54-.4-2.31-.11-.52-.05-.93.39-1.26.21-.16.38-.36.56-.54.41-.41.81-.82,1.24-1.25-.15-.03-.26-.06-.38-.08-.74-.11-1.47-.22-2.21-.31-.45-.05-.73-.25-.91-.66-.31-.69-.66-1.36-1-2.04-.05-.1-.11-.19-.19-.33-.3.61-.58,1.18-.86,1.74-.69,1.38-.36,1.15-1.93,1.38-.61.09-1.23.18-1.9.28.13.13.21.22.29.3.57.55,1.13,1.11,1.7,1.66.24.23.33.48.26.8-.07.38-.13.77-.2,1.15-.09.52-.17,1.04-.27,1.63.84-.44,1.61-.81,2.36-1.24.4-.23.74-.21,1.13,0,.74.41,1.5.8,2.3,1.21Z"/>
  <path class="cls-1" d="M15.1,8.8c0,2.7-2.18,4.86-4.89,4.86-2.69,0-4.87-2.18-4.87-4.86,0-2.7,2.18-4.89,4.87-4.9,2.71,0,4.89,2.18,4.89,4.9ZM10.22,5.05c-2.04,0-3.72,1.68-3.72,3.72,0,2.05,1.66,3.72,3.72,3.73,2.06,0,3.75-1.68,3.74-3.73,0-2.05-1.69-3.72-3.73-3.72Z"/>
  <path class="cls-1" d="M34.93,8.77c0-2.7,2.2-4.88,4.89-4.88,2.69,0,4.88,2.2,4.87,4.89,0,2.7-2.19,4.87-4.89,4.86-2.71,0-4.88-2.18-4.87-4.88ZM39.82,5.05c-2.04,0-3.73,1.67-3.73,3.71,0,2.05,1.66,3.72,3.71,3.74,2.06.01,3.75-1.67,3.75-3.73,0-2.04-1.68-3.72-3.72-3.73Z"/>
  <path class="cls-1" d="M35.64,22.5c-.14.17-.25.36-.41.47-.2.14-.44.08-.62-.09-.19-.17-.36-.36-.55-.53-1.28-1.12-2.8-1.78-4.42-2.22-.09-.02-.21,0-.3.04-2.87,1.28-5.75,1.28-8.62,0-.09-.04-.21-.07-.3-.05-1.53.42-2.98,1.03-4.22,2.05-.24.2-.46.43-.69.64-.28.27-.62.29-.86.04-.23-.23-.23-.57.03-.84,1.08-1.15,2.41-1.94,3.87-2.49.58-.22,1.19-.41,1.79-.56.21-.05.48-.02.67.07,2.69,1.27,5.37,1.27,8.05,0,.17-.08.39-.14.56-.1,1.82.43,3.52,1.14,4.98,2.34.28.23.54.48.79.75.11.11.16.28.27.48Z"/>
  <path class="cls-1" d="M1.4,20.94c.04-.66.03-1.34.13-1.99.18-1.19.82-2.14,1.73-2.92,1.08-.92,2.35-1.44,3.7-1.77.14-.03.32,0,.45.07,1.87.89,3.74.9,5.61,0,.13-.06.31-.1.45-.07,1.27.3,2.46.79,3.5,1.61.12.1.23.25.28.4.07.25-.02.47-.25.6-.23.14-.47.12-.68-.05-.78-.62-1.67-1.03-2.62-1.29-.16-.05-.37-.04-.53.03-1.97.81-3.92.81-5.89,0-.15-.06-.35-.08-.5-.03-1.16.33-2.24.83-3.1,1.72-.71.73-1.08,1.6-1.08,2.62,0,.85,0,1.71,0,2.56,0,.48-.42.76-.81.58-.24-.11-.34-.31-.34-.57,0-.49,0-.98,0-1.47h-.04Z"/>
  <path class="cls-1" d="M48.59,20.99c0,.46,0,.92,0,1.38,0,.4-.22.65-.55.66-.36,0-.6-.26-.6-.68,0-.8-.01-1.61,0-2.41.02-1.17-.44-2.13-1.29-2.91-.86-.79-1.89-1.24-3-1.56-.1-.03-.23,0-.33.04-2.01.86-4.01.86-6.02,0-.11-.05-.27-.05-.39-.02-.96.27-1.86.67-2.65,1.29-.31.24-.65.21-.86-.05-.21-.26-.15-.62.16-.87,1.04-.82,2.25-1.31,3.52-1.61.13-.03.3.01.42.07,1.88.9,3.76.9,5.64,0,.12-.06.29-.09.42-.06,1.53.37,2.94.98,4.07,2.11.98.97,1.47,2.15,1.47,3.54,0,.36,0,.73,0,1.09h0Z"/>
</svg>