<?xml version="1.0" encoding="UTF-8"?>
<svg id="Layer_1" data-name="Layer 1" xmlns="http://www.w3.org/2000/svg" viewBox="0 0 50 50">
  <defs>
    <style>
      .cls-1 {
        fill: none;
        stroke: #606060;
        stroke-miterlimit: 10;
        stroke-width: .2px;
      }
    </style>
  </defs>
  <path class="cls-1" d="M36.29,18.41c.06,5.33-4.23,10.54-10.58,10.53-6.19-.01-10.59-5.07-10.54-10.64.04-5.84,4.79-10.56,10.68-10.5,6.03.06,10.54,5.05,10.44,10.61ZM27.1,24.05c.26-.08.45-.12.63-.18.55-.17,1.05-.43,1.5-.8,1.51-1.24,1.69-3.95-.32-5.17-.32-.2-.66-.38-1.01-.53-.5-.22-1.03-.39-1.53-.62-.33-.15-.65-.32-.93-.55-.51-.42-.43-1.11.17-1.4.23-.11.51-.17.77-.19.87-.07,1.7.08,2.51.41.13.05.27.09.45.15.19-.72.36-1.39.54-2.08-.2-.09-.35-.19-.51-.23-.7-.17-1.4-.33-2.17-.51v-1.52c-.64.03-1.22-.05-1.86.06,0,.3,0,.59,0,.87,0,.28,0,.56,0,.83-.77.18-1.43.46-2,.93-1.32,1.11-1.64,3.46.16,4.73.48.34,1.02.57,1.56.82.39.18.83.29,1.22.47.31.14.62.31.87.53.57.5.45,1.32-.24,1.65-.23.11-.51.17-.77.19-1.01.09-1.97-.11-2.89-.51-.17-.07-.34-.14-.56-.23-.19.76-.37,1.45-.55,2.16.97.56,2.02.7,3.12.84v1.71c.64.02,1.22.04,1.85,0v-1.83Z"/>
  <path class="cls-1" d="M30.44,39.36c-.04-1.14-.07-2.27-.11-3.38,1.19-.49,2.35-.93,3.49-1.45,1.15-.52,2.18-1.23,3.17-2.01.99-.78,1.87-1.66,2.69-2.6.05.03.07.04.08.05,0,.01.01.04,0,.04-4.04,4.78-8.07,9.56-12.14,14.37v4.51c-.45.12-3.27.14-3.86.03v-4.56c-3.64-4.3-7.26-8.58-10.89-12.87,2.34,2.06,4.96,3.56,7.97,4.37,1.18.32,2.72.57,3.29.52-.05-1.51-.09-3.02-.14-4.58-1.91-.3-3.7-.84-5.4-1.87.18-.01.28-.03.39-.03,1.52,0,3.04,0,4.57,0,.23,0,.46,0,.68.04,1,.14,2.01.14,3.01,0,.05,0,.11,0,.26,0-1.12,1.21-2.2,2.37-3.31,3.56,2.05,1.98,4.09,3.94,6.12,5.9.04-.02.09-.04.13-.06Z"/>
  <path class="cls-1" d="M29.21,36.81c-1.21-1.16-2.32-2.24-3.47-3.34,1.09-1.16,2.14-2.28,3.24-3.47.03.18.06.3.06.42.02.55.02,1.1.04,1.65,0,.15.03.29.05.44,7.39-1.58,13.56-9.94,10.48-19.2.65-.41,1.31-.82,1.97-1.23.99,1.84,1.65,6.04.85,9.66-.73,3.32-2.26,6.2-4.67,8.6-2.39,2.39-5.26,3.9-8.55,4.65v1.81Z"/>
  <path class="cls-1" d="M9.23,12.92c-.66-.36-1.31-.71-2.02-1.1,1.57-.45,3.09-.89,4.66-1.34.46,1.52.91,3,1.39,4.57-.66-.35-1.22-.64-1.79-.94-1.11,2.77-1,7.8,1.53,11.84,2.3,3.67,5.62,5.9,9.89,6.82.03.78.05,1.55.08,2.32-1.79.24-6.46-1.92-8.84-4.08-2.5-2.27-4.21-5.03-5.1-8.28-.89-3.27-.81-6.54.2-9.82Z"/>
  <path class="cls-1" d="M38.09,6.34c.59-.36,1.16-.7,1.81-1.1-.4,1.61-.78,3.14-1.17,4.71-1.55-.36-3.06-.71-4.65-1.08.67-.42,1.26-.8,1.85-1.17-1.88-2.22-6.23-4.59-11.07-4.29-4.28.27-7.8,2.07-10.65,5.31-.36-.19-.71-.37-1.06-.55-.34-.18-.67-.36-1-.54.81-1.78,4.75-4.62,7.84-5.67,3.17-1.08,6.4-1.25,9.66-.47,3.28.78,6.08,2.43,8.45,4.86Z"/>
  <path class="cls-1" d="M30.19,31.03c-.01-.15-.03-.3-.04-.44,0-.2,0-.41,0-.64h2.35c-.45.38-1.61.93-2.31,1.08Z"/>
</svg>