<?xml version="1.0" encoding="UTF-8"?>
<svg id="Layer_1" data-name="Layer 1" xmlns="http://www.w3.org/2000/svg" viewBox="0 0 50 50">
  <defs>
    <style>
      .cls-1 {
        fill: none;
        stroke: #606060;
        stroke-miterlimit: 10;
        stroke-width: .2px;
      }
    </style>
  </defs>
  <g>
    <path class="cls-1" d="M43.52,30.83c-.08,10.16-8.42,18.37-18.6,18.32-10.37-.05-18.52-8.52-18.45-18.63.07-10.43,8.62-18.51,18.67-18.43,10.3.08,18.53,8.56,18.38,18.74ZM41.81,30.62c0-9.31-7.57-16.84-16.93-16.82-9.12.02-16.68,7.59-16.7,16.75-.01,9.29,7.44,16.82,16.67,16.87,9.4.05,16.95-7.47,16.95-16.8Z"/>
    <path class="cls-1" d="M25,33.19c2.45,0,4.89,0,7.34,0,.69,0,1.02.34.99,1.03-.18,4.24-3.6,7.69-7.87,7.92-4.37.23-8.17-2.92-8.73-7.25-.03-.25-.05-.49-.06-.74-.02-.59.33-.95.91-.95,2.47,0,4.94,0,7.41,0ZM18.51,34.91c.32,2.7,2.98,5.74,6.88,5.52,1.93-.11,3.52-.95,4.75-2.44.74-.89,1.2-1.91,1.38-3.08h-13.02Z"/>
    <path class="cls-1" d="M35.03,24.85c0,1.8-1.46,3.25-3.26,3.24-1.8-.01-3.22-1.47-3.21-3.28,0-1.76,1.47-3.2,3.24-3.2,1.78,0,3.23,1.46,3.23,3.24ZM31.79,26.36c.84,0,1.52-.67,1.53-1.5,0-.83-.67-1.53-1.5-1.53-.84,0-1.53.66-1.54,1.49,0,.85.67,1.54,1.51,1.54Z"/>
    <path class="cls-1" d="M21.44,24.85c-.01,1.81-1.48,3.26-3.26,3.23-1.8-.03-3.23-1.48-3.21-3.26.02-1.8,1.48-3.25,3.27-3.22,1.78.02,3.21,1.48,3.2,3.25ZM18.22,26.36c.83,0,1.51-.68,1.51-1.52,0-.84-.68-1.52-1.54-1.51-.83,0-1.5.69-1.5,1.53,0,.83.69,1.5,1.53,1.5Z"/>
  </g>
  <g>
    <path class="cls-1" d="M44.61,10.03c.08,0,.13.02.18.02.32.03.56.29.56.61,0,.11-.03.22-.11.29-.14.12-.27.24-.43.33-.48.28-1,.46-1.53.61-.76.21-1.52.41-2.28.59-.65.15-1.3.27-1.95.41-.04,0-.08,0-.15.01-.55-1.32-1.1-2.63-1.66-3.97.06-.06.11-.12.17-.18.7-.62,1.27-1.35,1.58-2.24.28-.77.26-1.56-.05-2.33-.13-.32.01-.67.31-.83.19-.1.37-.08.56.01.22.12.36.31.49.51.46.67.76,1.41.91,2.21.03.14.03.29.05.43,0,.04.02.08.03.14.25-.11.49-.2.73-.3.48-.2.96-.41,1.44-.6.61-.25,1.09.25,1.06.7-.02.29-.15.51-.41.65-.05.03-.11.06-.17.11.4,0,.71.13.83.53.05.18.05.38-.08.54-.11.13-.26.24-.4.38.07,0,.14.02.21.02.3-.02.6.22.64.53.05.37-.14.66-.41.76-.03.01-.05.04-.11.08Z"/>
    <path class="cls-1" d="M38.02,14.33c.38-.16.74-.31,1.1-.46,1.78.75,3.57.76,5.31-.1,1.7-.84,2.8-2.22,3.27-4.06.86-3.42-1.33-6.98-5.03-7.61-1.25-.21-2.46-.04-3.62.51-1.16.55-2.06,1.38-2.71,2.48-.65,1.1-.91,2.29-.84,3.56-.3.13-.58.25-.89.38-.02-.1-.04-.19-.04-.28,0-.35-.02-.71,0-1.06.03-.47.12-.93.24-1.38.26-.95.7-1.81,1.32-2.56.74-.91,1.65-1.61,2.74-2.08.56-.24,1.14-.42,1.74-.5.62-.09,1.25-.1,1.88-.03.62.07,1.22.21,1.8.44.46.18.92.4,1.32.69.23.17.46.32.68.5.73.62,1.33,1.36,1.76,2.22.21.42.39.86.51,1.31.11.42.2.84.23,1.28.01.19.04.39.04.58,0,1.66-.52,3.15-1.54,4.46-.3.38-.64.73-1.01,1.04-.72.6-1.51,1.05-2.4,1.34-.89.29-1.79.38-2.72.32-1.06-.07-2.06-.38-2.98-.9-.04-.02-.08-.06-.14-.1Z"/>
    <path class="cls-1" d="M36.59,8.75c.16.03.23.12.28.23.53,1.28,1.07,2.56,1.6,3.84.05.13.11.25.16.38.08.21.04.33-.17.42-.36.16-.73.31-1.1.46-.24.1-.48.2-.72.3-.1.04-.19.06-.33-.04-.63-1.48-1.27-3-1.89-4.51.01-.15.09-.21.2-.26.25-.11.5-.22.76-.32.33-.14.65-.27.98-.41.08-.03.16-.06.23-.09Z"/>
  </g>
</svg>