<?xml version="1.0" encoding="UTF-8"?>
<svg id="Layer_1" data-name="Layer 1" xmlns="http://www.w3.org/2000/svg" viewBox="0 0 50 50">
  <defs>
    <style>
      .cls-1 {
        fill: none;
        stroke: #606060;
        stroke-miterlimit: 10;
        stroke-width: .2px;
      }
    </style>
  </defs>
  <path class="cls-1" d="M26.96,48.42c-.32-.13-.64-.27-.97-.38-3.7-1.31-7.39-2.61-11.09-3.91-.13-.05-.28-.09-.41-.09-.82,0-1.64,0-2.46,0-.05,0-.1.01-.17.02-.01.05-.03.1-.04.15-.14.8-.7,1.28-1.52,1.29-.62,0-1.25,0-1.87,0-2.15,0-4.29,0-6.44,0-.13,0-.25,0-.39,0v-1.45h8.75v-13.17H1.59c-.02-.5-.01-.97,0-1.47.14,0,.26-.02.37-.02,2.68,0,5.36,0,8.04,0,.08,0,.16,0,.23,0,.94.02,1.46.48,1.61,1.47.13,0,.27,0,.4,0,1.74,0,3.49,0,5.23,0,.21,0,.44.04.64.11,2.47.89,4.93,1.79,7.4,2.68.21.08.45.12.68.12,1.99,0,3.98.02,5.97,0,1.67-.01,2.79,1.12,3.02,2.36.05.25.05.51.08.81.55-.17,1.11-.34,1.66-.51,2.74-.85,5.48-1.69,8.22-2.55.3-.09.59-.11.88-.05,1.38.24,2.46,1.52,2.38,2.91-.05.94-.48,1.74-1.34,2.19-5.44,2.85-10.9,5.68-16.35,8.51-.61.32-1.21.65-1.81.97h-1.95ZM11.84,42.55c.13,0,.22.01.31.01.81,0,1.61,0,2.42,0,.2,0,.42.04.61.1,3.77,1.32,7.54,2.65,11.31,3.99.56.2,1.11.32,1.71.29.21-.01.4-.05.59-.15,3.05-1.59,6.11-3.18,9.16-4.77,2.78-1.44,5.55-2.89,8.33-4.33.53-.27.92-1.02.48-1.73-.36-.58-.91-.79-1.56-.59-.36.11-.72.22-1.08.34-3.13.98-6.27,1.96-9.4,2.95-.14.05-.3.1-.41.2-.64.57-1.38.79-2.22.79-2.54-.01-5.07,0-7.61,0-.12,0-.23,0-.35.02-.62.07-1.08.45-1.26,1.06-.04.12-.06.24-.09.36h-1.46c.05-.29.08-.54.15-.79.36-1.25,1.44-2.08,2.78-2.1,1.55-.02,3.1,0,4.64,0,1.12,0,2.24,0,3.36,0,.79,0,1.39-.5,1.51-1.2.16-.97-.52-1.74-1.56-1.74-2.09,0-4.19,0-6.28,0-.22,0-.44-.04-.64-.11-2.48-.9-4.95-1.8-7.43-2.7-.17-.06-.35-.09-.53-.1-1.72,0-3.43,0-5.15,0-.1,0-.2.02-.32.03v10.19Z"/>
  <path class="cls-1" d="M31.8,1.58c.99.5,1.97.99,2.95,1.49.48.24.61.61.39,1.1-.04.09-.09.19-.14.28-.72,1.44-1.44,2.88-2.16,4.32-.06.13-.12.25-.18.38,1.16.97,1.33,1.57.87,3.03.06.03.11.06.17.08,3.18,1.14,5.4,3.32,6.92,6.29.85,1.67,1.35,3.46,1.64,5.3.23,1.47.32,2.95.31,4.43,0,1.68,0,3.36,0,5.03,0,.14,0,.28,0,.45h-1.48c0-.43,0-.83,0-1.23,0-1.85.03-3.7-.02-5.54-.06-2.41-.45-4.76-1.39-6.99-1.02-2.42-2.58-4.38-4.89-5.69-.83-.47-1.71-.82-2.66-.96-.23-.03-.47-.05-.7-.05-1.69,0-3.38.01-5.07,0-1.97-.03-3.7.63-5.25,1.78-1.58,1.17-2.67,2.72-3.43,4.51-.69,1.63-1.07,3.33-1.27,5.08-.16,1.4-.18,2.8-.18,4.21,0,.15,0,.31,0,.51-.26,0-.49.01-.71.02-.23,0-.46,0-.72,0-.01-.13-.03-.23-.03-.32-.01-1.5,0-2.99.17-4.48.28-2.41.84-4.73,2.02-6.87,1.48-2.68,3.62-4.55,6.56-5.48.08-.03.16-.06.24-.09-.39-1.5-.19-2.16.91-2.97-.05-.11-.09-.22-.15-.33-.74-1.48-1.48-2.95-2.22-4.42-.04-.08-.08-.16-.12-.24-.22-.48-.1-.83.36-1.07.58-.3,1.16-.58,1.74-.88.4-.21.79-.42,1.19-.64.18,0,.36,0,.55,0,.08.06.16.12.24.17.51.26,1.02.52,1.53.77.29.14.58.29.87.43.75-.37,1.48-.73,2.21-1.1.16-.08.31-.18.46-.27.16,0,.31,0,.47,0ZM25.74,3.13c-.64.32-1.29.65-1.95.98.81,1.62,1.6,3.2,2.4,4.78h4.95c.79-1.59,1.58-3.17,2.39-4.79-.66-.33-1.29-.65-1.94-.97-.81.4-1.62.79-2.41,1.2-.37.2-.7.19-1.07,0-.78-.41-1.58-.8-2.38-1.2ZM28.65,11.82h0c.91,0,1.82,0,2.73,0,.12,0,.24,0,.35-.01.34-.05.6-.37.6-.72,0-.34-.23-.63-.57-.69-.13-.02-.26-.02-.39-.02-1.78,0-3.56,0-5.34,0-.14,0-.29,0-.43.02-.21.02-.36.14-.47.31-.16.24-.17.49-.04.74.14.26.37.38.67.38.96,0,1.92,0,2.88,0Z"/>
  <path class="cls-1" d="M29.41,30.11h-1.46v-1.53c-1.35-.48-2.11-1.37-2.22-2.84.48-.06.95,0,1.42-.03.04.15.07.29.11.42.2.67.81,1.09,1.51,1.04.66-.04,1.2-.56,1.33-1.23.07-.34-.09-.58-.31-.8-.4-.39-.88-.69-1.38-.94-.36-.18-.73-.35-1.06-.58-.36-.25-.7-.54-1-.86-.68-.72-.78-1.56-.44-2.46.31-.81.88-1.37,1.68-1.7.1-.04.19-.07.33-.12v-1.53h1.45v1.51c.82.28,1.48.73,1.88,1.5.21.41.35.84.31,1.33h-1.42c-.03-.12-.04-.25-.08-.38-.18-.66-.84-1.12-1.51-1.05-.73.07-1.3.63-1.36,1.33-.02.27.12.47.29.65.42.42.92.72,1.44.99.37.19.74.38,1.09.61.45.29.84.65,1.16,1.09.4.56.49,1.17.33,1.82-.25,1-.86,1.7-1.82,2.08-.08.03-.17.07-.29.11v1.54Z"/>
  <path class="cls-1" d="M33.07,24.24v-1.41h1.43v1.41h-1.43Z"/>
  <path class="cls-1" d="M7.45,42.55v-1.42h1.44v1.42h-1.44Z"/>
  <path class="cls-1" d="M24.26,22.84v1.41h-1.42v-1.41h1.42Z"/>
  <path class="cls-1" d="M5.95,41.11v1.43h-1.42v-1.43h1.42Z"/>
</svg>